<svg version="1.1" baseProfile="full" width="6400" height="800" xmlns="http://www.w3.org/2000/svg">
<rect x="0" y="10" width="35" height="8.8889" fill="black" />
<rect x="45" y="10" width="35" height="8.8889" fill="black" />
<rect x="0" y="24.8148" width="35" height="8.8889" fill="black" />
<rect x="45" y="24.8148" width="35" height="8.8889" fill="black" />
<rect x="0" y="39.6296" width="35" height="8.8889" fill="black" />
<rect x="45" y="39.6296" width="35" height="8.8889" fill="black" />
<rect x="0" y="54.4444" width="35" height="8.8889" fill="black" />
<rect x="45" y="54.4444" width="35" height="8.8889" fill="black" />
<rect x="0" y="69.2593" width="35" height="8.8889" fill="black" />
<rect x="45" y="69.2593" width="35" height="8.8889" fill="black" />
<rect x="0" y="84.0741" width="35" height="8.8889" fill="black" />
<rect x="45" y="84.0741" width="35" height="8.8889" fill="black" />
<rect x="97.7778" y="10" width="80" height="8.8889" fill="black" />
<rect x="97.7778" y="24.8148" width="35" height="8.8889" fill="black" />
<rect x="142.7778" y="24.8148" width="35" height="8.8889" fill="black" />
<rect x="97.7778" y="39.6296" width="35" height="8.8889" fill="black" />
<rect x="142.7778" y="39.6296" width="35" height="8.8889" fill="black" />
<rect x="97.7778" y="54.4444" width="35" height="8.8889" fill="black" />
<rect x="142.7778" y="54.4444" width="35" height="8.8889" fill="black" />
<rect x="97.7778" y="69.2593" width="35" height="8.8889" fill="black" />
<rect x="142.7778" y="69.2593" width="35" height="8.8889" fill="black" />
<rect x="97.7778" y="84.0741" width="35" height="8.8889" fill="black" />
<rect x="142.7778" y="84.0741" width="35" height="8.8889" fill="black" />
<rect x="195.5556" y="10" width="35" height="8.8889" fill="black" />
<rect x="240.5556" y="10" width="35" height="8.8889" fill="black" />
<rect x="195.5556" y="24.8148" width="80" height="8.8889" fill="black" />
<rect x="195.5556" y="39.6296" width="35" height="8.8889" fill="black" />
<rect x="240.5556" y="39.6296" width="35" height="8.8889" fill="black" />
<rect x="195.5556" y="54.4444" width="35" height="8.8889" fill="black" />
<rect x="240.5556" y="54.4444" width="35" height="8.8889" fill="black" />
<rect x="195.5556" y="69.2593" width="35" height="8.8889" fill="black" />
<rect x="240.5556" y="69.2593" width="35" height="8.8889" fill="black" />
<rect x="195.5556" y="84.0741" width="35" height="8.8889" fill="black" />
<rect x="240.5556" y="84.0741" width="35" height="8.8889" fill="black" />
<rect x="293.3334" y="10" width="80" height="8.8889" fill="black" />
<rect x="293.3334" y="24.8148" width="80" height="8.8889" fill="black" />
<rect x="293.3334" y="39.6296" width="35" height="8.8889" fill="black" />
<rect x="338.3334" y="39.6296" width="35" height="8.8889" fill="black" />
<rect x="293.3334" y="54.4444" width="35" height="8.8889" fill="black" />
<rect x="338.3334" y="54.4444" width="35" height="8.8889" fill="black" />
<rect x="293.3334" y="69.2593" width="35" height="8.8889" fill="black" />
<rect x="338.3334" y="69.2593" width="35" height="8.8889" fill="black" />
<rect x="293.3334" y="84.0741" width="35" height="8.8889" fill="black" />
<rect x="338.3334" y="84.0741" width="35" height="8.8889" fill="black" />
<rect x="391.1112" y="10" width="35" height="8.8889" fill="black" />
<rect x="436.1112" y="10" width="35" height="8.8889" fill="black" />
<rect x="391.1112" y="24.8148" width="35" height="8.8889" fill="black" />
<rect x="436.1112" y="24.8148" width="35" height="8.8889" fill="black" />
<rect x="391.1112" y="39.6296" width="80" height="8.8889" fill="black" />
<rect x="391.1112" y="54.4444" width="35" height="8.8889" fill="black" />
<rect x="436.1112" y="54.4444" width="35" height="8.8889" fill="black" />
<rect x="391.1112" y="69.2593" width="35" height="8.8889" fill="black" />
<rect x="436.1112" y="69.2593" width="35" height="8.8889" fill="black" />
<rect x="391.1112" y="84.0741" width="35" height="8.8889" fill="black" />
<rect x="436.1112" y="84.0741" width="35" height="8.8889" fill="black" />
<rect x="488.889" y="10" width="80" height="8.8889" fill="black" />
<rect x="488.889" y="24.8148" width="35" height="8.8889" fill="black" />
<rect x="533.889" y="24.8148" width="35" height="8.8889" fill="black" />
<rect x="488.889" y="39.6296" width="80" height="8.8889" fill="black" />
<rect x="488.889" y="54.4444" width="35" height="8.8889" fill="black" />
<rect x="533.889" y="54.4444" width="35" height="8.8889" fill="black" />
<rect x="488.889" y="69.2593" width="35" height="8.8889" fill="black" />
<rect x="533.889" y="69.2593" width="35" height="8.8889" fill="black" />
<rect x="488.889" y="84.0741" width="35" height="8.8889" fill="black" />
<rect x="533.889" y="84.0741" width="35" height="8.8889" fill="black" />
<rect x="586.6668" y="10" width="35" height="8.8889" fill="black" />
<rect x="631.6668" y="10" width="35" height="8.8889" fill="black" />
<rect x="586.6668" y="24.8148" width="80" height="8.8889" fill="black" />
<rect x="586.6668" y="39.6296" width="80" height="8.8889" fill="black" />
<rect x="586.6668" y="54.4444" width="35" height="8.8889" fill="black" />
<rect x="631.6668" y="54.4444" width="35" height="8.8889" fill="black" />
<rect x="586.6668" y="69.2593" width="35" height="8.8889" fill="black" />
<rect x="631.6668" y="69.2593" width="35" height="8.8889" fill="black" />
<rect x="586.6668" y="84.0741" width="35" height="8.8889" fill="black" />
<rect x="631.6668" y="84.0741" width="35" height="8.8889" fill="black" />
<rect x="684.4446" y="10" width="80" height="8.8889" fill="black" />
<rect x="684.4446" y="24.8148" width="80" height="8.8889" fill="black" />
<rect x="684.4446" y="39.6296" width="80" height="8.8889" fill="black" />
<rect x="684.4446" y="54.4444" width="35" height="8.8889" fill="black" />
<rect x="729.4446" y="54.4444" width="35" height="8.8889" fill="black" />
<rect x="684.4446" y="69.2593" width="35" height="8.8889" fill="black" />
<rect x="729.4446" y="69.2593" width="35" height="8.8889" fill="black" />
<rect x="684.4446" y="84.0741" width="35" height="8.8889" fill="black" />
<rect x="729.4446" y="84.0741" width="35" height="8.8889" fill="black" />
<rect x="782.2224" y="10" width="35" height="8.8889" fill="black" />
<rect x="827.2224" y="10" width="35" height="8.8889" fill="black" />
<rect x="782.2224" y="24.8148" width="35" height="8.8889" fill="black" />
<rect x="827.2224" y="24.8148" width="35" height="8.8889" fill="black" />
<rect x="782.2224" y="39.6296" width="35" height="8.8889" fill="black" />
<rect x="827.2224" y="39.6296" width="35" height="8.8889" fill="black" />
<rect x="782.2224" y="54.4444" width="80" height="8.8889" fill="black" />
<rect x="782.2224" y="69.2593" width="35" height="8.8889" fill="black" />
<rect x="827.2224" y="69.2593" width="35" height="8.8889" fill="black" />
<rect x="782.2224" y="84.0741" width="35" height="8.8889" fill="black" />
<rect x="827.2224" y="84.0741" width="35" height="8.8889" fill="black" />
<rect x="880.0002" y="10" width="80" height="8.8889" fill="black" />
<rect x="880.0002" y="24.8148" width="35" height="8.8889" fill="black" />
<rect x="925.0002" y="24.8148" width="35" height="8.8889" fill="black" />
<rect x="880.0002" y="39.6296" width="35" height="8.8889" fill="black" />
<rect x="925.0002" y="39.6296" width="35" height="8.8889" fill="black" />
<rect x="880.0002" y="54.4444" width="80" height="8.8889" fill="black" />
<rect x="880.0002" y="69.2593" width="35" height="8.8889" fill="black" />
<rect x="925.0002" y="69.2593" width="35" height="8.8889" fill="black" />
<rect x="880.0002" y="84.0741" width="35" height="8.8889" fill="black" />
<rect x="925.0002" y="84.0741" width="35" height="8.8889" fill="black" />
<rect x="977.778" y="10" width="35" height="8.8889" fill="black" />
<rect x="1022.778" y="10" width="35" height="8.8889" fill="black" />
<rect x="977.778" y="24.8148" width="80" height="8.8889" fill="black" />
<rect x="977.778" y="39.6296" width="35" height="8.8889" fill="black" />
<rect x="1022.778" y="39.6296" width="35" height="8.8889" fill="black" />
<rect x="977.778" y="54.4444" width="80" height="8.8889" fill="black" />
<rect x="977.778" y="69.2593" width="35" height="8.8889" fill="black" />
<rect x="1022.778" y="69.2593" width="35" height="8.8889" fill="black" />
<rect x="977.778" y="84.0741" width="35" height="8.8889" fill="black" />
<rect x="1022.778" y="84.0741" width="35" height="8.8889" fill="black" />
<rect x="1075.5558" y="10" width="80" height="8.8889" fill="black" />
<rect x="1075.5558" y="24.8148" width="80" height="8.8889" fill="black" />
<rect x="1075.5558" y="39.6296" width="35" height="8.8889" fill="black" />
<rect x="1120.5558" y="39.6296" width="35" height="8.8889" fill="black" />
<rect x="1075.5558" y="54.4444" width="80" height="8.8889" fill="black" />
<rect x="1075.5558" y="69.2593" width="35" height="8.8889" fill="black" />
<rect x="1120.5558" y="69.2593" width="35" height="8.8889" fill="black" />
<rect x="1075.5558" y="84.0741" width="35" height="8.8889" fill="black" />
<rect x="1120.5558" y="84.0741" width="35" height="8.8889" fill="black" />
<rect x="1173.3336" y="10" width="35" height="8.8889" fill="black" />
<rect x="1218.3336" y="10" width="35" height="8.8889" fill="black" />
<rect x="1173.3336" y="24.8148" width="35" height="8.8889" fill="black" />
<rect x="1218.3336" y="24.8148" width="35" height="8.8889" fill="black" />
<rect x="1173.3336" y="39.6296" width="80" height="8.8889" fill="black" />
<rect x="1173.3336" y="54.4444" width="80" height="8.8889" fill="black" />
<rect x="1173.3336" y="69.2593" width="35" height="8.8889" fill="black" />
<rect x="1218.3336" y="69.2593" width="35" height="8.8889" fill="black" />
<rect x="1173.3336" y="84.0741" width="35" height="8.8889" fill="black" />
<rect x="1218.3336" y="84.0741" width="35" height="8.8889" fill="black" />
<rect x="1271.1114" y="10" width="80" height="8.8889" fill="black" />
<rect x="1271.1114" y="24.8148" width="35" height="8.8889" fill="black" />
<rect x="1316.1114" y="24.8148" width="35" height="8.8889" fill="black" />
<rect x="1271.1114" y="39.6296" width="80" height="8.8889" fill="black" />
<rect x="1271.1114" y="54.4444" width="80" height="8.8889" fill="black" />
<rect x="1271.1114" y="69.2593" width="35" height="8.8889" fill="black" />
<rect x="1316.1114" y="69.2593" width="35" height="8.8889" fill="black" />
<rect x="1271.1114" y="84.0741" width="35" height="8.8889" fill="black" />
<rect x="1316.1114" y="84.0741" width="35" height="8.8889" fill="black" />
<rect x="1368.8892" y="10" width="35" height="8.8889" fill="black" />
<rect x="1413.8892" y="10" width="35" height="8.8889" fill="black" />
<rect x="1368.8892" y="24.8148" width="80" height="8.8889" fill="black" />
<rect x="1368.8892" y="39.6296" width="80" height="8.8889" fill="black" />
<rect x="1368.8892" y="54.4444" width="80" height="8.8889" fill="black" />
<rect x="1368.8892" y="69.2593" width="35" height="8.8889" fill="black" />
<rect x="1413.8892" y="69.2593" width="35" height="8.8889" fill="black" />
<rect x="1368.8892" y="84.0741" width="35" height="8.8889" fill="black" />
<rect x="1413.8892" y="84.0741" width="35" height="8.8889" fill="black" />
<rect x="1466.667" y="10" width="80" height="8.8889" fill="black" />
<rect x="1466.667" y="24.8148" width="80" height="8.8889" fill="black" />
<rect x="1466.667" y="39.6296" width="80" height="8.8889" fill="black" />
<rect x="1466.667" y="54.4444" width="80" height="8.8889" fill="black" />
<rect x="1466.667" y="69.2593" width="35" height="8.8889" fill="black" />
<rect x="1511.667" y="69.2593" width="35" height="8.8889" fill="black" />
<rect x="1466.667" y="84.0741" width="35" height="8.8889" fill="black" />
<rect x="1511.667" y="84.0741" width="35" height="8.8889" fill="black" />
<rect x="1564.4448" y="10" width="35" height="8.8889" fill="black" />
<rect x="1609.4448" y="10" width="35" height="8.8889" fill="black" />
<rect x="1564.4448" y="24.8148" width="35" height="8.8889" fill="black" />
<rect x="1609.4448" y="24.8148" width="35" height="8.8889" fill="black" />
<rect x="1564.4448" y="39.6296" width="35" height="8.8889" fill="black" />
<rect x="1609.4448" y="39.6296" width="35" height="8.8889" fill="black" />
<rect x="1564.4448" y="54.4444" width="35" height="8.8889" fill="black" />
<rect x="1609.4448" y="54.4444" width="35" height="8.8889" fill="black" />
<rect x="1564.4448" y="69.2593" width="80" height="8.8889" fill="black" />
<rect x="1564.4448" y="84.0741" width="35" height="8.8889" fill="black" />
<rect x="1609.4448" y="84.0741" width="35" height="8.8889" fill="black" />
<rect x="1662.2226" y="10" width="80" height="8.8889" fill="black" />
<rect x="1662.2226" y="24.8148" width="35" height="8.8889" fill="black" />
<rect x="1707.2226" y="24.8148" width="35" height="8.8889" fill="black" />
<rect x="1662.2226" y="39.6296" width="35" height="8.8889" fill="black" />
<rect x="1707.2226" y="39.6296" width="35" height="8.8889" fill="black" />
<rect x="1662.2226" y="54.4444" width="35" height="8.8889" fill="black" />
<rect x="1707.2226" y="54.4444" width="35" height="8.8889" fill="black" />
<rect x="1662.2226" y="69.2593" width="80" height="8.8889" fill="black" />
<rect x="1662.2226" y="84.0741" width="35" height="8.8889" fill="black" />
<rect x="1707.2226" y="84.0741" width="35" height="8.8889" fill="black" />
<rect x="1760.0004" y="10" width="35" height="8.8889" fill="black" />
<rect x="1805.0004" y="10" width="35" height="8.8889" fill="black" />
<rect x="1760.0004" y="24.8148" width="80" height="8.8889" fill="black" />
<rect x="1760.0004" y="39.6296" width="35" height="8.8889" fill="black" />
<rect x="1805.0004" y="39.6296" width="35" height="8.8889" fill="black" />
<rect x="1760.0004" y="54.4444" width="35" height="8.8889" fill="black" />
<rect x="1805.0004" y="54.4444" width="35" height="8.8889" fill="black" />
<rect x="1760.0004" y="69.2593" width="80" height="8.8889" fill="black" />
<rect x="1760.0004" y="84.0741" width="35" height="8.8889" fill="black" />
<rect x="1805.0004" y="84.0741" width="35" height="8.8889" fill="black" />
<rect x="1857.7782" y="10" width="80" height="8.8889" fill="black" />
<rect x="1857.7782" y="24.8148" width="80" height="8.8889" fill="black" />
<rect x="1857.7782" y="39.6296" width="35" height="8.8889" fill="black" />
<rect x="1902.7782" y="39.6296" width="35" height="8.8889" fill="black" />
<rect x="1857.7782" y="54.4444" width="35" height="8.8889" fill="black" />
<rect x="1902.7782" y="54.4444" width="35" height="8.8889" fill="black" />
<rect x="1857.7782" y="69.2593" width="80" height="8.8889" fill="black" />
<rect x="1857.7782" y="84.0741" width="35" height="8.8889" fill="black" />
<rect x="1902.7782" y="84.0741" width="35" height="8.8889" fill="black" />
<rect x="1955.556" y="10" width="35" height="8.8889" fill="black" />
<rect x="2000.556" y="10" width="35" height="8.8889" fill="black" />
<rect x="1955.556" y="24.8148" width="35" height="8.8889" fill="black" />
<rect x="2000.556" y="24.8148" width="35" height="8.8889" fill="black" />
<rect x="1955.556" y="39.6296" width="80" height="8.8889" fill="black" />
<rect x="1955.556" y="54.4444" width="35" height="8.8889" fill="black" />
<rect x="2000.556" y="54.4444" width="35" height="8.8889" fill="black" />
<rect x="1955.556" y="69.2593" width="80" height="8.8889" fill="black" />
<rect x="1955.556" y="84.0741" width="35" height="8.8889" fill="black" />
<rect x="2000.556" y="84.0741" width="35" height="8.8889" fill="black" />
<rect x="2053.3338" y="10" width="80" height="8.8889" fill="black" />
<rect x="2053.3338" y="24.8148" width="35" height="8.8889" fill="black" />
<rect x="2098.3338" y="24.8148" width="35" height="8.8889" fill="black" />
<rect x="2053.3338" y="39.6296" width="80" height="8.8889" fill="black" />
<rect x="2053.3338" y="54.4444" width="35" height="8.8889" fill="black" />
<rect x="2098.3338" y="54.4444" width="35" height="8.8889" fill="black" />
<rect x="2053.3338" y="69.2593" width="80" height="8.8889" fill="black" />
<rect x="2053.3338" y="84.0741" width="35" height="8.8889" fill="black" />
<rect x="2098.3338" y="84.0741" width="35" height="8.8889" fill="black" />
<rect x="2151.1116" y="10" width="35" height="8.8889" fill="black" />
<rect x="2196.1116" y="10" width="35" height="8.8889" fill="black" />
<rect x="2151.1116" y="24.8148" width="80" height="8.8889" fill="black" />
<rect x="2151.1116" y="39.6296" width="80" height="8.8889" fill="black" />
<rect x="2151.1116" y="54.4444" width="35" height="8.8889" fill="black" />
<rect x="2196.1116" y="54.4444" width="35" height="8.8889" fill="black" />
<rect x="2151.1116" y="69.2593" width="80" height="8.8889" fill="black" />
<rect x="2151.1116" y="84.0741" width="35" height="8.8889" fill="black" />
<rect x="2196.1116" y="84.0741" width="35" height="8.8889" fill="black" />
<rect x="2248.8894" y="10" width="80" height="8.8889" fill="black" />
<rect x="2248.8894" y="24.8148" width="80" height="8.8889" fill="black" />
<rect x="2248.8894" y="39.6296" width="80" height="8.8889" fill="black" />
<rect x="2248.8894" y="54.4444" width="35" height="8.8889" fill="black" />
<rect x="2293.8894" y="54.4444" width="35" height="8.8889" fill="black" />
<rect x="2248.8894" y="69.2593" width="80" height="8.8889" fill="black" />
<rect x="2248.8894" y="84.0741" width="35" height="8.8889" fill="black" />
<rect x="2293.8894" y="84.0741" width="35" height="8.8889" fill="black" />
<rect x="2346.6672" y="10" width="35" height="8.8889" fill="black" />
<rect x="2391.6672" y="10" width="35" height="8.8889" fill="black" />
<rect x="2346.6672" y="24.8148" width="35" height="8.8889" fill="black" />
<rect x="2391.6672" y="24.8148" width="35" height="8.8889" fill="black" />
<rect x="2346.6672" y="39.6296" width="35" height="8.8889" fill="black" />
<rect x="2391.6672" y="39.6296" width="35" height="8.8889" fill="black" />
<rect x="2346.6672" y="54.4444" width="80" height="8.8889" fill="black" />
<rect x="2346.6672" y="69.2593" width="80" height="8.8889" fill="black" />
<rect x="2346.6672" y="84.0741" width="35" height="8.8889" fill="black" />
<rect x="2391.6672" y="84.0741" width="35" height="8.8889" fill="black" />
<rect x="2444.445" y="10" width="80" height="8.8889" fill="black" />
<rect x="2444.445" y="24.8148" width="35" height="8.8889" fill="black" />
<rect x="2489.445" y="24.8148" width="35" height="8.8889" fill="black" />
<rect x="2444.445" y="39.6296" width="35" height="8.8889" fill="black" />
<rect x="2489.445" y="39.6296" width="35" height="8.8889" fill="black" />
<rect x="2444.445" y="54.4444" width="80" height="8.8889" fill="black" />
<rect x="2444.445" y="69.2593" width="80" height="8.8889" fill="black" />
<rect x="2444.445" y="84.0741" width="35" height="8.8889" fill="black" />
<rect x="2489.445" y="84.0741" width="35" height="8.8889" fill="black" />
<rect x="2542.2228" y="10" width="35" height="8.8889" fill="black" />
<rect x="2587.2228" y="10" width="35" height="8.8889" fill="black" />
<rect x="2542.2228" y="24.8148" width="80" height="8.8889" fill="black" />
<rect x="2542.2228" y="39.6296" width="35" height="8.8889" fill="black" />
<rect x="2587.2228" y="39.6296" width="35" height="8.8889" fill="black" />
<rect x="2542.2228" y="54.4444" width="80" height="8.8889" fill="black" />
<rect x="2542.2228" y="69.2593" width="80" height="8.8889" fill="black" />
<rect x="2542.2228" y="84.0741" width="35" height="8.8889" fill="black" />
<rect x="2587.2228" y="84.0741" width="35" height="8.8889" fill="black" />
<rect x="2640.0006" y="10" width="80" height="8.8889" fill="black" />
<rect x="2640.0006" y="24.8148" width="80" height="8.8889" fill="black" />
<rect x="2640.0006" y="39.6296" width="35" height="8.8889" fill="black" />
<rect x="2685.0006" y="39.6296" width="35" height="8.8889" fill="black" />
<rect x="2640.0006" y="54.4444" width="80" height="8.8889" fill="black" />
<rect x="2640.0006" y="69.2593" width="80" height="8.8889" fill="black" />
<rect x="2640.0006" y="84.0741" width="35" height="8.8889" fill="black" />
<rect x="2685.0006" y="84.0741" width="35" height="8.8889" fill="black" />
<rect x="2737.7784" y="10" width="35" height="8.8889" fill="black" />
<rect x="2782.7784" y="10" width="35" height="8.8889" fill="black" />
<rect x="2737.7784" y="24.8148" width="35" height="8.8889" fill="black" />
<rect x="2782.7784" y="24.8148" width="35" height="8.8889" fill="black" />
<rect x="2737.7784" y="39.6296" width="80" height="8.8889" fill="black" />
<rect x="2737.7784" y="54.4444" width="80" height="8.8889" fill="black" />
<rect x="2737.7784" y="69.2593" width="80" height="8.8889" fill="black" />
<rect x="2737.7784" y="84.0741" width="35" height="8.8889" fill="black" />
<rect x="2782.7784" y="84.0741" width="35" height="8.8889" fill="black" />
<rect x="2835.5562" y="10" width="80" height="8.8889" fill="black" />
<rect x="2835.5562" y="24.8148" width="35" height="8.8889" fill="black" />
<rect x="2880.5562" y="24.8148" width="35" height="8.8889" fill="black" />
<rect x="2835.5562" y="39.6296" width="80" height="8.8889" fill="black" />
<rect x="2835.5562" y="54.4444" width="80" height="8.8889" fill="black" />
<rect x="2835.5562" y="69.2593" width="80" height="8.8889" fill="black" />
<rect x="2835.5562" y="84.0741" width="35" height="8.8889" fill="black" />
<rect x="2880.5562" y="84.0741" width="35" height="8.8889" fill="black" />
<rect x="2933.334" y="10" width="35" height="8.8889" fill="black" />
<rect x="2978.334" y="10" width="35" height="8.8889" fill="black" />
<rect x="2933.334" y="24.8148" width="80" height="8.8889" fill="black" />
<rect x="2933.334" y="39.6296" width="80" height="8.8889" fill="black" />
<rect x="2933.334" y="54.4444" width="80" height="8.8889" fill="black" />
<rect x="2933.334" y="69.2593" width="80" height="8.8889" fill="black" />
<rect x="2933.334" y="84.0741" width="35" height="8.8889" fill="black" />
<rect x="2978.334" y="84.0741" width="35" height="8.8889" fill="black" />
<rect x="3031.1118" y="10" width="80" height="8.8889" fill="black" />
<rect x="3031.1118" y="24.8148" width="80" height="8.8889" fill="black" />
<rect x="3031.1118" y="39.6296" width="80" height="8.8889" fill="black" />
<rect x="3031.1118" y="54.4444" width="80" height="8.8889" fill="black" />
<rect x="3031.1118" y="69.2593" width="80" height="8.8889" fill="black" />
<rect x="3031.1118" y="84.0741" width="35" height="8.8889" fill="black" />
<rect x="3076.1118" y="84.0741" width="35" height="8.8889" fill="black" />
<rect x="3031.1118" y="107.7778" width="35" height="8.8889" fill="black" />
<rect x="3076.1118" y="107.7778" width="35" height="8.8889" fill="black" />
<rect x="3031.1118" y="122.5926" width="35" height="8.8889" fill="black" />
<rect x="3076.1118" y="122.5926" width="35" height="8.8889" fill="black" />
<rect x="3031.1118" y="137.4074" width="35" height="8.8889" fill="black" />
<rect x="3076.1118" y="137.4074" width="35" height="8.8889" fill="black" />
<rect x="3031.1118" y="152.2222" width="35" height="8.8889" fill="black" />
<rect x="3076.1118" y="152.2222" width="35" height="8.8889" fill="black" />
<rect x="3031.1118" y="167.037" width="35" height="8.8889" fill="black" />
<rect x="3076.1118" y="167.037" width="35" height="8.8889" fill="black" />
<rect x="3031.1118" y="181.8519" width="80" height="8.8889" fill="black" />
<rect x="2933.334" y="107.7778" width="80" height="8.8889" fill="black" />
<rect x="2933.334" y="122.5926" width="35" height="8.8889" fill="black" />
<rect x="2978.334" y="122.5926" width="35" height="8.8889" fill="black" />
<rect x="2933.334" y="137.4074" width="35" height="8.8889" fill="black" />
<rect x="2978.334" y="137.4074" width="35" height="8.8889" fill="black" />
<rect x="2933.334" y="152.2222" width="35" height="8.8889" fill="black" />
<rect x="2978.334" y="152.2222" width="35" height="8.8889" fill="black" />
<rect x="2933.334" y="167.037" width="35" height="8.8889" fill="black" />
<rect x="2978.334" y="167.037" width="35" height="8.8889" fill="black" />
<rect x="2933.334" y="181.8519" width="80" height="8.8889" fill="black" />
<rect x="2835.5562" y="107.7778" width="35" height="8.8889" fill="black" />
<rect x="2880.5562" y="107.7778" width="35" height="8.8889" fill="black" />
<rect x="2835.5562" y="122.5926" width="80" height="8.8889" fill="black" />
<rect x="2835.5562" y="137.4074" width="35" height="8.8889" fill="black" />
<rect x="2880.5562" y="137.4074" width="35" height="8.8889" fill="black" />
<rect x="2835.5562" y="152.2222" width="35" height="8.8889" fill="black" />
<rect x="2880.5562" y="152.2222" width="35" height="8.8889" fill="black" />
<rect x="2835.5562" y="167.037" width="35" height="8.8889" fill="black" />
<rect x="2880.5562" y="167.037" width="35" height="8.8889" fill="black" />
<rect x="2835.5562" y="181.8519" width="80" height="8.8889" fill="black" />
<rect x="2737.7784" y="107.7778" width="80" height="8.8889" fill="black" />
<rect x="2737.7784" y="122.5926" width="80" height="8.8889" fill="black" />
<rect x="2737.7784" y="137.4074" width="35" height="8.8889" fill="black" />
<rect x="2782.7784" y="137.4074" width="35" height="8.8889" fill="black" />
<rect x="2737.7784" y="152.2222" width="35" height="8.8889" fill="black" />
<rect x="2782.7784" y="152.2222" width="35" height="8.8889" fill="black" />
<rect x="2737.7784" y="167.037" width="35" height="8.8889" fill="black" />
<rect x="2782.7784" y="167.037" width="35" height="8.8889" fill="black" />
<rect x="2737.7784" y="181.8519" width="80" height="8.8889" fill="black" />
<rect x="2640.0006" y="107.7778" width="35" height="8.8889" fill="black" />
<rect x="2685.0006" y="107.7778" width="35" height="8.8889" fill="black" />
<rect x="2640.0006" y="122.5926" width="35" height="8.8889" fill="black" />
<rect x="2685.0006" y="122.5926" width="35" height="8.8889" fill="black" />
<rect x="2640.0006" y="137.4074" width="80" height="8.8889" fill="black" />
<rect x="2640.0006" y="152.2222" width="35" height="8.8889" fill="black" />
<rect x="2685.0006" y="152.2222" width="35" height="8.8889" fill="black" />
<rect x="2640.0006" y="167.037" width="35" height="8.8889" fill="black" />
<rect x="2685.0006" y="167.037" width="35" height="8.8889" fill="black" />
<rect x="2640.0006" y="181.8519" width="80" height="8.8889" fill="black" />
<rect x="2542.2228" y="107.7778" width="80" height="8.8889" fill="black" />
<rect x="2542.2228" y="122.5926" width="35" height="8.8889" fill="black" />
<rect x="2587.2228" y="122.5926" width="35" height="8.8889" fill="black" />
<rect x="2542.2228" y="137.4074" width="80" height="8.8889" fill="black" />
<rect x="2542.2228" y="152.2222" width="35" height="8.8889" fill="black" />
<rect x="2587.2228" y="152.2222" width="35" height="8.8889" fill="black" />
<rect x="2542.2228" y="167.037" width="35" height="8.8889" fill="black" />
<rect x="2587.2228" y="167.037" width="35" height="8.8889" fill="black" />
<rect x="2542.2228" y="181.8519" width="80" height="8.8889" fill="black" />
<rect x="2444.445" y="107.7778" width="35" height="8.8889" fill="black" />
<rect x="2489.445" y="107.7778" width="35" height="8.8889" fill="black" />
<rect x="2444.445" y="122.5926" width="80" height="8.8889" fill="black" />
<rect x="2444.445" y="137.4074" width="80" height="8.8889" fill="black" />
<rect x="2444.445" y="152.2222" width="35" height="8.8889" fill="black" />
<rect x="2489.445" y="152.2222" width="35" height="8.8889" fill="black" />
<rect x="2444.445" y="167.037" width="35" height="8.8889" fill="black" />
<rect x="2489.445" y="167.037" width="35" height="8.8889" fill="black" />
<rect x="2444.445" y="181.8519" width="80" height="8.8889" fill="black" />
<rect x="2346.6672" y="107.7778" width="80" height="8.8889" fill="black" />
<rect x="2346.6672" y="122.5926" width="80" height="8.8889" fill="black" />
<rect x="2346.6672" y="137.4074" width="80" height="8.8889" fill="black" />
<rect x="2346.6672" y="152.2222" width="35" height="8.8889" fill="black" />
<rect x="2391.6672" y="152.2222" width="35" height="8.8889" fill="black" />
<rect x="2346.6672" y="167.037" width="35" height="8.8889" fill="black" />
<rect x="2391.6672" y="167.037" width="35" height="8.8889" fill="black" />
<rect x="2346.6672" y="181.8519" width="80" height="8.8889" fill="black" />
<rect x="2248.8894" y="107.7778" width="35" height="8.8889" fill="black" />
<rect x="2293.8894" y="107.7778" width="35" height="8.8889" fill="black" />
<rect x="2248.8894" y="122.5926" width="35" height="8.8889" fill="black" />
<rect x="2293.8894" y="122.5926" width="35" height="8.8889" fill="black" />
<rect x="2248.8894" y="137.4074" width="35" height="8.8889" fill="black" />
<rect x="2293.8894" y="137.4074" width="35" height="8.8889" fill="black" />
<rect x="2248.8894" y="152.2222" width="80" height="8.8889" fill="black" />
<rect x="2248.8894" y="167.037" width="35" height="8.8889" fill="black" />
<rect x="2293.8894" y="167.037" width="35" height="8.8889" fill="black" />
<rect x="2248.8894" y="181.8519" width="80" height="8.8889" fill="black" />
<rect x="2151.1116" y="107.7778" width="80" height="8.8889" fill="black" />
<rect x="2151.1116" y="122.5926" width="35" height="8.8889" fill="black" />
<rect x="2196.1116" y="122.5926" width="35" height="8.8889" fill="black" />
<rect x="2151.1116" y="137.4074" width="35" height="8.8889" fill="black" />
<rect x="2196.1116" y="137.4074" width="35" height="8.8889" fill="black" />
<rect x="2151.1116" y="152.2222" width="80" height="8.8889" fill="black" />
<rect x="2151.1116" y="167.037" width="35" height="8.8889" fill="black" />
<rect x="2196.1116" y="167.037" width="35" height="8.8889" fill="black" />
<rect x="2151.1116" y="181.8519" width="80" height="8.8889" fill="black" />
<rect x="2053.3338" y="107.7778" width="35" height="8.8889" fill="black" />
<rect x="2098.3338" y="107.7778" width="35" height="8.8889" fill="black" />
<rect x="2053.3338" y="122.5926" width="80" height="8.8889" fill="black" />
<rect x="2053.3338" y="137.4074" width="35" height="8.8889" fill="black" />
<rect x="2098.3338" y="137.4074" width="35" height="8.8889" fill="black" />
<rect x="2053.3338" y="152.2222" width="80" height="8.8889" fill="black" />
<rect x="2053.3338" y="167.037" width="35" height="8.8889" fill="black" />
<rect x="2098.3338" y="167.037" width="35" height="8.8889" fill="black" />
<rect x="2053.3338" y="181.8519" width="80" height="8.8889" fill="black" />
<rect x="1955.556" y="107.7778" width="80" height="8.8889" fill="black" />
<rect x="1955.556" y="122.5926" width="80" height="8.8889" fill="black" />
<rect x="1955.556" y="137.4074" width="35" height="8.8889" fill="black" />
<rect x="2000.556" y="137.4074" width="35" height="8.8889" fill="black" />
<rect x="1955.556" y="152.2222" width="80" height="8.8889" fill="black" />
<rect x="1955.556" y="167.037" width="35" height="8.8889" fill="black" />
<rect x="2000.556" y="167.037" width="35" height="8.8889" fill="black" />
<rect x="1955.556" y="181.8519" width="80" height="8.8889" fill="black" />
<rect x="1857.7782" y="107.7778" width="35" height="8.8889" fill="black" />
<rect x="1902.7782" y="107.7778" width="35" height="8.8889" fill="black" />
<rect x="1857.7782" y="122.5926" width="35" height="8.8889" fill="black" />
<rect x="1902.7782" y="122.5926" width="35" height="8.8889" fill="black" />
<rect x="1857.7782" y="137.4074" width="80" height="8.8889" fill="black" />
<rect x="1857.7782" y="152.2222" width="80" height="8.8889" fill="black" />
<rect x="1857.7782" y="167.037" width="35" height="8.8889" fill="black" />
<rect x="1902.7782" y="167.037" width="35" height="8.8889" fill="black" />
<rect x="1857.7782" y="181.8519" width="80" height="8.8889" fill="black" />
<rect x="1760.0004" y="107.7778" width="80" height="8.8889" fill="black" />
<rect x="1760.0004" y="122.5926" width="35" height="8.8889" fill="black" />
<rect x="1805.0004" y="122.5926" width="35" height="8.8889" fill="black" />
<rect x="1760.0004" y="137.4074" width="80" height="8.8889" fill="black" />
<rect x="1760.0004" y="152.2222" width="80" height="8.8889" fill="black" />
<rect x="1760.0004" y="167.037" width="35" height="8.8889" fill="black" />
<rect x="1805.0004" y="167.037" width="35" height="8.8889" fill="black" />
<rect x="1760.0004" y="181.8519" width="80" height="8.8889" fill="black" />
<rect x="1662.2226" y="107.7778" width="35" height="8.8889" fill="black" />
<rect x="1707.2226" y="107.7778" width="35" height="8.8889" fill="black" />
<rect x="1662.2226" y="122.5926" width="80" height="8.8889" fill="black" />
<rect x="1662.2226" y="137.4074" width="80" height="8.8889" fill="black" />
<rect x="1662.2226" y="152.2222" width="80" height="8.8889" fill="black" />
<rect x="1662.2226" y="167.037" width="35" height="8.8889" fill="black" />
<rect x="1707.2226" y="167.037" width="35" height="8.8889" fill="black" />
<rect x="1662.2226" y="181.8519" width="80" height="8.8889" fill="black" />
<rect x="1564.4448" y="107.7778" width="80" height="8.8889" fill="black" />
<rect x="1564.4448" y="122.5926" width="80" height="8.8889" fill="black" />
<rect x="1564.4448" y="137.4074" width="80" height="8.8889" fill="black" />
<rect x="1564.4448" y="152.2222" width="80" height="8.8889" fill="black" />
<rect x="1564.4448" y="167.037" width="35" height="8.8889" fill="black" />
<rect x="1609.4448" y="167.037" width="35" height="8.8889" fill="black" />
<rect x="1564.4448" y="181.8519" width="80" height="8.8889" fill="black" />
<rect x="1466.667" y="107.7778" width="35" height="8.8889" fill="black" />
<rect x="1511.667" y="107.7778" width="35" height="8.8889" fill="black" />
<rect x="1466.667" y="122.5926" width="35" height="8.8889" fill="black" />
<rect x="1511.667" y="122.5926" width="35" height="8.8889" fill="black" />
<rect x="1466.667" y="137.4074" width="35" height="8.8889" fill="black" />
<rect x="1511.667" y="137.4074" width="35" height="8.8889" fill="black" />
<rect x="1466.667" y="152.2222" width="35" height="8.8889" fill="black" />
<rect x="1511.667" y="152.2222" width="35" height="8.8889" fill="black" />
<rect x="1466.667" y="167.037" width="80" height="8.8889" fill="black" />
<rect x="1466.667" y="181.8519" width="80" height="8.8889" fill="black" />
<rect x="1368.8892" y="107.7778" width="80" height="8.8889" fill="black" />
<rect x="1368.8892" y="122.5926" width="35" height="8.8889" fill="black" />
<rect x="1413.8892" y="122.5926" width="35" height="8.8889" fill="black" />
<rect x="1368.8892" y="137.4074" width="35" height="8.8889" fill="black" />
<rect x="1413.8892" y="137.4074" width="35" height="8.8889" fill="black" />
<rect x="1368.8892" y="152.2222" width="35" height="8.8889" fill="black" />
<rect x="1413.8892" y="152.2222" width="35" height="8.8889" fill="black" />
<rect x="1368.8892" y="167.037" width="80" height="8.8889" fill="black" />
<rect x="1368.8892" y="181.8519" width="80" height="8.8889" fill="black" />
<rect x="1271.1114" y="107.7778" width="35" height="8.8889" fill="black" />
<rect x="1316.1114" y="107.7778" width="35" height="8.8889" fill="black" />
<rect x="1271.1114" y="122.5926" width="80" height="8.8889" fill="black" />
<rect x="1271.1114" y="137.4074" width="35" height="8.8889" fill="black" />
<rect x="1316.1114" y="137.4074" width="35" height="8.8889" fill="black" />
<rect x="1271.1114" y="152.2222" width="35" height="8.8889" fill="black" />
<rect x="1316.1114" y="152.2222" width="35" height="8.8889" fill="black" />
<rect x="1271.1114" y="167.037" width="80" height="8.8889" fill="black" />
<rect x="1271.1114" y="181.8519" width="80" height="8.8889" fill="black" />
<rect x="1173.3336" y="107.7778" width="80" height="8.8889" fill="black" />
<rect x="1173.3336" y="122.5926" width="80" height="8.8889" fill="black" />
<rect x="1173.3336" y="137.4074" width="35" height="8.8889" fill="black" />
<rect x="1218.3336" y="137.4074" width="35" height="8.8889" fill="black" />
<rect x="1173.3336" y="152.2222" width="35" height="8.8889" fill="black" />
<rect x="1218.3336" y="152.2222" width="35" height="8.8889" fill="black" />
<rect x="1173.3336" y="167.037" width="80" height="8.8889" fill="black" />
<rect x="1173.3336" y="181.8519" width="80" height="8.8889" fill="black" />
<rect x="1075.5558" y="107.7778" width="35" height="8.8889" fill="black" />
<rect x="1120.5558" y="107.7778" width="35" height="8.8889" fill="black" />
<rect x="1075.5558" y="122.5926" width="35" height="8.8889" fill="black" />
<rect x="1120.5558" y="122.5926" width="35" height="8.8889" fill="black" />
<rect x="1075.5558" y="137.4074" width="80" height="8.8889" fill="black" />
<rect x="1075.5558" y="152.2222" width="35" height="8.8889" fill="black" />
<rect x="1120.5558" y="152.2222" width="35" height="8.8889" fill="black" />
<rect x="1075.5558" y="167.037" width="80" height="8.8889" fill="black" />
<rect x="1075.5558" y="181.8519" width="80" height="8.8889" fill="black" />
<rect x="977.778" y="107.7778" width="80" height="8.8889" fill="black" />
<rect x="977.778" y="122.5926" width="35" height="8.8889" fill="black" />
<rect x="1022.778" y="122.5926" width="35" height="8.8889" fill="black" />
<rect x="977.778" y="137.4074" width="80" height="8.8889" fill="black" />
<rect x="977.778" y="152.2222" width="35" height="8.8889" fill="black" />
<rect x="1022.778" y="152.2222" width="35" height="8.8889" fill="black" />
<rect x="977.778" y="167.037" width="80" height="8.8889" fill="black" />
<rect x="977.778" y="181.8519" width="80" height="8.8889" fill="black" />
<rect x="880.0002" y="107.7778" width="35" height="8.8889" fill="black" />
<rect x="925.0002" y="107.7778" width="35" height="8.8889" fill="black" />
<rect x="880.0002" y="122.5926" width="80" height="8.8889" fill="black" />
<rect x="880.0002" y="137.4074" width="80" height="8.8889" fill="black" />
<rect x="880.0002" y="152.2222" width="35" height="8.8889" fill="black" />
<rect x="925.0002" y="152.2222" width="35" height="8.8889" fill="black" />
<rect x="880.0002" y="167.037" width="80" height="8.8889" fill="black" />
<rect x="880.0002" y="181.8519" width="80" height="8.8889" fill="black" />
<rect x="782.2224" y="107.7778" width="80" height="8.8889" fill="black" />
<rect x="782.2224" y="122.5926" width="80" height="8.8889" fill="black" />
<rect x="782.2224" y="137.4074" width="80" height="8.8889" fill="black" />
<rect x="782.2224" y="152.2222" width="35" height="8.8889" fill="black" />
<rect x="827.2224" y="152.2222" width="35" height="8.8889" fill="black" />
<rect x="782.2224" y="167.037" width="80" height="8.8889" fill="black" />
<rect x="782.2224" y="181.8519" width="80" height="8.8889" fill="black" />
<rect x="684.4446" y="107.7778" width="35" height="8.8889" fill="black" />
<rect x="729.4446" y="107.7778" width="35" height="8.8889" fill="black" />
<rect x="684.4446" y="122.5926" width="35" height="8.8889" fill="black" />
<rect x="729.4446" y="122.5926" width="35" height="8.8889" fill="black" />
<rect x="684.4446" y="137.4074" width="35" height="8.8889" fill="black" />
<rect x="729.4446" y="137.4074" width="35" height="8.8889" fill="black" />
<rect x="684.4446" y="152.2222" width="80" height="8.8889" fill="black" />
<rect x="684.4446" y="167.037" width="80" height="8.8889" fill="black" />
<rect x="684.4446" y="181.8519" width="80" height="8.8889" fill="black" />
<rect x="586.6668" y="107.7778" width="80" height="8.8889" fill="black" />
<rect x="586.6668" y="122.5926" width="35" height="8.8889" fill="black" />
<rect x="631.6668" y="122.5926" width="35" height="8.8889" fill="black" />
<rect x="586.6668" y="137.4074" width="35" height="8.8889" fill="black" />
<rect x="631.6668" y="137.4074" width="35" height="8.8889" fill="black" />
<rect x="586.6668" y="152.2222" width="80" height="8.8889" fill="black" />
<rect x="586.6668" y="167.037" width="80" height="8.8889" fill="black" />
<rect x="586.6668" y="181.8519" width="80" height="8.8889" fill="black" />
<rect x="488.889" y="107.7778" width="35" height="8.8889" fill="black" />
<rect x="533.889" y="107.7778" width="35" height="8.8889" fill="black" />
<rect x="488.889" y="122.5926" width="80" height="8.8889" fill="black" />
<rect x="488.889" y="137.4074" width="35" height="8.8889" fill="black" />
<rect x="533.889" y="137.4074" width="35" height="8.8889" fill="black" />
<rect x="488.889" y="152.2222" width="80" height="8.8889" fill="black" />
<rect x="488.889" y="167.037" width="80" height="8.8889" fill="black" />
<rect x="488.889" y="181.8519" width="80" height="8.8889" fill="black" />
<rect x="391.1112" y="107.7778" width="80" height="8.8889" fill="black" />
<rect x="391.1112" y="122.5926" width="80" height="8.8889" fill="black" />
<rect x="391.1112" y="137.4074" width="35" height="8.8889" fill="black" />
<rect x="436.1112" y="137.4074" width="35" height="8.8889" fill="black" />
<rect x="391.1112" y="152.2222" width="80" height="8.8889" fill="black" />
<rect x="391.1112" y="167.037" width="80" height="8.8889" fill="black" />
<rect x="391.1112" y="181.8519" width="80" height="8.8889" fill="black" />
<rect x="293.3334" y="107.7778" width="35" height="8.8889" fill="black" />
<rect x="338.3334" y="107.7778" width="35" height="8.8889" fill="black" />
<rect x="293.3334" y="122.5926" width="35" height="8.8889" fill="black" />
<rect x="338.3334" y="122.5926" width="35" height="8.8889" fill="black" />
<rect x="293.3334" y="137.4074" width="80" height="8.8889" fill="black" />
<rect x="293.3334" y="152.2222" width="80" height="8.8889" fill="black" />
<rect x="293.3334" y="167.037" width="80" height="8.8889" fill="black" />
<rect x="293.3334" y="181.8519" width="80" height="8.8889" fill="black" />
<rect x="195.5556" y="107.7778" width="80" height="8.8889" fill="black" />
<rect x="195.5556" y="122.5926" width="35" height="8.8889" fill="black" />
<rect x="240.5556" y="122.5926" width="35" height="8.8889" fill="black" />
<rect x="195.5556" y="137.4074" width="80" height="8.8889" fill="black" />
<rect x="195.5556" y="152.2222" width="80" height="8.8889" fill="black" />
<rect x="195.5556" y="167.037" width="80" height="8.8889" fill="black" />
<rect x="195.5556" y="181.8519" width="80" height="8.8889" fill="black" />
<rect x="97.7778" y="107.7778" width="35" height="8.8889" fill="black" />
<rect x="142.7778" y="107.7778" width="35" height="8.8889" fill="black" />
<rect x="97.7778" y="122.5926" width="80" height="8.8889" fill="black" />
<rect x="97.7778" y="137.4074" width="80" height="8.8889" fill="black" />
<rect x="97.7778" y="152.2222" width="80" height="8.8889" fill="black" />
<rect x="97.7778" y="167.037" width="80" height="8.8889" fill="black" />
<rect x="97.7778" y="181.8519" width="80" height="8.8889" fill="black" />
<rect x="0" y="107.7778" width="80" height="8.8889" fill="black" />
<rect x="0" y="122.5926" width="80" height="8.8889" fill="black" />
<rect x="0" y="137.4074" width="80" height="8.8889" fill="black" />
<rect x="0" y="152.2222" width="80" height="8.8889" fill="black" />
<rect x="0" y="167.037" width="80" height="8.8889" fill="black" />
<rect x="0" y="181.8519" width="80" height="8.8889" fill="black" />
</svg>