<svg version="1.1" baseProfile="full" width="81.1789" height="4" xmlns="http://www.w3.org/2000/svg">
<rect x="0.3" y="0.2" width="0.8474" height="0.2" />
<rect x="1.3895" y="0.2" width="0.8474" height="0.2" />
<rect x="0.3" y="0.4833" width="0.8474" height="0.2" />
<rect x="1.3895" y="0.4833" width="0.8474" height="0.2" />
<rect x="0.3" y="0.7667" width="0.8474" height="0.2" />
<rect x="1.3895" y="0.7667" width="0.8474" height="0.2" />
<rect x="0.3" y="1.05" width="0.8474" height="0.2" />
<rect x="1.3895" y="1.05" width="0.8474" height="0.2" />
<rect x="0.3" y="1.3333" width="0.8474" height="0.2" />
<rect x="1.3895" y="1.3333" width="0.8474" height="0.2" />
<rect x="0.3" y="1.6167" width="0.8474" height="0.2" />
<rect x="1.3895" y="1.6167" width="0.8474" height="0.2" />
<rect x="2.8368" y="0.2" width="1.9368" height="0.2" />
<rect x="2.8368" y="0.4833" width="0.8474" height="0.2" />
<rect x="3.9263" y="0.4833" width="0.8474" height="0.2" />
<rect x="2.8368" y="0.7667" width="0.8474" height="0.2" />
<rect x="3.9263" y="0.7667" width="0.8474" height="0.2" />
<rect x="2.8368" y="1.05" width="0.8474" height="0.2" />
<rect x="3.9263" y="1.05" width="0.8474" height="0.2" />
<rect x="2.8368" y="1.3333" width="0.8474" height="0.2" />
<rect x="3.9263" y="1.3333" width="0.8474" height="0.2" />
<rect x="2.8368" y="1.6167" width="0.8474" height="0.2" />
<rect x="3.9263" y="1.6167" width="0.8474" height="0.2" />
<rect x="5.3737" y="0.2" width="0.8474" height="0.2" />
<rect x="6.4632" y="0.2" width="0.8474" height="0.2" />
<rect x="5.3737" y="0.4833" width="1.9368" height="0.2" />
<rect x="5.3737" y="0.7667" width="0.8474" height="0.2" />
<rect x="6.4632" y="0.7667" width="0.8474" height="0.2" />
<rect x="5.3737" y="1.05" width="0.8474" height="0.2" />
<rect x="6.4632" y="1.05" width="0.8474" height="0.2" />
<rect x="5.3737" y="1.3333" width="0.8474" height="0.2" />
<rect x="6.4632" y="1.3333" width="0.8474" height="0.2" />
<rect x="5.3737" y="1.6167" width="0.8474" height="0.2" />
<rect x="6.4632" y="1.6167" width="0.8474" height="0.2" />
<rect x="7.9105" y="0.2" width="1.9368" height="0.2" />
<rect x="7.9105" y="0.4833" width="1.9368" height="0.2" />
<rect x="7.9105" y="0.7667" width="0.8474" height="0.2" />
<rect x="9" y="0.7667" width="0.8474" height="0.2" />
<rect x="7.9105" y="1.05" width="0.8474" height="0.2" />
<rect x="9" y="1.05" width="0.8474" height="0.2" />
<rect x="7.9105" y="1.3333" width="0.8474" height="0.2" />
<rect x="9" y="1.3333" width="0.8474" height="0.2" />
<rect x="7.9105" y="1.6167" width="0.8474" height="0.2" />
<rect x="9" y="1.6167" width="0.8474" height="0.2" />
<rect x="10.4474" y="0.2" width="0.8474" height="0.2" />
<rect x="11.5368" y="0.2" width="0.8474" height="0.2" />
<rect x="10.4474" y="0.4833" width="0.8474" height="0.2" />
<rect x="11.5368" y="0.4833" width="0.8474" height="0.2" />
<rect x="10.4474" y="0.7667" width="1.9368" height="0.2" />
<rect x="10.4474" y="1.05" width="0.8474" height="0.2" />
<rect x="11.5368" y="1.05" width="0.8474" height="0.2" />
<rect x="10.4474" y="1.3333" width="0.8474" height="0.2" />
<rect x="11.5368" y="1.3333" width="0.8474" height="0.2" />
<rect x="10.4474" y="1.6167" width="0.8474" height="0.2" />
<rect x="11.5368" y="1.6167" width="0.8474" height="0.2" />
<rect x="12.9842" y="0.2" width="1.9368" height="0.2" />
<rect x="12.9842" y="0.4833" width="0.8474" height="0.2" />
<rect x="14.0737" y="0.4833" width="0.8474" height="0.2" />
<rect x="12.9842" y="0.7667" width="1.9368" height="0.2" />
<rect x="12.9842" y="1.05" width="0.8474" height="0.2" />
<rect x="14.0737" y="1.05" width="0.8474" height="0.2" />
<rect x="12.9842" y="1.3333" width="0.8474" height="0.2" />
<rect x="14.0737" y="1.3333" width="0.8474" height="0.2" />
<rect x="12.9842" y="1.6167" width="0.8474" height="0.2" />
<rect x="14.0737" y="1.6167" width="0.8474" height="0.2" />
<rect x="15.521" y="0.2" width="0.8474" height="0.2" />
<rect x="16.6105" y="0.2" width="0.8474" height="0.2" />
<rect x="15.521" y="0.4833" width="1.9368" height="0.2" />
<rect x="15.521" y="0.7667" width="1.9368" height="0.2" />
<rect x="15.521" y="1.05" width="0.8474" height="0.2" />
<rect x="16.6105" y="1.05" width="0.8474" height="0.2" />
<rect x="15.521" y="1.3333" width="0.8474" height="0.2" />
<rect x="16.6105" y="1.3333" width="0.8474" height="0.2" />
<rect x="15.521" y="1.6167" width="0.8474" height="0.2" />
<rect x="16.6105" y="1.6167" width="0.8474" height="0.2" />
<rect x="18.0579" y="0.2" width="1.9368" height="0.2" />
<rect x="18.0579" y="0.4833" width="1.9368" height="0.2" />
<rect x="18.0579" y="0.7667" width="1.9368" height="0.2" />
<rect x="18.0579" y="1.05" width="0.8474" height="0.2" />
<rect x="19.1474" y="1.05" width="0.8474" height="0.2" />
<rect x="18.0579" y="1.3333" width="0.8474" height="0.2" />
<rect x="19.1474" y="1.3333" width="0.8474" height="0.2" />
<rect x="18.0579" y="1.6167" width="0.8474" height="0.2" />
<rect x="19.1474" y="1.6167" width="0.8474" height="0.2" />
<rect x="20.5947" y="0.2" width="0.8474" height="0.2" />
<rect x="21.6842" y="0.2" width="0.8474" height="0.2" />
<rect x="20.5947" y="0.4833" width="0.8474" height="0.2" />
<rect x="21.6842" y="0.4833" width="0.8474" height="0.2" />
<rect x="20.5947" y="0.7667" width="0.8474" height="0.2" />
<rect x="21.6842" y="0.7667" width="0.8474" height="0.2" />
<rect x="20.5947" y="1.05" width="1.9368" height="0.2" />
<rect x="20.5947" y="1.3333" width="0.8474" height="0.2" />
<rect x="21.6842" y="1.3333" width="0.8474" height="0.2" />
<rect x="20.5947" y="1.6167" width="0.8474" height="0.2" />
<rect x="21.6842" y="1.6167" width="0.8474" height="0.2" />
<rect x="23.1316" y="0.2" width="1.9368" height="0.2" />
<rect x="23.1316" y="0.4833" width="0.8474" height="0.2" />
<rect x="24.221" y="0.4833" width="0.8474" height="0.2" />
<rect x="23.1316" y="0.7667" width="0.8474" height="0.2" />
<rect x="24.221" y="0.7667" width="0.8474" height="0.2" />
<rect x="23.1316" y="1.05" width="1.9368" height="0.2" />
<rect x="23.1316" y="1.3333" width="0.8474" height="0.2" />
<rect x="24.221" y="1.3333" width="0.8474" height="0.2" />
<rect x="23.1316" y="1.6167" width="0.8474" height="0.2" />
<rect x="24.221" y="1.6167" width="0.8474" height="0.2" />
<rect x="25.6684" y="0.2" width="0.8474" height="0.2" />
<rect x="26.7579" y="0.2" width="0.8474" height="0.2" />
<rect x="25.6684" y="0.4833" width="1.9368" height="0.2" />
<rect x="25.6684" y="0.7667" width="0.8474" height="0.2" />
<rect x="26.7579" y="0.7667" width="0.8474" height="0.2" />
<rect x="25.6684" y="1.05" width="1.9368" height="0.2" />
<rect x="25.6684" y="1.3333" width="0.8474" height="0.2" />
<rect x="26.7579" y="1.3333" width="0.8474" height="0.2" />
<rect x="25.6684" y="1.6167" width="0.8474" height="0.2" />
<rect x="26.7579" y="1.6167" width="0.8474" height="0.2" />
<rect x="28.2052" y="0.2" width="1.9368" height="0.2" />
<rect x="28.2052" y="0.4833" width="1.9368" height="0.2" />
<rect x="28.2052" y="0.7667" width="0.8474" height="0.2" />
<rect x="29.2947" y="0.7667" width="0.8474" height="0.2" />
<rect x="28.2052" y="1.05" width="1.9368" height="0.2" />
<rect x="28.2052" y="1.3333" width="0.8474" height="0.2" />
<rect x="29.2947" y="1.3333" width="0.8474" height="0.2" />
<rect x="28.2052" y="1.6167" width="0.8474" height="0.2" />
<rect x="29.2947" y="1.6167" width="0.8474" height="0.2" />
<rect x="30.7421" y="0.2" width="0.8474" height="0.2" />
<rect x="31.8316" y="0.2" width="0.8474" height="0.2" />
<rect x="30.7421" y="0.4833" width="0.8474" height="0.2" />
<rect x="31.8316" y="0.4833" width="0.8474" height="0.2" />
<rect x="30.7421" y="0.7667" width="1.9368" height="0.2" />
<rect x="30.7421" y="1.05" width="1.9368" height="0.2" />
<rect x="30.7421" y="1.3333" width="0.8474" height="0.2" />
<rect x="31.8316" y="1.3333" width="0.8474" height="0.2" />
<rect x="30.7421" y="1.6167" width="0.8474" height="0.2" />
<rect x="31.8316" y="1.6167" width="0.8474" height="0.2" />
<rect x="33.2789" y="0.2" width="1.9368" height="0.2" />
<rect x="33.2789" y="0.4833" width="0.8474" height="0.2" />
<rect x="34.3684" y="0.4833" width="0.8474" height="0.2" />
<rect x="33.2789" y="0.7667" width="1.9368" height="0.2" />
<rect x="33.2789" y="1.05" width="1.9368" height="0.2" />
<rect x="33.2789" y="1.3333" width="0.8474" height="0.2" />
<rect x="34.3684" y="1.3333" width="0.8474" height="0.2" />
<rect x="33.2789" y="1.6167" width="0.8474" height="0.2" />
<rect x="34.3684" y="1.6167" width="0.8474" height="0.2" />
<rect x="35.8158" y="0.2" width="0.8474" height="0.2" />
<rect x="36.9052" y="0.2" width="0.8474" height="0.2" />
<rect x="35.8158" y="0.4833" width="1.9368" height="0.2" />
<rect x="35.8158" y="0.7667" width="1.9368" height="0.2" />
<rect x="35.8158" y="1.05" width="1.9368" height="0.2" />
<rect x="35.8158" y="1.3333" width="0.8474" height="0.2" />
<rect x="36.9052" y="1.3333" width="0.8474" height="0.2" />
<rect x="35.8158" y="1.6167" width="0.8474" height="0.2" />
<rect x="36.9052" y="1.6167" width="0.8474" height="0.2" />
<rect x="38.3526" y="0.2" width="1.9368" height="0.2" />
<rect x="38.3526" y="0.4833" width="1.9368" height="0.2" />
<rect x="38.3526" y="0.7667" width="1.9368" height="0.2" />
<rect x="38.3526" y="1.05" width="1.9368" height="0.2" />
<rect x="38.3526" y="1.3333" width="0.8474" height="0.2" />
<rect x="39.4421" y="1.3333" width="0.8474" height="0.2" />
<rect x="38.3526" y="1.6167" width="0.8474" height="0.2" />
<rect x="39.4421" y="1.6167" width="0.8474" height="0.2" />
<rect x="40.8894" y="0.2" width="0.8474" height="0.2" />
<rect x="41.9789" y="0.2" width="0.8474" height="0.2" />
<rect x="40.8894" y="0.4833" width="0.8474" height="0.2" />
<rect x="41.9789" y="0.4833" width="0.8474" height="0.2" />
<rect x="40.8894" y="0.7667" width="0.8474" height="0.2" />
<rect x="41.9789" y="0.7667" width="0.8474" height="0.2" />
<rect x="40.8894" y="1.05" width="0.8474" height="0.2" />
<rect x="41.9789" y="1.05" width="0.8474" height="0.2" />
<rect x="40.8894" y="1.3333" width="1.9368" height="0.2" />
<rect x="40.8894" y="1.6167" width="0.8474" height="0.2" />
<rect x="41.9789" y="1.6167" width="0.8474" height="0.2" />
<rect x="43.4263" y="0.2" width="1.9368" height="0.2" />
<rect x="43.4263" y="0.4833" width="0.8474" height="0.2" />
<rect x="44.5158" y="0.4833" width="0.8474" height="0.2" />
<rect x="43.4263" y="0.7667" width="0.8474" height="0.2" />
<rect x="44.5158" y="0.7667" width="0.8474" height="0.2" />
<rect x="43.4263" y="1.05" width="0.8474" height="0.2" />
<rect x="44.5158" y="1.05" width="0.8474" height="0.2" />
<rect x="43.4263" y="1.3333" width="1.9368" height="0.2" />
<rect x="43.4263" y="1.6167" width="0.8474" height="0.2" />
<rect x="44.5158" y="1.6167" width="0.8474" height="0.2" />
<rect x="45.9631" y="0.2" width="0.8474" height="0.2" />
<rect x="47.0526" y="0.2" width="0.8474" height="0.2" />
<rect x="45.9631" y="0.4833" width="1.9368" height="0.2" />
<rect x="45.9631" y="0.7667" width="0.8474" height="0.2" />
<rect x="47.0526" y="0.7667" width="0.8474" height="0.2" />
<rect x="45.9631" y="1.05" width="0.8474" height="0.2" />
<rect x="47.0526" y="1.05" width="0.8474" height="0.2" />
<rect x="45.9631" y="1.3333" width="1.9368" height="0.2" />
<rect x="45.9631" y="1.6167" width="0.8474" height="0.2" />
<rect x="47.0526" y="1.6167" width="0.8474" height="0.2" />
<rect x="48.5" y="0.2" width="1.9368" height="0.2" />
<rect x="48.5" y="0.4833" width="1.9368" height="0.2" />
<rect x="48.5" y="0.7667" width="0.8474" height="0.2" />
<rect x="49.5894" y="0.7667" width="0.8474" height="0.2" />
<rect x="48.5" y="1.05" width="0.8474" height="0.2" />
<rect x="49.5894" y="1.05" width="0.8474" height="0.2" />
<rect x="48.5" y="1.3333" width="1.9368" height="0.2" />
<rect x="48.5" y="1.6167" width="0.8474" height="0.2" />
<rect x="49.5894" y="1.6167" width="0.8474" height="0.2" />
<rect x="51.0368" y="0.2" width="0.8474" height="0.2" />
<rect x="52.1263" y="0.2" width="0.8474" height="0.2" />
<rect x="51.0368" y="0.4833" width="0.8474" height="0.2" />
<rect x="52.1263" y="0.4833" width="0.8474" height="0.2" />
<rect x="51.0368" y="0.7667" width="1.9368" height="0.2" />
<rect x="51.0368" y="1.05" width="0.8474" height="0.2" />
<rect x="52.1263" y="1.05" width="0.8474" height="0.2" />
<rect x="51.0368" y="1.3333" width="1.9368" height="0.2" />
<rect x="51.0368" y="1.6167" width="0.8474" height="0.2" />
<rect x="52.1263" y="1.6167" width="0.8474" height="0.2" />
<rect x="53.5737" y="0.2" width="1.9368" height="0.2" />
<rect x="53.5737" y="0.4833" width="0.8474" height="0.2" />
<rect x="54.6631" y="0.4833" width="0.8474" height="0.2" />
<rect x="53.5737" y="0.7667" width="1.9368" height="0.2" />
<rect x="53.5737" y="1.05" width="0.8474" height="0.2" />
<rect x="54.6631" y="1.05" width="0.8474" height="0.2" />
<rect x="53.5737" y="1.3333" width="1.9368" height="0.2" />
<rect x="53.5737" y="1.6167" width="0.8474" height="0.2" />
<rect x="54.6631" y="1.6167" width="0.8474" height="0.2" />
<rect x="56.1105" y="0.2" width="0.8474" height="0.2" />
<rect x="57.2" y="0.2" width="0.8474" height="0.2" />
<rect x="56.1105" y="0.4833" width="1.9368" height="0.2" />
<rect x="56.1105" y="0.7667" width="1.9368" height="0.2" />
<rect x="56.1105" y="1.05" width="0.8474" height="0.2" />
<rect x="57.2" y="1.05" width="0.8474" height="0.2" />
<rect x="56.1105" y="1.3333" width="1.9368" height="0.2" />
<rect x="56.1105" y="1.6167" width="0.8474" height="0.2" />
<rect x="57.2" y="1.6167" width="0.8474" height="0.2" />
<rect x="58.6473" y="0.2" width="1.9368" height="0.2" />
<rect x="58.6473" y="0.4833" width="1.9368" height="0.2" />
<rect x="58.6473" y="0.7667" width="1.9368" height="0.2" />
<rect x="58.6473" y="1.05" width="0.8474" height="0.2" />
<rect x="59.7368" y="1.05" width="0.8474" height="0.2" />
<rect x="58.6473" y="1.3333" width="1.9368" height="0.2" />
<rect x="58.6473" y="1.6167" width="0.8474" height="0.2" />
<rect x="59.7368" y="1.6167" width="0.8474" height="0.2" />
<rect x="61.1842" y="0.2" width="0.8474" height="0.2" />
<rect x="62.2736" y="0.2" width="0.8474" height="0.2" />
<rect x="61.1842" y="0.4833" width="0.8474" height="0.2" />
<rect x="62.2736" y="0.4833" width="0.8474" height="0.2" />
<rect x="61.1842" y="0.7667" width="0.8474" height="0.2" />
<rect x="62.2736" y="0.7667" width="0.8474" height="0.2" />
<rect x="61.1842" y="1.05" width="1.9368" height="0.2" />
<rect x="61.1842" y="1.3333" width="1.9368" height="0.2" />
<rect x="61.1842" y="1.6167" width="0.8474" height="0.2" />
<rect x="62.2736" y="1.6167" width="0.8474" height="0.2" />
<rect x="63.721" y="0.2" width="1.9368" height="0.2" />
<rect x="63.721" y="0.4833" width="0.8474" height="0.2" />
<rect x="64.8105" y="0.4833" width="0.8474" height="0.2" />
<rect x="63.721" y="0.7667" width="0.8474" height="0.2" />
<rect x="64.8105" y="0.7667" width="0.8474" height="0.2" />
<rect x="63.721" y="1.05" width="1.9368" height="0.2" />
<rect x="63.721" y="1.3333" width="1.9368" height="0.2" />
<rect x="63.721" y="1.6167" width="0.8474" height="0.2" />
<rect x="64.8105" y="1.6167" width="0.8474" height="0.2" />
<rect x="66.2579" y="0.2" width="0.8474" height="0.2" />
<rect x="67.3473" y="0.2" width="0.8474" height="0.2" />
<rect x="66.2579" y="0.4833" width="1.9368" height="0.2" />
<rect x="66.2579" y="0.7667" width="0.8474" height="0.2" />
<rect x="67.3473" y="0.7667" width="0.8474" height="0.2" />
<rect x="66.2579" y="1.05" width="1.9368" height="0.2" />
<rect x="66.2579" y="1.3333" width="1.9368" height="0.2" />
<rect x="66.2579" y="1.6167" width="0.8474" height="0.2" />
<rect x="67.3473" y="1.6167" width="0.8474" height="0.2" />
<rect x="68.7947" y="0.2" width="1.9368" height="0.2" />
<rect x="68.7947" y="0.4833" width="1.9368" height="0.2" />
<rect x="68.7947" y="0.7667" width="0.8474" height="0.2" />
<rect x="69.8842" y="0.7667" width="0.8474" height="0.2" />
<rect x="68.7947" y="1.05" width="1.9368" height="0.2" />
<rect x="68.7947" y="1.3333" width="1.9368" height="0.2" />
<rect x="68.7947" y="1.6167" width="0.8474" height="0.2" />
<rect x="69.8842" y="1.6167" width="0.8474" height="0.2" />
<rect x="71.3315" y="0.2" width="0.8474" height="0.2" />
<rect x="72.421" y="0.2" width="0.8474" height="0.2" />
<rect x="71.3315" y="0.4833" width="0.8474" height="0.2" />
<rect x="72.421" y="0.4833" width="0.8474" height="0.2" />
<rect x="71.3315" y="0.7667" width="1.9368" height="0.2" />
<rect x="71.3315" y="1.05" width="1.9368" height="0.2" />
<rect x="71.3315" y="1.3333" width="1.9368" height="0.2" />
<rect x="71.3315" y="1.6167" width="0.8474" height="0.2" />
<rect x="72.421" y="1.6167" width="0.8474" height="0.2" />
<rect x="73.8684" y="0.2" width="1.9368" height="0.2" />
<rect x="73.8684" y="0.4833" width="0.8474" height="0.2" />
<rect x="74.9579" y="0.4833" width="0.8474" height="0.2" />
<rect x="73.8684" y="0.7667" width="1.9368" height="0.2" />
<rect x="73.8684" y="1.05" width="1.9368" height="0.2" />
<rect x="73.8684" y="1.3333" width="1.9368" height="0.2" />
<rect x="73.8684" y="1.6167" width="0.8474" height="0.2" />
<rect x="74.9579" y="1.6167" width="0.8474" height="0.2" />
<rect x="76.4052" y="0.2" width="0.8474" height="0.2" />
<rect x="77.4947" y="0.2" width="0.8474" height="0.2" />
<rect x="76.4052" y="0.4833" width="1.9368" height="0.2" />
<rect x="76.4052" y="0.7667" width="1.9368" height="0.2" />
<rect x="76.4052" y="1.05" width="1.9368" height="0.2" />
<rect x="76.4052" y="1.3333" width="1.9368" height="0.2" />
<rect x="76.4052" y="1.6167" width="0.8474" height="0.2" />
<rect x="77.4947" y="1.6167" width="0.8474" height="0.2" />
<rect x="78.9421" y="0.2" width="1.9368" height="0.2" />
<rect x="78.9421" y="0.4833" width="1.9368" height="0.2" />
<rect x="78.9421" y="0.7667" width="1.9368" height="0.2" />
<rect x="78.9421" y="1.05" width="1.9368" height="0.2" />
<rect x="78.9421" y="1.3333" width="1.9368" height="0.2" />
<rect x="78.9421" y="1.6167" width="0.8474" height="0.2" />
<rect x="80.0315" y="1.6167" width="0.8474" height="0.2" />
<rect x="78.9421" y="2.1" width="0.8474" height="0.2" />
<rect x="80.0315" y="2.1" width="0.8474" height="0.2" />
<rect x="78.9421" y="2.3833" width="0.8474" height="0.2" />
<rect x="80.0315" y="2.3833" width="0.8474" height="0.2" />
<rect x="78.9421" y="2.6667" width="0.8474" height="0.2" />
<rect x="80.0315" y="2.6667" width="0.8474" height="0.2" />
<rect x="78.9421" y="2.95" width="0.8474" height="0.2" />
<rect x="80.0315" y="2.95" width="0.8474" height="0.2" />
<rect x="78.9421" y="3.2333" width="0.8474" height="0.2" />
<rect x="80.0315" y="3.2333" width="0.8474" height="0.2" />
<rect x="78.9421" y="3.5167" width="1.9368" height="0.2" />
<rect x="76.4052" y="2.1" width="1.9368" height="0.2" />
<rect x="76.4052" y="2.3833" width="0.8474" height="0.2" />
<rect x="77.4947" y="2.3833" width="0.8474" height="0.2" />
<rect x="76.4052" y="2.6667" width="0.8474" height="0.2" />
<rect x="77.4947" y="2.6667" width="0.8474" height="0.2" />
<rect x="76.4052" y="2.95" width="0.8474" height="0.2" />
<rect x="77.4947" y="2.95" width="0.8474" height="0.2" />
<rect x="76.4052" y="3.2333" width="0.8474" height="0.2" />
<rect x="77.4947" y="3.2333" width="0.8474" height="0.2" />
<rect x="76.4052" y="3.5167" width="1.9368" height="0.2" />
<rect x="73.8684" y="2.1" width="0.8474" height="0.2" />
<rect x="74.9579" y="2.1" width="0.8474" height="0.2" />
<rect x="73.8684" y="2.3833" width="1.9368" height="0.2" />
<rect x="73.8684" y="2.6667" width="0.8474" height="0.2" />
<rect x="74.9579" y="2.6667" width="0.8474" height="0.2" />
<rect x="73.8684" y="2.95" width="0.8474" height="0.2" />
<rect x="74.9579" y="2.95" width="0.8474" height="0.2" />
<rect x="73.8684" y="3.2333" width="0.8474" height="0.2" />
<rect x="74.9579" y="3.2333" width="0.8474" height="0.2" />
<rect x="73.8684" y="3.5167" width="1.9368" height="0.2" />
<rect x="71.3315" y="2.1" width="1.9368" height="0.2" />
<rect x="71.3315" y="2.3833" width="1.9368" height="0.2" />
<rect x="71.3315" y="2.6667" width="0.8474" height="0.2" />
<rect x="72.421" y="2.6667" width="0.8474" height="0.2" />
<rect x="71.3315" y="2.95" width="0.8474" height="0.2" />
<rect x="72.421" y="2.95" width="0.8474" height="0.2" />
<rect x="71.3315" y="3.2333" width="0.8474" height="0.2" />
<rect x="72.421" y="3.2333" width="0.8474" height="0.2" />
<rect x="71.3315" y="3.5167" width="1.9368" height="0.2" />
<rect x="68.7947" y="2.1" width="0.8474" height="0.2" />
<rect x="69.8842" y="2.1" width="0.8474" height="0.2" />
<rect x="68.7947" y="2.3833" width="0.8474" height="0.2" />
<rect x="69.8842" y="2.3833" width="0.8474" height="0.2" />
<rect x="68.7947" y="2.6667" width="1.9368" height="0.2" />
<rect x="68.7947" y="2.95" width="0.8474" height="0.2" />
<rect x="69.8842" y="2.95" width="0.8474" height="0.2" />
<rect x="68.7947" y="3.2333" width="0.8474" height="0.2" />
<rect x="69.8842" y="3.2333" width="0.8474" height="0.2" />
<rect x="68.7947" y="3.5167" width="1.9368" height="0.2" />
<rect x="66.2579" y="2.1" width="1.9368" height="0.2" />
<rect x="66.2579" y="2.3833" width="0.8474" height="0.2" />
<rect x="67.3473" y="2.3833" width="0.8474" height="0.2" />
<rect x="66.2579" y="2.6667" width="1.9368" height="0.2" />
<rect x="66.2579" y="2.95" width="0.8474" height="0.2" />
<rect x="67.3473" y="2.95" width="0.8474" height="0.2" />
<rect x="66.2579" y="3.2333" width="0.8474" height="0.2" />
<rect x="67.3473" y="3.2333" width="0.8474" height="0.2" />
<rect x="66.2579" y="3.5167" width="1.9368" height="0.2" />
<rect x="63.721" y="2.1" width="0.8474" height="0.2" />
<rect x="64.8105" y="2.1" width="0.8474" height="0.2" />
<rect x="63.721" y="2.3833" width="1.9368" height="0.2" />
<rect x="63.721" y="2.6667" width="1.9368" height="0.2" />
<rect x="63.721" y="2.95" width="0.8474" height="0.2" />
<rect x="64.8105" y="2.95" width="0.8474" height="0.2" />
<rect x="63.721" y="3.2333" width="0.8474" height="0.2" />
<rect x="64.8105" y="3.2333" width="0.8474" height="0.2" />
<rect x="63.721" y="3.5167" width="1.9368" height="0.2" />
<rect x="61.1842" y="2.1" width="1.9368" height="0.2" />
<rect x="61.1842" y="2.3833" width="1.9368" height="0.2" />
<rect x="61.1842" y="2.6667" width="1.9368" height="0.2" />
<rect x="61.1842" y="2.95" width="0.8474" height="0.2" />
<rect x="62.2736" y="2.95" width="0.8474" height="0.2" />
<rect x="61.1842" y="3.2333" width="0.8474" height="0.2" />
<rect x="62.2736" y="3.2333" width="0.8474" height="0.2" />
<rect x="61.1842" y="3.5167" width="1.9368" height="0.2" />
<rect x="58.6473" y="2.1" width="0.8474" height="0.2" />
<rect x="59.7368" y="2.1" width="0.8474" height="0.2" />
<rect x="58.6473" y="2.3833" width="0.8474" height="0.2" />
<rect x="59.7368" y="2.3833" width="0.8474" height="0.2" />
<rect x="58.6473" y="2.6667" width="0.8474" height="0.2" />
<rect x="59.7368" y="2.6667" width="0.8474" height="0.2" />
<rect x="58.6473" y="2.95" width="1.9368" height="0.2" />
<rect x="58.6473" y="3.2333" width="0.8474" height="0.2" />
<rect x="59.7368" y="3.2333" width="0.8474" height="0.2" />
<rect x="58.6473" y="3.5167" width="1.9368" height="0.2" />
<rect x="56.1105" y="2.1" width="1.9368" height="0.2" />
<rect x="56.1105" y="2.3833" width="0.8474" height="0.2" />
<rect x="57.2" y="2.3833" width="0.8474" height="0.2" />
<rect x="56.1105" y="2.6667" width="0.8474" height="0.2" />
<rect x="57.2" y="2.6667" width="0.8474" height="0.2" />
<rect x="56.1105" y="2.95" width="1.9368" height="0.2" />
<rect x="56.1105" y="3.2333" width="0.8474" height="0.2" />
<rect x="57.2" y="3.2333" width="0.8474" height="0.2" />
<rect x="56.1105" y="3.5167" width="1.9368" height="0.2" />
<rect x="53.5737" y="2.1" width="0.8474" height="0.2" />
<rect x="54.6631" y="2.1" width="0.8474" height="0.2" />
<rect x="53.5737" y="2.3833" width="1.9368" height="0.2" />
<rect x="53.5737" y="2.6667" width="0.8474" height="0.2" />
<rect x="54.6631" y="2.6667" width="0.8474" height="0.2" />
<rect x="53.5737" y="2.95" width="1.9368" height="0.2" />
<rect x="53.5737" y="3.2333" width="0.8474" height="0.2" />
<rect x="54.6631" y="3.2333" width="0.8474" height="0.2" />
<rect x="53.5737" y="3.5167" width="1.9368" height="0.2" />
<rect x="51.0368" y="2.1" width="1.9368" height="0.2" />
<rect x="51.0368" y="2.3833" width="1.9368" height="0.2" />
<rect x="51.0368" y="2.6667" width="0.8474" height="0.2" />
<rect x="52.1263" y="2.6667" width="0.8474" height="0.2" />
<rect x="51.0368" y="2.95" width="1.9368" height="0.2" />
<rect x="51.0368" y="3.2333" width="0.8474" height="0.2" />
<rect x="52.1263" y="3.2333" width="0.8474" height="0.2" />
<rect x="51.0368" y="3.5167" width="1.9368" height="0.2" />
<rect x="48.5" y="2.1" width="0.8474" height="0.2" />
<rect x="49.5894" y="2.1" width="0.8474" height="0.2" />
<rect x="48.5" y="2.3833" width="0.8474" height="0.2" />
<rect x="49.5894" y="2.3833" width="0.8474" height="0.2" />
<rect x="48.5" y="2.6667" width="1.9368" height="0.2" />
<rect x="48.5" y="2.95" width="1.9368" height="0.2" />
<rect x="48.5" y="3.2333" width="0.8474" height="0.2" />
<rect x="49.5894" y="3.2333" width="0.8474" height="0.2" />
<rect x="48.5" y="3.5167" width="1.9368" height="0.2" />
<rect x="45.9631" y="2.1" width="1.9368" height="0.2" />
<rect x="45.9631" y="2.3833" width="0.8474" height="0.2" />
<rect x="47.0526" y="2.3833" width="0.8474" height="0.2" />
<rect x="45.9631" y="2.6667" width="1.9368" height="0.2" />
<rect x="45.9631" y="2.95" width="1.9368" height="0.2" />
<rect x="45.9631" y="3.2333" width="0.8474" height="0.2" />
<rect x="47.0526" y="3.2333" width="0.8474" height="0.2" />
<rect x="45.9631" y="3.5167" width="1.9368" height="0.2" />
<rect x="43.4263" y="2.1" width="0.8474" height="0.2" />
<rect x="44.5158" y="2.1" width="0.8474" height="0.2" />
<rect x="43.4263" y="2.3833" width="1.9368" height="0.2" />
<rect x="43.4263" y="2.6667" width="1.9368" height="0.2" />
<rect x="43.4263" y="2.95" width="1.9368" height="0.2" />
<rect x="43.4263" y="3.2333" width="0.8474" height="0.2" />
<rect x="44.5158" y="3.2333" width="0.8474" height="0.2" />
<rect x="43.4263" y="3.5167" width="1.9368" height="0.2" />
<rect x="40.8894" y="2.1" width="1.9368" height="0.2" />
<rect x="40.8894" y="2.3833" width="1.9368" height="0.2" />
<rect x="40.8894" y="2.6667" width="1.9368" height="0.2" />
<rect x="40.8894" y="2.95" width="1.9368" height="0.2" />
<rect x="40.8894" y="3.2333" width="0.8474" height="0.2" />
<rect x="41.9789" y="3.2333" width="0.8474" height="0.2" />
<rect x="40.8894" y="3.5167" width="1.9368" height="0.2" />
<rect x="38.3526" y="2.1" width="0.8474" height="0.2" />
<rect x="39.4421" y="2.1" width="0.8474" height="0.2" />
<rect x="38.3526" y="2.3833" width="0.8474" height="0.2" />
<rect x="39.4421" y="2.3833" width="0.8474" height="0.2" />
<rect x="38.3526" y="2.6667" width="0.8474" height="0.2" />
<rect x="39.4421" y="2.6667" width="0.8474" height="0.2" />
<rect x="38.3526" y="2.95" width="0.8474" height="0.2" />
<rect x="39.4421" y="2.95" width="0.8474" height="0.2" />
<rect x="38.3526" y="3.2333" width="1.9368" height="0.2" />
<rect x="38.3526" y="3.5167" width="1.9368" height="0.2" />
<rect x="35.8158" y="2.1" width="1.9368" height="0.2" />
<rect x="35.8158" y="2.3833" width="0.8474" height="0.2" />
<rect x="36.9052" y="2.3833" width="0.8474" height="0.2" />
<rect x="35.8158" y="2.6667" width="0.8474" height="0.2" />
<rect x="36.9052" y="2.6667" width="0.8474" height="0.2" />
<rect x="35.8158" y="2.95" width="0.8474" height="0.2" />
<rect x="36.9052" y="2.95" width="0.8474" height="0.2" />
<rect x="35.8158" y="3.2333" width="1.9368" height="0.2" />
<rect x="35.8158" y="3.5167" width="1.9368" height="0.2" />
<rect x="33.2789" y="2.1" width="0.8474" height="0.2" />
<rect x="34.3684" y="2.1" width="0.8474" height="0.2" />
<rect x="33.2789" y="2.3833" width="1.9368" height="0.2" />
<rect x="33.2789" y="2.6667" width="0.8474" height="0.2" />
<rect x="34.3684" y="2.6667" width="0.8474" height="0.2" />
<rect x="33.2789" y="2.95" width="0.8474" height="0.2" />
<rect x="34.3684" y="2.95" width="0.8474" height="0.2" />
<rect x="33.2789" y="3.2333" width="1.9368" height="0.2" />
<rect x="33.2789" y="3.5167" width="1.9368" height="0.2" />
<rect x="30.7421" y="2.1" width="1.9368" height="0.2" />
<rect x="30.7421" y="2.3833" width="1.9368" height="0.2" />
<rect x="30.7421" y="2.6667" width="0.8474" height="0.2" />
<rect x="31.8316" y="2.6667" width="0.8474" height="0.2" />
<rect x="30.7421" y="2.95" width="0.8474" height="0.2" />
<rect x="31.8316" y="2.95" width="0.8474" height="0.2" />
<rect x="30.7421" y="3.2333" width="1.9368" height="0.2" />
<rect x="30.7421" y="3.5167" width="1.9368" height="0.2" />
<rect x="28.2052" y="2.1" width="0.8474" height="0.2" />
<rect x="29.2947" y="2.1" width="0.8474" height="0.2" />
<rect x="28.2052" y="2.3833" width="0.8474" height="0.2" />
<rect x="29.2947" y="2.3833" width="0.8474" height="0.2" />
<rect x="28.2052" y="2.6667" width="1.9368" height="0.2" />
<rect x="28.2052" y="2.95" width="0.8474" height="0.2" />
<rect x="29.2947" y="2.95" width="0.8474" height="0.2" />
<rect x="28.2052" y="3.2333" width="1.9368" height="0.2" />
<rect x="28.2052" y="3.5167" width="1.9368" height="0.2" />
<rect x="25.6684" y="2.1" width="1.9368" height="0.2" />
<rect x="25.6684" y="2.3833" width="0.8474" height="0.2" />
<rect x="26.7579" y="2.3833" width="0.8474" height="0.2" />
<rect x="25.6684" y="2.6667" width="1.9368" height="0.2" />
<rect x="25.6684" y="2.95" width="0.8474" height="0.2" />
<rect x="26.7579" y="2.95" width="0.8474" height="0.2" />
<rect x="25.6684" y="3.2333" width="1.9368" height="0.2" />
<rect x="25.6684" y="3.5167" width="1.9368" height="0.2" />
<rect x="23.1316" y="2.1" width="0.8474" height="0.2" />
<rect x="24.221" y="2.1" width="0.8474" height="0.2" />
<rect x="23.1316" y="2.3833" width="1.9368" height="0.2" />
<rect x="23.1316" y="2.6667" width="1.9368" height="0.2" />
<rect x="23.1316" y="2.95" width="0.8474" height="0.2" />
<rect x="24.221" y="2.95" width="0.8474" height="0.2" />
<rect x="23.1316" y="3.2333" width="1.9368" height="0.2" />
<rect x="23.1316" y="3.5167" width="1.9368" height="0.2" />
<rect x="20.5947" y="2.1" width="1.9368" height="0.2" />
<rect x="20.5947" y="2.3833" width="1.9368" height="0.2" />
<rect x="20.5947" y="2.6667" width="1.9368" height="0.2" />
<rect x="20.5947" y="2.95" width="0.8474" height="0.2" />
<rect x="21.6842" y="2.95" width="0.8474" height="0.2" />
<rect x="20.5947" y="3.2333" width="1.9368" height="0.2" />
<rect x="20.5947" y="3.5167" width="1.9368" height="0.2" />
<rect x="18.0579" y="2.1" width="0.8474" height="0.2" />
<rect x="19.1474" y="2.1" width="0.8474" height="0.2" />
<rect x="18.0579" y="2.3833" width="0.8474" height="0.2" />
<rect x="19.1474" y="2.3833" width="0.8474" height="0.2" />
<rect x="18.0579" y="2.6667" width="0.8474" height="0.2" />
<rect x="19.1474" y="2.6667" width="0.8474" height="0.2" />
<rect x="18.0579" y="2.95" width="1.9368" height="0.2" />
<rect x="18.0579" y="3.2333" width="1.9368" height="0.2" />
<rect x="18.0579" y="3.5167" width="1.9368" height="0.2" />
<rect x="15.521" y="2.1" width="1.9368" height="0.2" />
<rect x="15.521" y="2.3833" width="0.8474" height="0.2" />
<rect x="16.6105" y="2.3833" width="0.8474" height="0.2" />
<rect x="15.521" y="2.6667" width="0.8474" height="0.2" />
<rect x="16.6105" y="2.6667" width="0.8474" height="0.2" />
<rect x="15.521" y="2.95" width="1.9368" height="0.2" />
<rect x="15.521" y="3.2333" width="1.9368" height="0.2" />
<rect x="15.521" y="3.5167" width="1.9368" height="0.2" />
<rect x="12.9842" y="2.1" width="0.8474" height="0.2" />
<rect x="14.0737" y="2.1" width="0.8474" height="0.2" />
<rect x="12.9842" y="2.3833" width="1.9368" height="0.2" />
<rect x="12.9842" y="2.6667" width="0.8474" height="0.2" />
<rect x="14.0737" y="2.6667" width="0.8474" height="0.2" />
<rect x="12.9842" y="2.95" width="1.9368" height="0.2" />
<rect x="12.9842" y="3.2333" width="1.9368" height="0.2" />
<rect x="12.9842" y="3.5167" width="1.9368" height="0.2" />
<rect x="10.4474" y="2.1" width="1.9368" height="0.2" />
<rect x="10.4474" y="2.3833" width="1.9368" height="0.2" />
<rect x="10.4474" y="2.6667" width="0.8474" height="0.2" />
<rect x="11.5368" y="2.6667" width="0.8474" height="0.2" />
<rect x="10.4474" y="2.95" width="1.9368" height="0.2" />
<rect x="10.4474" y="3.2333" width="1.9368" height="0.2" />
<rect x="10.4474" y="3.5167" width="1.9368" height="0.2" />
<rect x="7.9105" y="2.1" width="0.8474" height="0.2" />
<rect x="9" y="2.1" width="0.8474" height="0.2" />
<rect x="7.9105" y="2.3833" width="0.8474" height="0.2" />
<rect x="9" y="2.3833" width="0.8474" height="0.2" />
<rect x="7.9105" y="2.6667" width="1.9368" height="0.2" />
<rect x="7.9105" y="2.95" width="1.9368" height="0.2" />
<rect x="7.9105" y="3.2333" width="1.9368" height="0.2" />
<rect x="7.9105" y="3.5167" width="1.9368" height="0.2" />
<rect x="5.3737" y="2.1" width="1.9368" height="0.2" />
<rect x="5.3737" y="2.3833" width="0.8474" height="0.2" />
<rect x="6.4632" y="2.3833" width="0.8474" height="0.2" />
<rect x="5.3737" y="2.6667" width="1.9368" height="0.2" />
<rect x="5.3737" y="2.95" width="1.9368" height="0.2" />
<rect x="5.3737" y="3.2333" width="1.9368" height="0.2" />
<rect x="5.3737" y="3.5167" width="1.9368" height="0.2" />
<rect x="2.8368" y="2.1" width="0.8474" height="0.2" />
<rect x="3.9263" y="2.1" width="0.8474" height="0.2" />
<rect x="2.8368" y="2.3833" width="1.9368" height="0.2" />
<rect x="2.8368" y="2.6667" width="1.9368" height="0.2" />
<rect x="2.8368" y="2.95" width="1.9368" height="0.2" />
<rect x="2.8368" y="3.2333" width="1.9368" height="0.2" />
<rect x="2.8368" y="3.5167" width="1.9368" height="0.2" />
<rect x="0.3" y="2.1" width="1.9368" height="0.2" />
<rect x="0.3" y="2.3833" width="1.9368" height="0.2" />
<rect x="0.3" y="2.6667" width="1.9368" height="0.2" />
<rect x="0.3" y="2.95" width="1.9368" height="0.2" />
<rect x="0.3" y="3.2333" width="1.9368" height="0.2" />
<rect x="0.3" y="3.5167" width="1.9368" height="0.2" />

</svg>