<svg version="1.1" baseProfile="full" width="81.1789" height="4" xmlns="http://www.w3.org/2000/svg">
<rect x="0.1842" y="0.35" width="0.3" height="0.3" />
<rect x="0.7842" y="0.35" width="0.3" height="0.3" />
<rect x="0.1842" y="0.95" width="0.3" height="0.3" />
<rect x="0.7842" y="0.95" width="0.3" height="0.3" />
<rect x="0.1842" y="1.55" width="0.3" height="0.3" />
<rect x="0.7842" y="1.55" width="0.3" height="0.3" />
<rect x="0.1842" y="2.15" width="0.3" height="0.3" />
<rect x="0.7842" y="2.15" width="0.3" height="0.3" />
<rect x="0.1842" y="2.75" width="0.3" height="0.3" />
<rect x="0.7842" y="2.75" width="0.3" height="0.3" />
<rect x="0.1842" y="3.35" width="0.3" height="0.3" />
<rect x="0.7842" y="3.35" width="0.3" height="0.3" />
<rect x="1.4526" y="0.35" width="0.9" height="0.3" />
<rect x="1.4526" y="0.95" width="0.3" height="0.3" />
<rect x="2.0526" y="0.95" width="0.3" height="0.3" />
<rect x="1.4526" y="1.55" width="0.3" height="0.3" />
<rect x="2.0526" y="1.55" width="0.3" height="0.3" />
<rect x="1.4526" y="2.15" width="0.3" height="0.3" />
<rect x="2.0526" y="2.15" width="0.3" height="0.3" />
<rect x="1.4526" y="2.75" width="0.3" height="0.3" />
<rect x="2.0526" y="2.75" width="0.3" height="0.3" />
<rect x="1.4526" y="3.35" width="0.3" height="0.3" />
<rect x="2.0526" y="3.35" width="0.3" height="0.3" />
<rect x="2.7211" y="0.35" width="0.3" height="0.3" />
<rect x="3.3211" y="0.35" width="0.3" height="0.3" />
<rect x="2.7211" y="0.95" width="0.9" height="0.3" />
<rect x="2.7211" y="1.55" width="0.3" height="0.3" />
<rect x="3.3211" y="1.55" width="0.3" height="0.3" />
<rect x="2.7211" y="2.15" width="0.3" height="0.3" />
<rect x="3.3211" y="2.15" width="0.3" height="0.3" />
<rect x="2.7211" y="2.75" width="0.3" height="0.3" />
<rect x="3.3211" y="2.75" width="0.3" height="0.3" />
<rect x="2.7211" y="3.35" width="0.3" height="0.3" />
<rect x="3.3211" y="3.35" width="0.3" height="0.3" />
<rect x="3.9895" y="0.35" width="0.9" height="0.3" />
<rect x="3.9895" y="0.95" width="0.9" height="0.3" />
<rect x="3.9895" y="1.55" width="0.3" height="0.3" />
<rect x="4.5895" y="1.55" width="0.3" height="0.3" />
<rect x="3.9895" y="2.15" width="0.3" height="0.3" />
<rect x="4.5895" y="2.15" width="0.3" height="0.3" />
<rect x="3.9895" y="2.75" width="0.3" height="0.3" />
<rect x="4.5895" y="2.75" width="0.3" height="0.3" />
<rect x="3.9895" y="3.35" width="0.3" height="0.3" />
<rect x="4.5895" y="3.35" width="0.3" height="0.3" />
<rect x="5.2579" y="0.35" width="0.3" height="0.3" />
<rect x="5.8579" y="0.35" width="0.3" height="0.3" />
<rect x="5.2579" y="0.95" width="0.3" height="0.3" />
<rect x="5.8579" y="0.95" width="0.3" height="0.3" />
<rect x="5.2579" y="1.55" width="0.9" height="0.3" />
<rect x="5.2579" y="2.15" width="0.3" height="0.3" />
<rect x="5.8579" y="2.15" width="0.3" height="0.3" />
<rect x="5.2579" y="2.75" width="0.3" height="0.3" />
<rect x="5.8579" y="2.75" width="0.3" height="0.3" />
<rect x="5.2579" y="3.35" width="0.3" height="0.3" />
<rect x="5.8579" y="3.35" width="0.3" height="0.3" />
<rect x="6.5263" y="0.35" width="0.9" height="0.3" />
<rect x="6.5263" y="0.95" width="0.3" height="0.3" />
<rect x="7.1263" y="0.95" width="0.3" height="0.3" />
<rect x="6.5263" y="1.55" width="0.9" height="0.3" />
<rect x="6.5263" y="2.15" width="0.3" height="0.3" />
<rect x="7.1263" y="2.15" width="0.3" height="0.3" />
<rect x="6.5263" y="2.75" width="0.3" height="0.3" />
<rect x="7.1263" y="2.75" width="0.3" height="0.3" />
<rect x="6.5263" y="3.35" width="0.3" height="0.3" />
<rect x="7.1263" y="3.35" width="0.3" height="0.3" />
<rect x="7.7947" y="0.35" width="0.3" height="0.3" />
<rect x="8.3947" y="0.35" width="0.3" height="0.3" />
<rect x="7.7947" y="0.95" width="0.9" height="0.3" />
<rect x="7.7947" y="1.55" width="0.9" height="0.3" />
<rect x="7.7947" y="2.15" width="0.3" height="0.3" />
<rect x="8.3947" y="2.15" width="0.3" height="0.3" />
<rect x="7.7947" y="2.75" width="0.3" height="0.3" />
<rect x="8.3947" y="2.75" width="0.3" height="0.3" />
<rect x="7.7947" y="3.35" width="0.3" height="0.3" />
<rect x="8.3947" y="3.35" width="0.3" height="0.3" />
<rect x="9.0632" y="0.35" width="0.9" height="0.3" />
<rect x="9.0632" y="0.95" width="0.9" height="0.3" />
<rect x="9.0632" y="1.55" width="0.9" height="0.3" />
<rect x="9.0632" y="2.15" width="0.3" height="0.3" />
<rect x="9.6632" y="2.15" width="0.3" height="0.3" />
<rect x="9.0632" y="2.75" width="0.3" height="0.3" />
<rect x="9.6632" y="2.75" width="0.3" height="0.3" />
<rect x="9.0632" y="3.35" width="0.3" height="0.3" />
<rect x="9.6632" y="3.35" width="0.3" height="0.3" />
<rect x="10.3316" y="0.35" width="0.3" height="0.3" />
<rect x="10.9316" y="0.35" width="0.3" height="0.3" />
<rect x="10.3316" y="0.95" width="0.3" height="0.3" />
<rect x="10.9316" y="0.95" width="0.3" height="0.3" />
<rect x="10.3316" y="1.55" width="0.3" height="0.3" />
<rect x="10.9316" y="1.55" width="0.3" height="0.3" />
<rect x="10.3316" y="2.15" width="0.9" height="0.3" />
<rect x="10.3316" y="2.75" width="0.3" height="0.3" />
<rect x="10.9316" y="2.75" width="0.3" height="0.3" />
<rect x="10.3316" y="3.35" width="0.3" height="0.3" />
<rect x="10.9316" y="3.35" width="0.3" height="0.3" />
<rect x="11.6" y="0.35" width="0.9" height="0.3" />
<rect x="11.6" y="0.95" width="0.3" height="0.3" />
<rect x="12.2" y="0.95" width="0.3" height="0.3" />
<rect x="11.6" y="1.55" width="0.3" height="0.3" />
<rect x="12.2" y="1.55" width="0.3" height="0.3" />
<rect x="11.6" y="2.15" width="0.9" height="0.3" />
<rect x="11.6" y="2.75" width="0.3" height="0.3" />
<rect x="12.2" y="2.75" width="0.3" height="0.3" />
<rect x="11.6" y="3.35" width="0.3" height="0.3" />
<rect x="12.2" y="3.35" width="0.3" height="0.3" />
<rect x="12.8684" y="0.35" width="0.3" height="0.3" />
<rect x="13.4684" y="0.35" width="0.3" height="0.3" />
<rect x="12.8684" y="0.95" width="0.9" height="0.3" />
<rect x="12.8684" y="1.55" width="0.3" height="0.3" />
<rect x="13.4684" y="1.55" width="0.3" height="0.3" />
<rect x="12.8684" y="2.15" width="0.9" height="0.3" />
<rect x="12.8684" y="2.75" width="0.3" height="0.3" />
<rect x="13.4684" y="2.75" width="0.3" height="0.3" />
<rect x="12.8684" y="3.35" width="0.3" height="0.3" />
<rect x="13.4684" y="3.35" width="0.3" height="0.3" />
<rect x="14.1368" y="0.35" width="0.9" height="0.3" />
<rect x="14.1368" y="0.95" width="0.9" height="0.3" />
<rect x="14.1368" y="1.55" width="0.3" height="0.3" />
<rect x="14.7368" y="1.55" width="0.3" height="0.3" />
<rect x="14.1368" y="2.15" width="0.9" height="0.3" />
<rect x="14.1368" y="2.75" width="0.3" height="0.3" />
<rect x="14.7368" y="2.75" width="0.3" height="0.3" />
<rect x="14.1368" y="3.35" width="0.3" height="0.3" />
<rect x="14.7368" y="3.35" width="0.3" height="0.3" />
<rect x="15.4053" y="0.35" width="0.3" height="0.3" />
<rect x="16.0053" y="0.35" width="0.3" height="0.3" />
<rect x="15.4053" y="0.95" width="0.3" height="0.3" />
<rect x="16.0053" y="0.95" width="0.3" height="0.3" />
<rect x="15.4053" y="1.55" width="0.9" height="0.3" />
<rect x="15.4053" y="2.15" width="0.9" height="0.3" />
<rect x="15.4053" y="2.75" width="0.3" height="0.3" />
<rect x="16.0053" y="2.75" width="0.3" height="0.3" />
<rect x="15.4053" y="3.35" width="0.3" height="0.3" />
<rect x="16.0053" y="3.35" width="0.3" height="0.3" />
<rect x="16.6737" y="0.35" width="0.9" height="0.3" />
<rect x="16.6737" y="0.95" width="0.3" height="0.3" />
<rect x="17.2737" y="0.95" width="0.3" height="0.3" />
<rect x="16.6737" y="1.55" width="0.9" height="0.3" />
<rect x="16.6737" y="2.15" width="0.9" height="0.3" />
<rect x="16.6737" y="2.75" width="0.3" height="0.3" />
<rect x="17.2737" y="2.75" width="0.3" height="0.3" />
<rect x="16.6737" y="3.35" width="0.3" height="0.3" />
<rect x="17.2737" y="3.35" width="0.3" height="0.3" />
<rect x="17.9421" y="0.35" width="0.3" height="0.3" />
<rect x="18.5421" y="0.35" width="0.3" height="0.3" />
<rect x="17.9421" y="0.95" width="0.9" height="0.3" />
<rect x="17.9421" y="1.55" width="0.9" height="0.3" />
<rect x="17.9421" y="2.15" width="0.9" height="0.3" />
<rect x="17.9421" y="2.75" width="0.3" height="0.3" />
<rect x="18.5421" y="2.75" width="0.3" height="0.3" />
<rect x="17.9421" y="3.35" width="0.3" height="0.3" />
<rect x="18.5421" y="3.35" width="0.3" height="0.3" />
<rect x="19.2105" y="0.35" width="0.9" height="0.3" />
<rect x="19.2105" y="0.95" width="0.9" height="0.3" />
<rect x="19.2105" y="1.55" width="0.9" height="0.3" />
<rect x="19.2105" y="2.15" width="0.9" height="0.3" />
<rect x="19.2105" y="2.75" width="0.3" height="0.3" />
<rect x="19.8105" y="2.75" width="0.3" height="0.3" />
<rect x="19.2105" y="3.35" width="0.3" height="0.3" />
<rect x="19.8105" y="3.35" width="0.3" height="0.3" />
<rect x="20.4789" y="0.35" width="0.3" height="0.3" />
<rect x="21.0789" y="0.35" width="0.3" height="0.3" />
<rect x="20.4789" y="0.95" width="0.3" height="0.3" />
<rect x="21.0789" y="0.95" width="0.3" height="0.3" />
<rect x="20.4789" y="1.55" width="0.3" height="0.3" />
<rect x="21.0789" y="1.55" width="0.3" height="0.3" />
<rect x="20.4789" y="2.15" width="0.3" height="0.3" />
<rect x="21.0789" y="2.15" width="0.3" height="0.3" />
<rect x="20.4789" y="2.75" width="0.9" height="0.3" />
<rect x="20.4789" y="3.35" width="0.3" height="0.3" />
<rect x="21.0789" y="3.35" width="0.3" height="0.3" />
<rect x="21.7474" y="0.35" width="0.9" height="0.3" />
<rect x="21.7474" y="0.95" width="0.3" height="0.3" />
<rect x="22.3474" y="0.95" width="0.3" height="0.3" />
<rect x="21.7474" y="1.55" width="0.3" height="0.3" />
<rect x="22.3474" y="1.55" width="0.3" height="0.3" />
<rect x="21.7474" y="2.15" width="0.3" height="0.3" />
<rect x="22.3474" y="2.15" width="0.3" height="0.3" />
<rect x="21.7474" y="2.75" width="0.9" height="0.3" />
<rect x="21.7474" y="3.35" width="0.3" height="0.3" />
<rect x="22.3474" y="3.35" width="0.3" height="0.3" />
<rect x="23.0158" y="0.35" width="0.3" height="0.3" />
<rect x="23.6158" y="0.35" width="0.3" height="0.3" />
<rect x="23.0158" y="0.95" width="0.9" height="0.3" />
<rect x="23.0158" y="1.55" width="0.3" height="0.3" />
<rect x="23.6158" y="1.55" width="0.3" height="0.3" />
<rect x="23.0158" y="2.15" width="0.3" height="0.3" />
<rect x="23.6158" y="2.15" width="0.3" height="0.3" />
<rect x="23.0158" y="2.75" width="0.9" height="0.3" />
<rect x="23.0158" y="3.35" width="0.3" height="0.3" />
<rect x="23.6158" y="3.35" width="0.3" height="0.3" />
<rect x="24.2842" y="0.35" width="0.9" height="0.3" />
<rect x="24.2842" y="0.95" width="0.9" height="0.3" />
<rect x="24.2842" y="1.55" width="0.3" height="0.3" />
<rect x="24.8842" y="1.55" width="0.3" height="0.3" />
<rect x="24.2842" y="2.15" width="0.3" height="0.3" />
<rect x="24.8842" y="2.15" width="0.3" height="0.3" />
<rect x="24.2842" y="2.75" width="0.9" height="0.3" />
<rect x="24.2842" y="3.35" width="0.3" height="0.3" />
<rect x="24.8842" y="3.35" width="0.3" height="0.3" />
<rect x="25.5526" y="0.35" width="0.3" height="0.3" />
<rect x="26.1526" y="0.35" width="0.3" height="0.3" />
<rect x="25.5526" y="0.95" width="0.3" height="0.3" />
<rect x="26.1526" y="0.95" width="0.3" height="0.3" />
<rect x="25.5526" y="1.55" width="0.9" height="0.3" />
<rect x="25.5526" y="2.15" width="0.3" height="0.3" />
<rect x="26.1526" y="2.15" width="0.3" height="0.3" />
<rect x="25.5526" y="2.75" width="0.9" height="0.3" />
<rect x="25.5526" y="3.35" width="0.3" height="0.3" />
<rect x="26.1526" y="3.35" width="0.3" height="0.3" />
<rect x="26.821" y="0.35" width="0.9" height="0.3" />
<rect x="26.821" y="0.95" width="0.3" height="0.3" />
<rect x="27.421" y="0.95" width="0.3" height="0.3" />
<rect x="26.821" y="1.55" width="0.9" height="0.3" />
<rect x="26.821" y="2.15" width="0.3" height="0.3" />
<rect x="27.421" y="2.15" width="0.3" height="0.3" />
<rect x="26.821" y="2.75" width="0.9" height="0.3" />
<rect x="26.821" y="3.35" width="0.3" height="0.3" />
<rect x="27.421" y="3.35" width="0.3" height="0.3" />
<rect x="28.0895" y="0.35" width="0.3" height="0.3" />
<rect x="28.6895" y="0.35" width="0.3" height="0.3" />
<rect x="28.0895" y="0.95" width="0.9" height="0.3" />
<rect x="28.0895" y="1.55" width="0.9" height="0.3" />
<rect x="28.0895" y="2.15" width="0.3" height="0.3" />
<rect x="28.6895" y="2.15" width="0.3" height="0.3" />
<rect x="28.0895" y="2.75" width="0.9" height="0.3" />
<rect x="28.0895" y="3.35" width="0.3" height="0.3" />
<rect x="28.6895" y="3.35" width="0.3" height="0.3" />
<rect x="29.3579" y="0.35" width="0.9" height="0.3" />
<rect x="29.3579" y="0.95" width="0.9" height="0.3" />
<rect x="29.3579" y="1.55" width="0.9" height="0.3" />
<rect x="29.3579" y="2.15" width="0.3" height="0.3" />
<rect x="29.9579" y="2.15" width="0.3" height="0.3" />
<rect x="29.3579" y="2.75" width="0.9" height="0.3" />
<rect x="29.3579" y="3.35" width="0.3" height="0.3" />
<rect x="29.9579" y="3.35" width="0.3" height="0.3" />
<rect x="30.6263" y="0.35" width="0.3" height="0.3" />
<rect x="31.2263" y="0.35" width="0.3" height="0.3" />
<rect x="30.6263" y="0.95" width="0.3" height="0.3" />
<rect x="31.2263" y="0.95" width="0.3" height="0.3" />
<rect x="30.6263" y="1.55" width="0.3" height="0.3" />
<rect x="31.2263" y="1.55" width="0.3" height="0.3" />
<rect x="30.6263" y="2.15" width="0.9" height="0.3" />
<rect x="30.6263" y="2.75" width="0.9" height="0.3" />
<rect x="30.6263" y="3.35" width="0.3" height="0.3" />
<rect x="31.2263" y="3.35" width="0.3" height="0.3" />
<rect x="31.8947" y="0.35" width="0.9" height="0.3" />
<rect x="31.8947" y="0.95" width="0.3" height="0.3" />
<rect x="32.4947" y="0.95" width="0.3" height="0.3" />
<rect x="31.8947" y="1.55" width="0.3" height="0.3" />
<rect x="32.4947" y="1.55" width="0.3" height="0.3" />
<rect x="31.8947" y="2.15" width="0.9" height="0.3" />
<rect x="31.8947" y="2.75" width="0.9" height="0.3" />
<rect x="31.8947" y="3.35" width="0.3" height="0.3" />
<rect x="32.4947" y="3.35" width="0.3" height="0.3" />
<rect x="33.1631" y="0.35" width="0.3" height="0.3" />
<rect x="33.7631" y="0.35" width="0.3" height="0.3" />
<rect x="33.1631" y="0.95" width="0.9" height="0.3" />
<rect x="33.1631" y="1.55" width="0.3" height="0.3" />
<rect x="33.7631" y="1.55" width="0.3" height="0.3" />
<rect x="33.1631" y="2.15" width="0.9" height="0.3" />
<rect x="33.1631" y="2.75" width="0.9" height="0.3" />
<rect x="33.1631" y="3.35" width="0.3" height="0.3" />
<rect x="33.7631" y="3.35" width="0.3" height="0.3" />
<rect x="34.4316" y="0.35" width="0.9" height="0.3" />
<rect x="34.4316" y="0.95" width="0.9" height="0.3" />
<rect x="34.4316" y="1.55" width="0.3" height="0.3" />
<rect x="35.0316" y="1.55" width="0.3" height="0.3" />
<rect x="34.4316" y="2.15" width="0.9" height="0.3" />
<rect x="34.4316" y="2.75" width="0.9" height="0.3" />
<rect x="34.4316" y="3.35" width="0.3" height="0.3" />
<rect x="35.0316" y="3.35" width="0.3" height="0.3" />
<rect x="35.7" y="0.35" width="0.3" height="0.3" />
<rect x="36.3" y="0.35" width="0.3" height="0.3" />
<rect x="35.7" y="0.95" width="0.3" height="0.3" />
<rect x="36.3" y="0.95" width="0.3" height="0.3" />
<rect x="35.7" y="1.55" width="0.9" height="0.3" />
<rect x="35.7" y="2.15" width="0.9" height="0.3" />
<rect x="35.7" y="2.75" width="0.9" height="0.3" />
<rect x="35.7" y="3.35" width="0.3" height="0.3" />
<rect x="36.3" y="3.35" width="0.3" height="0.3" />
<rect x="36.9684" y="0.35" width="0.9" height="0.3" />
<rect x="36.9684" y="0.95" width="0.3" height="0.3" />
<rect x="37.5684" y="0.95" width="0.3" height="0.3" />
<rect x="36.9684" y="1.55" width="0.9" height="0.3" />
<rect x="36.9684" y="2.15" width="0.9" height="0.3" />
<rect x="36.9684" y="2.75" width="0.9" height="0.3" />
<rect x="36.9684" y="3.35" width="0.3" height="0.3" />
<rect x="37.5684" y="3.35" width="0.3" height="0.3" />
<rect x="38.2368" y="0.35" width="0.3" height="0.3" />
<rect x="38.8368" y="0.35" width="0.3" height="0.3" />
<rect x="38.2368" y="0.95" width="0.9" height="0.3" />
<rect x="38.2368" y="1.55" width="0.9" height="0.3" />
<rect x="38.2368" y="2.15" width="0.9" height="0.3" />
<rect x="38.2368" y="2.75" width="0.9" height="0.3" />
<rect x="38.2368" y="3.35" width="0.3" height="0.3" />
<rect x="38.8368" y="3.35" width="0.3" height="0.3" />
<rect x="39.5052" y="0.35" width="0.9" height="0.3" />
<rect x="39.5052" y="0.95" width="0.9" height="0.3" />
<rect x="39.5052" y="1.55" width="0.9" height="0.3" />
<rect x="39.5052" y="2.15" width="0.9" height="0.3" />
<rect x="39.5052" y="2.75" width="0.9" height="0.3" />
<rect x="39.5052" y="3.35" width="0.3" height="0.3" />
<rect x="40.1052" y="3.35" width="0.3" height="0.3" />
<rect x="40.7737" y="0.35" width="0.3" height="0.3" />
<rect x="41.3737" y="0.35" width="0.3" height="0.3" />
<rect x="40.7737" y="0.95" width="0.3" height="0.3" />
<rect x="41.3737" y="0.95" width="0.3" height="0.3" />
<rect x="40.7737" y="1.55" width="0.3" height="0.3" />
<rect x="41.3737" y="1.55" width="0.3" height="0.3" />
<rect x="40.7737" y="2.15" width="0.3" height="0.3" />
<rect x="41.3737" y="2.15" width="0.3" height="0.3" />
<rect x="40.7737" y="2.75" width="0.3" height="0.3" />
<rect x="41.3737" y="2.75" width="0.3" height="0.3" />
<rect x="40.7737" y="3.35" width="0.9" height="0.3" />
<rect x="42.0421" y="0.35" width="0.9" height="0.3" />
<rect x="42.0421" y="0.95" width="0.3" height="0.3" />
<rect x="42.6421" y="0.95" width="0.3" height="0.3" />
<rect x="42.0421" y="1.55" width="0.3" height="0.3" />
<rect x="42.6421" y="1.55" width="0.3" height="0.3" />
<rect x="42.0421" y="2.15" width="0.3" height="0.3" />
<rect x="42.6421" y="2.15" width="0.3" height="0.3" />
<rect x="42.0421" y="2.75" width="0.3" height="0.3" />
<rect x="42.6421" y="2.75" width="0.3" height="0.3" />
<rect x="42.0421" y="3.35" width="0.9" height="0.3" />
<rect x="43.3105" y="0.35" width="0.3" height="0.3" />
<rect x="43.9105" y="0.35" width="0.3" height="0.3" />
<rect x="43.3105" y="0.95" width="0.9" height="0.3" />
<rect x="43.3105" y="1.55" width="0.3" height="0.3" />
<rect x="43.9105" y="1.55" width="0.3" height="0.3" />
<rect x="43.3105" y="2.15" width="0.3" height="0.3" />
<rect x="43.9105" y="2.15" width="0.3" height="0.3" />
<rect x="43.3105" y="2.75" width="0.3" height="0.3" />
<rect x="43.9105" y="2.75" width="0.3" height="0.3" />
<rect x="43.3105" y="3.35" width="0.9" height="0.3" />
<rect x="44.5789" y="0.35" width="0.9" height="0.3" />
<rect x="44.5789" y="0.95" width="0.9" height="0.3" />
<rect x="44.5789" y="1.55" width="0.3" height="0.3" />
<rect x="45.1789" y="1.55" width="0.3" height="0.3" />
<rect x="44.5789" y="2.15" width="0.3" height="0.3" />
<rect x="45.1789" y="2.15" width="0.3" height="0.3" />
<rect x="44.5789" y="2.75" width="0.3" height="0.3" />
<rect x="45.1789" y="2.75" width="0.3" height="0.3" />
<rect x="44.5789" y="3.35" width="0.9" height="0.3" />
<rect x="45.8473" y="0.35" width="0.3" height="0.3" />
<rect x="46.4473" y="0.35" width="0.3" height="0.3" />
<rect x="45.8473" y="0.95" width="0.3" height="0.3" />
<rect x="46.4473" y="0.95" width="0.3" height="0.3" />
<rect x="45.8473" y="1.55" width="0.9" height="0.3" />
<rect x="45.8473" y="2.15" width="0.3" height="0.3" />
<rect x="46.4473" y="2.15" width="0.3" height="0.3" />
<rect x="45.8473" y="2.75" width="0.3" height="0.3" />
<rect x="46.4473" y="2.75" width="0.3" height="0.3" />
<rect x="45.8473" y="3.35" width="0.9" height="0.3" />
<rect x="47.1158" y="0.35" width="0.9" height="0.3" />
<rect x="47.1158" y="0.95" width="0.3" height="0.3" />
<rect x="47.7158" y="0.95" width="0.3" height="0.3" />
<rect x="47.1158" y="1.55" width="0.9" height="0.3" />
<rect x="47.1158" y="2.15" width="0.3" height="0.3" />
<rect x="47.7158" y="2.15" width="0.3" height="0.3" />
<rect x="47.1158" y="2.75" width="0.3" height="0.3" />
<rect x="47.7158" y="2.75" width="0.3" height="0.3" />
<rect x="47.1158" y="3.35" width="0.9" height="0.3" />
<rect x="48.3842" y="0.35" width="0.3" height="0.3" />
<rect x="48.9842" y="0.35" width="0.3" height="0.3" />
<rect x="48.3842" y="0.95" width="0.9" height="0.3" />
<rect x="48.3842" y="1.55" width="0.9" height="0.3" />
<rect x="48.3842" y="2.15" width="0.3" height="0.3" />
<rect x="48.9842" y="2.15" width="0.3" height="0.3" />
<rect x="48.3842" y="2.75" width="0.3" height="0.3" />
<rect x="48.9842" y="2.75" width="0.3" height="0.3" />
<rect x="48.3842" y="3.35" width="0.9" height="0.3" />
<rect x="49.6526" y="0.35" width="0.9" height="0.3" />
<rect x="49.6526" y="0.95" width="0.9" height="0.3" />
<rect x="49.6526" y="1.55" width="0.9" height="0.3" />
<rect x="49.6526" y="2.15" width="0.3" height="0.3" />
<rect x="50.2526" y="2.15" width="0.3" height="0.3" />
<rect x="49.6526" y="2.75" width="0.3" height="0.3" />
<rect x="50.2526" y="2.75" width="0.3" height="0.3" />
<rect x="49.6526" y="3.35" width="0.9" height="0.3" />
<rect x="50.921" y="0.35" width="0.3" height="0.3" />
<rect x="51.521" y="0.35" width="0.3" height="0.3" />
<rect x="50.921" y="0.95" width="0.3" height="0.3" />
<rect x="51.521" y="0.95" width="0.3" height="0.3" />
<rect x="50.921" y="1.55" width="0.3" height="0.3" />
<rect x="51.521" y="1.55" width="0.3" height="0.3" />
<rect x="50.921" y="2.15" width="0.9" height="0.3" />
<rect x="50.921" y="2.75" width="0.3" height="0.3" />
<rect x="51.521" y="2.75" width="0.3" height="0.3" />
<rect x="50.921" y="3.35" width="0.9" height="0.3" />
<rect x="52.1894" y="0.35" width="0.9" height="0.3" />
<rect x="52.1894" y="0.95" width="0.3" height="0.3" />
<rect x="52.7894" y="0.95" width="0.3" height="0.3" />
<rect x="52.1894" y="1.55" width="0.3" height="0.3" />
<rect x="52.7894" y="1.55" width="0.3" height="0.3" />
<rect x="52.1894" y="2.15" width="0.9" height="0.3" />
<rect x="52.1894" y="2.75" width="0.3" height="0.3" />
<rect x="52.7894" y="2.75" width="0.3" height="0.3" />
<rect x="52.1894" y="3.35" width="0.9" height="0.3" />
<rect x="53.4579" y="0.35" width="0.3" height="0.3" />
<rect x="54.0579" y="0.35" width="0.3" height="0.3" />
<rect x="53.4579" y="0.95" width="0.9" height="0.3" />
<rect x="53.4579" y="1.55" width="0.3" height="0.3" />
<rect x="54.0579" y="1.55" width="0.3" height="0.3" />
<rect x="53.4579" y="2.15" width="0.9" height="0.3" />
<rect x="53.4579" y="2.75" width="0.3" height="0.3" />
<rect x="54.0579" y="2.75" width="0.3" height="0.3" />
<rect x="53.4579" y="3.35" width="0.9" height="0.3" />
<rect x="54.7263" y="0.35" width="0.9" height="0.3" />
<rect x="54.7263" y="0.95" width="0.9" height="0.3" />
<rect x="54.7263" y="1.55" width="0.3" height="0.3" />
<rect x="55.3263" y="1.55" width="0.3" height="0.3" />
<rect x="54.7263" y="2.15" width="0.9" height="0.3" />
<rect x="54.7263" y="2.75" width="0.3" height="0.3" />
<rect x="55.3263" y="2.75" width="0.3" height="0.3" />
<rect x="54.7263" y="3.35" width="0.9" height="0.3" />
<rect x="55.9947" y="0.35" width="0.3" height="0.3" />
<rect x="56.5947" y="0.35" width="0.3" height="0.3" />
<rect x="55.9947" y="0.95" width="0.3" height="0.3" />
<rect x="56.5947" y="0.95" width="0.3" height="0.3" />
<rect x="55.9947" y="1.55" width="0.9" height="0.3" />
<rect x="55.9947" y="2.15" width="0.9" height="0.3" />
<rect x="55.9947" y="2.75" width="0.3" height="0.3" />
<rect x="56.5947" y="2.75" width="0.3" height="0.3" />
<rect x="55.9947" y="3.35" width="0.9" height="0.3" />
<rect x="57.2631" y="0.35" width="0.9" height="0.3" />
<rect x="57.2631" y="0.95" width="0.3" height="0.3" />
<rect x="57.8631" y="0.95" width="0.3" height="0.3" />
<rect x="57.2631" y="1.55" width="0.9" height="0.3" />
<rect x="57.2631" y="2.15" width="0.9" height="0.3" />
<rect x="57.2631" y="2.75" width="0.3" height="0.3" />
<rect x="57.8631" y="2.75" width="0.3" height="0.3" />
<rect x="57.2631" y="3.35" width="0.9" height="0.3" />
<rect x="58.5315" y="0.35" width="0.3" height="0.3" />
<rect x="59.1315" y="0.35" width="0.3" height="0.3" />
<rect x="58.5315" y="0.95" width="0.9" height="0.3" />
<rect x="58.5315" y="1.55" width="0.9" height="0.3" />
<rect x="58.5315" y="2.15" width="0.9" height="0.3" />
<rect x="58.5315" y="2.75" width="0.3" height="0.3" />
<rect x="59.1315" y="2.75" width="0.3" height="0.3" />
<rect x="58.5315" y="3.35" width="0.9" height="0.3" />
<rect x="59.8" y="0.35" width="0.9" height="0.3" />
<rect x="59.8" y="0.95" width="0.9" height="0.3" />
<rect x="59.8" y="1.55" width="0.9" height="0.3" />
<rect x="59.8" y="2.15" width="0.9" height="0.3" />
<rect x="59.8" y="2.75" width="0.3" height="0.3" />
<rect x="60.4" y="2.75" width="0.3" height="0.3" />
<rect x="59.8" y="3.35" width="0.9" height="0.3" />
<rect x="61.0684" y="0.35" width="0.3" height="0.3" />
<rect x="61.6684" y="0.35" width="0.3" height="0.3" />
<rect x="61.0684" y="0.95" width="0.3" height="0.3" />
<rect x="61.6684" y="0.95" width="0.3" height="0.3" />
<rect x="61.0684" y="1.55" width="0.3" height="0.3" />
<rect x="61.6684" y="1.55" width="0.3" height="0.3" />
<rect x="61.0684" y="2.15" width="0.3" height="0.3" />
<rect x="61.6684" y="2.15" width="0.3" height="0.3" />
<rect x="61.0684" y="2.75" width="0.9" height="0.3" />
<rect x="61.0684" y="3.35" width="0.9" height="0.3" />
<rect x="62.3368" y="0.35" width="0.9" height="0.3" />
<rect x="62.3368" y="0.95" width="0.3" height="0.3" />
<rect x="62.9368" y="0.95" width="0.3" height="0.3" />
<rect x="62.3368" y="1.55" width="0.3" height="0.3" />
<rect x="62.9368" y="1.55" width="0.3" height="0.3" />
<rect x="62.3368" y="2.15" width="0.3" height="0.3" />
<rect x="62.9368" y="2.15" width="0.3" height="0.3" />
<rect x="62.3368" y="2.75" width="0.9" height="0.3" />
<rect x="62.3368" y="3.35" width="0.9" height="0.3" />
<rect x="63.6052" y="0.35" width="0.3" height="0.3" />
<rect x="64.2052" y="0.35" width="0.3" height="0.3" />
<rect x="63.6052" y="0.95" width="0.9" height="0.3" />
<rect x="63.6052" y="1.55" width="0.3" height="0.3" />
<rect x="64.2052" y="1.55" width="0.3" height="0.3" />
<rect x="63.6052" y="2.15" width="0.3" height="0.3" />
<rect x="64.2052" y="2.15" width="0.3" height="0.3" />
<rect x="63.6052" y="2.75" width="0.9" height="0.3" />
<rect x="63.6052" y="3.35" width="0.9" height="0.3" />
<rect x="64.8736" y="0.35" width="0.9" height="0.3" />
<rect x="64.8736" y="0.95" width="0.9" height="0.3" />
<rect x="64.8736" y="1.55" width="0.3" height="0.3" />
<rect x="65.4736" y="1.55" width="0.3" height="0.3" />
<rect x="64.8736" y="2.15" width="0.3" height="0.3" />
<rect x="65.4736" y="2.15" width="0.3" height="0.3" />
<rect x="64.8736" y="2.75" width="0.9" height="0.3" />
<rect x="64.8736" y="3.35" width="0.9" height="0.3" />
<rect x="66.1421" y="0.35" width="0.3" height="0.3" />
<rect x="66.7421" y="0.35" width="0.3" height="0.3" />
<rect x="66.1421" y="0.95" width="0.3" height="0.3" />
<rect x="66.7421" y="0.95" width="0.3" height="0.3" />
<rect x="66.1421" y="1.55" width="0.9" height="0.3" />
<rect x="66.1421" y="2.15" width="0.3" height="0.3" />
<rect x="66.7421" y="2.15" width="0.3" height="0.3" />
<rect x="66.1421" y="2.75" width="0.9" height="0.3" />
<rect x="66.1421" y="3.35" width="0.9" height="0.3" />
<rect x="67.4105" y="0.35" width="0.9" height="0.3" />
<rect x="67.4105" y="0.95" width="0.3" height="0.3" />
<rect x="68.0105" y="0.95" width="0.3" height="0.3" />
<rect x="67.4105" y="1.55" width="0.9" height="0.3" />
<rect x="67.4105" y="2.15" width="0.3" height="0.3" />
<rect x="68.0105" y="2.15" width="0.3" height="0.3" />
<rect x="67.4105" y="2.75" width="0.9" height="0.3" />
<rect x="67.4105" y="3.35" width="0.9" height="0.3" />
<rect x="68.6789" y="0.35" width="0.3" height="0.3" />
<rect x="69.2789" y="0.35" width="0.3" height="0.3" />
<rect x="68.6789" y="0.95" width="0.9" height="0.3" />
<rect x="68.6789" y="1.55" width="0.9" height="0.3" />
<rect x="68.6789" y="2.15" width="0.3" height="0.3" />
<rect x="69.2789" y="2.15" width="0.3" height="0.3" />
<rect x="68.6789" y="2.75" width="0.9" height="0.3" />
<rect x="68.6789" y="3.35" width="0.9" height="0.3" />
<rect x="69.9473" y="0.35" width="0.9" height="0.3" />
<rect x="69.9473" y="0.95" width="0.9" height="0.3" />
<rect x="69.9473" y="1.55" width="0.9" height="0.3" />
<rect x="69.9473" y="2.15" width="0.3" height="0.3" />
<rect x="70.5473" y="2.15" width="0.3" height="0.3" />
<rect x="69.9473" y="2.75" width="0.9" height="0.3" />
<rect x="69.9473" y="3.35" width="0.9" height="0.3" />
<rect x="71.2157" y="0.35" width="0.3" height="0.3" />
<rect x="71.8157" y="0.35" width="0.3" height="0.3" />
<rect x="71.2157" y="0.95" width="0.3" height="0.3" />
<rect x="71.8157" y="0.95" width="0.3" height="0.3" />
<rect x="71.2157" y="1.55" width="0.3" height="0.3" />
<rect x="71.8157" y="1.55" width="0.3" height="0.3" />
<rect x="71.2157" y="2.15" width="0.9" height="0.3" />
<rect x="71.2157" y="2.75" width="0.9" height="0.3" />
<rect x="71.2157" y="3.35" width="0.9" height="0.3" />
<rect x="72.4842" y="0.35" width="0.9" height="0.3" />
<rect x="72.4842" y="0.95" width="0.3" height="0.3" />
<rect x="73.0842" y="0.95" width="0.3" height="0.3" />
<rect x="72.4842" y="1.55" width="0.3" height="0.3" />
<rect x="73.0842" y="1.55" width="0.3" height="0.3" />
<rect x="72.4842" y="2.15" width="0.9" height="0.3" />
<rect x="72.4842" y="2.75" width="0.9" height="0.3" />
<rect x="72.4842" y="3.35" width="0.9" height="0.3" />
<rect x="73.7526" y="0.35" width="0.3" height="0.3" />
<rect x="74.3526" y="0.35" width="0.3" height="0.3" />
<rect x="73.7526" y="0.95" width="0.9" height="0.3" />
<rect x="73.7526" y="1.55" width="0.3" height="0.3" />
<rect x="74.3526" y="1.55" width="0.3" height="0.3" />
<rect x="73.7526" y="2.15" width="0.9" height="0.3" />
<rect x="73.7526" y="2.75" width="0.9" height="0.3" />
<rect x="73.7526" y="3.35" width="0.9" height="0.3" />
<rect x="75.021" y="0.35" width="0.9" height="0.3" />
<rect x="75.021" y="0.95" width="0.9" height="0.3" />
<rect x="75.021" y="1.55" width="0.3" height="0.3" />
<rect x="75.621" y="1.55" width="0.3" height="0.3" />
<rect x="75.021" y="2.15" width="0.9" height="0.3" />
<rect x="75.021" y="2.75" width="0.9" height="0.3" />
<rect x="75.021" y="3.35" width="0.9" height="0.3" />
<rect x="76.2894" y="0.35" width="0.3" height="0.3" />
<rect x="76.8894" y="0.35" width="0.3" height="0.3" />
<rect x="76.2894" y="0.95" width="0.3" height="0.3" />
<rect x="76.8894" y="0.95" width="0.3" height="0.3" />
<rect x="76.2894" y="1.55" width="0.9" height="0.3" />
<rect x="76.2894" y="2.15" width="0.9" height="0.3" />
<rect x="76.2894" y="2.75" width="0.9" height="0.3" />
<rect x="76.2894" y="3.35" width="0.9" height="0.3" />
<rect x="77.5578" y="0.35" width="0.9" height="0.3" />
<rect x="77.5578" y="0.95" width="0.3" height="0.3" />
<rect x="78.1578" y="0.95" width="0.3" height="0.3" />
<rect x="77.5578" y="1.55" width="0.9" height="0.3" />
<rect x="77.5578" y="2.15" width="0.9" height="0.3" />
<rect x="77.5578" y="2.75" width="0.9" height="0.3" />
<rect x="77.5578" y="3.35" width="0.9" height="0.3" />
<rect x="78.8263" y="0.35" width="0.3" height="0.3" />
<rect x="79.4263" y="0.35" width="0.3" height="0.3" />
<rect x="78.8263" y="0.95" width="0.9" height="0.3" />
<rect x="78.8263" y="1.55" width="0.9" height="0.3" />
<rect x="78.8263" y="2.15" width="0.9" height="0.3" />
<rect x="78.8263" y="2.75" width="0.9" height="0.3" />
<rect x="78.8263" y="3.35" width="0.9" height="0.3" />
<rect x="80.0947" y="0.35" width="0.9" height="0.3" />
<rect x="80.0947" y="0.95" width="0.9" height="0.3" />
<rect x="80.0947" y="1.55" width="0.9" height="0.3" />
<rect x="80.0947" y="2.15" width="0.9" height="0.3" />
<rect x="80.0947" y="2.75" width="0.9" height="0.3" />
<rect x="80.0947" y="3.35" width="0.9" height="0.3" />

</svg>