<svg version="1.1" baseProfile="full" width="811.789" height="40" xmlns="http://www.w3.org/2000/svg">
<rect x="1.8421" y="3.5" width="3" height="3" />
<rect x="7.8421" y="3.5" width="3" height="3" />
<rect x="1.8421" y="9.5" width="3" height="3" />
<rect x="7.8421" y="9.5" width="3" height="3" />
<rect x="1.8421" y="15.5" width="3" height="3" />
<rect x="7.8421" y="15.5" width="3" height="3" />
<rect x="1.8421" y="21.5" width="3" height="3" />
<rect x="7.8421" y="21.5" width="3" height="3" />
<rect x="1.8421" y="27.5" width="3" height="3" />
<rect x="7.8421" y="27.5" width="3" height="3" />
<rect x="1.8421" y="33.5" width="3" height="3" />
<rect x="7.8421" y="33.5" width="3" height="3" />
<rect x="14.5263" y="3.5" width="9" height="3" />
<rect x="14.5263" y="9.5" width="3" height="3" />
<rect x="20.5263" y="9.5" width="3" height="3" />
<rect x="14.5263" y="15.5" width="3" height="3" />
<rect x="20.5263" y="15.5" width="3" height="3" />
<rect x="14.5263" y="21.5" width="3" height="3" />
<rect x="20.5263" y="21.5" width="3" height="3" />
<rect x="14.5263" y="27.5" width="3" height="3" />
<rect x="20.5263" y="27.5" width="3" height="3" />
<rect x="14.5263" y="33.5" width="3" height="3" />
<rect x="20.5263" y="33.5" width="3" height="3" />
<rect x="27.2105" y="3.5" width="3" height="3" />
<rect x="33.2105" y="3.5" width="3" height="3" />
<rect x="27.2105" y="9.5" width="9" height="3" />
<rect x="27.2105" y="15.5" width="3" height="3" />
<rect x="33.2105" y="15.5" width="3" height="3" />
<rect x="27.2105" y="21.5" width="3" height="3" />
<rect x="33.2105" y="21.5" width="3" height="3" />
<rect x="27.2105" y="27.5" width="3" height="3" />
<rect x="33.2105" y="27.5" width="3" height="3" />
<rect x="27.2105" y="33.5" width="3" height="3" />
<rect x="33.2105" y="33.5" width="3" height="3" />
<rect x="39.8947" y="3.5" width="9" height="3" />
<rect x="39.8947" y="9.5" width="9" height="3" />
<rect x="39.8947" y="15.5" width="3" height="3" />
<rect x="45.8947" y="15.5" width="3" height="3" />
<rect x="39.8947" y="21.5" width="3" height="3" />
<rect x="45.8947" y="21.5" width="3" height="3" />
<rect x="39.8947" y="27.5" width="3" height="3" />
<rect x="45.8947" y="27.5" width="3" height="3" />
<rect x="39.8947" y="33.5" width="3" height="3" />
<rect x="45.8947" y="33.5" width="3" height="3" />
<rect x="52.5789" y="3.5" width="3" height="3" />
<rect x="58.5789" y="3.5" width="3" height="3" />
<rect x="52.5789" y="9.5" width="3" height="3" />
<rect x="58.5789" y="9.5" width="3" height="3" />
<rect x="52.5789" y="15.5" width="9" height="3" />
<rect x="52.5789" y="21.5" width="3" height="3" />
<rect x="58.5789" y="21.5" width="3" height="3" />
<rect x="52.5789" y="27.5" width="3" height="3" />
<rect x="58.5789" y="27.5" width="3" height="3" />
<rect x="52.5789" y="33.5" width="3" height="3" />
<rect x="58.5789" y="33.5" width="3" height="3" />
<rect x="65.2631" y="3.5" width="9" height="3" />
<rect x="65.2631" y="9.5" width="3" height="3" />
<rect x="71.2631" y="9.5" width="3" height="3" />
<rect x="65.2631" y="15.5" width="9" height="3" />
<rect x="65.2631" y="21.5" width="3" height="3" />
<rect x="71.2631" y="21.5" width="3" height="3" />
<rect x="65.2631" y="27.5" width="3" height="3" />
<rect x="71.2631" y="27.5" width="3" height="3" />
<rect x="65.2631" y="33.5" width="3" height="3" />
<rect x="71.2631" y="33.5" width="3" height="3" />
<rect x="77.9473" y="3.5" width="3" height="3" />
<rect x="83.9473" y="3.5" width="3" height="3" />
<rect x="77.9473" y="9.5" width="9" height="3" />
<rect x="77.9473" y="15.5" width="9" height="3" />
<rect x="77.9473" y="21.5" width="3" height="3" />
<rect x="83.9473" y="21.5" width="3" height="3" />
<rect x="77.9473" y="27.5" width="3" height="3" />
<rect x="83.9473" y="27.5" width="3" height="3" />
<rect x="77.9473" y="33.5" width="3" height="3" />
<rect x="83.9473" y="33.5" width="3" height="3" />
<rect x="90.6315" y="3.5" width="9" height="3" />
<rect x="90.6315" y="9.5" width="9" height="3" />
<rect x="90.6315" y="15.5" width="9" height="3" />
<rect x="90.6315" y="21.5" width="3" height="3" />
<rect x="96.6315" y="21.5" width="3" height="3" />
<rect x="90.6315" y="27.5" width="3" height="3" />
<rect x="96.6315" y="27.5" width="3" height="3" />
<rect x="90.6315" y="33.5" width="3" height="3" />
<rect x="96.6315" y="33.5" width="3" height="3" />
<rect x="103.3157" y="3.5" width="3" height="3" />
<rect x="109.3157" y="3.5" width="3" height="3" />
<rect x="103.3157" y="9.5" width="3" height="3" />
<rect x="109.3157" y="9.5" width="3" height="3" />
<rect x="103.3157" y="15.5" width="3" height="3" />
<rect x="109.3157" y="15.5" width="3" height="3" />
<rect x="103.3157" y="21.5" width="9" height="3" />
<rect x="103.3157" y="27.5" width="3" height="3" />
<rect x="109.3157" y="27.5" width="3" height="3" />
<rect x="103.3157" y="33.5" width="3" height="3" />
<rect x="109.3157" y="33.5" width="3" height="3" />
<rect x="115.9999" y="3.5" width="9" height="3" />
<rect x="115.9999" y="9.5" width="3" height="3" />
<rect x="121.9999" y="9.5" width="3" height="3" />
<rect x="115.9999" y="15.5" width="3" height="3" />
<rect x="121.9999" y="15.5" width="3" height="3" />
<rect x="115.9999" y="21.5" width="9" height="3" />
<rect x="115.9999" y="27.5" width="3" height="3" />
<rect x="121.9999" y="27.5" width="3" height="3" />
<rect x="115.9999" y="33.5" width="3" height="3" />
<rect x="121.9999" y="33.5" width="3" height="3" />
<rect x="128.6841" y="3.5" width="3" height="3" />
<rect x="134.6841" y="3.5" width="3" height="3" />
<rect x="128.6841" y="9.5" width="9" height="3" />
<rect x="128.6841" y="15.5" width="3" height="3" />
<rect x="134.6841" y="15.5" width="3" height="3" />
<rect x="128.6841" y="21.5" width="9" height="3" />
<rect x="128.6841" y="27.5" width="3" height="3" />
<rect x="134.6841" y="27.5" width="3" height="3" />
<rect x="128.6841" y="33.5" width="3" height="3" />
<rect x="134.6841" y="33.5" width="3" height="3" />
<rect x="141.3683" y="3.5" width="9" height="3" />
<rect x="141.3683" y="9.5" width="9" height="3" />
<rect x="141.3683" y="15.5" width="3" height="3" />
<rect x="147.3683" y="15.5" width="3" height="3" />
<rect x="141.3683" y="21.5" width="9" height="3" />
<rect x="141.3683" y="27.5" width="3" height="3" />
<rect x="147.3683" y="27.5" width="3" height="3" />
<rect x="141.3683" y="33.5" width="3" height="3" />
<rect x="147.3683" y="33.5" width="3" height="3" />
<rect x="154.0525" y="3.5" width="3" height="3" />
<rect x="160.0525" y="3.5" width="3" height="3" />
<rect x="154.0525" y="9.5" width="3" height="3" />
<rect x="160.0525" y="9.5" width="3" height="3" />
<rect x="154.0525" y="15.5" width="9" height="3" />
<rect x="154.0525" y="21.5" width="9" height="3" />
<rect x="154.0525" y="27.5" width="3" height="3" />
<rect x="160.0525" y="27.5" width="3" height="3" />
<rect x="154.0525" y="33.5" width="3" height="3" />
<rect x="160.0525" y="33.5" width="3" height="3" />
<rect x="166.7367" y="3.5" width="9" height="3" />
<rect x="166.7367" y="9.5" width="3" height="3" />
<rect x="172.7367" y="9.5" width="3" height="3" />
<rect x="166.7367" y="15.5" width="9" height="3" />
<rect x="166.7367" y="21.5" width="9" height="3" />
<rect x="166.7367" y="27.5" width="3" height="3" />
<rect x="172.7367" y="27.5" width="3" height="3" />
<rect x="166.7367" y="33.5" width="3" height="3" />
<rect x="172.7367" y="33.5" width="3" height="3" />
<rect x="179.4209" y="3.5" width="3" height="3" />
<rect x="185.4209" y="3.5" width="3" height="3" />
<rect x="179.4209" y="9.5" width="9" height="3" />
<rect x="179.4209" y="15.5" width="9" height="3" />
<rect x="179.4209" y="21.5" width="9" height="3" />
<rect x="179.4209" y="27.5" width="3" height="3" />
<rect x="185.4209" y="27.5" width="3" height="3" />
<rect x="179.4209" y="33.5" width="3" height="3" />
<rect x="185.4209" y="33.5" width="3" height="3" />
<rect x="192.1051" y="3.5" width="9" height="3" />
<rect x="192.1051" y="9.5" width="9" height="3" />
<rect x="192.1051" y="15.5" width="9" height="3" />
<rect x="192.1051" y="21.5" width="9" height="3" />
<rect x="192.1051" y="27.5" width="3" height="3" />
<rect x="198.1051" y="27.5" width="3" height="3" />
<rect x="192.1051" y="33.5" width="3" height="3" />
<rect x="198.1051" y="33.5" width="3" height="3" />
<rect x="204.7894" y="3.5" width="3" height="3" />
<rect x="210.7894" y="3.5" width="3" height="3" />
<rect x="204.7894" y="9.5" width="3" height="3" />
<rect x="210.7894" y="9.5" width="3" height="3" />
<rect x="204.7894" y="15.5" width="3" height="3" />
<rect x="210.7894" y="15.5" width="3" height="3" />
<rect x="204.7894" y="21.5" width="3" height="3" />
<rect x="210.7894" y="21.5" width="3" height="3" />
<rect x="204.7894" y="27.5" width="9" height="3" />
<rect x="204.7894" y="33.5" width="3" height="3" />
<rect x="210.7894" y="33.5" width="3" height="3" />
<rect x="217.4736" y="3.5" width="9" height="3" />
<rect x="217.4736" y="9.5" width="3" height="3" />
<rect x="223.4736" y="9.5" width="3" height="3" />
<rect x="217.4736" y="15.5" width="3" height="3" />
<rect x="223.4736" y="15.5" width="3" height="3" />
<rect x="217.4736" y="21.5" width="3" height="3" />
<rect x="223.4736" y="21.5" width="3" height="3" />
<rect x="217.4736" y="27.5" width="9" height="3" />
<rect x="217.4736" y="33.5" width="3" height="3" />
<rect x="223.4736" y="33.5" width="3" height="3" />
<rect x="230.1578" y="3.5" width="3" height="3" />
<rect x="236.1578" y="3.5" width="3" height="3" />
<rect x="230.1578" y="9.5" width="9" height="3" />
<rect x="230.1578" y="15.5" width="3" height="3" />
<rect x="236.1578" y="15.5" width="3" height="3" />
<rect x="230.1578" y="21.5" width="3" height="3" />
<rect x="236.1578" y="21.5" width="3" height="3" />
<rect x="230.1578" y="27.5" width="9" height="3" />
<rect x="230.1578" y="33.5" width="3" height="3" />
<rect x="236.1578" y="33.5" width="3" height="3" />
<rect x="242.842" y="3.5" width="9" height="3" />
<rect x="242.842" y="9.5" width="9" height="3" />
<rect x="242.842" y="15.5" width="3" height="3" />
<rect x="248.842" y="15.5" width="3" height="3" />
<rect x="242.842" y="21.5" width="3" height="3" />
<rect x="248.842" y="21.5" width="3" height="3" />
<rect x="242.842" y="27.5" width="9" height="3" />
<rect x="242.842" y="33.5" width="3" height="3" />
<rect x="248.842" y="33.5" width="3" height="3" />
<rect x="255.5262" y="3.5" width="3" height="3" />
<rect x="261.5262" y="3.5" width="3" height="3" />
<rect x="255.5262" y="9.5" width="3" height="3" />
<rect x="261.5262" y="9.5" width="3" height="3" />
<rect x="255.5262" y="15.5" width="9" height="3" />
<rect x="255.5262" y="21.5" width="3" height="3" />
<rect x="261.5262" y="21.5" width="3" height="3" />
<rect x="255.5262" y="27.5" width="9" height="3" />
<rect x="255.5262" y="33.5" width="3" height="3" />
<rect x="261.5262" y="33.5" width="3" height="3" />
<rect x="268.2104" y="3.5" width="9" height="3" />
<rect x="268.2104" y="9.5" width="3" height="3" />
<rect x="274.2104" y="9.5" width="3" height="3" />
<rect x="268.2104" y="15.5" width="9" height="3" />
<rect x="268.2104" y="21.5" width="3" height="3" />
<rect x="274.2104" y="21.5" width="3" height="3" />
<rect x="268.2104" y="27.5" width="9" height="3" />
<rect x="268.2104" y="33.5" width="3" height="3" />
<rect x="274.2104" y="33.5" width="3" height="3" />
<rect x="280.8946" y="3.5" width="3" height="3" />
<rect x="286.8946" y="3.5" width="3" height="3" />
<rect x="280.8946" y="9.5" width="9" height="3" />
<rect x="280.8946" y="15.5" width="9" height="3" />
<rect x="280.8946" y="21.5" width="3" height="3" />
<rect x="286.8946" y="21.5" width="3" height="3" />
<rect x="280.8946" y="27.5" width="9" height="3" />
<rect x="280.8946" y="33.5" width="3" height="3" />
<rect x="286.8946" y="33.5" width="3" height="3" />
<rect x="293.5788" y="3.5" width="9" height="3" />
<rect x="293.5788" y="9.5" width="9" height="3" />
<rect x="293.5788" y="15.5" width="9" height="3" />
<rect x="293.5788" y="21.5" width="3" height="3" />
<rect x="299.5788" y="21.5" width="3" height="3" />
<rect x="293.5788" y="27.5" width="9" height="3" />
<rect x="293.5788" y="33.5" width="3" height="3" />
<rect x="299.5788" y="33.5" width="3" height="3" />
<rect x="306.263" y="3.5" width="3" height="3" />
<rect x="312.263" y="3.5" width="3" height="3" />
<rect x="306.263" y="9.5" width="3" height="3" />
<rect x="312.263" y="9.5" width="3" height="3" />
<rect x="306.263" y="15.5" width="3" height="3" />
<rect x="312.263" y="15.5" width="3" height="3" />
<rect x="306.263" y="21.5" width="9" height="3" />
<rect x="306.263" y="27.5" width="9" height="3" />
<rect x="306.263" y="33.5" width="3" height="3" />
<rect x="312.263" y="33.5" width="3" height="3" />
<rect x="318.9472" y="3.5" width="9" height="3" />
<rect x="318.9472" y="9.5" width="3" height="3" />
<rect x="324.9472" y="9.5" width="3" height="3" />
<rect x="318.9472" y="15.5" width="3" height="3" />
<rect x="324.9472" y="15.5" width="3" height="3" />
<rect x="318.9472" y="21.5" width="9" height="3" />
<rect x="318.9472" y="27.5" width="9" height="3" />
<rect x="318.9472" y="33.5" width="3" height="3" />
<rect x="324.9472" y="33.5" width="3" height="3" />
<rect x="331.6314" y="3.5" width="3" height="3" />
<rect x="337.6314" y="3.5" width="3" height="3" />
<rect x="331.6314" y="9.5" width="9" height="3" />
<rect x="331.6314" y="15.5" width="3" height="3" />
<rect x="337.6314" y="15.5" width="3" height="3" />
<rect x="331.6314" y="21.5" width="9" height="3" />
<rect x="331.6314" y="27.5" width="9" height="3" />
<rect x="331.6314" y="33.5" width="3" height="3" />
<rect x="337.6314" y="33.5" width="3" height="3" />
<rect x="344.3156" y="3.5" width="9" height="3" />
<rect x="344.3156" y="9.5" width="9" height="3" />
<rect x="344.3156" y="15.5" width="3" height="3" />
<rect x="350.3156" y="15.5" width="3" height="3" />
<rect x="344.3156" y="21.5" width="9" height="3" />
<rect x="344.3156" y="27.5" width="9" height="3" />
<rect x="344.3156" y="33.5" width="3" height="3" />
<rect x="350.3156" y="33.5" width="3" height="3" />
<rect x="356.9998" y="3.5" width="3" height="3" />
<rect x="362.9998" y="3.5" width="3" height="3" />
<rect x="356.9998" y="9.5" width="3" height="3" />
<rect x="362.9998" y="9.5" width="3" height="3" />
<rect x="356.9998" y="15.5" width="9" height="3" />
<rect x="356.9998" y="21.5" width="9" height="3" />
<rect x="356.9998" y="27.5" width="9" height="3" />
<rect x="356.9998" y="33.5" width="3" height="3" />
<rect x="362.9998" y="33.5" width="3" height="3" />
<rect x="369.684" y="3.5" width="9" height="3" />
<rect x="369.684" y="9.5" width="3" height="3" />
<rect x="375.684" y="9.5" width="3" height="3" />
<rect x="369.684" y="15.5" width="9" height="3" />
<rect x="369.684" y="21.5" width="9" height="3" />
<rect x="369.684" y="27.5" width="9" height="3" />
<rect x="369.684" y="33.5" width="3" height="3" />
<rect x="375.684" y="33.5" width="3" height="3" />
<rect x="382.3682" y="3.5" width="3" height="3" />
<rect x="388.3682" y="3.5" width="3" height="3" />
<rect x="382.3682" y="9.5" width="9" height="3" />
<rect x="382.3682" y="15.5" width="9" height="3" />
<rect x="382.3682" y="21.5" width="9" height="3" />
<rect x="382.3682" y="27.5" width="9" height="3" />
<rect x="382.3682" y="33.5" width="3" height="3" />
<rect x="388.3682" y="33.5" width="3" height="3" />
<rect x="395.0524" y="3.5" width="9" height="3" />
<rect x="395.0524" y="9.5" width="9" height="3" />
<rect x="395.0524" y="15.5" width="9" height="3" />
<rect x="395.0524" y="21.5" width="9" height="3" />
<rect x="395.0524" y="27.5" width="9" height="3" />
<rect x="395.0524" y="33.5" width="3" height="3" />
<rect x="401.0524" y="33.5" width="3" height="3" />
<rect x="407.7366" y="3.5" width="3" height="3" />
<rect x="413.7366" y="3.5" width="3" height="3" />
<rect x="407.7366" y="9.5" width="3" height="3" />
<rect x="413.7366" y="9.5" width="3" height="3" />
<rect x="407.7366" y="15.5" width="3" height="3" />
<rect x="413.7366" y="15.5" width="3" height="3" />
<rect x="407.7366" y="21.5" width="3" height="3" />
<rect x="413.7366" y="21.5" width="3" height="3" />
<rect x="407.7366" y="27.5" width="3" height="3" />
<rect x="413.7366" y="27.5" width="3" height="3" />
<rect x="407.7366" y="33.5" width="9" height="3" />
<rect x="420.4208" y="3.5" width="9" height="3" />
<rect x="420.4208" y="9.5" width="3" height="3" />
<rect x="426.4208" y="9.5" width="3" height="3" />
<rect x="420.4208" y="15.5" width="3" height="3" />
<rect x="426.4208" y="15.5" width="3" height="3" />
<rect x="420.4208" y="21.5" width="3" height="3" />
<rect x="426.4208" y="21.5" width="3" height="3" />
<rect x="420.4208" y="27.5" width="3" height="3" />
<rect x="426.4208" y="27.5" width="3" height="3" />
<rect x="420.4208" y="33.5" width="9" height="3" />
<rect x="433.105" y="3.5" width="3" height="3" />
<rect x="439.105" y="3.5" width="3" height="3" />
<rect x="433.105" y="9.5" width="9" height="3" />
<rect x="433.105" y="15.5" width="3" height="3" />
<rect x="439.105" y="15.5" width="3" height="3" />
<rect x="433.105" y="21.5" width="3" height="3" />
<rect x="439.105" y="21.5" width="3" height="3" />
<rect x="433.105" y="27.5" width="3" height="3" />
<rect x="439.105" y="27.5" width="3" height="3" />
<rect x="433.105" y="33.5" width="9" height="3" />
<rect x="445.7892" y="3.5" width="9" height="3" />
<rect x="445.7892" y="9.5" width="9" height="3" />
<rect x="445.7892" y="15.5" width="3" height="3" />
<rect x="451.7892" y="15.5" width="3" height="3" />
<rect x="445.7892" y="21.5" width="3" height="3" />
<rect x="451.7892" y="21.5" width="3" height="3" />
<rect x="445.7892" y="27.5" width="3" height="3" />
<rect x="451.7892" y="27.5" width="3" height="3" />
<rect x="445.7892" y="33.5" width="9" height="3" />
<rect x="458.4734" y="3.5" width="3" height="3" />
<rect x="464.4734" y="3.5" width="3" height="3" />
<rect x="458.4734" y="9.5" width="3" height="3" />
<rect x="464.4734" y="9.5" width="3" height="3" />
<rect x="458.4734" y="15.5" width="9" height="3" />
<rect x="458.4734" y="21.5" width="3" height="3" />
<rect x="464.4734" y="21.5" width="3" height="3" />
<rect x="458.4734" y="27.5" width="3" height="3" />
<rect x="464.4734" y="27.5" width="3" height="3" />
<rect x="458.4734" y="33.5" width="9" height="3" />
<rect x="471.1576" y="3.5" width="9" height="3" />
<rect x="471.1576" y="9.5" width="3" height="3" />
<rect x="477.1576" y="9.5" width="3" height="3" />
<rect x="471.1576" y="15.5" width="9" height="3" />
<rect x="471.1576" y="21.5" width="3" height="3" />
<rect x="477.1576" y="21.5" width="3" height="3" />
<rect x="471.1576" y="27.5" width="3" height="3" />
<rect x="477.1576" y="27.5" width="3" height="3" />
<rect x="471.1576" y="33.5" width="9" height="3" />
<rect x="483.8418" y="3.5" width="3" height="3" />
<rect x="489.8418" y="3.5" width="3" height="3" />
<rect x="483.8418" y="9.5" width="9" height="3" />
<rect x="483.8418" y="15.5" width="9" height="3" />
<rect x="483.8418" y="21.5" width="3" height="3" />
<rect x="489.8418" y="21.5" width="3" height="3" />
<rect x="483.8418" y="27.5" width="3" height="3" />
<rect x="489.8418" y="27.5" width="3" height="3" />
<rect x="483.8418" y="33.5" width="9" height="3" />
<rect x="496.526" y="3.5" width="9" height="3" />
<rect x="496.526" y="9.5" width="9" height="3" />
<rect x="496.526" y="15.5" width="9" height="3" />
<rect x="496.526" y="21.5" width="3" height="3" />
<rect x="502.526" y="21.5" width="3" height="3" />
<rect x="496.526" y="27.5" width="3" height="3" />
<rect x="502.526" y="27.5" width="3" height="3" />
<rect x="496.526" y="33.5" width="9" height="3" />
<rect x="509.2102" y="3.5" width="3" height="3" />
<rect x="515.2102" y="3.5" width="3" height="3" />
<rect x="509.2102" y="9.5" width="3" height="3" />
<rect x="515.2102" y="9.5" width="3" height="3" />
<rect x="509.2102" y="15.5" width="3" height="3" />
<rect x="515.2102" y="15.5" width="3" height="3" />
<rect x="509.2102" y="21.5" width="9" height="3" />
<rect x="509.2102" y="27.5" width="3" height="3" />
<rect x="515.2102" y="27.5" width="3" height="3" />
<rect x="509.2102" y="33.5" width="9" height="3" />
<rect x="521.8944" y="3.5" width="9" height="3" />
<rect x="521.8944" y="9.5" width="3" height="3" />
<rect x="527.8944" y="9.5" width="3" height="3" />
<rect x="521.8944" y="15.5" width="3" height="3" />
<rect x="527.8944" y="15.5" width="3" height="3" />
<rect x="521.8944" y="21.5" width="9" height="3" />
<rect x="521.8944" y="27.5" width="3" height="3" />
<rect x="527.8944" y="27.5" width="3" height="3" />
<rect x="521.8944" y="33.5" width="9" height="3" />
<rect x="534.5786" y="3.5" width="3" height="3" />
<rect x="540.5786" y="3.5" width="3" height="3" />
<rect x="534.5786" y="9.5" width="9" height="3" />
<rect x="534.5786" y="15.5" width="3" height="3" />
<rect x="540.5786" y="15.5" width="3" height="3" />
<rect x="534.5786" y="21.5" width="9" height="3" />
<rect x="534.5786" y="27.5" width="3" height="3" />
<rect x="540.5786" y="27.5" width="3" height="3" />
<rect x="534.5786" y="33.5" width="9" height="3" />
<rect x="547.2628" y="3.5" width="9" height="3" />
<rect x="547.2628" y="9.5" width="9" height="3" />
<rect x="547.2628" y="15.5" width="3" height="3" />
<rect x="553.2628" y="15.5" width="3" height="3" />
<rect x="547.2628" y="21.5" width="9" height="3" />
<rect x="547.2628" y="27.5" width="3" height="3" />
<rect x="553.2628" y="27.5" width="3" height="3" />
<rect x="547.2628" y="33.5" width="9" height="3" />
<rect x="559.947" y="3.5" width="3" height="3" />
<rect x="565.947" y="3.5" width="3" height="3" />
<rect x="559.947" y="9.5" width="3" height="3" />
<rect x="565.947" y="9.5" width="3" height="3" />
<rect x="559.947" y="15.5" width="9" height="3" />
<rect x="559.947" y="21.5" width="9" height="3" />
<rect x="559.947" y="27.5" width="3" height="3" />
<rect x="565.947" y="27.5" width="3" height="3" />
<rect x="559.947" y="33.5" width="9" height="3" />
<rect x="572.6312" y="3.5" width="9" height="3" />
<rect x="572.6312" y="9.5" width="3" height="3" />
<rect x="578.6312" y="9.5" width="3" height="3" />
<rect x="572.6312" y="15.5" width="9" height="3" />
<rect x="572.6312" y="21.5" width="9" height="3" />
<rect x="572.6312" y="27.5" width="3" height="3" />
<rect x="578.6312" y="27.5" width="3" height="3" />
<rect x="572.6312" y="33.5" width="9" height="3" />
<rect x="585.3154" y="3.5" width="3" height="3" />
<rect x="591.3154" y="3.5" width="3" height="3" />
<rect x="585.3154" y="9.5" width="9" height="3" />
<rect x="585.3154" y="15.5" width="9" height="3" />
<rect x="585.3154" y="21.5" width="9" height="3" />
<rect x="585.3154" y="27.5" width="3" height="3" />
<rect x="591.3154" y="27.5" width="3" height="3" />
<rect x="585.3154" y="33.5" width="9" height="3" />
<rect x="597.9996" y="3.5" width="9" height="3" />
<rect x="597.9996" y="9.5" width="9" height="3" />
<rect x="597.9996" y="15.5" width="9" height="3" />
<rect x="597.9996" y="21.5" width="9" height="3" />
<rect x="597.9996" y="27.5" width="3" height="3" />
<rect x="603.9996" y="27.5" width="3" height="3" />
<rect x="597.9996" y="33.5" width="9" height="3" />
<rect x="610.6839" y="3.5" width="3" height="3" />
<rect x="616.6839" y="3.5" width="3" height="3" />
<rect x="610.6839" y="9.5" width="3" height="3" />
<rect x="616.6839" y="9.5" width="3" height="3" />
<rect x="610.6839" y="15.5" width="3" height="3" />
<rect x="616.6839" y="15.5" width="3" height="3" />
<rect x="610.6839" y="21.5" width="3" height="3" />
<rect x="616.6839" y="21.5" width="3" height="3" />
<rect x="610.6839" y="27.5" width="9" height="3" />
<rect x="610.6839" y="33.5" width="9" height="3" />
<rect x="623.3681" y="3.5" width="9" height="3" />
<rect x="623.3681" y="9.5" width="3" height="3" />
<rect x="629.3681" y="9.5" width="3" height="3" />
<rect x="623.3681" y="15.5" width="3" height="3" />
<rect x="629.3681" y="15.5" width="3" height="3" />
<rect x="623.3681" y="21.5" width="3" height="3" />
<rect x="629.3681" y="21.5" width="3" height="3" />
<rect x="623.3681" y="27.5" width="9" height="3" />
<rect x="623.3681" y="33.5" width="9" height="3" />
<rect x="636.0523" y="3.5" width="3" height="3" />
<rect x="642.0523" y="3.5" width="3" height="3" />
<rect x="636.0523" y="9.5" width="9" height="3" />
<rect x="636.0523" y="15.5" width="3" height="3" />
<rect x="642.0523" y="15.5" width="3" height="3" />
<rect x="636.0523" y="21.5" width="3" height="3" />
<rect x="642.0523" y="21.5" width="3" height="3" />
<rect x="636.0523" y="27.5" width="9" height="3" />
<rect x="636.0523" y="33.5" width="9" height="3" />
<rect x="648.7365" y="3.5" width="9" height="3" />
<rect x="648.7365" y="9.5" width="9" height="3" />
<rect x="648.7365" y="15.5" width="3" height="3" />
<rect x="654.7365" y="15.5" width="3" height="3" />
<rect x="648.7365" y="21.5" width="3" height="3" />
<rect x="654.7365" y="21.5" width="3" height="3" />
<rect x="648.7365" y="27.5" width="9" height="3" />
<rect x="648.7365" y="33.5" width="9" height="3" />
<rect x="661.4207" y="3.5" width="3" height="3" />
<rect x="667.4207" y="3.5" width="3" height="3" />
<rect x="661.4207" y="9.5" width="3" height="3" />
<rect x="667.4207" y="9.5" width="3" height="3" />
<rect x="661.4207" y="15.5" width="9" height="3" />
<rect x="661.4207" y="21.5" width="3" height="3" />
<rect x="667.4207" y="21.5" width="3" height="3" />
<rect x="661.4207" y="27.5" width="9" height="3" />
<rect x="661.4207" y="33.5" width="9" height="3" />
<rect x="674.1049" y="3.5" width="9" height="3" />
<rect x="674.1049" y="9.5" width="3" height="3" />
<rect x="680.1049" y="9.5" width="3" height="3" />
<rect x="674.1049" y="15.5" width="9" height="3" />
<rect x="674.1049" y="21.5" width="3" height="3" />
<rect x="680.1049" y="21.5" width="3" height="3" />
<rect x="674.1049" y="27.5" width="9" height="3" />
<rect x="674.1049" y="33.5" width="9" height="3" />
<rect x="686.7891" y="3.5" width="3" height="3" />
<rect x="692.7891" y="3.5" width="3" height="3" />
<rect x="686.7891" y="9.5" width="9" height="3" />
<rect x="686.7891" y="15.5" width="9" height="3" />
<rect x="686.7891" y="21.5" width="3" height="3" />
<rect x="692.7891" y="21.5" width="3" height="3" />
<rect x="686.7891" y="27.5" width="9" height="3" />
<rect x="686.7891" y="33.5" width="9" height="3" />
<rect x="699.4733" y="3.5" width="9" height="3" />
<rect x="699.4733" y="9.5" width="9" height="3" />
<rect x="699.4733" y="15.5" width="9" height="3" />
<rect x="699.4733" y="21.5" width="3" height="3" />
<rect x="705.4733" y="21.5" width="3" height="3" />
<rect x="699.4733" y="27.5" width="9" height="3" />
<rect x="699.4733" y="33.5" width="9" height="3" />
<rect x="712.1575" y="3.5" width="3" height="3" />
<rect x="718.1575" y="3.5" width="3" height="3" />
<rect x="712.1575" y="9.5" width="3" height="3" />
<rect x="718.1575" y="9.5" width="3" height="3" />
<rect x="712.1575" y="15.5" width="3" height="3" />
<rect x="718.1575" y="15.5" width="3" height="3" />
<rect x="712.1575" y="21.5" width="9" height="3" />
<rect x="712.1575" y="27.5" width="9" height="3" />
<rect x="712.1575" y="33.5" width="9" height="3" />
<rect x="724.8417" y="3.5" width="9" height="3" />
<rect x="724.8417" y="9.5" width="3" height="3" />
<rect x="730.8417" y="9.5" width="3" height="3" />
<rect x="724.8417" y="15.5" width="3" height="3" />
<rect x="730.8417" y="15.5" width="3" height="3" />
<rect x="724.8417" y="21.5" width="9" height="3" />
<rect x="724.8417" y="27.5" width="9" height="3" />
<rect x="724.8417" y="33.5" width="9" height="3" />
<rect x="737.5259" y="3.5" width="3" height="3" />
<rect x="743.5259" y="3.5" width="3" height="3" />
<rect x="737.5259" y="9.5" width="9" height="3" />
<rect x="737.5259" y="15.5" width="3" height="3" />
<rect x="743.5259" y="15.5" width="3" height="3" />
<rect x="737.5259" y="21.5" width="9" height="3" />
<rect x="737.5259" y="27.5" width="9" height="3" />
<rect x="737.5259" y="33.5" width="9" height="3" />
<rect x="750.2101" y="3.5" width="9" height="3" />
<rect x="750.2101" y="9.5" width="9" height="3" />
<rect x="750.2101" y="15.5" width="3" height="3" />
<rect x="756.2101" y="15.5" width="3" height="3" />
<rect x="750.2101" y="21.5" width="9" height="3" />
<rect x="750.2101" y="27.5" width="9" height="3" />
<rect x="750.2101" y="33.5" width="9" height="3" />
<rect x="762.8943" y="3.5" width="3" height="3" />
<rect x="768.8943" y="3.5" width="3" height="3" />
<rect x="762.8943" y="9.5" width="3" height="3" />
<rect x="768.8943" y="9.5" width="3" height="3" />
<rect x="762.8943" y="15.5" width="9" height="3" />
<rect x="762.8943" y="21.5" width="9" height="3" />
<rect x="762.8943" y="27.5" width="9" height="3" />
<rect x="762.8943" y="33.5" width="9" height="3" />
<rect x="775.5785" y="3.5" width="9" height="3" />
<rect x="775.5785" y="9.5" width="3" height="3" />
<rect x="781.5785" y="9.5" width="3" height="3" />
<rect x="775.5785" y="15.5" width="9" height="3" />
<rect x="775.5785" y="21.5" width="9" height="3" />
<rect x="775.5785" y="27.5" width="9" height="3" />
<rect x="775.5785" y="33.5" width="9" height="3" />
<rect x="788.2627" y="3.5" width="3" height="3" />
<rect x="794.2627" y="3.5" width="3" height="3" />
<rect x="788.2627" y="9.5" width="9" height="3" />
<rect x="788.2627" y="15.5" width="9" height="3" />
<rect x="788.2627" y="21.5" width="9" height="3" />
<rect x="788.2627" y="27.5" width="9" height="3" />
<rect x="788.2627" y="33.5" width="9" height="3" />
<rect x="800.9469" y="3.5" width="9" height="3" />
<rect x="800.9469" y="9.5" width="9" height="3" />
<rect x="800.9469" y="15.5" width="9" height="3" />
<rect x="800.9469" y="21.5" width="9" height="3" />
<rect x="800.9469" y="27.5" width="9" height="3" />
<rect x="800.9469" y="33.5" width="9" height="3" />
<rect x="0" y="0" width="811.789" height="40" stroke="lightblue" fill-opacity="0" />
</svg>