<svg version="1.1" baseProfile="full" width="811.789" height="60" xmlns="http://www.w3.org/2000/svg">
<rect x="1.8" y="3" width="9.5237" height="3" />
<rect x="14.0447" y="3" width="9.5237" height="3" />
<rect x="1.8" y="7.25" width="9.5237" height="3" />
<rect x="14.0447" y="7.25" width="9.5237" height="3" />
<rect x="1.8" y="11.5" width="9.5237" height="3" />
<rect x="14.0447" y="11.5" width="9.5237" height="3" />
<rect x="1.8" y="15.75" width="9.5237" height="3" />
<rect x="14.0447" y="15.75" width="9.5237" height="3" />
<rect x="1.8" y="20" width="9.5237" height="3" />
<rect x="14.0447" y="20" width="9.5237" height="3" />
<rect x="1.8" y="24.25" width="9.5237" height="3" />
<rect x="14.0447" y="24.25" width="9.5237" height="3" />
<rect x="27.1684" y="3" width="21.7684" height="3" />
<rect x="27.1684" y="7.25" width="9.5237" height="3" />
<rect x="39.4131" y="7.25" width="9.5237" height="3" />
<rect x="27.1684" y="11.5" width="9.5237" height="3" />
<rect x="39.4131" y="11.5" width="9.5237" height="3" />
<rect x="27.1684" y="15.75" width="9.5237" height="3" />
<rect x="39.4131" y="15.75" width="9.5237" height="3" />
<rect x="27.1684" y="20" width="9.5237" height="3" />
<rect x="39.4131" y="20" width="9.5237" height="3" />
<rect x="27.1684" y="24.25" width="9.5237" height="3" />
<rect x="39.4131" y="24.25" width="9.5237" height="3" />
<rect x="52.5368" y="3" width="9.5237" height="3" />
<rect x="64.7815" y="3" width="9.5237" height="3" />
<rect x="52.5368" y="7.25" width="21.7684" height="3" />
<rect x="52.5368" y="11.5" width="9.5237" height="3" />
<rect x="64.7815" y="11.5" width="9.5237" height="3" />
<rect x="52.5368" y="15.75" width="9.5237" height="3" />
<rect x="64.7815" y="15.75" width="9.5237" height="3" />
<rect x="52.5368" y="20" width="9.5237" height="3" />
<rect x="64.7815" y="20" width="9.5237" height="3" />
<rect x="52.5368" y="24.25" width="9.5237" height="3" />
<rect x="64.7815" y="24.25" width="9.5237" height="3" />
<rect x="77.9052" y="3" width="21.7684" height="3" />
<rect x="77.9052" y="7.25" width="21.7684" height="3" />
<rect x="77.9052" y="11.5" width="9.5237" height="3" />
<rect x="90.1499" y="11.5" width="9.5237" height="3" />
<rect x="77.9052" y="15.75" width="9.5237" height="3" />
<rect x="90.1499" y="15.75" width="9.5237" height="3" />
<rect x="77.9052" y="20" width="9.5237" height="3" />
<rect x="90.1499" y="20" width="9.5237" height="3" />
<rect x="77.9052" y="24.25" width="9.5237" height="3" />
<rect x="90.1499" y="24.25" width="9.5237" height="3" />
<rect x="103.2736" y="3" width="9.5237" height="3" />
<rect x="115.5184" y="3" width="9.5237" height="3" />
<rect x="103.2736" y="7.25" width="9.5237" height="3" />
<rect x="115.5184" y="7.25" width="9.5237" height="3" />
<rect x="103.2736" y="11.5" width="21.7684" height="3" />
<rect x="103.2736" y="15.75" width="9.5237" height="3" />
<rect x="115.5184" y="15.75" width="9.5237" height="3" />
<rect x="103.2736" y="20" width="9.5237" height="3" />
<rect x="115.5184" y="20" width="9.5237" height="3" />
<rect x="103.2736" y="24.25" width="9.5237" height="3" />
<rect x="115.5184" y="24.25" width="9.5237" height="3" />
<rect x="128.642" y="3" width="21.7684" height="3" />
<rect x="128.642" y="7.25" width="9.5237" height="3" />
<rect x="140.8868" y="7.25" width="9.5237" height="3" />
<rect x="128.642" y="11.5" width="21.7684" height="3" />
<rect x="128.642" y="15.75" width="9.5237" height="3" />
<rect x="140.8868" y="15.75" width="9.5237" height="3" />
<rect x="128.642" y="20" width="9.5237" height="3" />
<rect x="140.8868" y="20" width="9.5237" height="3" />
<rect x="128.642" y="24.25" width="9.5237" height="3" />
<rect x="140.8868" y="24.25" width="9.5237" height="3" />
<rect x="154.0104" y="3" width="9.5237" height="3" />
<rect x="166.2552" y="3" width="9.5237" height="3" />
<rect x="154.0104" y="7.25" width="21.7684" height="3" />
<rect x="154.0104" y="11.5" width="21.7684" height="3" />
<rect x="154.0104" y="15.75" width="9.5237" height="3" />
<rect x="166.2552" y="15.75" width="9.5237" height="3" />
<rect x="154.0104" y="20" width="9.5237" height="3" />
<rect x="166.2552" y="20" width="9.5237" height="3" />
<rect x="154.0104" y="24.25" width="9.5237" height="3" />
<rect x="166.2552" y="24.25" width="9.5237" height="3" />
<rect x="179.3788" y="3" width="21.7684" height="3" />
<rect x="179.3788" y="7.25" width="21.7684" height="3" />
<rect x="179.3788" y="11.5" width="21.7684" height="3" />
<rect x="179.3788" y="15.75" width="9.5237" height="3" />
<rect x="191.6236" y="15.75" width="9.5237" height="3" />
<rect x="179.3788" y="20" width="9.5237" height="3" />
<rect x="191.6236" y="20" width="9.5237" height="3" />
<rect x="179.3788" y="24.25" width="9.5237" height="3" />
<rect x="191.6236" y="24.25" width="9.5237" height="3" />
<rect x="204.7473" y="3" width="9.5237" height="3" />
<rect x="216.992" y="3" width="9.5237" height="3" />
<rect x="204.7473" y="7.25" width="9.5237" height="3" />
<rect x="216.992" y="7.25" width="9.5237" height="3" />
<rect x="204.7473" y="11.5" width="9.5237" height="3" />
<rect x="216.992" y="11.5" width="9.5237" height="3" />
<rect x="204.7473" y="15.75" width="21.7684" height="3" />
<rect x="204.7473" y="20" width="9.5237" height="3" />
<rect x="216.992" y="20" width="9.5237" height="3" />
<rect x="204.7473" y="24.25" width="9.5237" height="3" />
<rect x="216.992" y="24.25" width="9.5237" height="3" />
<rect x="230.1157" y="3" width="21.7684" height="3" />
<rect x="230.1157" y="7.25" width="9.5237" height="3" />
<rect x="242.3604" y="7.25" width="9.5237" height="3" />
<rect x="230.1157" y="11.5" width="9.5237" height="3" />
<rect x="242.3604" y="11.5" width="9.5237" height="3" />
<rect x="230.1157" y="15.75" width="21.7684" height="3" />
<rect x="230.1157" y="20" width="9.5237" height="3" />
<rect x="242.3604" y="20" width="9.5237" height="3" />
<rect x="230.1157" y="24.25" width="9.5237" height="3" />
<rect x="242.3604" y="24.25" width="9.5237" height="3" />
<rect x="255.4841" y="3" width="9.5237" height="3" />
<rect x="267.7288" y="3" width="9.5237" height="3" />
<rect x="255.4841" y="7.25" width="21.7684" height="3" />
<rect x="255.4841" y="11.5" width="9.5237" height="3" />
<rect x="267.7288" y="11.5" width="9.5237" height="3" />
<rect x="255.4841" y="15.75" width="21.7684" height="3" />
<rect x="255.4841" y="20" width="9.5237" height="3" />
<rect x="267.7288" y="20" width="9.5237" height="3" />
<rect x="255.4841" y="24.25" width="9.5237" height="3" />
<rect x="267.7288" y="24.25" width="9.5237" height="3" />
<rect x="280.8525" y="3" width="21.7684" height="3" />
<rect x="280.8525" y="7.25" width="21.7684" height="3" />
<rect x="280.8525" y="11.5" width="9.5237" height="3" />
<rect x="293.0972" y="11.5" width="9.5237" height="3" />
<rect x="280.8525" y="15.75" width="21.7684" height="3" />
<rect x="280.8525" y="20" width="9.5237" height="3" />
<rect x="293.0972" y="20" width="9.5237" height="3" />
<rect x="280.8525" y="24.25" width="9.5237" height="3" />
<rect x="293.0972" y="24.25" width="9.5237" height="3" />
<rect x="306.2209" y="3" width="9.5237" height="3" />
<rect x="318.4656" y="3" width="9.5237" height="3" />
<rect x="306.2209" y="7.25" width="9.5237" height="3" />
<rect x="318.4656" y="7.25" width="9.5237" height="3" />
<rect x="306.2209" y="11.5" width="21.7684" height="3" />
<rect x="306.2209" y="15.75" width="21.7684" height="3" />
<rect x="306.2209" y="20" width="9.5237" height="3" />
<rect x="318.4656" y="20" width="9.5237" height="3" />
<rect x="306.2209" y="24.25" width="9.5237" height="3" />
<rect x="318.4656" y="24.25" width="9.5237" height="3" />
<rect x="331.5893" y="3" width="21.7684" height="3" />
<rect x="331.5893" y="7.25" width="9.5237" height="3" />
<rect x="343.834" y="7.25" width="9.5237" height="3" />
<rect x="331.5893" y="11.5" width="21.7684" height="3" />
<rect x="331.5893" y="15.75" width="21.7684" height="3" />
<rect x="331.5893" y="20" width="9.5237" height="3" />
<rect x="343.834" y="20" width="9.5237" height="3" />
<rect x="331.5893" y="24.25" width="9.5237" height="3" />
<rect x="343.834" y="24.25" width="9.5237" height="3" />
<rect x="356.9577" y="3" width="9.5237" height="3" />
<rect x="369.2024" y="3" width="9.5237" height="3" />
<rect x="356.9577" y="7.25" width="21.7684" height="3" />
<rect x="356.9577" y="11.5" width="21.7684" height="3" />
<rect x="356.9577" y="15.75" width="21.7684" height="3" />
<rect x="356.9577" y="20" width="9.5237" height="3" />
<rect x="369.2024" y="20" width="9.5237" height="3" />
<rect x="356.9577" y="24.25" width="9.5237" height="3" />
<rect x="369.2024" y="24.25" width="9.5237" height="3" />
<rect x="382.3261" y="3" width="21.7684" height="3" />
<rect x="382.3261" y="7.25" width="21.7684" height="3" />
<rect x="382.3261" y="11.5" width="21.7684" height="3" />
<rect x="382.3261" y="15.75" width="21.7684" height="3" />
<rect x="382.3261" y="20" width="9.5237" height="3" />
<rect x="394.5708" y="20" width="9.5237" height="3" />
<rect x="382.3261" y="24.25" width="9.5237" height="3" />
<rect x="394.5708" y="24.25" width="9.5237" height="3" />
<rect x="407.6945" y="3" width="9.5237" height="3" />
<rect x="419.9392" y="3" width="9.5237" height="3" />
<rect x="407.6945" y="7.25" width="9.5237" height="3" />
<rect x="419.9392" y="7.25" width="9.5237" height="3" />
<rect x="407.6945" y="11.5" width="9.5237" height="3" />
<rect x="419.9392" y="11.5" width="9.5237" height="3" />
<rect x="407.6945" y="15.75" width="9.5237" height="3" />
<rect x="419.9392" y="15.75" width="9.5237" height="3" />
<rect x="407.6945" y="20" width="21.7684" height="3" />
<rect x="407.6945" y="24.25" width="9.5237" height="3" />
<rect x="419.9392" y="24.25" width="9.5237" height="3" />
<rect x="433.0629" y="3" width="21.7684" height="3" />
<rect x="433.0629" y="7.25" width="9.5237" height="3" />
<rect x="445.3076" y="7.25" width="9.5237" height="3" />
<rect x="433.0629" y="11.5" width="9.5237" height="3" />
<rect x="445.3076" y="11.5" width="9.5237" height="3" />
<rect x="433.0629" y="15.75" width="9.5237" height="3" />
<rect x="445.3076" y="15.75" width="9.5237" height="3" />
<rect x="433.0629" y="20" width="21.7684" height="3" />
<rect x="433.0629" y="24.25" width="9.5237" height="3" />
<rect x="445.3076" y="24.25" width="9.5237" height="3" />
<rect x="458.4313" y="3" width="9.5237" height="3" />
<rect x="470.676" y="3" width="9.5237" height="3" />
<rect x="458.4313" y="7.25" width="21.7684" height="3" />
<rect x="458.4313" y="11.5" width="9.5237" height="3" />
<rect x="470.676" y="11.5" width="9.5237" height="3" />
<rect x="458.4313" y="15.75" width="9.5237" height="3" />
<rect x="470.676" y="15.75" width="9.5237" height="3" />
<rect x="458.4313" y="20" width="21.7684" height="3" />
<rect x="458.4313" y="24.25" width="9.5237" height="3" />
<rect x="470.676" y="24.25" width="9.5237" height="3" />
<rect x="483.7997" y="3" width="21.7684" height="3" />
<rect x="483.7997" y="7.25" width="21.7684" height="3" />
<rect x="483.7997" y="11.5" width="9.5237" height="3" />
<rect x="496.0444" y="11.5" width="9.5237" height="3" />
<rect x="483.7997" y="15.75" width="9.5237" height="3" />
<rect x="496.0444" y="15.75" width="9.5237" height="3" />
<rect x="483.7997" y="20" width="21.7684" height="3" />
<rect x="483.7997" y="24.25" width="9.5237" height="3" />
<rect x="496.0444" y="24.25" width="9.5237" height="3" />
<rect x="509.1681" y="3" width="9.5237" height="3" />
<rect x="521.4129" y="3" width="9.5237" height="3" />
<rect x="509.1681" y="7.25" width="9.5237" height="3" />
<rect x="521.4129" y="7.25" width="9.5237" height="3" />
<rect x="509.1681" y="11.5" width="21.7684" height="3" />
<rect x="509.1681" y="15.75" width="9.5237" height="3" />
<rect x="521.4129" y="15.75" width="9.5237" height="3" />
<rect x="509.1681" y="20" width="21.7684" height="3" />
<rect x="509.1681" y="24.25" width="9.5237" height="3" />
<rect x="521.4129" y="24.25" width="9.5237" height="3" />
<rect x="534.5365" y="3" width="21.7684" height="3" />
<rect x="534.5365" y="7.25" width="9.5237" height="3" />
<rect x="546.7813" y="7.25" width="9.5237" height="3" />
<rect x="534.5365" y="11.5" width="21.7684" height="3" />
<rect x="534.5365" y="15.75" width="9.5237" height="3" />
<rect x="546.7813" y="15.75" width="9.5237" height="3" />
<rect x="534.5365" y="20" width="21.7684" height="3" />
<rect x="534.5365" y="24.25" width="9.5237" height="3" />
<rect x="546.7813" y="24.25" width="9.5237" height="3" />
<rect x="559.9049" y="3" width="9.5237" height="3" />
<rect x="572.1497" y="3" width="9.5237" height="3" />
<rect x="559.9049" y="7.25" width="21.7684" height="3" />
<rect x="559.9049" y="11.5" width="21.7684" height="3" />
<rect x="559.9049" y="15.75" width="9.5237" height="3" />
<rect x="572.1497" y="15.75" width="9.5237" height="3" />
<rect x="559.9049" y="20" width="21.7684" height="3" />
<rect x="559.9049" y="24.25" width="9.5237" height="3" />
<rect x="572.1497" y="24.25" width="9.5237" height="3" />
<rect x="585.2733" y="3" width="21.7684" height="3" />
<rect x="585.2733" y="7.25" width="21.7684" height="3" />
<rect x="585.2733" y="11.5" width="21.7684" height="3" />
<rect x="585.2733" y="15.75" width="9.5237" height="3" />
<rect x="597.5181" y="15.75" width="9.5237" height="3" />
<rect x="585.2733" y="20" width="21.7684" height="3" />
<rect x="585.2733" y="24.25" width="9.5237" height="3" />
<rect x="597.5181" y="24.25" width="9.5237" height="3" />
<rect x="610.6418" y="3" width="9.5237" height="3" />
<rect x="622.8865" y="3" width="9.5237" height="3" />
<rect x="610.6418" y="7.25" width="9.5237" height="3" />
<rect x="622.8865" y="7.25" width="9.5237" height="3" />
<rect x="610.6418" y="11.5" width="9.5237" height="3" />
<rect x="622.8865" y="11.5" width="9.5237" height="3" />
<rect x="610.6418" y="15.75" width="21.7684" height="3" />
<rect x="610.6418" y="20" width="21.7684" height="3" />
<rect x="610.6418" y="24.25" width="9.5237" height="3" />
<rect x="622.8865" y="24.25" width="9.5237" height="3" />
<rect x="636.0102" y="3" width="21.7684" height="3" />
<rect x="636.0102" y="7.25" width="9.5237" height="3" />
<rect x="648.2549" y="7.25" width="9.5237" height="3" />
<rect x="636.0102" y="11.5" width="9.5237" height="3" />
<rect x="648.2549" y="11.5" width="9.5237" height="3" />
<rect x="636.0102" y="15.75" width="21.7684" height="3" />
<rect x="636.0102" y="20" width="21.7684" height="3" />
<rect x="636.0102" y="24.25" width="9.5237" height="3" />
<rect x="648.2549" y="24.25" width="9.5237" height="3" />
<rect x="661.3786" y="3" width="9.5237" height="3" />
<rect x="673.6233" y="3" width="9.5237" height="3" />
<rect x="661.3786" y="7.25" width="21.7684" height="3" />
<rect x="661.3786" y="11.5" width="9.5237" height="3" />
<rect x="673.6233" y="11.5" width="9.5237" height="3" />
<rect x="661.3786" y="15.75" width="21.7684" height="3" />
<rect x="661.3786" y="20" width="21.7684" height="3" />
<rect x="661.3786" y="24.25" width="9.5237" height="3" />
<rect x="673.6233" y="24.25" width="9.5237" height="3" />
<rect x="686.747" y="3" width="21.7684" height="3" />
<rect x="686.747" y="7.25" width="21.7684" height="3" />
<rect x="686.747" y="11.5" width="9.5237" height="3" />
<rect x="698.9917" y="11.5" width="9.5237" height="3" />
<rect x="686.747" y="15.75" width="21.7684" height="3" />
<rect x="686.747" y="20" width="21.7684" height="3" />
<rect x="686.747" y="24.25" width="9.5237" height="3" />
<rect x="698.9917" y="24.25" width="9.5237" height="3" />
<rect x="712.1154" y="3" width="9.5237" height="3" />
<rect x="724.3601" y="3" width="9.5237" height="3" />
<rect x="712.1154" y="7.25" width="9.5237" height="3" />
<rect x="724.3601" y="7.25" width="9.5237" height="3" />
<rect x="712.1154" y="11.5" width="21.7684" height="3" />
<rect x="712.1154" y="15.75" width="21.7684" height="3" />
<rect x="712.1154" y="20" width="21.7684" height="3" />
<rect x="712.1154" y="24.25" width="9.5237" height="3" />
<rect x="724.3601" y="24.25" width="9.5237" height="3" />
<rect x="737.4838" y="3" width="21.7684" height="3" />
<rect x="737.4838" y="7.25" width="9.5237" height="3" />
<rect x="749.7285" y="7.25" width="9.5237" height="3" />
<rect x="737.4838" y="11.5" width="21.7684" height="3" />
<rect x="737.4838" y="15.75" width="21.7684" height="3" />
<rect x="737.4838" y="20" width="21.7684" height="3" />
<rect x="737.4838" y="24.25" width="9.5237" height="3" />
<rect x="749.7285" y="24.25" width="9.5237" height="3" />
<rect x="762.8522" y="3" width="9.5237" height="3" />
<rect x="775.0969" y="3" width="9.5237" height="3" />
<rect x="762.8522" y="7.25" width="21.7684" height="3" />
<rect x="762.8522" y="11.5" width="21.7684" height="3" />
<rect x="762.8522" y="15.75" width="21.7684" height="3" />
<rect x="762.8522" y="20" width="21.7684" height="3" />
<rect x="762.8522" y="24.25" width="9.5237" height="3" />
<rect x="775.0969" y="24.25" width="9.5237" height="3" />
<rect x="788.2206" y="3" width="21.7684" height="3" />
<rect x="788.2206" y="7.25" width="21.7684" height="3" />
<rect x="788.2206" y="11.5" width="21.7684" height="3" />
<rect x="788.2206" y="15.75" width="21.7684" height="3" />
<rect x="788.2206" y="20" width="21.7684" height="3" />
<rect x="788.2206" y="24.25" width="9.5237" height="3" />
<rect x="800.4653" y="24.25" width="9.5237" height="3" />
<rect x="788.2206" y="31.5" width="9.5237" height="3" />
<rect x="800.4653" y="31.5" width="9.5237" height="3" />
<rect x="788.2206" y="35.75" width="9.5237" height="3" />
<rect x="800.4653" y="35.75" width="9.5237" height="3" />
<rect x="788.2206" y="40" width="9.5237" height="3" />
<rect x="800.4653" y="40" width="9.5237" height="3" />
<rect x="788.2206" y="44.25" width="9.5237" height="3" />
<rect x="800.4653" y="44.25" width="9.5237" height="3" />
<rect x="788.2206" y="48.5" width="9.5237" height="3" />
<rect x="800.4653" y="48.5" width="9.5237" height="3" />
<rect x="788.2206" y="52.75" width="21.7684" height="3" />
<rect x="762.8522" y="31.5" width="21.7684" height="3" />
<rect x="762.8522" y="35.75" width="9.5237" height="3" />
<rect x="775.0969" y="35.75" width="9.5237" height="3" />
<rect x="762.8522" y="40" width="9.5237" height="3" />
<rect x="775.0969" y="40" width="9.5237" height="3" />
<rect x="762.8522" y="44.25" width="9.5237" height="3" />
<rect x="775.0969" y="44.25" width="9.5237" height="3" />
<rect x="762.8522" y="48.5" width="9.5237" height="3" />
<rect x="775.0969" y="48.5" width="9.5237" height="3" />
<rect x="762.8522" y="52.75" width="21.7684" height="3" />
<rect x="737.4838" y="31.5" width="9.5237" height="3" />
<rect x="749.7285" y="31.5" width="9.5237" height="3" />
<rect x="737.4838" y="35.75" width="21.7684" height="3" />
<rect x="737.4838" y="40" width="9.5237" height="3" />
<rect x="749.7285" y="40" width="9.5237" height="3" />
<rect x="737.4838" y="44.25" width="9.5237" height="3" />
<rect x="749.7285" y="44.25" width="9.5237" height="3" />
<rect x="737.4838" y="48.5" width="9.5237" height="3" />
<rect x="749.7285" y="48.5" width="9.5237" height="3" />
<rect x="737.4838" y="52.75" width="21.7684" height="3" />
<rect x="712.1154" y="31.5" width="21.7684" height="3" />
<rect x="712.1154" y="35.75" width="21.7684" height="3" />
<rect x="712.1154" y="40" width="9.5237" height="3" />
<rect x="724.3601" y="40" width="9.5237" height="3" />
<rect x="712.1154" y="44.25" width="9.5237" height="3" />
<rect x="724.3601" y="44.25" width="9.5237" height="3" />
<rect x="712.1154" y="48.5" width="9.5237" height="3" />
<rect x="724.3601" y="48.5" width="9.5237" height="3" />
<rect x="712.1154" y="52.75" width="21.7684" height="3" />
<rect x="686.747" y="31.5" width="9.5237" height="3" />
<rect x="698.9917" y="31.5" width="9.5237" height="3" />
<rect x="686.747" y="35.75" width="9.5237" height="3" />
<rect x="698.9917" y="35.75" width="9.5237" height="3" />
<rect x="686.747" y="40" width="21.7684" height="3" />
<rect x="686.747" y="44.25" width="9.5237" height="3" />
<rect x="698.9917" y="44.25" width="9.5237" height="3" />
<rect x="686.747" y="48.5" width="9.5237" height="3" />
<rect x="698.9917" y="48.5" width="9.5237" height="3" />
<rect x="686.747" y="52.75" width="21.7684" height="3" />
<rect x="661.3786" y="31.5" width="21.7684" height="3" />
<rect x="661.3786" y="35.75" width="9.5237" height="3" />
<rect x="673.6233" y="35.75" width="9.5237" height="3" />
<rect x="661.3786" y="40" width="21.7684" height="3" />
<rect x="661.3786" y="44.25" width="9.5237" height="3" />
<rect x="673.6233" y="44.25" width="9.5237" height="3" />
<rect x="661.3786" y="48.5" width="9.5237" height="3" />
<rect x="673.6233" y="48.5" width="9.5237" height="3" />
<rect x="661.3786" y="52.75" width="21.7684" height="3" />
<rect x="636.0102" y="31.5" width="9.5237" height="3" />
<rect x="648.2549" y="31.5" width="9.5237" height="3" />
<rect x="636.0102" y="35.75" width="21.7684" height="3" />
<rect x="636.0102" y="40" width="21.7684" height="3" />
<rect x="636.0102" y="44.25" width="9.5237" height="3" />
<rect x="648.2549" y="44.25" width="9.5237" height="3" />
<rect x="636.0102" y="48.5" width="9.5237" height="3" />
<rect x="648.2549" y="48.5" width="9.5237" height="3" />
<rect x="636.0102" y="52.75" width="21.7684" height="3" />
<rect x="610.6418" y="31.5" width="21.7684" height="3" />
<rect x="610.6418" y="35.75" width="21.7684" height="3" />
<rect x="610.6418" y="40" width="21.7684" height="3" />
<rect x="610.6418" y="44.25" width="9.5237" height="3" />
<rect x="622.8865" y="44.25" width="9.5237" height="3" />
<rect x="610.6418" y="48.5" width="9.5237" height="3" />
<rect x="622.8865" y="48.5" width="9.5237" height="3" />
<rect x="610.6418" y="52.75" width="21.7684" height="3" />
<rect x="585.2733" y="31.5" width="9.5237" height="3" />
<rect x="597.5181" y="31.5" width="9.5237" height="3" />
<rect x="585.2733" y="35.75" width="9.5237" height="3" />
<rect x="597.5181" y="35.75" width="9.5237" height="3" />
<rect x="585.2733" y="40" width="9.5237" height="3" />
<rect x="597.5181" y="40" width="9.5237" height="3" />
<rect x="585.2733" y="44.25" width="21.7684" height="3" />
<rect x="585.2733" y="48.5" width="9.5237" height="3" />
<rect x="597.5181" y="48.5" width="9.5237" height="3" />
<rect x="585.2733" y="52.75" width="21.7684" height="3" />
<rect x="559.9049" y="31.5" width="21.7684" height="3" />
<rect x="559.9049" y="35.75" width="9.5237" height="3" />
<rect x="572.1497" y="35.75" width="9.5237" height="3" />
<rect x="559.9049" y="40" width="9.5237" height="3" />
<rect x="572.1497" y="40" width="9.5237" height="3" />
<rect x="559.9049" y="44.25" width="21.7684" height="3" />
<rect x="559.9049" y="48.5" width="9.5237" height="3" />
<rect x="572.1497" y="48.5" width="9.5237" height="3" />
<rect x="559.9049" y="52.75" width="21.7684" height="3" />
<rect x="534.5365" y="31.5" width="9.5237" height="3" />
<rect x="546.7813" y="31.5" width="9.5237" height="3" />
<rect x="534.5365" y="35.75" width="21.7684" height="3" />
<rect x="534.5365" y="40" width="9.5237" height="3" />
<rect x="546.7813" y="40" width="9.5237" height="3" />
<rect x="534.5365" y="44.25" width="21.7684" height="3" />
<rect x="534.5365" y="48.5" width="9.5237" height="3" />
<rect x="546.7813" y="48.5" width="9.5237" height="3" />
<rect x="534.5365" y="52.75" width="21.7684" height="3" />
<rect x="509.1681" y="31.5" width="21.7684" height="3" />
<rect x="509.1681" y="35.75" width="21.7684" height="3" />
<rect x="509.1681" y="40" width="9.5237" height="3" />
<rect x="521.4129" y="40" width="9.5237" height="3" />
<rect x="509.1681" y="44.25" width="21.7684" height="3" />
<rect x="509.1681" y="48.5" width="9.5237" height="3" />
<rect x="521.4129" y="48.5" width="9.5237" height="3" />
<rect x="509.1681" y="52.75" width="21.7684" height="3" />
<rect x="483.7997" y="31.5" width="9.5237" height="3" />
<rect x="496.0444" y="31.5" width="9.5237" height="3" />
<rect x="483.7997" y="35.75" width="9.5237" height="3" />
<rect x="496.0444" y="35.75" width="9.5237" height="3" />
<rect x="483.7997" y="40" width="21.7684" height="3" />
<rect x="483.7997" y="44.25" width="21.7684" height="3" />
<rect x="483.7997" y="48.5" width="9.5237" height="3" />
<rect x="496.0444" y="48.5" width="9.5237" height="3" />
<rect x="483.7997" y="52.75" width="21.7684" height="3" />
<rect x="458.4313" y="31.5" width="21.7684" height="3" />
<rect x="458.4313" y="35.75" width="9.5237" height="3" />
<rect x="470.676" y="35.75" width="9.5237" height="3" />
<rect x="458.4313" y="40" width="21.7684" height="3" />
<rect x="458.4313" y="44.25" width="21.7684" height="3" />
<rect x="458.4313" y="48.5" width="9.5237" height="3" />
<rect x="470.676" y="48.5" width="9.5237" height="3" />
<rect x="458.4313" y="52.75" width="21.7684" height="3" />
<rect x="433.0629" y="31.5" width="9.5237" height="3" />
<rect x="445.3076" y="31.5" width="9.5237" height="3" />
<rect x="433.0629" y="35.75" width="21.7684" height="3" />
<rect x="433.0629" y="40" width="21.7684" height="3" />
<rect x="433.0629" y="44.25" width="21.7684" height="3" />
<rect x="433.0629" y="48.5" width="9.5237" height="3" />
<rect x="445.3076" y="48.5" width="9.5237" height="3" />
<rect x="433.0629" y="52.75" width="21.7684" height="3" />
<rect x="407.6945" y="31.5" width="21.7684" height="3" />
<rect x="407.6945" y="35.75" width="21.7684" height="3" />
<rect x="407.6945" y="40" width="21.7684" height="3" />
<rect x="407.6945" y="44.25" width="21.7684" height="3" />
<rect x="407.6945" y="48.5" width="9.5237" height="3" />
<rect x="419.9392" y="48.5" width="9.5237" height="3" />
<rect x="407.6945" y="52.75" width="21.7684" height="3" />
<rect x="382.3261" y="31.5" width="9.5237" height="3" />
<rect x="394.5708" y="31.5" width="9.5237" height="3" />
<rect x="382.3261" y="35.75" width="9.5237" height="3" />
<rect x="394.5708" y="35.75" width="9.5237" height="3" />
<rect x="382.3261" y="40" width="9.5237" height="3" />
<rect x="394.5708" y="40" width="9.5237" height="3" />
<rect x="382.3261" y="44.25" width="9.5237" height="3" />
<rect x="394.5708" y="44.25" width="9.5237" height="3" />
<rect x="382.3261" y="48.5" width="21.7684" height="3" />
<rect x="382.3261" y="52.75" width="21.7684" height="3" />
<rect x="356.9577" y="31.5" width="21.7684" height="3" />
<rect x="356.9577" y="35.75" width="9.5237" height="3" />
<rect x="369.2024" y="35.75" width="9.5237" height="3" />
<rect x="356.9577" y="40" width="9.5237" height="3" />
<rect x="369.2024" y="40" width="9.5237" height="3" />
<rect x="356.9577" y="44.25" width="9.5237" height="3" />
<rect x="369.2024" y="44.25" width="9.5237" height="3" />
<rect x="356.9577" y="48.5" width="21.7684" height="3" />
<rect x="356.9577" y="52.75" width="21.7684" height="3" />
<rect x="331.5893" y="31.5" width="9.5237" height="3" />
<rect x="343.834" y="31.5" width="9.5237" height="3" />
<rect x="331.5893" y="35.75" width="21.7684" height="3" />
<rect x="331.5893" y="40" width="9.5237" height="3" />
<rect x="343.834" y="40" width="9.5237" height="3" />
<rect x="331.5893" y="44.25" width="9.5237" height="3" />
<rect x="343.834" y="44.25" width="9.5237" height="3" />
<rect x="331.5893" y="48.5" width="21.7684" height="3" />
<rect x="331.5893" y="52.75" width="21.7684" height="3" />
<rect x="306.2209" y="31.5" width="21.7684" height="3" />
<rect x="306.2209" y="35.75" width="21.7684" height="3" />
<rect x="306.2209" y="40" width="9.5237" height="3" />
<rect x="318.4656" y="40" width="9.5237" height="3" />
<rect x="306.2209" y="44.25" width="9.5237" height="3" />
<rect x="318.4656" y="44.25" width="9.5237" height="3" />
<rect x="306.2209" y="48.5" width="21.7684" height="3" />
<rect x="306.2209" y="52.75" width="21.7684" height="3" />
<rect x="280.8525" y="31.5" width="9.5237" height="3" />
<rect x="293.0972" y="31.5" width="9.5237" height="3" />
<rect x="280.8525" y="35.75" width="9.5237" height="3" />
<rect x="293.0972" y="35.75" width="9.5237" height="3" />
<rect x="280.8525" y="40" width="21.7684" height="3" />
<rect x="280.8525" y="44.25" width="9.5237" height="3" />
<rect x="293.0972" y="44.25" width="9.5237" height="3" />
<rect x="280.8525" y="48.5" width="21.7684" height="3" />
<rect x="280.8525" y="52.75" width="21.7684" height="3" />
<rect x="255.4841" y="31.5" width="21.7684" height="3" />
<rect x="255.4841" y="35.75" width="9.5237" height="3" />
<rect x="267.7288" y="35.75" width="9.5237" height="3" />
<rect x="255.4841" y="40" width="21.7684" height="3" />
<rect x="255.4841" y="44.25" width="9.5237" height="3" />
<rect x="267.7288" y="44.25" width="9.5237" height="3" />
<rect x="255.4841" y="48.5" width="21.7684" height="3" />
<rect x="255.4841" y="52.75" width="21.7684" height="3" />
<rect x="230.1157" y="31.5" width="9.5237" height="3" />
<rect x="242.3604" y="31.5" width="9.5237" height="3" />
<rect x="230.1157" y="35.75" width="21.7684" height="3" />
<rect x="230.1157" y="40" width="21.7684" height="3" />
<rect x="230.1157" y="44.25" width="9.5237" height="3" />
<rect x="242.3604" y="44.25" width="9.5237" height="3" />
<rect x="230.1157" y="48.5" width="21.7684" height="3" />
<rect x="230.1157" y="52.75" width="21.7684" height="3" />
<rect x="204.7473" y="31.5" width="21.7684" height="3" />
<rect x="204.7473" y="35.75" width="21.7684" height="3" />
<rect x="204.7473" y="40" width="21.7684" height="3" />
<rect x="204.7473" y="44.25" width="9.5237" height="3" />
<rect x="216.992" y="44.25" width="9.5237" height="3" />
<rect x="204.7473" y="48.5" width="21.7684" height="3" />
<rect x="204.7473" y="52.75" width="21.7684" height="3" />
<rect x="179.3788" y="31.5" width="9.5237" height="3" />
<rect x="191.6236" y="31.5" width="9.5237" height="3" />
<rect x="179.3788" y="35.75" width="9.5237" height="3" />
<rect x="191.6236" y="35.75" width="9.5237" height="3" />
<rect x="179.3788" y="40" width="9.5237" height="3" />
<rect x="191.6236" y="40" width="9.5237" height="3" />
<rect x="179.3788" y="44.25" width="21.7684" height="3" />
<rect x="179.3788" y="48.5" width="21.7684" height="3" />
<rect x="179.3788" y="52.75" width="21.7684" height="3" />
<rect x="154.0104" y="31.5" width="21.7684" height="3" />
<rect x="154.0104" y="35.75" width="9.5237" height="3" />
<rect x="166.2552" y="35.75" width="9.5237" height="3" />
<rect x="154.0104" y="40" width="9.5237" height="3" />
<rect x="166.2552" y="40" width="9.5237" height="3" />
<rect x="154.0104" y="44.25" width="21.7684" height="3" />
<rect x="154.0104" y="48.5" width="21.7684" height="3" />
<rect x="154.0104" y="52.75" width="21.7684" height="3" />
<rect x="128.642" y="31.5" width="9.5237" height="3" />
<rect x="140.8868" y="31.5" width="9.5237" height="3" />
<rect x="128.642" y="35.75" width="21.7684" height="3" />
<rect x="128.642" y="40" width="9.5237" height="3" />
<rect x="140.8868" y="40" width="9.5237" height="3" />
<rect x="128.642" y="44.25" width="21.7684" height="3" />
<rect x="128.642" y="48.5" width="21.7684" height="3" />
<rect x="128.642" y="52.75" width="21.7684" height="3" />
<rect x="103.2736" y="31.5" width="21.7684" height="3" />
<rect x="103.2736" y="35.75" width="21.7684" height="3" />
<rect x="103.2736" y="40" width="9.5237" height="3" />
<rect x="115.5184" y="40" width="9.5237" height="3" />
<rect x="103.2736" y="44.25" width="21.7684" height="3" />
<rect x="103.2736" y="48.5" width="21.7684" height="3" />
<rect x="103.2736" y="52.75" width="21.7684" height="3" />
<rect x="77.9052" y="31.5" width="9.5237" height="3" />
<rect x="90.1499" y="31.5" width="9.5237" height="3" />
<rect x="77.9052" y="35.75" width="9.5237" height="3" />
<rect x="90.1499" y="35.75" width="9.5237" height="3" />
<rect x="77.9052" y="40" width="21.7684" height="3" />
<rect x="77.9052" y="44.25" width="21.7684" height="3" />
<rect x="77.9052" y="48.5" width="21.7684" height="3" />
<rect x="77.9052" y="52.75" width="21.7684" height="3" />
<rect x="52.5368" y="31.5" width="21.7684" height="3" />
<rect x="52.5368" y="35.75" width="9.5237" height="3" />
<rect x="64.7815" y="35.75" width="9.5237" height="3" />
<rect x="52.5368" y="40" width="21.7684" height="3" />
<rect x="52.5368" y="44.25" width="21.7684" height="3" />
<rect x="52.5368" y="48.5" width="21.7684" height="3" />
<rect x="52.5368" y="52.75" width="21.7684" height="3" />
<rect x="27.1684" y="31.5" width="9.5237" height="3" />
<rect x="39.4131" y="31.5" width="9.5237" height="3" />
<rect x="27.1684" y="35.75" width="21.7684" height="3" />
<rect x="27.1684" y="40" width="21.7684" height="3" />
<rect x="27.1684" y="44.25" width="21.7684" height="3" />
<rect x="27.1684" y="48.5" width="21.7684" height="3" />
<rect x="27.1684" y="52.75" width="21.7684" height="3" />
<rect x="1.8" y="31.5" width="21.7684" height="3" />
<rect x="1.8" y="35.75" width="21.7684" height="3" />
<rect x="1.8" y="40" width="21.7684" height="3" />
<rect x="1.8" y="44.25" width="21.7684" height="3" />
<rect x="1.8" y="48.5" width="21.7684" height="3" />
<rect x="1.8" y="52.75" width="21.7684" height="3" />
<rect x="0" y="0" width="811.789" height="60" stroke="lightblue" fill-opacity="0" />
</svg>