<svg version="1.1" baseProfile="full" width="811.789" height="40" xmlns="http://www.w3.org/2000/svg">
<rect x="1.5855" y="2.5592" width="3.1711" height="3.1711" />
<rect x="7.9276" y="2.5592" width="3.1711" height="3.1711" />
<rect x="1.5855" y="8.9013" width="3.1711" height="3.1711" />
<rect x="7.9276" y="8.9013" width="3.1711" height="3.1711" />
<rect x="1.5855" y="15.2434" width="3.1711" height="3.1711" />
<rect x="7.9276" y="15.2434" width="3.1711" height="3.1711" />
<rect x="1.5855" y="21.5855" width="3.1711" height="3.1711" />
<rect x="7.9276" y="21.5855" width="3.1711" height="3.1711" />
<rect x="1.5855" y="27.9276" width="3.1711" height="3.1711" />
<rect x="7.9276" y="27.9276" width="3.1711" height="3.1711" />
<rect x="1.5855" y="34.2697" width="3.1711" height="3.1711" />
<rect x="7.9276" y="34.2697" width="3.1711" height="3.1711" />
<rect x="14.2697" y="2.5592" width="9.5132" height="3.1711" />
<rect x="14.2697" y="8.9013" width="3.1711" height="3.1711" />
<rect x="20.6118" y="8.9013" width="3.1711" height="3.1711" />
<rect x="14.2697" y="15.2434" width="3.1711" height="3.1711" />
<rect x="20.6118" y="15.2434" width="3.1711" height="3.1711" />
<rect x="14.2697" y="21.5855" width="3.1711" height="3.1711" />
<rect x="20.6118" y="21.5855" width="3.1711" height="3.1711" />
<rect x="14.2697" y="27.9276" width="3.1711" height="3.1711" />
<rect x="20.6118" y="27.9276" width="3.1711" height="3.1711" />
<rect x="14.2697" y="34.2697" width="3.1711" height="3.1711" />
<rect x="20.6118" y="34.2697" width="3.1711" height="3.1711" />
<rect x="26.9539" y="2.5592" width="3.1711" height="3.1711" />
<rect x="33.296" y="2.5592" width="3.1711" height="3.1711" />
<rect x="26.9539" y="8.9013" width="9.5132" height="3.1711" />
<rect x="26.9539" y="15.2434" width="3.1711" height="3.1711" />
<rect x="33.296" y="15.2434" width="3.1711" height="3.1711" />
<rect x="26.9539" y="21.5855" width="3.1711" height="3.1711" />
<rect x="33.296" y="21.5855" width="3.1711" height="3.1711" />
<rect x="26.9539" y="27.9276" width="3.1711" height="3.1711" />
<rect x="33.296" y="27.9276" width="3.1711" height="3.1711" />
<rect x="26.9539" y="34.2697" width="3.1711" height="3.1711" />
<rect x="33.296" y="34.2697" width="3.1711" height="3.1711" />
<rect x="39.6381" y="2.5592" width="9.5132" height="3.1711" />
<rect x="39.6381" y="8.9013" width="9.5132" height="3.1711" />
<rect x="39.6381" y="15.2434" width="3.1711" height="3.1711" />
<rect x="45.9802" y="15.2434" width="3.1711" height="3.1711" />
<rect x="39.6381" y="21.5855" width="3.1711" height="3.1711" />
<rect x="45.9802" y="21.5855" width="3.1711" height="3.1711" />
<rect x="39.6381" y="27.9276" width="3.1711" height="3.1711" />
<rect x="45.9802" y="27.9276" width="3.1711" height="3.1711" />
<rect x="39.6381" y="34.2697" width="3.1711" height="3.1711" />
<rect x="45.9802" y="34.2697" width="3.1711" height="3.1711" />
<rect x="52.3223" y="2.5592" width="3.1711" height="3.1711" />
<rect x="58.6644" y="2.5592" width="3.1711" height="3.1711" />
<rect x="52.3223" y="8.9013" width="3.1711" height="3.1711" />
<rect x="58.6644" y="8.9013" width="3.1711" height="3.1711" />
<rect x="52.3223" y="15.2434" width="9.5132" height="3.1711" />
<rect x="52.3223" y="21.5855" width="3.1711" height="3.1711" />
<rect x="58.6644" y="21.5855" width="3.1711" height="3.1711" />
<rect x="52.3223" y="27.9276" width="3.1711" height="3.1711" />
<rect x="58.6644" y="27.9276" width="3.1711" height="3.1711" />
<rect x="52.3223" y="34.2697" width="3.1711" height="3.1711" />
<rect x="58.6644" y="34.2697" width="3.1711" height="3.1711" />
<rect x="65.0065" y="2.5592" width="9.5132" height="3.1711" />
<rect x="65.0065" y="8.9013" width="3.1711" height="3.1711" />
<rect x="71.3486" y="8.9013" width="3.1711" height="3.1711" />
<rect x="65.0065" y="15.2434" width="9.5132" height="3.1711" />
<rect x="65.0065" y="21.5855" width="3.1711" height="3.1711" />
<rect x="71.3486" y="21.5855" width="3.1711" height="3.1711" />
<rect x="65.0065" y="27.9276" width="3.1711" height="3.1711" />
<rect x="71.3486" y="27.9276" width="3.1711" height="3.1711" />
<rect x="65.0065" y="34.2697" width="3.1711" height="3.1711" />
<rect x="71.3486" y="34.2697" width="3.1711" height="3.1711" />
<rect x="77.6907" y="2.5592" width="3.1711" height="3.1711" />
<rect x="84.0328" y="2.5592" width="3.1711" height="3.1711" />
<rect x="77.6907" y="8.9013" width="9.5132" height="3.1711" />
<rect x="77.6907" y="15.2434" width="9.5132" height="3.1711" />
<rect x="77.6907" y="21.5855" width="3.1711" height="3.1711" />
<rect x="84.0328" y="21.5855" width="3.1711" height="3.1711" />
<rect x="77.6907" y="27.9276" width="3.1711" height="3.1711" />
<rect x="84.0328" y="27.9276" width="3.1711" height="3.1711" />
<rect x="77.6907" y="34.2697" width="3.1711" height="3.1711" />
<rect x="84.0328" y="34.2697" width="3.1711" height="3.1711" />
<rect x="90.3749" y="2.5592" width="9.5132" height="3.1711" />
<rect x="90.3749" y="8.9013" width="9.5132" height="3.1711" />
<rect x="90.3749" y="15.2434" width="9.5132" height="3.1711" />
<rect x="90.3749" y="21.5855" width="3.1711" height="3.1711" />
<rect x="96.717" y="21.5855" width="3.1711" height="3.1711" />
<rect x="90.3749" y="27.9276" width="3.1711" height="3.1711" />
<rect x="96.717" y="27.9276" width="3.1711" height="3.1711" />
<rect x="90.3749" y="34.2697" width="3.1711" height="3.1711" />
<rect x="96.717" y="34.2697" width="3.1711" height="3.1711" />
<rect x="103.0592" y="2.5592" width="3.1711" height="3.1711" />
<rect x="109.4013" y="2.5592" width="3.1711" height="3.1711" />
<rect x="103.0592" y="8.9013" width="3.1711" height="3.1711" />
<rect x="109.4013" y="8.9013" width="3.1711" height="3.1711" />
<rect x="103.0592" y="15.2434" width="3.1711" height="3.1711" />
<rect x="109.4013" y="15.2434" width="3.1711" height="3.1711" />
<rect x="103.0592" y="21.5855" width="9.5132" height="3.1711" />
<rect x="103.0592" y="27.9276" width="3.1711" height="3.1711" />
<rect x="109.4013" y="27.9276" width="3.1711" height="3.1711" />
<rect x="103.0592" y="34.2697" width="3.1711" height="3.1711" />
<rect x="109.4013" y="34.2697" width="3.1711" height="3.1711" />
<rect x="115.7434" y="2.5592" width="9.5132" height="3.1711" />
<rect x="115.7434" y="8.9013" width="3.1711" height="3.1711" />
<rect x="122.0855" y="8.9013" width="3.1711" height="3.1711" />
<rect x="115.7434" y="15.2434" width="3.1711" height="3.1711" />
<rect x="122.0855" y="15.2434" width="3.1711" height="3.1711" />
<rect x="115.7434" y="21.5855" width="9.5132" height="3.1711" />
<rect x="115.7434" y="27.9276" width="3.1711" height="3.1711" />
<rect x="122.0855" y="27.9276" width="3.1711" height="3.1711" />
<rect x="115.7434" y="34.2697" width="3.1711" height="3.1711" />
<rect x="122.0855" y="34.2697" width="3.1711" height="3.1711" />
<rect x="128.4276" y="2.5592" width="3.1711" height="3.1711" />
<rect x="134.7697" y="2.5592" width="3.1711" height="3.1711" />
<rect x="128.4276" y="8.9013" width="9.5132" height="3.1711" />
<rect x="128.4276" y="15.2434" width="3.1711" height="3.1711" />
<rect x="134.7697" y="15.2434" width="3.1711" height="3.1711" />
<rect x="128.4276" y="21.5855" width="9.5132" height="3.1711" />
<rect x="128.4276" y="27.9276" width="3.1711" height="3.1711" />
<rect x="134.7697" y="27.9276" width="3.1711" height="3.1711" />
<rect x="128.4276" y="34.2697" width="3.1711" height="3.1711" />
<rect x="134.7697" y="34.2697" width="3.1711" height="3.1711" />
<rect x="141.1118" y="2.5592" width="9.5132" height="3.1711" />
<rect x="141.1118" y="8.9013" width="9.5132" height="3.1711" />
<rect x="141.1118" y="15.2434" width="3.1711" height="3.1711" />
<rect x="147.4539" y="15.2434" width="3.1711" height="3.1711" />
<rect x="141.1118" y="21.5855" width="9.5132" height="3.1711" />
<rect x="141.1118" y="27.9276" width="3.1711" height="3.1711" />
<rect x="147.4539" y="27.9276" width="3.1711" height="3.1711" />
<rect x="141.1118" y="34.2697" width="3.1711" height="3.1711" />
<rect x="147.4539" y="34.2697" width="3.1711" height="3.1711" />
<rect x="153.796" y="2.5592" width="3.1711" height="3.1711" />
<rect x="160.1381" y="2.5592" width="3.1711" height="3.1711" />
<rect x="153.796" y="8.9013" width="3.1711" height="3.1711" />
<rect x="160.1381" y="8.9013" width="3.1711" height="3.1711" />
<rect x="153.796" y="15.2434" width="9.5132" height="3.1711" />
<rect x="153.796" y="21.5855" width="9.5132" height="3.1711" />
<rect x="153.796" y="27.9276" width="3.1711" height="3.1711" />
<rect x="160.1381" y="27.9276" width="3.1711" height="3.1711" />
<rect x="153.796" y="34.2697" width="3.1711" height="3.1711" />
<rect x="160.1381" y="34.2697" width="3.1711" height="3.1711" />
<rect x="166.4802" y="2.5592" width="9.5132" height="3.1711" />
<rect x="166.4802" y="8.9013" width="3.1711" height="3.1711" />
<rect x="172.8223" y="8.9013" width="3.1711" height="3.1711" />
<rect x="166.4802" y="15.2434" width="9.5132" height="3.1711" />
<rect x="166.4802" y="21.5855" width="9.5132" height="3.1711" />
<rect x="166.4802" y="27.9276" width="3.1711" height="3.1711" />
<rect x="172.8223" y="27.9276" width="3.1711" height="3.1711" />
<rect x="166.4802" y="34.2697" width="3.1711" height="3.1711" />
<rect x="172.8223" y="34.2697" width="3.1711" height="3.1711" />
<rect x="179.1644" y="2.5592" width="3.1711" height="3.1711" />
<rect x="185.5065" y="2.5592" width="3.1711" height="3.1711" />
<rect x="179.1644" y="8.9013" width="9.5132" height="3.1711" />
<rect x="179.1644" y="15.2434" width="9.5132" height="3.1711" />
<rect x="179.1644" y="21.5855" width="9.5132" height="3.1711" />
<rect x="179.1644" y="27.9276" width="3.1711" height="3.1711" />
<rect x="185.5065" y="27.9276" width="3.1711" height="3.1711" />
<rect x="179.1644" y="34.2697" width="3.1711" height="3.1711" />
<rect x="185.5065" y="34.2697" width="3.1711" height="3.1711" />
<rect x="191.8486" y="2.5592" width="9.5132" height="3.1711" />
<rect x="191.8486" y="8.9013" width="9.5132" height="3.1711" />
<rect x="191.8486" y="15.2434" width="9.5132" height="3.1711" />
<rect x="191.8486" y="21.5855" width="9.5132" height="3.1711" />
<rect x="191.8486" y="27.9276" width="3.1711" height="3.1711" />
<rect x="198.1907" y="27.9276" width="3.1711" height="3.1711" />
<rect x="191.8486" y="34.2697" width="3.1711" height="3.1711" />
<rect x="198.1907" y="34.2697" width="3.1711" height="3.1711" />
<rect x="204.5328" y="2.5592" width="3.1711" height="3.1711" />
<rect x="210.8749" y="2.5592" width="3.1711" height="3.1711" />
<rect x="204.5328" y="8.9013" width="3.1711" height="3.1711" />
<rect x="210.8749" y="8.9013" width="3.1711" height="3.1711" />
<rect x="204.5328" y="15.2434" width="3.1711" height="3.1711" />
<rect x="210.8749" y="15.2434" width="3.1711" height="3.1711" />
<rect x="204.5328" y="21.5855" width="3.1711" height="3.1711" />
<rect x="210.8749" y="21.5855" width="3.1711" height="3.1711" />
<rect x="204.5328" y="27.9276" width="9.5132" height="3.1711" />
<rect x="204.5328" y="34.2697" width="3.1711" height="3.1711" />
<rect x="210.8749" y="34.2697" width="3.1711" height="3.1711" />
<rect x="217.217" y="2.5592" width="9.5132" height="3.1711" />
<rect x="217.217" y="8.9013" width="3.1711" height="3.1711" />
<rect x="223.5591" y="8.9013" width="3.1711" height="3.1711" />
<rect x="217.217" y="15.2434" width="3.1711" height="3.1711" />
<rect x="223.5591" y="15.2434" width="3.1711" height="3.1711" />
<rect x="217.217" y="21.5855" width="3.1711" height="3.1711" />
<rect x="223.5591" y="21.5855" width="3.1711" height="3.1711" />
<rect x="217.217" y="27.9276" width="9.5132" height="3.1711" />
<rect x="217.217" y="34.2697" width="3.1711" height="3.1711" />
<rect x="223.5591" y="34.2697" width="3.1711" height="3.1711" />
<rect x="229.9012" y="2.5592" width="3.1711" height="3.1711" />
<rect x="236.2433" y="2.5592" width="3.1711" height="3.1711" />
<rect x="229.9012" y="8.9013" width="9.5132" height="3.1711" />
<rect x="229.9012" y="15.2434" width="3.1711" height="3.1711" />
<rect x="236.2433" y="15.2434" width="3.1711" height="3.1711" />
<rect x="229.9012" y="21.5855" width="3.1711" height="3.1711" />
<rect x="236.2433" y="21.5855" width="3.1711" height="3.1711" />
<rect x="229.9012" y="27.9276" width="9.5132" height="3.1711" />
<rect x="229.9012" y="34.2697" width="3.1711" height="3.1711" />
<rect x="236.2433" y="34.2697" width="3.1711" height="3.1711" />
<rect x="242.5854" y="2.5592" width="9.5132" height="3.1711" />
<rect x="242.5854" y="8.9013" width="9.5132" height="3.1711" />
<rect x="242.5854" y="15.2434" width="3.1711" height="3.1711" />
<rect x="248.9275" y="15.2434" width="3.1711" height="3.1711" />
<rect x="242.5854" y="21.5855" width="3.1711" height="3.1711" />
<rect x="248.9275" y="21.5855" width="3.1711" height="3.1711" />
<rect x="242.5854" y="27.9276" width="9.5132" height="3.1711" />
<rect x="242.5854" y="34.2697" width="3.1711" height="3.1711" />
<rect x="248.9275" y="34.2697" width="3.1711" height="3.1711" />
<rect x="255.2696" y="2.5592" width="3.1711" height="3.1711" />
<rect x="261.6117" y="2.5592" width="3.1711" height="3.1711" />
<rect x="255.2696" y="8.9013" width="3.1711" height="3.1711" />
<rect x="261.6117" y="8.9013" width="3.1711" height="3.1711" />
<rect x="255.2696" y="15.2434" width="9.5132" height="3.1711" />
<rect x="255.2696" y="21.5855" width="3.1711" height="3.1711" />
<rect x="261.6117" y="21.5855" width="3.1711" height="3.1711" />
<rect x="255.2696" y="27.9276" width="9.5132" height="3.1711" />
<rect x="255.2696" y="34.2697" width="3.1711" height="3.1711" />
<rect x="261.6117" y="34.2697" width="3.1711" height="3.1711" />
<rect x="267.9538" y="2.5592" width="9.5132" height="3.1711" />
<rect x="267.9538" y="8.9013" width="3.1711" height="3.1711" />
<rect x="274.2959" y="8.9013" width="3.1711" height="3.1711" />
<rect x="267.9538" y="15.2434" width="9.5132" height="3.1711" />
<rect x="267.9538" y="21.5855" width="3.1711" height="3.1711" />
<rect x="274.2959" y="21.5855" width="3.1711" height="3.1711" />
<rect x="267.9538" y="27.9276" width="9.5132" height="3.1711" />
<rect x="267.9538" y="34.2697" width="3.1711" height="3.1711" />
<rect x="274.2959" y="34.2697" width="3.1711" height="3.1711" />
<rect x="280.638" y="2.5592" width="3.1711" height="3.1711" />
<rect x="286.9801" y="2.5592" width="3.1711" height="3.1711" />
<rect x="280.638" y="8.9013" width="9.5132" height="3.1711" />
<rect x="280.638" y="15.2434" width="9.5132" height="3.1711" />
<rect x="280.638" y="21.5855" width="3.1711" height="3.1711" />
<rect x="286.9801" y="21.5855" width="3.1711" height="3.1711" />
<rect x="280.638" y="27.9276" width="9.5132" height="3.1711" />
<rect x="280.638" y="34.2697" width="3.1711" height="3.1711" />
<rect x="286.9801" y="34.2697" width="3.1711" height="3.1711" />
<rect x="293.3222" y="2.5592" width="9.5132" height="3.1711" />
<rect x="293.3222" y="8.9013" width="9.5132" height="3.1711" />
<rect x="293.3222" y="15.2434" width="9.5132" height="3.1711" />
<rect x="293.3222" y="21.5855" width="3.1711" height="3.1711" />
<rect x="299.6643" y="21.5855" width="3.1711" height="3.1711" />
<rect x="293.3222" y="27.9276" width="9.5132" height="3.1711" />
<rect x="293.3222" y="34.2697" width="3.1711" height="3.1711" />
<rect x="299.6643" y="34.2697" width="3.1711" height="3.1711" />
<rect x="306.0064" y="2.5592" width="3.1711" height="3.1711" />
<rect x="312.3485" y="2.5592" width="3.1711" height="3.1711" />
<rect x="306.0064" y="8.9013" width="3.1711" height="3.1711" />
<rect x="312.3485" y="8.9013" width="3.1711" height="3.1711" />
<rect x="306.0064" y="15.2434" width="3.1711" height="3.1711" />
<rect x="312.3485" y="15.2434" width="3.1711" height="3.1711" />
<rect x="306.0064" y="21.5855" width="9.5132" height="3.1711" />
<rect x="306.0064" y="27.9276" width="9.5132" height="3.1711" />
<rect x="306.0064" y="34.2697" width="3.1711" height="3.1711" />
<rect x="312.3485" y="34.2697" width="3.1711" height="3.1711" />
<rect x="318.6906" y="2.5592" width="9.5132" height="3.1711" />
<rect x="318.6906" y="8.9013" width="3.1711" height="3.1711" />
<rect x="325.0327" y="8.9013" width="3.1711" height="3.1711" />
<rect x="318.6906" y="15.2434" width="3.1711" height="3.1711" />
<rect x="325.0327" y="15.2434" width="3.1711" height="3.1711" />
<rect x="318.6906" y="21.5855" width="9.5132" height="3.1711" />
<rect x="318.6906" y="27.9276" width="9.5132" height="3.1711" />
<rect x="318.6906" y="34.2697" width="3.1711" height="3.1711" />
<rect x="325.0327" y="34.2697" width="3.1711" height="3.1711" />
<rect x="331.3748" y="2.5592" width="3.1711" height="3.1711" />
<rect x="337.7169" y="2.5592" width="3.1711" height="3.1711" />
<rect x="331.3748" y="8.9013" width="9.5132" height="3.1711" />
<rect x="331.3748" y="15.2434" width="3.1711" height="3.1711" />
<rect x="337.7169" y="15.2434" width="3.1711" height="3.1711" />
<rect x="331.3748" y="21.5855" width="9.5132" height="3.1711" />
<rect x="331.3748" y="27.9276" width="9.5132" height="3.1711" />
<rect x="331.3748" y="34.2697" width="3.1711" height="3.1711" />
<rect x="337.7169" y="34.2697" width="3.1711" height="3.1711" />
<rect x="344.059" y="2.5592" width="9.5132" height="3.1711" />
<rect x="344.059" y="8.9013" width="9.5132" height="3.1711" />
<rect x="344.059" y="15.2434" width="3.1711" height="3.1711" />
<rect x="350.4011" y="15.2434" width="3.1711" height="3.1711" />
<rect x="344.059" y="21.5855" width="9.5132" height="3.1711" />
<rect x="344.059" y="27.9276" width="9.5132" height="3.1711" />
<rect x="344.059" y="34.2697" width="3.1711" height="3.1711" />
<rect x="350.4011" y="34.2697" width="3.1711" height="3.1711" />
<rect x="356.7432" y="2.5592" width="3.1711" height="3.1711" />
<rect x="363.0853" y="2.5592" width="3.1711" height="3.1711" />
<rect x="356.7432" y="8.9013" width="3.1711" height="3.1711" />
<rect x="363.0853" y="8.9013" width="3.1711" height="3.1711" />
<rect x="356.7432" y="15.2434" width="9.5132" height="3.1711" />
<rect x="356.7432" y="21.5855" width="9.5132" height="3.1711" />
<rect x="356.7432" y="27.9276" width="9.5132" height="3.1711" />
<rect x="356.7432" y="34.2697" width="3.1711" height="3.1711" />
<rect x="363.0853" y="34.2697" width="3.1711" height="3.1711" />
<rect x="369.4274" y="2.5592" width="9.5132" height="3.1711" />
<rect x="369.4274" y="8.9013" width="3.1711" height="3.1711" />
<rect x="375.7695" y="8.9013" width="3.1711" height="3.1711" />
<rect x="369.4274" y="15.2434" width="9.5132" height="3.1711" />
<rect x="369.4274" y="21.5855" width="9.5132" height="3.1711" />
<rect x="369.4274" y="27.9276" width="9.5132" height="3.1711" />
<rect x="369.4274" y="34.2697" width="3.1711" height="3.1711" />
<rect x="375.7695" y="34.2697" width="3.1711" height="3.1711" />
<rect x="382.1116" y="2.5592" width="3.1711" height="3.1711" />
<rect x="388.4537" y="2.5592" width="3.1711" height="3.1711" />
<rect x="382.1116" y="8.9013" width="9.5132" height="3.1711" />
<rect x="382.1116" y="15.2434" width="9.5132" height="3.1711" />
<rect x="382.1116" y="21.5855" width="9.5132" height="3.1711" />
<rect x="382.1116" y="27.9276" width="9.5132" height="3.1711" />
<rect x="382.1116" y="34.2697" width="3.1711" height="3.1711" />
<rect x="388.4537" y="34.2697" width="3.1711" height="3.1711" />
<rect x="394.7958" y="2.5592" width="9.5132" height="3.1711" />
<rect x="394.7958" y="8.9013" width="9.5132" height="3.1711" />
<rect x="394.7958" y="15.2434" width="9.5132" height="3.1711" />
<rect x="394.7958" y="21.5855" width="9.5132" height="3.1711" />
<rect x="394.7958" y="27.9276" width="9.5132" height="3.1711" />
<rect x="394.7958" y="34.2697" width="3.1711" height="3.1711" />
<rect x="401.1379" y="34.2697" width="3.1711" height="3.1711" />
<rect x="407.48" y="2.5592" width="3.1711" height="3.1711" />
<rect x="413.8221" y="2.5592" width="3.1711" height="3.1711" />
<rect x="407.48" y="8.9013" width="3.1711" height="3.1711" />
<rect x="413.8221" y="8.9013" width="3.1711" height="3.1711" />
<rect x="407.48" y="15.2434" width="3.1711" height="3.1711" />
<rect x="413.8221" y="15.2434" width="3.1711" height="3.1711" />
<rect x="407.48" y="21.5855" width="3.1711" height="3.1711" />
<rect x="413.8221" y="21.5855" width="3.1711" height="3.1711" />
<rect x="407.48" y="27.9276" width="3.1711" height="3.1711" />
<rect x="413.8221" y="27.9276" width="3.1711" height="3.1711" />
<rect x="407.48" y="34.2697" width="9.5132" height="3.1711" />
<rect x="420.1642" y="2.5592" width="9.5132" height="3.1711" />
<rect x="420.1642" y="8.9013" width="3.1711" height="3.1711" />
<rect x="426.5063" y="8.9013" width="3.1711" height="3.1711" />
<rect x="420.1642" y="15.2434" width="3.1711" height="3.1711" />
<rect x="426.5063" y="15.2434" width="3.1711" height="3.1711" />
<rect x="420.1642" y="21.5855" width="3.1711" height="3.1711" />
<rect x="426.5063" y="21.5855" width="3.1711" height="3.1711" />
<rect x="420.1642" y="27.9276" width="3.1711" height="3.1711" />
<rect x="426.5063" y="27.9276" width="3.1711" height="3.1711" />
<rect x="420.1642" y="34.2697" width="9.5132" height="3.1711" />
<rect x="432.8484" y="2.5592" width="3.1711" height="3.1711" />
<rect x="439.1905" y="2.5592" width="3.1711" height="3.1711" />
<rect x="432.8484" y="8.9013" width="9.5132" height="3.1711" />
<rect x="432.8484" y="15.2434" width="3.1711" height="3.1711" />
<rect x="439.1905" y="15.2434" width="3.1711" height="3.1711" />
<rect x="432.8484" y="21.5855" width="3.1711" height="3.1711" />
<rect x="439.1905" y="21.5855" width="3.1711" height="3.1711" />
<rect x="432.8484" y="27.9276" width="3.1711" height="3.1711" />
<rect x="439.1905" y="27.9276" width="3.1711" height="3.1711" />
<rect x="432.8484" y="34.2697" width="9.5132" height="3.1711" />
<rect x="445.5326" y="2.5592" width="9.5132" height="3.1711" />
<rect x="445.5326" y="8.9013" width="9.5132" height="3.1711" />
<rect x="445.5326" y="15.2434" width="3.1711" height="3.1711" />
<rect x="451.8747" y="15.2434" width="3.1711" height="3.1711" />
<rect x="445.5326" y="21.5855" width="3.1711" height="3.1711" />
<rect x="451.8747" y="21.5855" width="3.1711" height="3.1711" />
<rect x="445.5326" y="27.9276" width="3.1711" height="3.1711" />
<rect x="451.8747" y="27.9276" width="3.1711" height="3.1711" />
<rect x="445.5326" y="34.2697" width="9.5132" height="3.1711" />
<rect x="458.2168" y="2.5592" width="3.1711" height="3.1711" />
<rect x="464.5589" y="2.5592" width="3.1711" height="3.1711" />
<rect x="458.2168" y="8.9013" width="3.1711" height="3.1711" />
<rect x="464.5589" y="8.9013" width="3.1711" height="3.1711" />
<rect x="458.2168" y="15.2434" width="9.5132" height="3.1711" />
<rect x="458.2168" y="21.5855" width="3.1711" height="3.1711" />
<rect x="464.5589" y="21.5855" width="3.1711" height="3.1711" />
<rect x="458.2168" y="27.9276" width="3.1711" height="3.1711" />
<rect x="464.5589" y="27.9276" width="3.1711" height="3.1711" />
<rect x="458.2168" y="34.2697" width="9.5132" height="3.1711" />
<rect x="470.901" y="2.5592" width="9.5132" height="3.1711" />
<rect x="470.901" y="8.9013" width="3.1711" height="3.1711" />
<rect x="477.2431" y="8.9013" width="3.1711" height="3.1711" />
<rect x="470.901" y="15.2434" width="9.5132" height="3.1711" />
<rect x="470.901" y="21.5855" width="3.1711" height="3.1711" />
<rect x="477.2431" y="21.5855" width="3.1711" height="3.1711" />
<rect x="470.901" y="27.9276" width="3.1711" height="3.1711" />
<rect x="477.2431" y="27.9276" width="3.1711" height="3.1711" />
<rect x="470.901" y="34.2697" width="9.5132" height="3.1711" />
<rect x="483.5852" y="2.5592" width="3.1711" height="3.1711" />
<rect x="489.9273" y="2.5592" width="3.1711" height="3.1711" />
<rect x="483.5852" y="8.9013" width="9.5132" height="3.1711" />
<rect x="483.5852" y="15.2434" width="9.5132" height="3.1711" />
<rect x="483.5852" y="21.5855" width="3.1711" height="3.1711" />
<rect x="489.9273" y="21.5855" width="3.1711" height="3.1711" />
<rect x="483.5852" y="27.9276" width="3.1711" height="3.1711" />
<rect x="489.9273" y="27.9276" width="3.1711" height="3.1711" />
<rect x="483.5852" y="34.2697" width="9.5132" height="3.1711" />
<rect x="496.2694" y="2.5592" width="9.5132" height="3.1711" />
<rect x="496.2694" y="8.9013" width="9.5132" height="3.1711" />
<rect x="496.2694" y="15.2434" width="9.5132" height="3.1711" />
<rect x="496.2694" y="21.5855" width="3.1711" height="3.1711" />
<rect x="502.6115" y="21.5855" width="3.1711" height="3.1711" />
<rect x="496.2694" y="27.9276" width="3.1711" height="3.1711" />
<rect x="502.6115" y="27.9276" width="3.1711" height="3.1711" />
<rect x="496.2694" y="34.2697" width="9.5132" height="3.1711" />
<rect x="508.9537" y="2.5592" width="3.1711" height="3.1711" />
<rect x="515.2958" y="2.5592" width="3.1711" height="3.1711" />
<rect x="508.9537" y="8.9013" width="3.1711" height="3.1711" />
<rect x="515.2958" y="8.9013" width="3.1711" height="3.1711" />
<rect x="508.9537" y="15.2434" width="3.1711" height="3.1711" />
<rect x="515.2958" y="15.2434" width="3.1711" height="3.1711" />
<rect x="508.9537" y="21.5855" width="9.5132" height="3.1711" />
<rect x="508.9537" y="27.9276" width="3.1711" height="3.1711" />
<rect x="515.2958" y="27.9276" width="3.1711" height="3.1711" />
<rect x="508.9537" y="34.2697" width="9.5132" height="3.1711" />
<rect x="521.6379" y="2.5592" width="9.5132" height="3.1711" />
<rect x="521.6379" y="8.9013" width="3.1711" height="3.1711" />
<rect x="527.98" y="8.9013" width="3.1711" height="3.1711" />
<rect x="521.6379" y="15.2434" width="3.1711" height="3.1711" />
<rect x="527.98" y="15.2434" width="3.1711" height="3.1711" />
<rect x="521.6379" y="21.5855" width="9.5132" height="3.1711" />
<rect x="521.6379" y="27.9276" width="3.1711" height="3.1711" />
<rect x="527.98" y="27.9276" width="3.1711" height="3.1711" />
<rect x="521.6379" y="34.2697" width="9.5132" height="3.1711" />
<rect x="534.3221" y="2.5592" width="3.1711" height="3.1711" />
<rect x="540.6642" y="2.5592" width="3.1711" height="3.1711" />
<rect x="534.3221" y="8.9013" width="9.5132" height="3.1711" />
<rect x="534.3221" y="15.2434" width="3.1711" height="3.1711" />
<rect x="540.6642" y="15.2434" width="3.1711" height="3.1711" />
<rect x="534.3221" y="21.5855" width="9.5132" height="3.1711" />
<rect x="534.3221" y="27.9276" width="3.1711" height="3.1711" />
<rect x="540.6642" y="27.9276" width="3.1711" height="3.1711" />
<rect x="534.3221" y="34.2697" width="9.5132" height="3.1711" />
<rect x="547.0063" y="2.5592" width="9.5132" height="3.1711" />
<rect x="547.0063" y="8.9013" width="9.5132" height="3.1711" />
<rect x="547.0063" y="15.2434" width="3.1711" height="3.1711" />
<rect x="553.3484" y="15.2434" width="3.1711" height="3.1711" />
<rect x="547.0063" y="21.5855" width="9.5132" height="3.1711" />
<rect x="547.0063" y="27.9276" width="3.1711" height="3.1711" />
<rect x="553.3484" y="27.9276" width="3.1711" height="3.1711" />
<rect x="547.0063" y="34.2697" width="9.5132" height="3.1711" />
<rect x="559.6905" y="2.5592" width="3.1711" height="3.1711" />
<rect x="566.0326" y="2.5592" width="3.1711" height="3.1711" />
<rect x="559.6905" y="8.9013" width="3.1711" height="3.1711" />
<rect x="566.0326" y="8.9013" width="3.1711" height="3.1711" />
<rect x="559.6905" y="15.2434" width="9.5132" height="3.1711" />
<rect x="559.6905" y="21.5855" width="9.5132" height="3.1711" />
<rect x="559.6905" y="27.9276" width="3.1711" height="3.1711" />
<rect x="566.0326" y="27.9276" width="3.1711" height="3.1711" />
<rect x="559.6905" y="34.2697" width="9.5132" height="3.1711" />
<rect x="572.3747" y="2.5592" width="9.5132" height="3.1711" />
<rect x="572.3747" y="8.9013" width="3.1711" height="3.1711" />
<rect x="578.7168" y="8.9013" width="3.1711" height="3.1711" />
<rect x="572.3747" y="15.2434" width="9.5132" height="3.1711" />
<rect x="572.3747" y="21.5855" width="9.5132" height="3.1711" />
<rect x="572.3747" y="27.9276" width="3.1711" height="3.1711" />
<rect x="578.7168" y="27.9276" width="3.1711" height="3.1711" />
<rect x="572.3747" y="34.2697" width="9.5132" height="3.1711" />
<rect x="585.0589" y="2.5592" width="3.1711" height="3.1711" />
<rect x="591.401" y="2.5592" width="3.1711" height="3.1711" />
<rect x="585.0589" y="8.9013" width="9.5132" height="3.1711" />
<rect x="585.0589" y="15.2434" width="9.5132" height="3.1711" />
<rect x="585.0589" y="21.5855" width="9.5132" height="3.1711" />
<rect x="585.0589" y="27.9276" width="3.1711" height="3.1711" />
<rect x="591.401" y="27.9276" width="3.1711" height="3.1711" />
<rect x="585.0589" y="34.2697" width="9.5132" height="3.1711" />
<rect x="597.7431" y="2.5592" width="9.5132" height="3.1711" />
<rect x="597.7431" y="8.9013" width="9.5132" height="3.1711" />
<rect x="597.7431" y="15.2434" width="9.5132" height="3.1711" />
<rect x="597.7431" y="21.5855" width="9.5132" height="3.1711" />
<rect x="597.7431" y="27.9276" width="3.1711" height="3.1711" />
<rect x="604.0852" y="27.9276" width="3.1711" height="3.1711" />
<rect x="597.7431" y="34.2697" width="9.5132" height="3.1711" />
<rect x="610.4273" y="2.5592" width="3.1711" height="3.1711" />
<rect x="616.7694" y="2.5592" width="3.1711" height="3.1711" />
<rect x="610.4273" y="8.9013" width="3.1711" height="3.1711" />
<rect x="616.7694" y="8.9013" width="3.1711" height="3.1711" />
<rect x="610.4273" y="15.2434" width="3.1711" height="3.1711" />
<rect x="616.7694" y="15.2434" width="3.1711" height="3.1711" />
<rect x="610.4273" y="21.5855" width="3.1711" height="3.1711" />
<rect x="616.7694" y="21.5855" width="3.1711" height="3.1711" />
<rect x="610.4273" y="27.9276" width="9.5132" height="3.1711" />
<rect x="610.4273" y="34.2697" width="9.5132" height="3.1711" />
<rect x="623.1115" y="2.5592" width="9.5132" height="3.1711" />
<rect x="623.1115" y="8.9013" width="3.1711" height="3.1711" />
<rect x="629.4536" y="8.9013" width="3.1711" height="3.1711" />
<rect x="623.1115" y="15.2434" width="3.1711" height="3.1711" />
<rect x="629.4536" y="15.2434" width="3.1711" height="3.1711" />
<rect x="623.1115" y="21.5855" width="3.1711" height="3.1711" />
<rect x="629.4536" y="21.5855" width="3.1711" height="3.1711" />
<rect x="623.1115" y="27.9276" width="9.5132" height="3.1711" />
<rect x="623.1115" y="34.2697" width="9.5132" height="3.1711" />
<rect x="635.7957" y="2.5592" width="3.1711" height="3.1711" />
<rect x="642.1378" y="2.5592" width="3.1711" height="3.1711" />
<rect x="635.7957" y="8.9013" width="9.5132" height="3.1711" />
<rect x="635.7957" y="15.2434" width="3.1711" height="3.1711" />
<rect x="642.1378" y="15.2434" width="3.1711" height="3.1711" />
<rect x="635.7957" y="21.5855" width="3.1711" height="3.1711" />
<rect x="642.1378" y="21.5855" width="3.1711" height="3.1711" />
<rect x="635.7957" y="27.9276" width="9.5132" height="3.1711" />
<rect x="635.7957" y="34.2697" width="9.5132" height="3.1711" />
<rect x="648.4799" y="2.5592" width="9.5132" height="3.1711" />
<rect x="648.4799" y="8.9013" width="9.5132" height="3.1711" />
<rect x="648.4799" y="15.2434" width="3.1711" height="3.1711" />
<rect x="654.822" y="15.2434" width="3.1711" height="3.1711" />
<rect x="648.4799" y="21.5855" width="3.1711" height="3.1711" />
<rect x="654.822" y="21.5855" width="3.1711" height="3.1711" />
<rect x="648.4799" y="27.9276" width="9.5132" height="3.1711" />
<rect x="648.4799" y="34.2697" width="9.5132" height="3.1711" />
<rect x="661.1641" y="2.5592" width="3.1711" height="3.1711" />
<rect x="667.5062" y="2.5592" width="3.1711" height="3.1711" />
<rect x="661.1641" y="8.9013" width="3.1711" height="3.1711" />
<rect x="667.5062" y="8.9013" width="3.1711" height="3.1711" />
<rect x="661.1641" y="15.2434" width="9.5132" height="3.1711" />
<rect x="661.1641" y="21.5855" width="3.1711" height="3.1711" />
<rect x="667.5062" y="21.5855" width="3.1711" height="3.1711" />
<rect x="661.1641" y="27.9276" width="9.5132" height="3.1711" />
<rect x="661.1641" y="34.2697" width="9.5132" height="3.1711" />
<rect x="673.8483" y="2.5592" width="9.5132" height="3.1711" />
<rect x="673.8483" y="8.9013" width="3.1711" height="3.1711" />
<rect x="680.1904" y="8.9013" width="3.1711" height="3.1711" />
<rect x="673.8483" y="15.2434" width="9.5132" height="3.1711" />
<rect x="673.8483" y="21.5855" width="3.1711" height="3.1711" />
<rect x="680.1904" y="21.5855" width="3.1711" height="3.1711" />
<rect x="673.8483" y="27.9276" width="9.5132" height="3.1711" />
<rect x="673.8483" y="34.2697" width="9.5132" height="3.1711" />
<rect x="686.5325" y="2.5592" width="3.1711" height="3.1711" />
<rect x="692.8746" y="2.5592" width="3.1711" height="3.1711" />
<rect x="686.5325" y="8.9013" width="9.5132" height="3.1711" />
<rect x="686.5325" y="15.2434" width="9.5132" height="3.1711" />
<rect x="686.5325" y="21.5855" width="3.1711" height="3.1711" />
<rect x="692.8746" y="21.5855" width="3.1711" height="3.1711" />
<rect x="686.5325" y="27.9276" width="9.5132" height="3.1711" />
<rect x="686.5325" y="34.2697" width="9.5132" height="3.1711" />
<rect x="699.2167" y="2.5592" width="9.5132" height="3.1711" />
<rect x="699.2167" y="8.9013" width="9.5132" height="3.1711" />
<rect x="699.2167" y="15.2434" width="9.5132" height="3.1711" />
<rect x="699.2167" y="21.5855" width="3.1711" height="3.1711" />
<rect x="705.5588" y="21.5855" width="3.1711" height="3.1711" />
<rect x="699.2167" y="27.9276" width="9.5132" height="3.1711" />
<rect x="699.2167" y="34.2697" width="9.5132" height="3.1711" />
<rect x="711.9009" y="2.5592" width="3.1711" height="3.1711" />
<rect x="718.243" y="2.5592" width="3.1711" height="3.1711" />
<rect x="711.9009" y="8.9013" width="3.1711" height="3.1711" />
<rect x="718.243" y="8.9013" width="3.1711" height="3.1711" />
<rect x="711.9009" y="15.2434" width="3.1711" height="3.1711" />
<rect x="718.243" y="15.2434" width="3.1711" height="3.1711" />
<rect x="711.9009" y="21.5855" width="9.5132" height="3.1711" />
<rect x="711.9009" y="27.9276" width="9.5132" height="3.1711" />
<rect x="711.9009" y="34.2697" width="9.5132" height="3.1711" />
<rect x="724.5851" y="2.5592" width="9.5132" height="3.1711" />
<rect x="724.5851" y="8.9013" width="3.1711" height="3.1711" />
<rect x="730.9272" y="8.9013" width="3.1711" height="3.1711" />
<rect x="724.5851" y="15.2434" width="3.1711" height="3.1711" />
<rect x="730.9272" y="15.2434" width="3.1711" height="3.1711" />
<rect x="724.5851" y="21.5855" width="9.5132" height="3.1711" />
<rect x="724.5851" y="27.9276" width="9.5132" height="3.1711" />
<rect x="724.5851" y="34.2697" width="9.5132" height="3.1711" />
<rect x="737.2693" y="2.5592" width="3.1711" height="3.1711" />
<rect x="743.6114" y="2.5592" width="3.1711" height="3.1711" />
<rect x="737.2693" y="8.9013" width="9.5132" height="3.1711" />
<rect x="737.2693" y="15.2434" width="3.1711" height="3.1711" />
<rect x="743.6114" y="15.2434" width="3.1711" height="3.1711" />
<rect x="737.2693" y="21.5855" width="9.5132" height="3.1711" />
<rect x="737.2693" y="27.9276" width="9.5132" height="3.1711" />
<rect x="737.2693" y="34.2697" width="9.5132" height="3.1711" />
<rect x="749.9535" y="2.5592" width="9.5132" height="3.1711" />
<rect x="749.9535" y="8.9013" width="9.5132" height="3.1711" />
<rect x="749.9535" y="15.2434" width="3.1711" height="3.1711" />
<rect x="756.2956" y="15.2434" width="3.1711" height="3.1711" />
<rect x="749.9535" y="21.5855" width="9.5132" height="3.1711" />
<rect x="749.9535" y="27.9276" width="9.5132" height="3.1711" />
<rect x="749.9535" y="34.2697" width="9.5132" height="3.1711" />
<rect x="762.6377" y="2.5592" width="3.1711" height="3.1711" />
<rect x="768.9798" y="2.5592" width="3.1711" height="3.1711" />
<rect x="762.6377" y="8.9013" width="3.1711" height="3.1711" />
<rect x="768.9798" y="8.9013" width="3.1711" height="3.1711" />
<rect x="762.6377" y="15.2434" width="9.5132" height="3.1711" />
<rect x="762.6377" y="21.5855" width="9.5132" height="3.1711" />
<rect x="762.6377" y="27.9276" width="9.5132" height="3.1711" />
<rect x="762.6377" y="34.2697" width="9.5132" height="3.1711" />
<rect x="775.3219" y="2.5592" width="9.5132" height="3.1711" />
<rect x="775.3219" y="8.9013" width="3.1711" height="3.1711" />
<rect x="781.664" y="8.9013" width="3.1711" height="3.1711" />
<rect x="775.3219" y="15.2434" width="9.5132" height="3.1711" />
<rect x="775.3219" y="21.5855" width="9.5132" height="3.1711" />
<rect x="775.3219" y="27.9276" width="9.5132" height="3.1711" />
<rect x="775.3219" y="34.2697" width="9.5132" height="3.1711" />
<rect x="788.0061" y="2.5592" width="3.1711" height="3.1711" />
<rect x="794.3482" y="2.5592" width="3.1711" height="3.1711" />
<rect x="788.0061" y="8.9013" width="9.5132" height="3.1711" />
<rect x="788.0061" y="15.2434" width="9.5132" height="3.1711" />
<rect x="788.0061" y="21.5855" width="9.5132" height="3.1711" />
<rect x="788.0061" y="27.9276" width="9.5132" height="3.1711" />
<rect x="788.0061" y="34.2697" width="9.5132" height="3.1711" />
<rect x="800.6903" y="2.5592" width="9.5132" height="3.1711" />
<rect x="800.6903" y="8.9013" width="9.5132" height="3.1711" />
<rect x="800.6903" y="15.2434" width="9.5132" height="3.1711" />
<rect x="800.6903" y="21.5855" width="9.5132" height="3.1711" />
<rect x="800.6903" y="27.9276" width="9.5132" height="3.1711" />
<rect x="800.6903" y="34.2697" width="9.5132" height="3.1711" />
<rect x="0" y="0" width="811.789" height="40" stroke="lightblue" fill-opacity="0" />
</svg>