<svg version="1.1" baseProfile="full" width="5195.4496" height="256" xmlns="http://www.w3.org/2000/svg">
<!--
  This work is licensed under a Creative Commons Attribution-NonCommercial 4.0 International License
  <http://creativecommons.org/licenses/by-nc/4.0/>
  For commercial licenses, please contact Harlan T Wood: wizardry@harlantwood.net
-->
<rect x="10.1474" y="16.379" width="20.2947" height="20.2947" />
<rect x="50.7368" y="16.379" width="20.2947" height="20.2947" />
<rect x="10.1474" y="56.9685" width="20.2947" height="20.2947" />
<rect x="50.7368" y="56.9685" width="20.2947" height="20.2947" />
<rect x="10.1474" y="97.5579" width="20.2947" height="20.2947" />
<rect x="50.7368" y="97.5579" width="20.2947" height="20.2947" />
<rect x="10.1474" y="138.1474" width="20.2947" height="20.2947" />
<rect x="50.7368" y="138.1474" width="20.2947" height="20.2947" />
<rect x="10.1474" y="178.7368" width="20.2947" height="20.2947" />
<rect x="50.7368" y="178.7368" width="20.2947" height="20.2947" />
<rect x="10.1474" y="219.3263" width="20.2947" height="20.2947" />
<rect x="50.7368" y="219.3263" width="20.2947" height="20.2947" />
<rect x="91.3263" y="16.379" width="60.8842" height="20.2947" />
<rect x="91.3263" y="56.9685" width="20.2947" height="20.2947" />
<rect x="131.9157" y="56.9685" width="20.2947" height="20.2947" />
<rect x="91.3263" y="97.5579" width="20.2947" height="20.2947" />
<rect x="131.9157" y="97.5579" width="20.2947" height="20.2947" />
<rect x="91.3263" y="138.1474" width="20.2947" height="20.2947" />
<rect x="131.9157" y="138.1474" width="20.2947" height="20.2947" />
<rect x="91.3263" y="178.7368" width="20.2947" height="20.2947" />
<rect x="131.9157" y="178.7368" width="20.2947" height="20.2947" />
<rect x="91.3263" y="219.3263" width="20.2947" height="20.2947" />
<rect x="131.9157" y="219.3263" width="20.2947" height="20.2947" />
<rect x="172.5052" y="16.379" width="20.2947" height="20.2947" />
<rect x="213.0946" y="16.379" width="20.2947" height="20.2947" />
<rect x="172.5052" y="56.9685" width="60.8842" height="20.2947" />
<rect x="172.5052" y="97.5579" width="20.2947" height="20.2947" />
<rect x="213.0946" y="97.5579" width="20.2947" height="20.2947" />
<rect x="172.5052" y="138.1474" width="20.2947" height="20.2947" />
<rect x="213.0946" y="138.1474" width="20.2947" height="20.2947" />
<rect x="172.5052" y="178.7368" width="20.2947" height="20.2947" />
<rect x="213.0946" y="178.7368" width="20.2947" height="20.2947" />
<rect x="172.5052" y="219.3263" width="20.2947" height="20.2947" />
<rect x="213.0946" y="219.3263" width="20.2947" height="20.2947" />
<rect x="253.6841" y="16.379" width="60.8842" height="20.2947" />
<rect x="253.6841" y="56.9685" width="60.8842" height="20.2947" />
<rect x="253.6841" y="97.5579" width="20.2947" height="20.2947" />
<rect x="294.2735" y="97.5579" width="20.2947" height="20.2947" />
<rect x="253.6841" y="138.1474" width="20.2947" height="20.2947" />
<rect x="294.2735" y="138.1474" width="20.2947" height="20.2947" />
<rect x="253.6841" y="178.7368" width="20.2947" height="20.2947" />
<rect x="294.2735" y="178.7368" width="20.2947" height="20.2947" />
<rect x="253.6841" y="219.3263" width="20.2947" height="20.2947" />
<rect x="294.2735" y="219.3263" width="20.2947" height="20.2947" />
<rect x="334.863" y="16.379" width="20.2947" height="20.2947" />
<rect x="375.4524" y="16.379" width="20.2947" height="20.2947" />
<rect x="334.863" y="56.9685" width="20.2947" height="20.2947" />
<rect x="375.4524" y="56.9685" width="20.2947" height="20.2947" />
<rect x="334.863" y="97.5579" width="60.8842" height="20.2947" />
<rect x="334.863" y="138.1474" width="20.2947" height="20.2947" />
<rect x="375.4524" y="138.1474" width="20.2947" height="20.2947" />
<rect x="334.863" y="178.7368" width="20.2947" height="20.2947" />
<rect x="375.4524" y="178.7368" width="20.2947" height="20.2947" />
<rect x="334.863" y="219.3263" width="20.2947" height="20.2947" />
<rect x="375.4524" y="219.3263" width="20.2947" height="20.2947" />
<rect x="416.0419" y="16.379" width="60.8842" height="20.2947" />
<rect x="416.0419" y="56.9685" width="20.2947" height="20.2947" />
<rect x="456.6313" y="56.9685" width="20.2947" height="20.2947" />
<rect x="416.0419" y="97.5579" width="60.8842" height="20.2947" />
<rect x="416.0419" y="138.1474" width="20.2947" height="20.2947" />
<rect x="456.6313" y="138.1474" width="20.2947" height="20.2947" />
<rect x="416.0419" y="178.7368" width="20.2947" height="20.2947" />
<rect x="456.6313" y="178.7368" width="20.2947" height="20.2947" />
<rect x="416.0419" y="219.3263" width="20.2947" height="20.2947" />
<rect x="456.6313" y="219.3263" width="20.2947" height="20.2947" />
<rect x="497.2208" y="16.379" width="20.2947" height="20.2947" />
<rect x="537.8102" y="16.379" width="20.2947" height="20.2947" />
<rect x="497.2208" y="56.9685" width="60.8842" height="20.2947" />
<rect x="497.2208" y="97.5579" width="60.8842" height="20.2947" />
<rect x="497.2208" y="138.1474" width="20.2947" height="20.2947" />
<rect x="537.8102" y="138.1474" width="20.2947" height="20.2947" />
<rect x="497.2208" y="178.7368" width="20.2947" height="20.2947" />
<rect x="537.8102" y="178.7368" width="20.2947" height="20.2947" />
<rect x="497.2208" y="219.3263" width="20.2947" height="20.2947" />
<rect x="537.8102" y="219.3263" width="20.2947" height="20.2947" />
<rect x="578.3997" y="16.379" width="60.8842" height="20.2947" />
<rect x="578.3997" y="56.9685" width="60.8842" height="20.2947" />
<rect x="578.3997" y="97.5579" width="60.8842" height="20.2947" />
<rect x="578.3997" y="138.1474" width="20.2947" height="20.2947" />
<rect x="618.9891" y="138.1474" width="20.2947" height="20.2947" />
<rect x="578.3997" y="178.7368" width="20.2947" height="20.2947" />
<rect x="618.9891" y="178.7368" width="20.2947" height="20.2947" />
<rect x="578.3997" y="219.3263" width="20.2947" height="20.2947" />
<rect x="618.9891" y="219.3263" width="20.2947" height="20.2947" />
<rect x="659.5786" y="16.379" width="20.2947" height="20.2947" />
<rect x="700.168" y="16.379" width="20.2947" height="20.2947" />
<rect x="659.5786" y="56.9685" width="20.2947" height="20.2947" />
<rect x="700.168" y="56.9685" width="20.2947" height="20.2947" />
<rect x="659.5786" y="97.5579" width="20.2947" height="20.2947" />
<rect x="700.168" y="97.5579" width="20.2947" height="20.2947" />
<rect x="659.5786" y="138.1474" width="60.8842" height="20.2947" />
<rect x="659.5786" y="178.7368" width="20.2947" height="20.2947" />
<rect x="700.168" y="178.7368" width="20.2947" height="20.2947" />
<rect x="659.5786" y="219.3263" width="20.2947" height="20.2947" />
<rect x="700.168" y="219.3263" width="20.2947" height="20.2947" />
<rect x="740.7575" y="16.379" width="60.8842" height="20.2947" />
<rect x="740.7575" y="56.9685" width="20.2947" height="20.2947" />
<rect x="781.3469" y="56.9685" width="20.2947" height="20.2947" />
<rect x="740.7575" y="97.5579" width="20.2947" height="20.2947" />
<rect x="781.3469" y="97.5579" width="20.2947" height="20.2947" />
<rect x="740.7575" y="138.1474" width="60.8842" height="20.2947" />
<rect x="740.7575" y="178.7368" width="20.2947" height="20.2947" />
<rect x="781.3469" y="178.7368" width="20.2947" height="20.2947" />
<rect x="740.7575" y="219.3263" width="20.2947" height="20.2947" />
<rect x="781.3469" y="219.3263" width="20.2947" height="20.2947" />
<rect x="821.9364" y="16.379" width="20.2947" height="20.2947" />
<rect x="862.5258" y="16.379" width="20.2947" height="20.2947" />
<rect x="821.9364" y="56.9685" width="60.8842" height="20.2947" />
<rect x="821.9364" y="97.5579" width="20.2947" height="20.2947" />
<rect x="862.5258" y="97.5579" width="20.2947" height="20.2947" />
<rect x="821.9364" y="138.1474" width="60.8842" height="20.2947" />
<rect x="821.9364" y="178.7368" width="20.2947" height="20.2947" />
<rect x="862.5258" y="178.7368" width="20.2947" height="20.2947" />
<rect x="821.9364" y="219.3263" width="20.2947" height="20.2947" />
<rect x="862.5258" y="219.3263" width="20.2947" height="20.2947" />
<rect x="903.1153" y="16.379" width="60.8842" height="20.2947" />
<rect x="903.1153" y="56.9685" width="60.8842" height="20.2947" />
<rect x="903.1153" y="97.5579" width="20.2947" height="20.2947" />
<rect x="943.7047" y="97.5579" width="20.2947" height="20.2947" />
<rect x="903.1153" y="138.1474" width="60.8842" height="20.2947" />
<rect x="903.1153" y="178.7368" width="20.2947" height="20.2947" />
<rect x="943.7047" y="178.7368" width="20.2947" height="20.2947" />
<rect x="903.1153" y="219.3263" width="20.2947" height="20.2947" />
<rect x="943.7047" y="219.3263" width="20.2947" height="20.2947" />
<rect x="984.2942" y="16.379" width="20.2947" height="20.2947" />
<rect x="1024.8836" y="16.379" width="20.2947" height="20.2947" />
<rect x="984.2942" y="56.9685" width="20.2947" height="20.2947" />
<rect x="1024.8836" y="56.9685" width="20.2947" height="20.2947" />
<rect x="984.2942" y="97.5579" width="60.8842" height="20.2947" />
<rect x="984.2942" y="138.1474" width="60.8842" height="20.2947" />
<rect x="984.2942" y="178.7368" width="20.2947" height="20.2947" />
<rect x="1024.8836" y="178.7368" width="20.2947" height="20.2947" />
<rect x="984.2942" y="219.3263" width="20.2947" height="20.2947" />
<rect x="1024.8836" y="219.3263" width="20.2947" height="20.2947" />
<rect x="1065.4731" y="16.379" width="60.8842" height="20.2947" />
<rect x="1065.4731" y="56.9685" width="20.2947" height="20.2947" />
<rect x="1106.0625" y="56.9685" width="20.2947" height="20.2947" />
<rect x="1065.4731" y="97.5579" width="60.8842" height="20.2947" />
<rect x="1065.4731" y="138.1474" width="60.8842" height="20.2947" />
<rect x="1065.4731" y="178.7368" width="20.2947" height="20.2947" />
<rect x="1106.0625" y="178.7368" width="20.2947" height="20.2947" />
<rect x="1065.4731" y="219.3263" width="20.2947" height="20.2947" />
<rect x="1106.0625" y="219.3263" width="20.2947" height="20.2947" />
<rect x="1146.652" y="16.379" width="20.2947" height="20.2947" />
<rect x="1187.2414" y="16.379" width="20.2947" height="20.2947" />
<rect x="1146.652" y="56.9685" width="60.8842" height="20.2947" />
<rect x="1146.652" y="97.5579" width="60.8842" height="20.2947" />
<rect x="1146.652" y="138.1474" width="60.8842" height="20.2947" />
<rect x="1146.652" y="178.7368" width="20.2947" height="20.2947" />
<rect x="1187.2414" y="178.7368" width="20.2947" height="20.2947" />
<rect x="1146.652" y="219.3263" width="20.2947" height="20.2947" />
<rect x="1187.2414" y="219.3263" width="20.2947" height="20.2947" />
<rect x="1227.8309" y="16.379" width="60.8842" height="20.2947" />
<rect x="1227.8309" y="56.9685" width="60.8842" height="20.2947" />
<rect x="1227.8309" y="97.5579" width="60.8842" height="20.2947" />
<rect x="1227.8309" y="138.1474" width="60.8842" height="20.2947" />
<rect x="1227.8309" y="178.7368" width="20.2947" height="20.2947" />
<rect x="1268.4203" y="178.7368" width="20.2947" height="20.2947" />
<rect x="1227.8309" y="219.3263" width="20.2947" height="20.2947" />
<rect x="1268.4203" y="219.3263" width="20.2947" height="20.2947" />
<rect x="1309.0098" y="16.379" width="20.2947" height="20.2947" />
<rect x="1349.5992" y="16.379" width="20.2947" height="20.2947" />
<rect x="1309.0098" y="56.9685" width="20.2947" height="20.2947" />
<rect x="1349.5992" y="56.9685" width="20.2947" height="20.2947" />
<rect x="1309.0098" y="97.5579" width="20.2947" height="20.2947" />
<rect x="1349.5992" y="97.5579" width="20.2947" height="20.2947" />
<rect x="1309.0098" y="138.1474" width="20.2947" height="20.2947" />
<rect x="1349.5992" y="138.1474" width="20.2947" height="20.2947" />
<rect x="1309.0098" y="178.7368" width="60.8842" height="20.2947" />
<rect x="1309.0098" y="219.3263" width="20.2947" height="20.2947" />
<rect x="1349.5992" y="219.3263" width="20.2947" height="20.2947" />
<rect x="1390.1887" y="16.379" width="60.8842" height="20.2947" />
<rect x="1390.1887" y="56.9685" width="20.2947" height="20.2947" />
<rect x="1430.7781" y="56.9685" width="20.2947" height="20.2947" />
<rect x="1390.1887" y="97.5579" width="20.2947" height="20.2947" />
<rect x="1430.7781" y="97.5579" width="20.2947" height="20.2947" />
<rect x="1390.1887" y="138.1474" width="20.2947" height="20.2947" />
<rect x="1430.7781" y="138.1474" width="20.2947" height="20.2947" />
<rect x="1390.1887" y="178.7368" width="60.8842" height="20.2947" />
<rect x="1390.1887" y="219.3263" width="20.2947" height="20.2947" />
<rect x="1430.7781" y="219.3263" width="20.2947" height="20.2947" />
<rect x="1471.3676" y="16.379" width="20.2947" height="20.2947" />
<rect x="1511.957" y="16.379" width="20.2947" height="20.2947" />
<rect x="1471.3676" y="56.9685" width="60.8842" height="20.2947" />
<rect x="1471.3676" y="97.5579" width="20.2947" height="20.2947" />
<rect x="1511.957" y="97.5579" width="20.2947" height="20.2947" />
<rect x="1471.3676" y="138.1474" width="20.2947" height="20.2947" />
<rect x="1511.957" y="138.1474" width="20.2947" height="20.2947" />
<rect x="1471.3676" y="178.7368" width="60.8842" height="20.2947" />
<rect x="1471.3676" y="219.3263" width="20.2947" height="20.2947" />
<rect x="1511.957" y="219.3263" width="20.2947" height="20.2947" />
<rect x="1552.5465" y="16.379" width="60.8842" height="20.2947" />
<rect x="1552.5465" y="56.9685" width="60.8842" height="20.2947" />
<rect x="1552.5465" y="97.5579" width="20.2947" height="20.2947" />
<rect x="1593.1359" y="97.5579" width="20.2947" height="20.2947" />
<rect x="1552.5465" y="138.1474" width="20.2947" height="20.2947" />
<rect x="1593.1359" y="138.1474" width="20.2947" height="20.2947" />
<rect x="1552.5465" y="178.7368" width="60.8842" height="20.2947" />
<rect x="1552.5465" y="219.3263" width="20.2947" height="20.2947" />
<rect x="1593.1359" y="219.3263" width="20.2947" height="20.2947" />
<rect x="1633.7254" y="16.379" width="20.2947" height="20.2947" />
<rect x="1674.3148" y="16.379" width="20.2947" height="20.2947" />
<rect x="1633.7254" y="56.9685" width="20.2947" height="20.2947" />
<rect x="1674.3148" y="56.9685" width="20.2947" height="20.2947" />
<rect x="1633.7254" y="97.5579" width="60.8842" height="20.2947" />
<rect x="1633.7254" y="138.1474" width="20.2947" height="20.2947" />
<rect x="1674.3148" y="138.1474" width="20.2947" height="20.2947" />
<rect x="1633.7254" y="178.7368" width="60.8842" height="20.2947" />
<rect x="1633.7254" y="219.3263" width="20.2947" height="20.2947" />
<rect x="1674.3148" y="219.3263" width="20.2947" height="20.2947" />
<rect x="1714.9043" y="16.379" width="60.8842" height="20.2947" />
<rect x="1714.9043" y="56.9685" width="20.2947" height="20.2947" />
<rect x="1755.4937" y="56.9685" width="20.2947" height="20.2947" />
<rect x="1714.9043" y="97.5579" width="60.8842" height="20.2947" />
<rect x="1714.9043" y="138.1474" width="20.2947" height="20.2947" />
<rect x="1755.4937" y="138.1474" width="20.2947" height="20.2947" />
<rect x="1714.9043" y="178.7368" width="60.8842" height="20.2947" />
<rect x="1714.9043" y="219.3263" width="20.2947" height="20.2947" />
<rect x="1755.4937" y="219.3263" width="20.2947" height="20.2947" />
<rect x="1796.0832" y="16.379" width="20.2947" height="20.2947" />
<rect x="1836.6726" y="16.379" width="20.2947" height="20.2947" />
<rect x="1796.0832" y="56.9685" width="60.8842" height="20.2947" />
<rect x="1796.0832" y="97.5579" width="60.8842" height="20.2947" />
<rect x="1796.0832" y="138.1474" width="20.2947" height="20.2947" />
<rect x="1836.6726" y="138.1474" width="20.2947" height="20.2947" />
<rect x="1796.0832" y="178.7368" width="60.8842" height="20.2947" />
<rect x="1796.0832" y="219.3263" width="20.2947" height="20.2947" />
<rect x="1836.6726" y="219.3263" width="20.2947" height="20.2947" />
<rect x="1877.2621" y="16.379" width="60.8842" height="20.2947" />
<rect x="1877.2621" y="56.9685" width="60.8842" height="20.2947" />
<rect x="1877.2621" y="97.5579" width="60.8842" height="20.2947" />
<rect x="1877.2621" y="138.1474" width="20.2947" height="20.2947" />
<rect x="1917.8515" y="138.1474" width="20.2947" height="20.2947" />
<rect x="1877.2621" y="178.7368" width="60.8842" height="20.2947" />
<rect x="1877.2621" y="219.3263" width="20.2947" height="20.2947" />
<rect x="1917.8515" y="219.3263" width="20.2947" height="20.2947" />
<rect x="1958.441" y="16.379" width="20.2947" height="20.2947" />
<rect x="1999.0304" y="16.379" width="20.2947" height="20.2947" />
<rect x="1958.441" y="56.9685" width="20.2947" height="20.2947" />
<rect x="1999.0304" y="56.9685" width="20.2947" height="20.2947" />
<rect x="1958.441" y="97.5579" width="20.2947" height="20.2947" />
<rect x="1999.0304" y="97.5579" width="20.2947" height="20.2947" />
<rect x="1958.441" y="138.1474" width="60.8842" height="20.2947" />
<rect x="1958.441" y="178.7368" width="60.8842" height="20.2947" />
<rect x="1958.441" y="219.3263" width="20.2947" height="20.2947" />
<rect x="1999.0304" y="219.3263" width="20.2947" height="20.2947" />
<rect x="2039.6199" y="16.379" width="60.8842" height="20.2947" />
<rect x="2039.6199" y="56.9685" width="20.2947" height="20.2947" />
<rect x="2080.2093" y="56.9685" width="20.2947" height="20.2947" />
<rect x="2039.6199" y="97.5579" width="20.2947" height="20.2947" />
<rect x="2080.2093" y="97.5579" width="20.2947" height="20.2947" />
<rect x="2039.6199" y="138.1474" width="60.8842" height="20.2947" />
<rect x="2039.6199" y="178.7368" width="60.8842" height="20.2947" />
<rect x="2039.6199" y="219.3263" width="20.2947" height="20.2947" />
<rect x="2080.2093" y="219.3263" width="20.2947" height="20.2947" />
<rect x="2120.7988" y="16.379" width="20.2947" height="20.2947" />
<rect x="2161.3882" y="16.379" width="20.2947" height="20.2947" />
<rect x="2120.7988" y="56.9685" width="60.8842" height="20.2947" />
<rect x="2120.7988" y="97.5579" width="20.2947" height="20.2947" />
<rect x="2161.3882" y="97.5579" width="20.2947" height="20.2947" />
<rect x="2120.7988" y="138.1474" width="60.8842" height="20.2947" />
<rect x="2120.7988" y="178.7368" width="60.8842" height="20.2947" />
<rect x="2120.7988" y="219.3263" width="20.2947" height="20.2947" />
<rect x="2161.3882" y="219.3263" width="20.2947" height="20.2947" />
<rect x="2201.9777" y="16.379" width="60.8842" height="20.2947" />
<rect x="2201.9777" y="56.9685" width="60.8842" height="20.2947" />
<rect x="2201.9777" y="97.5579" width="20.2947" height="20.2947" />
<rect x="2242.5671" y="97.5579" width="20.2947" height="20.2947" />
<rect x="2201.9777" y="138.1474" width="60.8842" height="20.2947" />
<rect x="2201.9777" y="178.7368" width="60.8842" height="20.2947" />
<rect x="2201.9777" y="219.3263" width="20.2947" height="20.2947" />
<rect x="2242.5671" y="219.3263" width="20.2947" height="20.2947" />
<rect x="2283.1566" y="16.379" width="20.2947" height="20.2947" />
<rect x="2323.746" y="16.379" width="20.2947" height="20.2947" />
<rect x="2283.1566" y="56.9685" width="20.2947" height="20.2947" />
<rect x="2323.746" y="56.9685" width="20.2947" height="20.2947" />
<rect x="2283.1566" y="97.5579" width="60.8842" height="20.2947" />
<rect x="2283.1566" y="138.1474" width="60.8842" height="20.2947" />
<rect x="2283.1566" y="178.7368" width="60.8842" height="20.2947" />
<rect x="2283.1566" y="219.3263" width="20.2947" height="20.2947" />
<rect x="2323.746" y="219.3263" width="20.2947" height="20.2947" />
<rect x="2364.3355" y="16.379" width="60.8842" height="20.2947" />
<rect x="2364.3355" y="56.9685" width="20.2947" height="20.2947" />
<rect x="2404.9249" y="56.9685" width="20.2947" height="20.2947" />
<rect x="2364.3355" y="97.5579" width="60.8842" height="20.2947" />
<rect x="2364.3355" y="138.1474" width="60.8842" height="20.2947" />
<rect x="2364.3355" y="178.7368" width="60.8842" height="20.2947" />
<rect x="2364.3355" y="219.3263" width="20.2947" height="20.2947" />
<rect x="2404.9249" y="219.3263" width="20.2947" height="20.2947" />
<rect x="2445.5144" y="16.379" width="20.2947" height="20.2947" />
<rect x="2486.1038" y="16.379" width="20.2947" height="20.2947" />
<rect x="2445.5144" y="56.9685" width="60.8842" height="20.2947" />
<rect x="2445.5144" y="97.5579" width="60.8842" height="20.2947" />
<rect x="2445.5144" y="138.1474" width="60.8842" height="20.2947" />
<rect x="2445.5144" y="178.7368" width="60.8842" height="20.2947" />
<rect x="2445.5144" y="219.3263" width="20.2947" height="20.2947" />
<rect x="2486.1038" y="219.3263" width="20.2947" height="20.2947" />
<rect x="2526.6933" y="16.379" width="60.8842" height="20.2947" />
<rect x="2526.6933" y="56.9685" width="60.8842" height="20.2947" />
<rect x="2526.6933" y="97.5579" width="60.8842" height="20.2947" />
<rect x="2526.6933" y="138.1474" width="60.8842" height="20.2947" />
<rect x="2526.6933" y="178.7368" width="60.8842" height="20.2947" />
<rect x="2526.6933" y="219.3263" width="20.2947" height="20.2947" />
<rect x="2567.2827" y="219.3263" width="20.2947" height="20.2947" />
<rect x="2607.8722" y="16.379" width="20.2947" height="20.2947" />
<rect x="2648.4616" y="16.379" width="20.2947" height="20.2947" />
<rect x="2607.8722" y="56.9685" width="20.2947" height="20.2947" />
<rect x="2648.4616" y="56.9685" width="20.2947" height="20.2947" />
<rect x="2607.8722" y="97.5579" width="20.2947" height="20.2947" />
<rect x="2648.4616" y="97.5579" width="20.2947" height="20.2947" />
<rect x="2607.8722" y="138.1474" width="20.2947" height="20.2947" />
<rect x="2648.4616" y="138.1474" width="20.2947" height="20.2947" />
<rect x="2607.8722" y="178.7368" width="20.2947" height="20.2947" />
<rect x="2648.4616" y="178.7368" width="20.2947" height="20.2947" />
<rect x="2607.8722" y="219.3263" width="60.8842" height="20.2947" />
<rect x="2689.0511" y="16.379" width="60.8842" height="20.2947" />
<rect x="2689.0511" y="56.9685" width="20.2947" height="20.2947" />
<rect x="2729.6405" y="56.9685" width="20.2947" height="20.2947" />
<rect x="2689.0511" y="97.5579" width="20.2947" height="20.2947" />
<rect x="2729.6405" y="97.5579" width="20.2947" height="20.2947" />
<rect x="2689.0511" y="138.1474" width="20.2947" height="20.2947" />
<rect x="2729.6405" y="138.1474" width="20.2947" height="20.2947" />
<rect x="2689.0511" y="178.7368" width="20.2947" height="20.2947" />
<rect x="2729.6405" y="178.7368" width="20.2947" height="20.2947" />
<rect x="2689.0511" y="219.3263" width="60.8842" height="20.2947" />
<rect x="2770.23" y="16.379" width="20.2947" height="20.2947" />
<rect x="2810.8194" y="16.379" width="20.2947" height="20.2947" />
<rect x="2770.23" y="56.9685" width="60.8842" height="20.2947" />
<rect x="2770.23" y="97.5579" width="20.2947" height="20.2947" />
<rect x="2810.8194" y="97.5579" width="20.2947" height="20.2947" />
<rect x="2770.23" y="138.1474" width="20.2947" height="20.2947" />
<rect x="2810.8194" y="138.1474" width="20.2947" height="20.2947" />
<rect x="2770.23" y="178.7368" width="20.2947" height="20.2947" />
<rect x="2810.8194" y="178.7368" width="20.2947" height="20.2947" />
<rect x="2770.23" y="219.3263" width="60.8842" height="20.2947" />
<rect x="2851.4089" y="16.379" width="60.8842" height="20.2947" />
<rect x="2851.4089" y="56.9685" width="60.8842" height="20.2947" />
<rect x="2851.4089" y="97.5579" width="20.2947" height="20.2947" />
<rect x="2891.9983" y="97.5579" width="20.2947" height="20.2947" />
<rect x="2851.4089" y="138.1474" width="20.2947" height="20.2947" />
<rect x="2891.9983" y="138.1474" width="20.2947" height="20.2947" />
<rect x="2851.4089" y="178.7368" width="20.2947" height="20.2947" />
<rect x="2891.9983" y="178.7368" width="20.2947" height="20.2947" />
<rect x="2851.4089" y="219.3263" width="60.8842" height="20.2947" />
<rect x="2932.5878" y="16.379" width="20.2947" height="20.2947" />
<rect x="2973.1772" y="16.379" width="20.2947" height="20.2947" />
<rect x="2932.5878" y="56.9685" width="20.2947" height="20.2947" />
<rect x="2973.1772" y="56.9685" width="20.2947" height="20.2947" />
<rect x="2932.5878" y="97.5579" width="60.8842" height="20.2947" />
<rect x="2932.5878" y="138.1474" width="20.2947" height="20.2947" />
<rect x="2973.1772" y="138.1474" width="20.2947" height="20.2947" />
<rect x="2932.5878" y="178.7368" width="20.2947" height="20.2947" />
<rect x="2973.1772" y="178.7368" width="20.2947" height="20.2947" />
<rect x="2932.5878" y="219.3263" width="60.8842" height="20.2947" />
<rect x="3013.7667" y="16.379" width="60.8842" height="20.2947" />
<rect x="3013.7667" y="56.9685" width="20.2947" height="20.2947" />
<rect x="3054.3561" y="56.9685" width="20.2947" height="20.2947" />
<rect x="3013.7667" y="97.5579" width="60.8842" height="20.2947" />
<rect x="3013.7667" y="138.1474" width="20.2947" height="20.2947" />
<rect x="3054.3561" y="138.1474" width="20.2947" height="20.2947" />
<rect x="3013.7667" y="178.7368" width="20.2947" height="20.2947" />
<rect x="3054.3561" y="178.7368" width="20.2947" height="20.2947" />
<rect x="3013.7667" y="219.3263" width="60.8842" height="20.2947" />
<rect x="3094.9456" y="16.379" width="20.2947" height="20.2947" />
<rect x="3135.535" y="16.379" width="20.2947" height="20.2947" />
<rect x="3094.9456" y="56.9685" width="60.8842" height="20.2947" />
<rect x="3094.9456" y="97.5579" width="60.8842" height="20.2947" />
<rect x="3094.9456" y="138.1474" width="20.2947" height="20.2947" />
<rect x="3135.535" y="138.1474" width="20.2947" height="20.2947" />
<rect x="3094.9456" y="178.7368" width="20.2947" height="20.2947" />
<rect x="3135.535" y="178.7368" width="20.2947" height="20.2947" />
<rect x="3094.9456" y="219.3263" width="60.8842" height="20.2947" />
<rect x="3176.1245" y="16.379" width="60.8842" height="20.2947" />
<rect x="3176.1245" y="56.9685" width="60.8842" height="20.2947" />
<rect x="3176.1245" y="97.5579" width="60.8842" height="20.2947" />
<rect x="3176.1245" y="138.1474" width="20.2947" height="20.2947" />
<rect x="3216.7139" y="138.1474" width="20.2947" height="20.2947" />
<rect x="3176.1245" y="178.7368" width="20.2947" height="20.2947" />
<rect x="3216.7139" y="178.7368" width="20.2947" height="20.2947" />
<rect x="3176.1245" y="219.3263" width="60.8842" height="20.2947" />
<rect x="3257.3034" y="16.379" width="20.2947" height="20.2947" />
<rect x="3297.8928" y="16.379" width="20.2947" height="20.2947" />
<rect x="3257.3034" y="56.9685" width="20.2947" height="20.2947" />
<rect x="3297.8928" y="56.9685" width="20.2947" height="20.2947" />
<rect x="3257.3034" y="97.5579" width="20.2947" height="20.2947" />
<rect x="3297.8928" y="97.5579" width="20.2947" height="20.2947" />
<rect x="3257.3034" y="138.1474" width="60.8842" height="20.2947" />
<rect x="3257.3034" y="178.7368" width="20.2947" height="20.2947" />
<rect x="3297.8928" y="178.7368" width="20.2947" height="20.2947" />
<rect x="3257.3034" y="219.3263" width="60.8842" height="20.2947" />
<rect x="3338.4823" y="16.379" width="60.8842" height="20.2947" />
<rect x="3338.4823" y="56.9685" width="20.2947" height="20.2947" />
<rect x="3379.0717" y="56.9685" width="20.2947" height="20.2947" />
<rect x="3338.4823" y="97.5579" width="20.2947" height="20.2947" />
<rect x="3379.0717" y="97.5579" width="20.2947" height="20.2947" />
<rect x="3338.4823" y="138.1474" width="60.8842" height="20.2947" />
<rect x="3338.4823" y="178.7368" width="20.2947" height="20.2947" />
<rect x="3379.0717" y="178.7368" width="20.2947" height="20.2947" />
<rect x="3338.4823" y="219.3263" width="60.8842" height="20.2947" />
<rect x="3419.6612" y="16.379" width="20.2947" height="20.2947" />
<rect x="3460.2506" y="16.379" width="20.2947" height="20.2947" />
<rect x="3419.6612" y="56.9685" width="60.8842" height="20.2947" />
<rect x="3419.6612" y="97.5579" width="20.2947" height="20.2947" />
<rect x="3460.2506" y="97.5579" width="20.2947" height="20.2947" />
<rect x="3419.6612" y="138.1474" width="60.8842" height="20.2947" />
<rect x="3419.6612" y="178.7368" width="20.2947" height="20.2947" />
<rect x="3460.2506" y="178.7368" width="20.2947" height="20.2947" />
<rect x="3419.6612" y="219.3263" width="60.8842" height="20.2947" />
<rect x="3500.8401" y="16.379" width="60.8842" height="20.2947" />
<rect x="3500.8401" y="56.9685" width="60.8842" height="20.2947" />
<rect x="3500.8401" y="97.5579" width="20.2947" height="20.2947" />
<rect x="3541.4295" y="97.5579" width="20.2947" height="20.2947" />
<rect x="3500.8401" y="138.1474" width="60.8842" height="20.2947" />
<rect x="3500.8401" y="178.7368" width="20.2947" height="20.2947" />
<rect x="3541.4295" y="178.7368" width="20.2947" height="20.2947" />
<rect x="3500.8401" y="219.3263" width="60.8842" height="20.2947" />
<rect x="3582.019" y="16.379" width="20.2947" height="20.2947" />
<rect x="3622.6084" y="16.379" width="20.2947" height="20.2947" />
<rect x="3582.019" y="56.9685" width="20.2947" height="20.2947" />
<rect x="3622.6084" y="56.9685" width="20.2947" height="20.2947" />
<rect x="3582.019" y="97.5579" width="60.8842" height="20.2947" />
<rect x="3582.019" y="138.1474" width="60.8842" height="20.2947" />
<rect x="3582.019" y="178.7368" width="20.2947" height="20.2947" />
<rect x="3622.6084" y="178.7368" width="20.2947" height="20.2947" />
<rect x="3582.019" y="219.3263" width="60.8842" height="20.2947" />
<rect x="3663.1979" y="16.379" width="60.8842" height="20.2947" />
<rect x="3663.1979" y="56.9685" width="20.2947" height="20.2947" />
<rect x="3703.7873" y="56.9685" width="20.2947" height="20.2947" />
<rect x="3663.1979" y="97.5579" width="60.8842" height="20.2947" />
<rect x="3663.1979" y="138.1474" width="60.8842" height="20.2947" />
<rect x="3663.1979" y="178.7368" width="20.2947" height="20.2947" />
<rect x="3703.7873" y="178.7368" width="20.2947" height="20.2947" />
<rect x="3663.1979" y="219.3263" width="60.8842" height="20.2947" />
<rect x="3744.3768" y="16.379" width="20.2947" height="20.2947" />
<rect x="3784.9662" y="16.379" width="20.2947" height="20.2947" />
<rect x="3744.3768" y="56.9685" width="60.8842" height="20.2947" />
<rect x="3744.3768" y="97.5579" width="60.8842" height="20.2947" />
<rect x="3744.3768" y="138.1474" width="60.8842" height="20.2947" />
<rect x="3744.3768" y="178.7368" width="20.2947" height="20.2947" />
<rect x="3784.9662" y="178.7368" width="20.2947" height="20.2947" />
<rect x="3744.3768" y="219.3263" width="60.8842" height="20.2947" />
<rect x="3825.5557" y="16.379" width="60.8842" height="20.2947" />
<rect x="3825.5557" y="56.9685" width="60.8842" height="20.2947" />
<rect x="3825.5557" y="97.5579" width="60.8842" height="20.2947" />
<rect x="3825.5557" y="138.1474" width="60.8842" height="20.2947" />
<rect x="3825.5557" y="178.7368" width="20.2947" height="20.2947" />
<rect x="3866.1451" y="178.7368" width="20.2947" height="20.2947" />
<rect x="3825.5557" y="219.3263" width="60.8842" height="20.2947" />
<rect x="3906.7346" y="16.379" width="20.2947" height="20.2947" />
<rect x="3947.324" y="16.379" width="20.2947" height="20.2947" />
<rect x="3906.7346" y="56.9685" width="20.2947" height="20.2947" />
<rect x="3947.324" y="56.9685" width="20.2947" height="20.2947" />
<rect x="3906.7346" y="97.5579" width="20.2947" height="20.2947" />
<rect x="3947.324" y="97.5579" width="20.2947" height="20.2947" />
<rect x="3906.7346" y="138.1474" width="20.2947" height="20.2947" />
<rect x="3947.324" y="138.1474" width="20.2947" height="20.2947" />
<rect x="3906.7346" y="178.7368" width="60.8842" height="20.2947" />
<rect x="3906.7346" y="219.3263" width="60.8842" height="20.2947" />
<rect x="3987.9135" y="16.379" width="60.8842" height="20.2947" />
<rect x="3987.9135" y="56.9685" width="20.2947" height="20.2947" />
<rect x="4028.5029" y="56.9685" width="20.2947" height="20.2947" />
<rect x="3987.9135" y="97.5579" width="20.2947" height="20.2947" />
<rect x="4028.5029" y="97.5579" width="20.2947" height="20.2947" />
<rect x="3987.9135" y="138.1474" width="20.2947" height="20.2947" />
<rect x="4028.5029" y="138.1474" width="20.2947" height="20.2947" />
<rect x="3987.9135" y="178.7368" width="60.8842" height="20.2947" />
<rect x="3987.9135" y="219.3263" width="60.8842" height="20.2947" />
<rect x="4069.0924" y="16.379" width="20.2947" height="20.2947" />
<rect x="4109.6818" y="16.379" width="20.2947" height="20.2947" />
<rect x="4069.0924" y="56.9685" width="60.8842" height="20.2947" />
<rect x="4069.0924" y="97.5579" width="20.2947" height="20.2947" />
<rect x="4109.6818" y="97.5579" width="20.2947" height="20.2947" />
<rect x="4069.0924" y="138.1474" width="20.2947" height="20.2947" />
<rect x="4109.6818" y="138.1474" width="20.2947" height="20.2947" />
<rect x="4069.0924" y="178.7368" width="60.8842" height="20.2947" />
<rect x="4069.0924" y="219.3263" width="60.8842" height="20.2947" />
<rect x="4150.2713" y="16.379" width="60.8842" height="20.2947" />
<rect x="4150.2713" y="56.9685" width="60.8842" height="20.2947" />
<rect x="4150.2713" y="97.5579" width="20.2947" height="20.2947" />
<rect x="4190.8607" y="97.5579" width="20.2947" height="20.2947" />
<rect x="4150.2713" y="138.1474" width="20.2947" height="20.2947" />
<rect x="4190.8607" y="138.1474" width="20.2947" height="20.2947" />
<rect x="4150.2713" y="178.7368" width="60.8842" height="20.2947" />
<rect x="4150.2713" y="219.3263" width="60.8842" height="20.2947" />
<rect x="4231.4502" y="16.379" width="20.2947" height="20.2947" />
<rect x="4272.0396" y="16.379" width="20.2947" height="20.2947" />
<rect x="4231.4502" y="56.9685" width="20.2947" height="20.2947" />
<rect x="4272.0396" y="56.9685" width="20.2947" height="20.2947" />
<rect x="4231.4502" y="97.5579" width="60.8842" height="20.2947" />
<rect x="4231.4502" y="138.1474" width="20.2947" height="20.2947" />
<rect x="4272.0396" y="138.1474" width="20.2947" height="20.2947" />
<rect x="4231.4502" y="178.7368" width="60.8842" height="20.2947" />
<rect x="4231.4502" y="219.3263" width="60.8842" height="20.2947" />
<rect x="4312.6291" y="16.379" width="60.8842" height="20.2947" />
<rect x="4312.6291" y="56.9685" width="20.2947" height="20.2947" />
<rect x="4353.2185" y="56.9685" width="20.2947" height="20.2947" />
<rect x="4312.6291" y="97.5579" width="60.8842" height="20.2947" />
<rect x="4312.6291" y="138.1474" width="20.2947" height="20.2947" />
<rect x="4353.2185" y="138.1474" width="20.2947" height="20.2947" />
<rect x="4312.6291" y="178.7368" width="60.8842" height="20.2947" />
<rect x="4312.6291" y="219.3263" width="60.8842" height="20.2947" />
<rect x="4393.808" y="16.379" width="20.2947" height="20.2947" />
<rect x="4434.3974" y="16.379" width="20.2947" height="20.2947" />
<rect x="4393.808" y="56.9685" width="60.8842" height="20.2947" />
<rect x="4393.808" y="97.5579" width="60.8842" height="20.2947" />
<rect x="4393.808" y="138.1474" width="20.2947" height="20.2947" />
<rect x="4434.3974" y="138.1474" width="20.2947" height="20.2947" />
<rect x="4393.808" y="178.7368" width="60.8842" height="20.2947" />
<rect x="4393.808" y="219.3263" width="60.8842" height="20.2947" />
<rect x="4474.9869" y="16.379" width="60.8842" height="20.2947" />
<rect x="4474.9869" y="56.9685" width="60.8842" height="20.2947" />
<rect x="4474.9869" y="97.5579" width="60.8842" height="20.2947" />
<rect x="4474.9869" y="138.1474" width="20.2947" height="20.2947" />
<rect x="4515.5763" y="138.1474" width="20.2947" height="20.2947" />
<rect x="4474.9869" y="178.7368" width="60.8842" height="20.2947" />
<rect x="4474.9869" y="219.3263" width="60.8842" height="20.2947" />
<rect x="4556.1658" y="16.379" width="20.2947" height="20.2947" />
<rect x="4596.7552" y="16.379" width="20.2947" height="20.2947" />
<rect x="4556.1658" y="56.9685" width="20.2947" height="20.2947" />
<rect x="4596.7552" y="56.9685" width="20.2947" height="20.2947" />
<rect x="4556.1658" y="97.5579" width="20.2947" height="20.2947" />
<rect x="4596.7552" y="97.5579" width="20.2947" height="20.2947" />
<rect x="4556.1658" y="138.1474" width="60.8842" height="20.2947" />
<rect x="4556.1658" y="178.7368" width="60.8842" height="20.2947" />
<rect x="4556.1658" y="219.3263" width="60.8842" height="20.2947" />
<rect x="4637.3447" y="16.379" width="60.8842" height="20.2947" />
<rect x="4637.3447" y="56.9685" width="20.2947" height="20.2947" />
<rect x="4677.9341" y="56.9685" width="20.2947" height="20.2947" />
<rect x="4637.3447" y="97.5579" width="20.2947" height="20.2947" />
<rect x="4677.9341" y="97.5579" width="20.2947" height="20.2947" />
<rect x="4637.3447" y="138.1474" width="60.8842" height="20.2947" />
<rect x="4637.3447" y="178.7368" width="60.8842" height="20.2947" />
<rect x="4637.3447" y="219.3263" width="60.8842" height="20.2947" />
<rect x="4718.5236" y="16.379" width="20.2947" height="20.2947" />
<rect x="4759.113" y="16.379" width="20.2947" height="20.2947" />
<rect x="4718.5236" y="56.9685" width="60.8842" height="20.2947" />
<rect x="4718.5236" y="97.5579" width="20.2947" height="20.2947" />
<rect x="4759.113" y="97.5579" width="20.2947" height="20.2947" />
<rect x="4718.5236" y="138.1474" width="60.8842" height="20.2947" />
<rect x="4718.5236" y="178.7368" width="60.8842" height="20.2947" />
<rect x="4718.5236" y="219.3263" width="60.8842" height="20.2947" />
<rect x="4799.7025" y="16.379" width="60.8842" height="20.2947" />
<rect x="4799.7025" y="56.9685" width="60.8842" height="20.2947" />
<rect x="4799.7025" y="97.5579" width="20.2947" height="20.2947" />
<rect x="4840.2919" y="97.5579" width="20.2947" height="20.2947" />
<rect x="4799.7025" y="138.1474" width="60.8842" height="20.2947" />
<rect x="4799.7025" y="178.7368" width="60.8842" height="20.2947" />
<rect x="4799.7025" y="219.3263" width="60.8842" height="20.2947" />
<rect x="4880.8814" y="16.379" width="20.2947" height="20.2947" />
<rect x="4921.4708" y="16.379" width="20.2947" height="20.2947" />
<rect x="4880.8814" y="56.9685" width="20.2947" height="20.2947" />
<rect x="4921.4708" y="56.9685" width="20.2947" height="20.2947" />
<rect x="4880.8814" y="97.5579" width="60.8842" height="20.2947" />
<rect x="4880.8814" y="138.1474" width="60.8842" height="20.2947" />
<rect x="4880.8814" y="178.7368" width="60.8842" height="20.2947" />
<rect x="4880.8814" y="219.3263" width="60.8842" height="20.2947" />
<rect x="4962.0603" y="16.379" width="60.8842" height="20.2947" />
<rect x="4962.0603" y="56.9685" width="20.2947" height="20.2947" />
<rect x="5002.6497" y="56.9685" width="20.2947" height="20.2947" />
<rect x="4962.0603" y="97.5579" width="60.8842" height="20.2947" />
<rect x="4962.0603" y="138.1474" width="60.8842" height="20.2947" />
<rect x="4962.0603" y="178.7368" width="60.8842" height="20.2947" />
<rect x="4962.0603" y="219.3263" width="60.8842" height="20.2947" />
<rect x="5043.2392" y="16.379" width="20.2947" height="20.2947" />
<rect x="5083.8286" y="16.379" width="20.2947" height="20.2947" />
<rect x="5043.2392" y="56.9685" width="60.8842" height="20.2947" />
<rect x="5043.2392" y="97.5579" width="60.8842" height="20.2947" />
<rect x="5043.2392" y="138.1474" width="60.8842" height="20.2947" />
<rect x="5043.2392" y="178.7368" width="60.8842" height="20.2947" />
<rect x="5043.2392" y="219.3263" width="60.8842" height="20.2947" />
<rect x="5124.4181" y="16.379" width="60.8842" height="20.2947" />
<rect x="5124.4181" y="56.9685" width="60.8842" height="20.2947" />
<rect x="5124.4181" y="97.5579" width="60.8842" height="20.2947" />
<rect x="5124.4181" y="138.1474" width="60.8842" height="20.2947" />
<rect x="5124.4181" y="178.7368" width="60.8842" height="20.2947" />
<rect x="5124.4181" y="219.3263" width="60.8842" height="20.2947" />
<rect x="0" y="0" width="5195.4496" height="256" stroke="lightblue" fill-opacity="0" />
</svg>