<svg version="1.1"
  baseProfile="full"
  width="3200" height="800"
  xmlns="http://www.w3.org/2000/svg">
  <rect x="10" y="10" width="80" height="8.888" fill="white" />
<rect x="110" y="10" width="80" height="8.888" fill="black" />
<rect x="210" y="10" width="80" height="8.888" fill="white" />
<rect x="310" y="10" width="80" height="8.888" fill="black" />
<rect x="410" y="10" width="80" height="8.888" fill="white" />
<rect x="510" y="10" width="80" height="8.888" fill="black" />
<rect x="610" y="10" width="80" height="8.888" fill="white" />
<rect x="710" y="10" width="80" height="8.888" fill="black" />
<rect x="810" y="10" width="80" height="8.888" fill="white" />
<rect x="910" y="10" width="80" height="8.888" fill="black" />
<rect x="1010" y="10" width="80" height="8.888" fill="white" />
<rect x="1110" y="10" width="80" height="8.888" fill="black" />
<rect x="1210" y="10" width="80" height="8.888" fill="white" />
<rect x="1310" y="10" width="80" height="8.888" fill="black" />
<rect x="1410" y="10" width="80" height="8.888" fill="white" />
<rect x="1510" y="10" width="80" height="8.888" fill="black" />
<rect x="1610" y="10" width="80" height="8.888" fill="white" />
<rect x="1710" y="10" width="80" height="8.888" fill="black" />
<rect x="1810" y="10" width="80" height="8.888" fill="white" />
<rect x="1910" y="10" width="80" height="8.888" fill="black" />
<rect x="2010" y="10" width="80" height="8.888" fill="white" />
<rect x="2110" y="10" width="80" height="8.888" fill="black" />
<rect x="2210" y="10" width="80" height="8.888" fill="white" />
<rect x="2310" y="10" width="80" height="8.888" fill="black" />
<rect x="2410" y="10" width="80" height="8.888" fill="white" />
<rect x="2510" y="10" width="80" height="8.888" fill="black" />
<rect x="2610" y="10" width="80" height="8.888" fill="white" />
<rect x="2710" y="10" width="80" height="8.888" fill="black" />
<rect x="2810" y="10" width="80" height="8.888" fill="white" />
<rect x="2910" y="10" width="80" height="8.888" fill="black" />
<rect x="3010" y="10" width="80" height="8.888" fill="white" />
<rect x="3110" y="10" width="80" height="8.888" fill="black" />
<rect x="10" y="24.813333333333333" width="80" height="8.888" fill="white" />
<rect x="110" y="24.813333333333333" width="80" height="8.888" fill="white" />
<rect x="210" y="24.813333333333333" width="80" height="8.888" fill="black" />
<rect x="310" y="24.813333333333333" width="80" height="8.888" fill="black" />
<rect x="410" y="24.813333333333333" width="80" height="8.888" fill="white" />
<rect x="510" y="24.813333333333333" width="80" height="8.888" fill="white" />
<rect x="610" y="24.813333333333333" width="80" height="8.888" fill="black" />
<rect x="710" y="24.813333333333333" width="80" height="8.888" fill="black" />
<rect x="810" y="24.813333333333333" width="80" height="8.888" fill="white" />
<rect x="910" y="24.813333333333333" width="80" height="8.888" fill="white" />
<rect x="1010" y="24.813333333333333" width="80" height="8.888" fill="black" />
<rect x="1110" y="24.813333333333333" width="80" height="8.888" fill="black" />
<rect x="1210" y="24.813333333333333" width="80" height="8.888" fill="white" />
<rect x="1310" y="24.813333333333333" width="80" height="8.888" fill="white" />
<rect x="1410" y="24.813333333333333" width="80" height="8.888" fill="black" />
<rect x="1510" y="24.813333333333333" width="80" height="8.888" fill="black" />
<rect x="1610" y="24.813333333333333" width="80" height="8.888" fill="white" />
<rect x="1710" y="24.813333333333333" width="80" height="8.888" fill="white" />
<rect x="1810" y="24.813333333333333" width="80" height="8.888" fill="black" />
<rect x="1910" y="24.813333333333333" width="80" height="8.888" fill="black" />
<rect x="2010" y="24.813333333333333" width="80" height="8.888" fill="white" />
<rect x="2110" y="24.813333333333333" width="80" height="8.888" fill="white" />
<rect x="2210" y="24.813333333333333" width="80" height="8.888" fill="black" />
<rect x="2310" y="24.813333333333333" width="80" height="8.888" fill="black" />
<rect x="2410" y="24.813333333333333" width="80" height="8.888" fill="white" />
<rect x="2510" y="24.813333333333333" width="80" height="8.888" fill="white" />
<rect x="2610" y="24.813333333333333" width="80" height="8.888" fill="black" />
<rect x="2710" y="24.813333333333333" width="80" height="8.888" fill="black" />
<rect x="2810" y="24.813333333333333" width="80" height="8.888" fill="white" />
<rect x="2910" y="24.813333333333333" width="80" height="8.888" fill="white" />
<rect x="3010" y="24.813333333333333" width="80" height="8.888" fill="black" />
<rect x="3110" y="24.813333333333333" width="80" height="8.888" fill="black" />
<rect x="10" y="39.626666666666665" width="80" height="8.888" fill="white" />
<rect x="110" y="39.626666666666665" width="80" height="8.888" fill="white" />
<rect x="210" y="39.626666666666665" width="80" height="8.888" fill="white" />
<rect x="310" y="39.626666666666665" width="80" height="8.888" fill="white" />
<rect x="410" y="39.626666666666665" width="80" height="8.888" fill="black" />
<rect x="510" y="39.626666666666665" width="80" height="8.888" fill="black" />
<rect x="610" y="39.626666666666665" width="80" height="8.888" fill="black" />
<rect x="710" y="39.626666666666665" width="80" height="8.888" fill="black" />
<rect x="810" y="39.626666666666665" width="80" height="8.888" fill="white" />
<rect x="910" y="39.626666666666665" width="80" height="8.888" fill="white" />
<rect x="1010" y="39.626666666666665" width="80" height="8.888" fill="white" />
<rect x="1110" y="39.626666666666665" width="80" height="8.888" fill="white" />
<rect x="1210" y="39.626666666666665" width="80" height="8.888" fill="black" />
<rect x="1310" y="39.626666666666665" width="80" height="8.888" fill="black" />
<rect x="1410" y="39.626666666666665" width="80" height="8.888" fill="black" />
<rect x="1510" y="39.626666666666665" width="80" height="8.888" fill="black" />
<rect x="1610" y="39.626666666666665" width="80" height="8.888" fill="white" />
<rect x="1710" y="39.626666666666665" width="80" height="8.888" fill="white" />
<rect x="1810" y="39.626666666666665" width="80" height="8.888" fill="white" />
<rect x="1910" y="39.626666666666665" width="80" height="8.888" fill="white" />
<rect x="2010" y="39.626666666666665" width="80" height="8.888" fill="black" />
<rect x="2110" y="39.626666666666665" width="80" height="8.888" fill="black" />
<rect x="2210" y="39.626666666666665" width="80" height="8.888" fill="black" />
<rect x="2310" y="39.626666666666665" width="80" height="8.888" fill="black" />
<rect x="2410" y="39.626666666666665" width="80" height="8.888" fill="white" />
<rect x="2510" y="39.626666666666665" width="80" height="8.888" fill="white" />
<rect x="2610" y="39.626666666666665" width="80" height="8.888" fill="white" />
<rect x="2710" y="39.626666666666665" width="80" height="8.888" fill="white" />
<rect x="2810" y="39.626666666666665" width="80" height="8.888" fill="black" />
<rect x="2910" y="39.626666666666665" width="80" height="8.888" fill="black" />
<rect x="3010" y="39.626666666666665" width="80" height="8.888" fill="black" />
<rect x="3110" y="39.626666666666665" width="80" height="8.888" fill="black" />
<rect x="10" y="54.44" width="80" height="8.888" fill="white" />
<rect x="110" y="54.44" width="80" height="8.888" fill="white" />
<rect x="210" y="54.44" width="80" height="8.888" fill="white" />
<rect x="310" y="54.44" width="80" height="8.888" fill="white" />
<rect x="410" y="54.44" width="80" height="8.888" fill="white" />
<rect x="510" y="54.44" width="80" height="8.888" fill="white" />
<rect x="610" y="54.44" width="80" height="8.888" fill="white" />
<rect x="710" y="54.44" width="80" height="8.888" fill="white" />
<rect x="810" y="54.44" width="80" height="8.888" fill="black" />
<rect x="910" y="54.44" width="80" height="8.888" fill="black" />
<rect x="1010" y="54.44" width="80" height="8.888" fill="black" />
<rect x="1110" y="54.44" width="80" height="8.888" fill="black" />
<rect x="1210" y="54.44" width="80" height="8.888" fill="black" />
<rect x="1310" y="54.44" width="80" height="8.888" fill="black" />
<rect x="1410" y="54.44" width="80" height="8.888" fill="black" />
<rect x="1510" y="54.44" width="80" height="8.888" fill="black" />
<rect x="1610" y="54.44" width="80" height="8.888" fill="white" />
<rect x="1710" y="54.44" width="80" height="8.888" fill="white" />
<rect x="1810" y="54.44" width="80" height="8.888" fill="white" />
<rect x="1910" y="54.44" width="80" height="8.888" fill="white" />
<rect x="2010" y="54.44" width="80" height="8.888" fill="white" />
<rect x="2110" y="54.44" width="80" height="8.888" fill="white" />
<rect x="2210" y="54.44" width="80" height="8.888" fill="white" />
<rect x="2310" y="54.44" width="80" height="8.888" fill="white" />
<rect x="2410" y="54.44" width="80" height="8.888" fill="black" />
<rect x="2510" y="54.44" width="80" height="8.888" fill="black" />
<rect x="2610" y="54.44" width="80" height="8.888" fill="black" />
<rect x="2710" y="54.44" width="80" height="8.888" fill="black" />
<rect x="2810" y="54.44" width="80" height="8.888" fill="black" />
<rect x="2910" y="54.44" width="80" height="8.888" fill="black" />
<rect x="3010" y="54.44" width="80" height="8.888" fill="black" />
<rect x="3110" y="54.44" width="80" height="8.888" fill="black" />
<rect x="10" y="69.25333333333333" width="80" height="8.888" fill="white" />
<rect x="110" y="69.25333333333333" width="80" height="8.888" fill="white" />
<rect x="210" y="69.25333333333333" width="80" height="8.888" fill="white" />
<rect x="310" y="69.25333333333333" width="80" height="8.888" fill="white" />
<rect x="410" y="69.25333333333333" width="80" height="8.888" fill="white" />
<rect x="510" y="69.25333333333333" width="80" height="8.888" fill="white" />
<rect x="610" y="69.25333333333333" width="80" height="8.888" fill="white" />
<rect x="710" y="69.25333333333333" width="80" height="8.888" fill="white" />
<rect x="810" y="69.25333333333333" width="80" height="8.888" fill="white" />
<rect x="910" y="69.25333333333333" width="80" height="8.888" fill="white" />
<rect x="1010" y="69.25333333333333" width="80" height="8.888" fill="white" />
<rect x="1110" y="69.25333333333333" width="80" height="8.888" fill="white" />
<rect x="1210" y="69.25333333333333" width="80" height="8.888" fill="white" />
<rect x="1310" y="69.25333333333333" width="80" height="8.888" fill="white" />
<rect x="1410" y="69.25333333333333" width="80" height="8.888" fill="white" />
<rect x="1510" y="69.25333333333333" width="80" height="8.888" fill="white" />
<rect x="1610" y="69.25333333333333" width="80" height="8.888" fill="black" />
<rect x="1710" y="69.25333333333333" width="80" height="8.888" fill="black" />
<rect x="1810" y="69.25333333333333" width="80" height="8.888" fill="black" />
<rect x="1910" y="69.25333333333333" width="80" height="8.888" fill="black" />
<rect x="2010" y="69.25333333333333" width="80" height="8.888" fill="black" />
<rect x="2110" y="69.25333333333333" width="80" height="8.888" fill="black" />
<rect x="2210" y="69.25333333333333" width="80" height="8.888" fill="black" />
<rect x="2310" y="69.25333333333333" width="80" height="8.888" fill="black" />
<rect x="2410" y="69.25333333333333" width="80" height="8.888" fill="black" />
<rect x="2510" y="69.25333333333333" width="80" height="8.888" fill="black" />
<rect x="2610" y="69.25333333333333" width="80" height="8.888" fill="black" />
<rect x="2710" y="69.25333333333333" width="80" height="8.888" fill="black" />
<rect x="2810" y="69.25333333333333" width="80" height="8.888" fill="black" />
<rect x="2910" y="69.25333333333333" width="80" height="8.888" fill="black" />
<rect x="3010" y="69.25333333333333" width="80" height="8.888" fill="black" />
<rect x="3110" y="69.25333333333333" width="80" height="8.888" fill="black" />
<rect x="10" y="84.06666666666666" width="80" height="8.888" fill="white" />
<rect x="110" y="84.06666666666666" width="80" height="8.888" fill="white" />
<rect x="210" y="84.06666666666666" width="80" height="8.888" fill="white" />
<rect x="310" y="84.06666666666666" width="80" height="8.888" fill="white" />
<rect x="410" y="84.06666666666666" width="80" height="8.888" fill="white" />
<rect x="510" y="84.06666666666666" width="80" height="8.888" fill="white" />
<rect x="610" y="84.06666666666666" width="80" height="8.888" fill="white" />
<rect x="710" y="84.06666666666666" width="80" height="8.888" fill="white" />
<rect x="810" y="84.06666666666666" width="80" height="8.888" fill="white" />
<rect x="910" y="84.06666666666666" width="80" height="8.888" fill="white" />
<rect x="1010" y="84.06666666666666" width="80" height="8.888" fill="white" />
<rect x="1110" y="84.06666666666666" width="80" height="8.888" fill="white" />
<rect x="1210" y="84.06666666666666" width="80" height="8.888" fill="white" />
<rect x="1310" y="84.06666666666666" width="80" height="8.888" fill="white" />
<rect x="1410" y="84.06666666666666" width="80" height="8.888" fill="white" />
<rect x="1510" y="84.06666666666666" width="80" height="8.888" fill="white" />
<rect x="1610" y="84.06666666666666" width="80" height="8.888" fill="white" />
<rect x="1710" y="84.06666666666666" width="80" height="8.888" fill="white" />
<rect x="1810" y="84.06666666666666" width="80" height="8.888" fill="white" />
<rect x="1910" y="84.06666666666666" width="80" height="8.888" fill="white" />
<rect x="2010" y="84.06666666666666" width="80" height="8.888" fill="white" />
<rect x="2110" y="84.06666666666666" width="80" height="8.888" fill="white" />
<rect x="2210" y="84.06666666666666" width="80" height="8.888" fill="white" />
<rect x="2310" y="84.06666666666666" width="80" height="8.888" fill="white" />
<rect x="2410" y="84.06666666666666" width="80" height="8.888" fill="white" />
<rect x="2510" y="84.06666666666666" width="80" height="8.888" fill="white" />
<rect x="2610" y="84.06666666666666" width="80" height="8.888" fill="white" />
<rect x="2710" y="84.06666666666666" width="80" height="8.888" fill="white" />
<rect x="2810" y="84.06666666666666" width="80" height="8.888" fill="white" />
<rect x="2910" y="84.06666666666666" width="80" height="8.888" fill="white" />
<rect x="3010" y="84.06666666666666" width="80" height="8.888" fill="white" />
<rect x="3110" y="84.06666666666666" width="80" height="8.888" fill="white" />
<rect x="10" y="113.69333333333333" width="80" height="8.888" fill="white" />
<rect x="110" y="113.69333333333333" width="80" height="8.888" fill="black" />
<rect x="210" y="113.69333333333333" width="80" height="8.888" fill="white" />
<rect x="310" y="113.69333333333333" width="80" height="8.888" fill="black" />
<rect x="410" y="113.69333333333333" width="80" height="8.888" fill="white" />
<rect x="510" y="113.69333333333333" width="80" height="8.888" fill="black" />
<rect x="610" y="113.69333333333333" width="80" height="8.888" fill="white" />
<rect x="710" y="113.69333333333333" width="80" height="8.888" fill="black" />
<rect x="810" y="113.69333333333333" width="80" height="8.888" fill="white" />
<rect x="910" y="113.69333333333333" width="80" height="8.888" fill="black" />
<rect x="1010" y="113.69333333333333" width="80" height="8.888" fill="white" />
<rect x="1110" y="113.69333333333333" width="80" height="8.888" fill="black" />
<rect x="1210" y="113.69333333333333" width="80" height="8.888" fill="white" />
<rect x="1310" y="113.69333333333333" width="80" height="8.888" fill="black" />
<rect x="1410" y="113.69333333333333" width="80" height="8.888" fill="white" />
<rect x="1510" y="113.69333333333333" width="80" height="8.888" fill="black" />
<rect x="1610" y="113.69333333333333" width="80" height="8.888" fill="white" />
<rect x="1710" y="113.69333333333333" width="80" height="8.888" fill="black" />
<rect x="1810" y="113.69333333333333" width="80" height="8.888" fill="white" />
<rect x="1910" y="113.69333333333333" width="80" height="8.888" fill="black" />
<rect x="2010" y="113.69333333333333" width="80" height="8.888" fill="white" />
<rect x="2110" y="113.69333333333333" width="80" height="8.888" fill="black" />
<rect x="2210" y="113.69333333333333" width="80" height="8.888" fill="white" />
<rect x="2310" y="113.69333333333333" width="80" height="8.888" fill="black" />
<rect x="2410" y="113.69333333333333" width="80" height="8.888" fill="white" />
<rect x="2510" y="113.69333333333333" width="80" height="8.888" fill="black" />
<rect x="2610" y="113.69333333333333" width="80" height="8.888" fill="white" />
<rect x="2710" y="113.69333333333333" width="80" height="8.888" fill="black" />
<rect x="2810" y="113.69333333333333" width="80" height="8.888" fill="white" />
<rect x="2910" y="113.69333333333333" width="80" height="8.888" fill="black" />
<rect x="3010" y="113.69333333333333" width="80" height="8.888" fill="white" />
<rect x="3110" y="113.69333333333333" width="80" height="8.888" fill="black" />
<rect x="10" y="128.50666666666666" width="80" height="8.888" fill="white" />
<rect x="110" y="128.50666666666666" width="80" height="8.888" fill="white" />
<rect x="210" y="128.50666666666666" width="80" height="8.888" fill="black" />
<rect x="310" y="128.50666666666666" width="80" height="8.888" fill="black" />
<rect x="410" y="128.50666666666666" width="80" height="8.888" fill="white" />
<rect x="510" y="128.50666666666666" width="80" height="8.888" fill="white" />
<rect x="610" y="128.50666666666666" width="80" height="8.888" fill="black" />
<rect x="710" y="128.50666666666666" width="80" height="8.888" fill="black" />
<rect x="810" y="128.50666666666666" width="80" height="8.888" fill="white" />
<rect x="910" y="128.50666666666666" width="80" height="8.888" fill="white" />
<rect x="1010" y="128.50666666666666" width="80" height="8.888" fill="black" />
<rect x="1110" y="128.50666666666666" width="80" height="8.888" fill="black" />
<rect x="1210" y="128.50666666666666" width="80" height="8.888" fill="white" />
<rect x="1310" y="128.50666666666666" width="80" height="8.888" fill="white" />
<rect x="1410" y="128.50666666666666" width="80" height="8.888" fill="black" />
<rect x="1510" y="128.50666666666666" width="80" height="8.888" fill="black" />
<rect x="1610" y="128.50666666666666" width="80" height="8.888" fill="white" />
<rect x="1710" y="128.50666666666666" width="80" height="8.888" fill="white" />
<rect x="1810" y="128.50666666666666" width="80" height="8.888" fill="black" />
<rect x="1910" y="128.50666666666666" width="80" height="8.888" fill="black" />
<rect x="2010" y="128.50666666666666" width="80" height="8.888" fill="white" />
<rect x="2110" y="128.50666666666666" width="80" height="8.888" fill="white" />
<rect x="2210" y="128.50666666666666" width="80" height="8.888" fill="black" />
<rect x="2310" y="128.50666666666666" width="80" height="8.888" fill="black" />
<rect x="2410" y="128.50666666666666" width="80" height="8.888" fill="white" />
<rect x="2510" y="128.50666666666666" width="80" height="8.888" fill="white" />
<rect x="2610" y="128.50666666666666" width="80" height="8.888" fill="black" />
<rect x="2710" y="128.50666666666666" width="80" height="8.888" fill="black" />
<rect x="2810" y="128.50666666666666" width="80" height="8.888" fill="white" />
<rect x="2910" y="128.50666666666666" width="80" height="8.888" fill="white" />
<rect x="3010" y="128.50666666666666" width="80" height="8.888" fill="black" />
<rect x="3110" y="128.50666666666666" width="80" height="8.888" fill="black" />
<rect x="10" y="143.32" width="80" height="8.888" fill="white" />
<rect x="110" y="143.32" width="80" height="8.888" fill="white" />
<rect x="210" y="143.32" width="80" height="8.888" fill="white" />
<rect x="310" y="143.32" width="80" height="8.888" fill="white" />
<rect x="410" y="143.32" width="80" height="8.888" fill="black" />
<rect x="510" y="143.32" width="80" height="8.888" fill="black" />
<rect x="610" y="143.32" width="80" height="8.888" fill="black" />
<rect x="710" y="143.32" width="80" height="8.888" fill="black" />
<rect x="810" y="143.32" width="80" height="8.888" fill="white" />
<rect x="910" y="143.32" width="80" height="8.888" fill="white" />
<rect x="1010" y="143.32" width="80" height="8.888" fill="white" />
<rect x="1110" y="143.32" width="80" height="8.888" fill="white" />
<rect x="1210" y="143.32" width="80" height="8.888" fill="black" />
<rect x="1310" y="143.32" width="80" height="8.888" fill="black" />
<rect x="1410" y="143.32" width="80" height="8.888" fill="black" />
<rect x="1510" y="143.32" width="80" height="8.888" fill="black" />
<rect x="1610" y="143.32" width="80" height="8.888" fill="white" />
<rect x="1710" y="143.32" width="80" height="8.888" fill="white" />
<rect x="1810" y="143.32" width="80" height="8.888" fill="white" />
<rect x="1910" y="143.32" width="80" height="8.888" fill="white" />
<rect x="2010" y="143.32" width="80" height="8.888" fill="black" />
<rect x="2110" y="143.32" width="80" height="8.888" fill="black" />
<rect x="2210" y="143.32" width="80" height="8.888" fill="black" />
<rect x="2310" y="143.32" width="80" height="8.888" fill="black" />
<rect x="2410" y="143.32" width="80" height="8.888" fill="white" />
<rect x="2510" y="143.32" width="80" height="8.888" fill="white" />
<rect x="2610" y="143.32" width="80" height="8.888" fill="white" />
<rect x="2710" y="143.32" width="80" height="8.888" fill="white" />
<rect x="2810" y="143.32" width="80" height="8.888" fill="black" />
<rect x="2910" y="143.32" width="80" height="8.888" fill="black" />
<rect x="3010" y="143.32" width="80" height="8.888" fill="black" />
<rect x="3110" y="143.32" width="80" height="8.888" fill="black" />
<rect x="10" y="158.13333333333333" width="80" height="8.888" fill="white" />
<rect x="110" y="158.13333333333333" width="80" height="8.888" fill="white" />
<rect x="210" y="158.13333333333333" width="80" height="8.888" fill="white" />
<rect x="310" y="158.13333333333333" width="80" height="8.888" fill="white" />
<rect x="410" y="158.13333333333333" width="80" height="8.888" fill="white" />
<rect x="510" y="158.13333333333333" width="80" height="8.888" fill="white" />
<rect x="610" y="158.13333333333333" width="80" height="8.888" fill="white" />
<rect x="710" y="158.13333333333333" width="80" height="8.888" fill="white" />
<rect x="810" y="158.13333333333333" width="80" height="8.888" fill="black" />
<rect x="910" y="158.13333333333333" width="80" height="8.888" fill="black" />
<rect x="1010" y="158.13333333333333" width="80" height="8.888" fill="black" />
<rect x="1110" y="158.13333333333333" width="80" height="8.888" fill="black" />
<rect x="1210" y="158.13333333333333" width="80" height="8.888" fill="black" />
<rect x="1310" y="158.13333333333333" width="80" height="8.888" fill="black" />
<rect x="1410" y="158.13333333333333" width="80" height="8.888" fill="black" />
<rect x="1510" y="158.13333333333333" width="80" height="8.888" fill="black" />
<rect x="1610" y="158.13333333333333" width="80" height="8.888" fill="white" />
<rect x="1710" y="158.13333333333333" width="80" height="8.888" fill="white" />
<rect x="1810" y="158.13333333333333" width="80" height="8.888" fill="white" />
<rect x="1910" y="158.13333333333333" width="80" height="8.888" fill="white" />
<rect x="2010" y="158.13333333333333" width="80" height="8.888" fill="white" />
<rect x="2110" y="158.13333333333333" width="80" height="8.888" fill="white" />
<rect x="2210" y="158.13333333333333" width="80" height="8.888" fill="white" />
<rect x="2310" y="158.13333333333333" width="80" height="8.888" fill="white" />
<rect x="2410" y="158.13333333333333" width="80" height="8.888" fill="black" />
<rect x="2510" y="158.13333333333333" width="80" height="8.888" fill="black" />
<rect x="2610" y="158.13333333333333" width="80" height="8.888" fill="black" />
<rect x="2710" y="158.13333333333333" width="80" height="8.888" fill="black" />
<rect x="2810" y="158.13333333333333" width="80" height="8.888" fill="black" />
<rect x="2910" y="158.13333333333333" width="80" height="8.888" fill="black" />
<rect x="3010" y="158.13333333333333" width="80" height="8.888" fill="black" />
<rect x="3110" y="158.13333333333333" width="80" height="8.888" fill="black" />
<rect x="10" y="172.94666666666666" width="80" height="8.888" fill="white" />
<rect x="110" y="172.94666666666666" width="80" height="8.888" fill="white" />
<rect x="210" y="172.94666666666666" width="80" height="8.888" fill="white" />
<rect x="310" y="172.94666666666666" width="80" height="8.888" fill="white" />
<rect x="410" y="172.94666666666666" width="80" height="8.888" fill="white" />
<rect x="510" y="172.94666666666666" width="80" height="8.888" fill="white" />
<rect x="610" y="172.94666666666666" width="80" height="8.888" fill="white" />
<rect x="710" y="172.94666666666666" width="80" height="8.888" fill="white" />
<rect x="810" y="172.94666666666666" width="80" height="8.888" fill="white" />
<rect x="910" y="172.94666666666666" width="80" height="8.888" fill="white" />
<rect x="1010" y="172.94666666666666" width="80" height="8.888" fill="white" />
<rect x="1110" y="172.94666666666666" width="80" height="8.888" fill="white" />
<rect x="1210" y="172.94666666666666" width="80" height="8.888" fill="white" />
<rect x="1310" y="172.94666666666666" width="80" height="8.888" fill="white" />
<rect x="1410" y="172.94666666666666" width="80" height="8.888" fill="white" />
<rect x="1510" y="172.94666666666666" width="80" height="8.888" fill="white" />
<rect x="1610" y="172.94666666666666" width="80" height="8.888" fill="black" />
<rect x="1710" y="172.94666666666666" width="80" height="8.888" fill="black" />
<rect x="1810" y="172.94666666666666" width="80" height="8.888" fill="black" />
<rect x="1910" y="172.94666666666666" width="80" height="8.888" fill="black" />
<rect x="2010" y="172.94666666666666" width="80" height="8.888" fill="black" />
<rect x="2110" y="172.94666666666666" width="80" height="8.888" fill="black" />
<rect x="2210" y="172.94666666666666" width="80" height="8.888" fill="black" />
<rect x="2310" y="172.94666666666666" width="80" height="8.888" fill="black" />
<rect x="2410" y="172.94666666666666" width="80" height="8.888" fill="black" />
<rect x="2510" y="172.94666666666666" width="80" height="8.888" fill="black" />
<rect x="2610" y="172.94666666666666" width="80" height="8.888" fill="black" />
<rect x="2710" y="172.94666666666666" width="80" height="8.888" fill="black" />
<rect x="2810" y="172.94666666666666" width="80" height="8.888" fill="black" />
<rect x="2910" y="172.94666666666666" width="80" height="8.888" fill="black" />
<rect x="3010" y="172.94666666666666" width="80" height="8.888" fill="black" />
<rect x="3110" y="172.94666666666666" width="80" height="8.888" fill="black" />
<rect x="10" y="187.76" width="80" height="8.888" fill="white" />
<rect x="110" y="187.76" width="80" height="8.888" fill="white" />
<rect x="210" y="187.76" width="80" height="8.888" fill="white" />
<rect x="310" y="187.76" width="80" height="8.888" fill="white" />
<rect x="410" y="187.76" width="80" height="8.888" fill="white" />
<rect x="510" y="187.76" width="80" height="8.888" fill="white" />
<rect x="610" y="187.76" width="80" height="8.888" fill="white" />
<rect x="710" y="187.76" width="80" height="8.888" fill="white" />
<rect x="810" y="187.76" width="80" height="8.888" fill="white" />
<rect x="910" y="187.76" width="80" height="8.888" fill="white" />
<rect x="1010" y="187.76" width="80" height="8.888" fill="white" />
<rect x="1110" y="187.76" width="80" height="8.888" fill="white" />
<rect x="1210" y="187.76" width="80" height="8.888" fill="white" />
<rect x="1310" y="187.76" width="80" height="8.888" fill="white" />
<rect x="1410" y="187.76" width="80" height="8.888" fill="white" />
<rect x="1510" y="187.76" width="80" height="8.888" fill="white" />
<rect x="1610" y="187.76" width="80" height="8.888" fill="white" />
<rect x="1710" y="187.76" width="80" height="8.888" fill="white" />
<rect x="1810" y="187.76" width="80" height="8.888" fill="white" />
<rect x="1910" y="187.76" width="80" height="8.888" fill="white" />
<rect x="2010" y="187.76" width="80" height="8.888" fill="white" />
<rect x="2110" y="187.76" width="80" height="8.888" fill="white" />
<rect x="2210" y="187.76" width="80" height="8.888" fill="white" />
<rect x="2310" y="187.76" width="80" height="8.888" fill="white" />
<rect x="2410" y="187.76" width="80" height="8.888" fill="white" />
<rect x="2510" y="187.76" width="80" height="8.888" fill="white" />
<rect x="2610" y="187.76" width="80" height="8.888" fill="white" />
<rect x="2710" y="187.76" width="80" height="8.888" fill="white" />
<rect x="2810" y="187.76" width="80" height="8.888" fill="white" />
<rect x="2910" y="187.76" width="80" height="8.888" fill="white" />
<rect x="3010" y="187.76" width="80" height="8.888" fill="white" />
<rect x="3110" y="187.76" width="80" height="8.888" fill="white" />
</svg>