<svg version="1.1" baseProfile="full" width="81.1789" height="6" xmlns="http://www.w3.org/2000/svg">
<rect x="0.18" y="0.3" width="0.9524" height="0.3" />
<rect x="1.4045" y="0.3" width="0.9524" height="0.3" />
<rect x="0.18" y="0.725" width="0.9524" height="0.3" />
<rect x="1.4045" y="0.725" width="0.9524" height="0.3" />
<rect x="0.18" y="1.15" width="0.9524" height="0.3" />
<rect x="1.4045" y="1.15" width="0.9524" height="0.3" />
<rect x="0.18" y="1.575" width="0.9524" height="0.3" />
<rect x="1.4045" y="1.575" width="0.9524" height="0.3" />
<rect x="0.18" y="2" width="0.9524" height="0.3" />
<rect x="1.4045" y="2" width="0.9524" height="0.3" />
<rect x="0.18" y="2.425" width="0.9524" height="0.3" />
<rect x="1.4045" y="2.425" width="0.9524" height="0.3" />
<rect x="2.7168" y="0.3" width="2.1768" height="0.3" />
<rect x="2.7168" y="0.725" width="0.9524" height="0.3" />
<rect x="3.9413" y="0.725" width="0.9524" height="0.3" />
<rect x="2.7168" y="1.15" width="0.9524" height="0.3" />
<rect x="3.9413" y="1.15" width="0.9524" height="0.3" />
<rect x="2.7168" y="1.575" width="0.9524" height="0.3" />
<rect x="3.9413" y="1.575" width="0.9524" height="0.3" />
<rect x="2.7168" y="2" width="0.9524" height="0.3" />
<rect x="3.9413" y="2" width="0.9524" height="0.3" />
<rect x="2.7168" y="2.425" width="0.9524" height="0.3" />
<rect x="3.9413" y="2.425" width="0.9524" height="0.3" />
<rect x="5.2537" y="0.3" width="0.9524" height="0.3" />
<rect x="6.4782" y="0.3" width="0.9524" height="0.3" />
<rect x="5.2537" y="0.725" width="2.1768" height="0.3" />
<rect x="5.2537" y="1.15" width="0.9524" height="0.3" />
<rect x="6.4782" y="1.15" width="0.9524" height="0.3" />
<rect x="5.2537" y="1.575" width="0.9524" height="0.3" />
<rect x="6.4782" y="1.575" width="0.9524" height="0.3" />
<rect x="5.2537" y="2" width="0.9524" height="0.3" />
<rect x="6.4782" y="2" width="0.9524" height="0.3" />
<rect x="5.2537" y="2.425" width="0.9524" height="0.3" />
<rect x="6.4782" y="2.425" width="0.9524" height="0.3" />
<rect x="7.7905" y="0.3" width="2.1768" height="0.3" />
<rect x="7.7905" y="0.725" width="2.1768" height="0.3" />
<rect x="7.7905" y="1.15" width="0.9524" height="0.3" />
<rect x="9.015" y="1.15" width="0.9524" height="0.3" />
<rect x="7.7905" y="1.575" width="0.9524" height="0.3" />
<rect x="9.015" y="1.575" width="0.9524" height="0.3" />
<rect x="7.7905" y="2" width="0.9524" height="0.3" />
<rect x="9.015" y="2" width="0.9524" height="0.3" />
<rect x="7.7905" y="2.425" width="0.9524" height="0.3" />
<rect x="9.015" y="2.425" width="0.9524" height="0.3" />
<rect x="10.3274" y="0.3" width="0.9524" height="0.3" />
<rect x="11.5518" y="0.3" width="0.9524" height="0.3" />
<rect x="10.3274" y="0.725" width="0.9524" height="0.3" />
<rect x="11.5518" y="0.725" width="0.9524" height="0.3" />
<rect x="10.3274" y="1.15" width="2.1768" height="0.3" />
<rect x="10.3274" y="1.575" width="0.9524" height="0.3" />
<rect x="11.5518" y="1.575" width="0.9524" height="0.3" />
<rect x="10.3274" y="2" width="0.9524" height="0.3" />
<rect x="11.5518" y="2" width="0.9524" height="0.3" />
<rect x="10.3274" y="2.425" width="0.9524" height="0.3" />
<rect x="11.5518" y="2.425" width="0.9524" height="0.3" />
<rect x="12.8642" y="0.3" width="2.1768" height="0.3" />
<rect x="12.8642" y="0.725" width="0.9524" height="0.3" />
<rect x="14.0887" y="0.725" width="0.9524" height="0.3" />
<rect x="12.8642" y="1.15" width="2.1768" height="0.3" />
<rect x="12.8642" y="1.575" width="0.9524" height="0.3" />
<rect x="14.0887" y="1.575" width="0.9524" height="0.3" />
<rect x="12.8642" y="2" width="0.9524" height="0.3" />
<rect x="14.0887" y="2" width="0.9524" height="0.3" />
<rect x="12.8642" y="2.425" width="0.9524" height="0.3" />
<rect x="14.0887" y="2.425" width="0.9524" height="0.3" />
<rect x="15.401" y="0.3" width="0.9524" height="0.3" />
<rect x="16.6255" y="0.3" width="0.9524" height="0.3" />
<rect x="15.401" y="0.725" width="2.1768" height="0.3" />
<rect x="15.401" y="1.15" width="2.1768" height="0.3" />
<rect x="15.401" y="1.575" width="0.9524" height="0.3" />
<rect x="16.6255" y="1.575" width="0.9524" height="0.3" />
<rect x="15.401" y="2" width="0.9524" height="0.3" />
<rect x="16.6255" y="2" width="0.9524" height="0.3" />
<rect x="15.401" y="2.425" width="0.9524" height="0.3" />
<rect x="16.6255" y="2.425" width="0.9524" height="0.3" />
<rect x="17.9379" y="0.3" width="2.1768" height="0.3" />
<rect x="17.9379" y="0.725" width="2.1768" height="0.3" />
<rect x="17.9379" y="1.15" width="2.1768" height="0.3" />
<rect x="17.9379" y="1.575" width="0.9524" height="0.3" />
<rect x="19.1624" y="1.575" width="0.9524" height="0.3" />
<rect x="17.9379" y="2" width="0.9524" height="0.3" />
<rect x="19.1624" y="2" width="0.9524" height="0.3" />
<rect x="17.9379" y="2.425" width="0.9524" height="0.3" />
<rect x="19.1624" y="2.425" width="0.9524" height="0.3" />
<rect x="20.4747" y="0.3" width="0.9524" height="0.3" />
<rect x="21.6992" y="0.3" width="0.9524" height="0.3" />
<rect x="20.4747" y="0.725" width="0.9524" height="0.3" />
<rect x="21.6992" y="0.725" width="0.9524" height="0.3" />
<rect x="20.4747" y="1.15" width="0.9524" height="0.3" />
<rect x="21.6992" y="1.15" width="0.9524" height="0.3" />
<rect x="20.4747" y="1.575" width="2.1768" height="0.3" />
<rect x="20.4747" y="2" width="0.9524" height="0.3" />
<rect x="21.6992" y="2" width="0.9524" height="0.3" />
<rect x="20.4747" y="2.425" width="0.9524" height="0.3" />
<rect x="21.6992" y="2.425" width="0.9524" height="0.3" />
<rect x="23.0116" y="0.3" width="2.1768" height="0.3" />
<rect x="23.0116" y="0.725" width="0.9524" height="0.3" />
<rect x="24.236" y="0.725" width="0.9524" height="0.3" />
<rect x="23.0116" y="1.15" width="0.9524" height="0.3" />
<rect x="24.236" y="1.15" width="0.9524" height="0.3" />
<rect x="23.0116" y="1.575" width="2.1768" height="0.3" />
<rect x="23.0116" y="2" width="0.9524" height="0.3" />
<rect x="24.236" y="2" width="0.9524" height="0.3" />
<rect x="23.0116" y="2.425" width="0.9524" height="0.3" />
<rect x="24.236" y="2.425" width="0.9524" height="0.3" />
<rect x="25.5484" y="0.3" width="0.9524" height="0.3" />
<rect x="26.7729" y="0.3" width="0.9524" height="0.3" />
<rect x="25.5484" y="0.725" width="2.1768" height="0.3" />
<rect x="25.5484" y="1.15" width="0.9524" height="0.3" />
<rect x="26.7729" y="1.15" width="0.9524" height="0.3" />
<rect x="25.5484" y="1.575" width="2.1768" height="0.3" />
<rect x="25.5484" y="2" width="0.9524" height="0.3" />
<rect x="26.7729" y="2" width="0.9524" height="0.3" />
<rect x="25.5484" y="2.425" width="0.9524" height="0.3" />
<rect x="26.7729" y="2.425" width="0.9524" height="0.3" />
<rect x="28.0852" y="0.3" width="2.1768" height="0.3" />
<rect x="28.0852" y="0.725" width="2.1768" height="0.3" />
<rect x="28.0852" y="1.15" width="0.9524" height="0.3" />
<rect x="29.3097" y="1.15" width="0.9524" height="0.3" />
<rect x="28.0852" y="1.575" width="2.1768" height="0.3" />
<rect x="28.0852" y="2" width="0.9524" height="0.3" />
<rect x="29.3097" y="2" width="0.9524" height="0.3" />
<rect x="28.0852" y="2.425" width="0.9524" height="0.3" />
<rect x="29.3097" y="2.425" width="0.9524" height="0.3" />
<rect x="30.6221" y="0.3" width="0.9524" height="0.3" />
<rect x="31.8466" y="0.3" width="0.9524" height="0.3" />
<rect x="30.6221" y="0.725" width="0.9524" height="0.3" />
<rect x="31.8466" y="0.725" width="0.9524" height="0.3" />
<rect x="30.6221" y="1.15" width="2.1768" height="0.3" />
<rect x="30.6221" y="1.575" width="2.1768" height="0.3" />
<rect x="30.6221" y="2" width="0.9524" height="0.3" />
<rect x="31.8466" y="2" width="0.9524" height="0.3" />
<rect x="30.6221" y="2.425" width="0.9524" height="0.3" />
<rect x="31.8466" y="2.425" width="0.9524" height="0.3" />
<rect x="33.1589" y="0.3" width="2.1768" height="0.3" />
<rect x="33.1589" y="0.725" width="0.9524" height="0.3" />
<rect x="34.3834" y="0.725" width="0.9524" height="0.3" />
<rect x="33.1589" y="1.15" width="2.1768" height="0.3" />
<rect x="33.1589" y="1.575" width="2.1768" height="0.3" />
<rect x="33.1589" y="2" width="0.9524" height="0.3" />
<rect x="34.3834" y="2" width="0.9524" height="0.3" />
<rect x="33.1589" y="2.425" width="0.9524" height="0.3" />
<rect x="34.3834" y="2.425" width="0.9524" height="0.3" />
<rect x="35.6958" y="0.3" width="0.9524" height="0.3" />
<rect x="36.9202" y="0.3" width="0.9524" height="0.3" />
<rect x="35.6958" y="0.725" width="2.1768" height="0.3" />
<rect x="35.6958" y="1.15" width="2.1768" height="0.3" />
<rect x="35.6958" y="1.575" width="2.1768" height="0.3" />
<rect x="35.6958" y="2" width="0.9524" height="0.3" />
<rect x="36.9202" y="2" width="0.9524" height="0.3" />
<rect x="35.6958" y="2.425" width="0.9524" height="0.3" />
<rect x="36.9202" y="2.425" width="0.9524" height="0.3" />
<rect x="38.2326" y="0.3" width="2.1768" height="0.3" />
<rect x="38.2326" y="0.725" width="2.1768" height="0.3" />
<rect x="38.2326" y="1.15" width="2.1768" height="0.3" />
<rect x="38.2326" y="1.575" width="2.1768" height="0.3" />
<rect x="38.2326" y="2" width="0.9524" height="0.3" />
<rect x="39.4571" y="2" width="0.9524" height="0.3" />
<rect x="38.2326" y="2.425" width="0.9524" height="0.3" />
<rect x="39.4571" y="2.425" width="0.9524" height="0.3" />
<rect x="40.7695" y="0.3" width="0.9524" height="0.3" />
<rect x="41.9939" y="0.3" width="0.9524" height="0.3" />
<rect x="40.7695" y="0.725" width="0.9524" height="0.3" />
<rect x="41.9939" y="0.725" width="0.9524" height="0.3" />
<rect x="40.7695" y="1.15" width="0.9524" height="0.3" />
<rect x="41.9939" y="1.15" width="0.9524" height="0.3" />
<rect x="40.7695" y="1.575" width="0.9524" height="0.3" />
<rect x="41.9939" y="1.575" width="0.9524" height="0.3" />
<rect x="40.7695" y="2" width="2.1768" height="0.3" />
<rect x="40.7695" y="2.425" width="0.9524" height="0.3" />
<rect x="41.9939" y="2.425" width="0.9524" height="0.3" />
<rect x="43.3063" y="0.3" width="2.1768" height="0.3" />
<rect x="43.3063" y="0.725" width="0.9524" height="0.3" />
<rect x="44.5308" y="0.725" width="0.9524" height="0.3" />
<rect x="43.3063" y="1.15" width="0.9524" height="0.3" />
<rect x="44.5308" y="1.15" width="0.9524" height="0.3" />
<rect x="43.3063" y="1.575" width="0.9524" height="0.3" />
<rect x="44.5308" y="1.575" width="0.9524" height="0.3" />
<rect x="43.3063" y="2" width="2.1768" height="0.3" />
<rect x="43.3063" y="2.425" width="0.9524" height="0.3" />
<rect x="44.5308" y="2.425" width="0.9524" height="0.3" />
<rect x="45.8431" y="0.3" width="0.9524" height="0.3" />
<rect x="47.0676" y="0.3" width="0.9524" height="0.3" />
<rect x="45.8431" y="0.725" width="2.1768" height="0.3" />
<rect x="45.8431" y="1.15" width="0.9524" height="0.3" />
<rect x="47.0676" y="1.15" width="0.9524" height="0.3" />
<rect x="45.8431" y="1.575" width="0.9524" height="0.3" />
<rect x="47.0676" y="1.575" width="0.9524" height="0.3" />
<rect x="45.8431" y="2" width="2.1768" height="0.3" />
<rect x="45.8431" y="2.425" width="0.9524" height="0.3" />
<rect x="47.0676" y="2.425" width="0.9524" height="0.3" />
<rect x="48.38" y="0.3" width="2.1768" height="0.3" />
<rect x="48.38" y="0.725" width="2.1768" height="0.3" />
<rect x="48.38" y="1.15" width="0.9524" height="0.3" />
<rect x="49.6044" y="1.15" width="0.9524" height="0.3" />
<rect x="48.38" y="1.575" width="0.9524" height="0.3" />
<rect x="49.6044" y="1.575" width="0.9524" height="0.3" />
<rect x="48.38" y="2" width="2.1768" height="0.3" />
<rect x="48.38" y="2.425" width="0.9524" height="0.3" />
<rect x="49.6044" y="2.425" width="0.9524" height="0.3" />
<rect x="50.9168" y="0.3" width="0.9524" height="0.3" />
<rect x="52.1413" y="0.3" width="0.9524" height="0.3" />
<rect x="50.9168" y="0.725" width="0.9524" height="0.3" />
<rect x="52.1413" y="0.725" width="0.9524" height="0.3" />
<rect x="50.9168" y="1.15" width="2.1768" height="0.3" />
<rect x="50.9168" y="1.575" width="0.9524" height="0.3" />
<rect x="52.1413" y="1.575" width="0.9524" height="0.3" />
<rect x="50.9168" y="2" width="2.1768" height="0.3" />
<rect x="50.9168" y="2.425" width="0.9524" height="0.3" />
<rect x="52.1413" y="2.425" width="0.9524" height="0.3" />
<rect x="53.4537" y="0.3" width="2.1768" height="0.3" />
<rect x="53.4537" y="0.725" width="0.9524" height="0.3" />
<rect x="54.6781" y="0.725" width="0.9524" height="0.3" />
<rect x="53.4537" y="1.15" width="2.1768" height="0.3" />
<rect x="53.4537" y="1.575" width="0.9524" height="0.3" />
<rect x="54.6781" y="1.575" width="0.9524" height="0.3" />
<rect x="53.4537" y="2" width="2.1768" height="0.3" />
<rect x="53.4537" y="2.425" width="0.9524" height="0.3" />
<rect x="54.6781" y="2.425" width="0.9524" height="0.3" />
<rect x="55.9905" y="0.3" width="0.9524" height="0.3" />
<rect x="57.215" y="0.3" width="0.9524" height="0.3" />
<rect x="55.9905" y="0.725" width="2.1768" height="0.3" />
<rect x="55.9905" y="1.15" width="2.1768" height="0.3" />
<rect x="55.9905" y="1.575" width="0.9524" height="0.3" />
<rect x="57.215" y="1.575" width="0.9524" height="0.3" />
<rect x="55.9905" y="2" width="2.1768" height="0.3" />
<rect x="55.9905" y="2.425" width="0.9524" height="0.3" />
<rect x="57.215" y="2.425" width="0.9524" height="0.3" />
<rect x="58.5273" y="0.3" width="2.1768" height="0.3" />
<rect x="58.5273" y="0.725" width="2.1768" height="0.3" />
<rect x="58.5273" y="1.15" width="2.1768" height="0.3" />
<rect x="58.5273" y="1.575" width="0.9524" height="0.3" />
<rect x="59.7518" y="1.575" width="0.9524" height="0.3" />
<rect x="58.5273" y="2" width="2.1768" height="0.3" />
<rect x="58.5273" y="2.425" width="0.9524" height="0.3" />
<rect x="59.7518" y="2.425" width="0.9524" height="0.3" />
<rect x="61.0642" y="0.3" width="0.9524" height="0.3" />
<rect x="62.2886" y="0.3" width="0.9524" height="0.3" />
<rect x="61.0642" y="0.725" width="0.9524" height="0.3" />
<rect x="62.2886" y="0.725" width="0.9524" height="0.3" />
<rect x="61.0642" y="1.15" width="0.9524" height="0.3" />
<rect x="62.2886" y="1.15" width="0.9524" height="0.3" />
<rect x="61.0642" y="1.575" width="2.1768" height="0.3" />
<rect x="61.0642" y="2" width="2.1768" height="0.3" />
<rect x="61.0642" y="2.425" width="0.9524" height="0.3" />
<rect x="62.2886" y="2.425" width="0.9524" height="0.3" />
<rect x="63.601" y="0.3" width="2.1768" height="0.3" />
<rect x="63.601" y="0.725" width="0.9524" height="0.3" />
<rect x="64.8255" y="0.725" width="0.9524" height="0.3" />
<rect x="63.601" y="1.15" width="0.9524" height="0.3" />
<rect x="64.8255" y="1.15" width="0.9524" height="0.3" />
<rect x="63.601" y="1.575" width="2.1768" height="0.3" />
<rect x="63.601" y="2" width="2.1768" height="0.3" />
<rect x="63.601" y="2.425" width="0.9524" height="0.3" />
<rect x="64.8255" y="2.425" width="0.9524" height="0.3" />
<rect x="66.1379" y="0.3" width="0.9524" height="0.3" />
<rect x="67.3623" y="0.3" width="0.9524" height="0.3" />
<rect x="66.1379" y="0.725" width="2.1768" height="0.3" />
<rect x="66.1379" y="1.15" width="0.9524" height="0.3" />
<rect x="67.3623" y="1.15" width="0.9524" height="0.3" />
<rect x="66.1379" y="1.575" width="2.1768" height="0.3" />
<rect x="66.1379" y="2" width="2.1768" height="0.3" />
<rect x="66.1379" y="2.425" width="0.9524" height="0.3" />
<rect x="67.3623" y="2.425" width="0.9524" height="0.3" />
<rect x="68.6747" y="0.3" width="2.1768" height="0.3" />
<rect x="68.6747" y="0.725" width="2.1768" height="0.3" />
<rect x="68.6747" y="1.15" width="0.9524" height="0.3" />
<rect x="69.8992" y="1.15" width="0.9524" height="0.3" />
<rect x="68.6747" y="1.575" width="2.1768" height="0.3" />
<rect x="68.6747" y="2" width="2.1768" height="0.3" />
<rect x="68.6747" y="2.425" width="0.9524" height="0.3" />
<rect x="69.8992" y="2.425" width="0.9524" height="0.3" />
<rect x="71.2115" y="0.3" width="0.9524" height="0.3" />
<rect x="72.436" y="0.3" width="0.9524" height="0.3" />
<rect x="71.2115" y="0.725" width="0.9524" height="0.3" />
<rect x="72.436" y="0.725" width="0.9524" height="0.3" />
<rect x="71.2115" y="1.15" width="2.1768" height="0.3" />
<rect x="71.2115" y="1.575" width="2.1768" height="0.3" />
<rect x="71.2115" y="2" width="2.1768" height="0.3" />
<rect x="71.2115" y="2.425" width="0.9524" height="0.3" />
<rect x="72.436" y="2.425" width="0.9524" height="0.3" />
<rect x="73.7484" y="0.3" width="2.1768" height="0.3" />
<rect x="73.7484" y="0.725" width="0.9524" height="0.3" />
<rect x="74.9729" y="0.725" width="0.9524" height="0.3" />
<rect x="73.7484" y="1.15" width="2.1768" height="0.3" />
<rect x="73.7484" y="1.575" width="2.1768" height="0.3" />
<rect x="73.7484" y="2" width="2.1768" height="0.3" />
<rect x="73.7484" y="2.425" width="0.9524" height="0.3" />
<rect x="74.9729" y="2.425" width="0.9524" height="0.3" />
<rect x="76.2852" y="0.3" width="0.9524" height="0.3" />
<rect x="77.5097" y="0.3" width="0.9524" height="0.3" />
<rect x="76.2852" y="0.725" width="2.1768" height="0.3" />
<rect x="76.2852" y="1.15" width="2.1768" height="0.3" />
<rect x="76.2852" y="1.575" width="2.1768" height="0.3" />
<rect x="76.2852" y="2" width="2.1768" height="0.3" />
<rect x="76.2852" y="2.425" width="0.9524" height="0.3" />
<rect x="77.5097" y="2.425" width="0.9524" height="0.3" />
<rect x="78.8221" y="0.3" width="2.1768" height="0.3" />
<rect x="78.8221" y="0.725" width="2.1768" height="0.3" />
<rect x="78.8221" y="1.15" width="2.1768" height="0.3" />
<rect x="78.8221" y="1.575" width="2.1768" height="0.3" />
<rect x="78.8221" y="2" width="2.1768" height="0.3" />
<rect x="78.8221" y="2.425" width="0.9524" height="0.3" />
<rect x="80.0465" y="2.425" width="0.9524" height="0.3" />
<rect x="78.8221" y="3.15" width="0.9524" height="0.3" />
<rect x="80.0465" y="3.15" width="0.9524" height="0.3" />
<rect x="78.8221" y="3.575" width="0.9524" height="0.3" />
<rect x="80.0465" y="3.575" width="0.9524" height="0.3" />
<rect x="78.8221" y="4" width="0.9524" height="0.3" />
<rect x="80.0465" y="4" width="0.9524" height="0.3" />
<rect x="78.8221" y="4.425" width="0.9524" height="0.3" />
<rect x="80.0465" y="4.425" width="0.9524" height="0.3" />
<rect x="78.8221" y="4.85" width="0.9524" height="0.3" />
<rect x="80.0465" y="4.85" width="0.9524" height="0.3" />
<rect x="78.8221" y="5.275" width="2.1768" height="0.3" />
<rect x="76.2852" y="3.15" width="2.1768" height="0.3" />
<rect x="76.2852" y="3.575" width="0.9524" height="0.3" />
<rect x="77.5097" y="3.575" width="0.9524" height="0.3" />
<rect x="76.2852" y="4" width="0.9524" height="0.3" />
<rect x="77.5097" y="4" width="0.9524" height="0.3" />
<rect x="76.2852" y="4.425" width="0.9524" height="0.3" />
<rect x="77.5097" y="4.425" width="0.9524" height="0.3" />
<rect x="76.2852" y="4.85" width="0.9524" height="0.3" />
<rect x="77.5097" y="4.85" width="0.9524" height="0.3" />
<rect x="76.2852" y="5.275" width="2.1768" height="0.3" />
<rect x="73.7484" y="3.15" width="0.9524" height="0.3" />
<rect x="74.9729" y="3.15" width="0.9524" height="0.3" />
<rect x="73.7484" y="3.575" width="2.1768" height="0.3" />
<rect x="73.7484" y="4" width="0.9524" height="0.3" />
<rect x="74.9729" y="4" width="0.9524" height="0.3" />
<rect x="73.7484" y="4.425" width="0.9524" height="0.3" />
<rect x="74.9729" y="4.425" width="0.9524" height="0.3" />
<rect x="73.7484" y="4.85" width="0.9524" height="0.3" />
<rect x="74.9729" y="4.85" width="0.9524" height="0.3" />
<rect x="73.7484" y="5.275" width="2.1768" height="0.3" />
<rect x="71.2115" y="3.15" width="2.1768" height="0.3" />
<rect x="71.2115" y="3.575" width="2.1768" height="0.3" />
<rect x="71.2115" y="4" width="0.9524" height="0.3" />
<rect x="72.436" y="4" width="0.9524" height="0.3" />
<rect x="71.2115" y="4.425" width="0.9524" height="0.3" />
<rect x="72.436" y="4.425" width="0.9524" height="0.3" />
<rect x="71.2115" y="4.85" width="0.9524" height="0.3" />
<rect x="72.436" y="4.85" width="0.9524" height="0.3" />
<rect x="71.2115" y="5.275" width="2.1768" height="0.3" />
<rect x="68.6747" y="3.15" width="0.9524" height="0.3" />
<rect x="69.8992" y="3.15" width="0.9524" height="0.3" />
<rect x="68.6747" y="3.575" width="0.9524" height="0.3" />
<rect x="69.8992" y="3.575" width="0.9524" height="0.3" />
<rect x="68.6747" y="4" width="2.1768" height="0.3" />
<rect x="68.6747" y="4.425" width="0.9524" height="0.3" />
<rect x="69.8992" y="4.425" width="0.9524" height="0.3" />
<rect x="68.6747" y="4.85" width="0.9524" height="0.3" />
<rect x="69.8992" y="4.85" width="0.9524" height="0.3" />
<rect x="68.6747" y="5.275" width="2.1768" height="0.3" />
<rect x="66.1379" y="3.15" width="2.1768" height="0.3" />
<rect x="66.1379" y="3.575" width="0.9524" height="0.3" />
<rect x="67.3623" y="3.575" width="0.9524" height="0.3" />
<rect x="66.1379" y="4" width="2.1768" height="0.3" />
<rect x="66.1379" y="4.425" width="0.9524" height="0.3" />
<rect x="67.3623" y="4.425" width="0.9524" height="0.3" />
<rect x="66.1379" y="4.85" width="0.9524" height="0.3" />
<rect x="67.3623" y="4.85" width="0.9524" height="0.3" />
<rect x="66.1379" y="5.275" width="2.1768" height="0.3" />
<rect x="63.601" y="3.15" width="0.9524" height="0.3" />
<rect x="64.8255" y="3.15" width="0.9524" height="0.3" />
<rect x="63.601" y="3.575" width="2.1768" height="0.3" />
<rect x="63.601" y="4" width="2.1768" height="0.3" />
<rect x="63.601" y="4.425" width="0.9524" height="0.3" />
<rect x="64.8255" y="4.425" width="0.9524" height="0.3" />
<rect x="63.601" y="4.85" width="0.9524" height="0.3" />
<rect x="64.8255" y="4.85" width="0.9524" height="0.3" />
<rect x="63.601" y="5.275" width="2.1768" height="0.3" />
<rect x="61.0642" y="3.15" width="2.1768" height="0.3" />
<rect x="61.0642" y="3.575" width="2.1768" height="0.3" />
<rect x="61.0642" y="4" width="2.1768" height="0.3" />
<rect x="61.0642" y="4.425" width="0.9524" height="0.3" />
<rect x="62.2886" y="4.425" width="0.9524" height="0.3" />
<rect x="61.0642" y="4.85" width="0.9524" height="0.3" />
<rect x="62.2886" y="4.85" width="0.9524" height="0.3" />
<rect x="61.0642" y="5.275" width="2.1768" height="0.3" />
<rect x="58.5273" y="3.15" width="0.9524" height="0.3" />
<rect x="59.7518" y="3.15" width="0.9524" height="0.3" />
<rect x="58.5273" y="3.575" width="0.9524" height="0.3" />
<rect x="59.7518" y="3.575" width="0.9524" height="0.3" />
<rect x="58.5273" y="4" width="0.9524" height="0.3" />
<rect x="59.7518" y="4" width="0.9524" height="0.3" />
<rect x="58.5273" y="4.425" width="2.1768" height="0.3" />
<rect x="58.5273" y="4.85" width="0.9524" height="0.3" />
<rect x="59.7518" y="4.85" width="0.9524" height="0.3" />
<rect x="58.5273" y="5.275" width="2.1768" height="0.3" />
<rect x="55.9905" y="3.15" width="2.1768" height="0.3" />
<rect x="55.9905" y="3.575" width="0.9524" height="0.3" />
<rect x="57.215" y="3.575" width="0.9524" height="0.3" />
<rect x="55.9905" y="4" width="0.9524" height="0.3" />
<rect x="57.215" y="4" width="0.9524" height="0.3" />
<rect x="55.9905" y="4.425" width="2.1768" height="0.3" />
<rect x="55.9905" y="4.85" width="0.9524" height="0.3" />
<rect x="57.215" y="4.85" width="0.9524" height="0.3" />
<rect x="55.9905" y="5.275" width="2.1768" height="0.3" />
<rect x="53.4537" y="3.15" width="0.9524" height="0.3" />
<rect x="54.6781" y="3.15" width="0.9524" height="0.3" />
<rect x="53.4537" y="3.575" width="2.1768" height="0.3" />
<rect x="53.4537" y="4" width="0.9524" height="0.3" />
<rect x="54.6781" y="4" width="0.9524" height="0.3" />
<rect x="53.4537" y="4.425" width="2.1768" height="0.3" />
<rect x="53.4537" y="4.85" width="0.9524" height="0.3" />
<rect x="54.6781" y="4.85" width="0.9524" height="0.3" />
<rect x="53.4537" y="5.275" width="2.1768" height="0.3" />
<rect x="50.9168" y="3.15" width="2.1768" height="0.3" />
<rect x="50.9168" y="3.575" width="2.1768" height="0.3" />
<rect x="50.9168" y="4" width="0.9524" height="0.3" />
<rect x="52.1413" y="4" width="0.9524" height="0.3" />
<rect x="50.9168" y="4.425" width="2.1768" height="0.3" />
<rect x="50.9168" y="4.85" width="0.9524" height="0.3" />
<rect x="52.1413" y="4.85" width="0.9524" height="0.3" />
<rect x="50.9168" y="5.275" width="2.1768" height="0.3" />
<rect x="48.38" y="3.15" width="0.9524" height="0.3" />
<rect x="49.6044" y="3.15" width="0.9524" height="0.3" />
<rect x="48.38" y="3.575" width="0.9524" height="0.3" />
<rect x="49.6044" y="3.575" width="0.9524" height="0.3" />
<rect x="48.38" y="4" width="2.1768" height="0.3" />
<rect x="48.38" y="4.425" width="2.1768" height="0.3" />
<rect x="48.38" y="4.85" width="0.9524" height="0.3" />
<rect x="49.6044" y="4.85" width="0.9524" height="0.3" />
<rect x="48.38" y="5.275" width="2.1768" height="0.3" />
<rect x="45.8431" y="3.15" width="2.1768" height="0.3" />
<rect x="45.8431" y="3.575" width="0.9524" height="0.3" />
<rect x="47.0676" y="3.575" width="0.9524" height="0.3" />
<rect x="45.8431" y="4" width="2.1768" height="0.3" />
<rect x="45.8431" y="4.425" width="2.1768" height="0.3" />
<rect x="45.8431" y="4.85" width="0.9524" height="0.3" />
<rect x="47.0676" y="4.85" width="0.9524" height="0.3" />
<rect x="45.8431" y="5.275" width="2.1768" height="0.3" />
<rect x="43.3063" y="3.15" width="0.9524" height="0.3" />
<rect x="44.5308" y="3.15" width="0.9524" height="0.3" />
<rect x="43.3063" y="3.575" width="2.1768" height="0.3" />
<rect x="43.3063" y="4" width="2.1768" height="0.3" />
<rect x="43.3063" y="4.425" width="2.1768" height="0.3" />
<rect x="43.3063" y="4.85" width="0.9524" height="0.3" />
<rect x="44.5308" y="4.85" width="0.9524" height="0.3" />
<rect x="43.3063" y="5.275" width="2.1768" height="0.3" />
<rect x="40.7695" y="3.15" width="2.1768" height="0.3" />
<rect x="40.7695" y="3.575" width="2.1768" height="0.3" />
<rect x="40.7695" y="4" width="2.1768" height="0.3" />
<rect x="40.7695" y="4.425" width="2.1768" height="0.3" />
<rect x="40.7695" y="4.85" width="0.9524" height="0.3" />
<rect x="41.9939" y="4.85" width="0.9524" height="0.3" />
<rect x="40.7695" y="5.275" width="2.1768" height="0.3" />
<rect x="38.2326" y="3.15" width="0.9524" height="0.3" />
<rect x="39.4571" y="3.15" width="0.9524" height="0.3" />
<rect x="38.2326" y="3.575" width="0.9524" height="0.3" />
<rect x="39.4571" y="3.575" width="0.9524" height="0.3" />
<rect x="38.2326" y="4" width="0.9524" height="0.3" />
<rect x="39.4571" y="4" width="0.9524" height="0.3" />
<rect x="38.2326" y="4.425" width="0.9524" height="0.3" />
<rect x="39.4571" y="4.425" width="0.9524" height="0.3" />
<rect x="38.2326" y="4.85" width="2.1768" height="0.3" />
<rect x="38.2326" y="5.275" width="2.1768" height="0.3" />
<rect x="35.6958" y="3.15" width="2.1768" height="0.3" />
<rect x="35.6958" y="3.575" width="0.9524" height="0.3" />
<rect x="36.9202" y="3.575" width="0.9524" height="0.3" />
<rect x="35.6958" y="4" width="0.9524" height="0.3" />
<rect x="36.9202" y="4" width="0.9524" height="0.3" />
<rect x="35.6958" y="4.425" width="0.9524" height="0.3" />
<rect x="36.9202" y="4.425" width="0.9524" height="0.3" />
<rect x="35.6958" y="4.85" width="2.1768" height="0.3" />
<rect x="35.6958" y="5.275" width="2.1768" height="0.3" />
<rect x="33.1589" y="3.15" width="0.9524" height="0.3" />
<rect x="34.3834" y="3.15" width="0.9524" height="0.3" />
<rect x="33.1589" y="3.575" width="2.1768" height="0.3" />
<rect x="33.1589" y="4" width="0.9524" height="0.3" />
<rect x="34.3834" y="4" width="0.9524" height="0.3" />
<rect x="33.1589" y="4.425" width="0.9524" height="0.3" />
<rect x="34.3834" y="4.425" width="0.9524" height="0.3" />
<rect x="33.1589" y="4.85" width="2.1768" height="0.3" />
<rect x="33.1589" y="5.275" width="2.1768" height="0.3" />
<rect x="30.6221" y="3.15" width="2.1768" height="0.3" />
<rect x="30.6221" y="3.575" width="2.1768" height="0.3" />
<rect x="30.6221" y="4" width="0.9524" height="0.3" />
<rect x="31.8466" y="4" width="0.9524" height="0.3" />
<rect x="30.6221" y="4.425" width="0.9524" height="0.3" />
<rect x="31.8466" y="4.425" width="0.9524" height="0.3" />
<rect x="30.6221" y="4.85" width="2.1768" height="0.3" />
<rect x="30.6221" y="5.275" width="2.1768" height="0.3" />
<rect x="28.0852" y="3.15" width="0.9524" height="0.3" />
<rect x="29.3097" y="3.15" width="0.9524" height="0.3" />
<rect x="28.0852" y="3.575" width="0.9524" height="0.3" />
<rect x="29.3097" y="3.575" width="0.9524" height="0.3" />
<rect x="28.0852" y="4" width="2.1768" height="0.3" />
<rect x="28.0852" y="4.425" width="0.9524" height="0.3" />
<rect x="29.3097" y="4.425" width="0.9524" height="0.3" />
<rect x="28.0852" y="4.85" width="2.1768" height="0.3" />
<rect x="28.0852" y="5.275" width="2.1768" height="0.3" />
<rect x="25.5484" y="3.15" width="2.1768" height="0.3" />
<rect x="25.5484" y="3.575" width="0.9524" height="0.3" />
<rect x="26.7729" y="3.575" width="0.9524" height="0.3" />
<rect x="25.5484" y="4" width="2.1768" height="0.3" />
<rect x="25.5484" y="4.425" width="0.9524" height="0.3" />
<rect x="26.7729" y="4.425" width="0.9524" height="0.3" />
<rect x="25.5484" y="4.85" width="2.1768" height="0.3" />
<rect x="25.5484" y="5.275" width="2.1768" height="0.3" />
<rect x="23.0116" y="3.15" width="0.9524" height="0.3" />
<rect x="24.236" y="3.15" width="0.9524" height="0.3" />
<rect x="23.0116" y="3.575" width="2.1768" height="0.3" />
<rect x="23.0116" y="4" width="2.1768" height="0.3" />
<rect x="23.0116" y="4.425" width="0.9524" height="0.3" />
<rect x="24.236" y="4.425" width="0.9524" height="0.3" />
<rect x="23.0116" y="4.85" width="2.1768" height="0.3" />
<rect x="23.0116" y="5.275" width="2.1768" height="0.3" />
<rect x="20.4747" y="3.15" width="2.1768" height="0.3" />
<rect x="20.4747" y="3.575" width="2.1768" height="0.3" />
<rect x="20.4747" y="4" width="2.1768" height="0.3" />
<rect x="20.4747" y="4.425" width="0.9524" height="0.3" />
<rect x="21.6992" y="4.425" width="0.9524" height="0.3" />
<rect x="20.4747" y="4.85" width="2.1768" height="0.3" />
<rect x="20.4747" y="5.275" width="2.1768" height="0.3" />
<rect x="17.9379" y="3.15" width="0.9524" height="0.3" />
<rect x="19.1624" y="3.15" width="0.9524" height="0.3" />
<rect x="17.9379" y="3.575" width="0.9524" height="0.3" />
<rect x="19.1624" y="3.575" width="0.9524" height="0.3" />
<rect x="17.9379" y="4" width="0.9524" height="0.3" />
<rect x="19.1624" y="4" width="0.9524" height="0.3" />
<rect x="17.9379" y="4.425" width="2.1768" height="0.3" />
<rect x="17.9379" y="4.85" width="2.1768" height="0.3" />
<rect x="17.9379" y="5.275" width="2.1768" height="0.3" />
<rect x="15.401" y="3.15" width="2.1768" height="0.3" />
<rect x="15.401" y="3.575" width="0.9524" height="0.3" />
<rect x="16.6255" y="3.575" width="0.9524" height="0.3" />
<rect x="15.401" y="4" width="0.9524" height="0.3" />
<rect x="16.6255" y="4" width="0.9524" height="0.3" />
<rect x="15.401" y="4.425" width="2.1768" height="0.3" />
<rect x="15.401" y="4.85" width="2.1768" height="0.3" />
<rect x="15.401" y="5.275" width="2.1768" height="0.3" />
<rect x="12.8642" y="3.15" width="0.9524" height="0.3" />
<rect x="14.0887" y="3.15" width="0.9524" height="0.3" />
<rect x="12.8642" y="3.575" width="2.1768" height="0.3" />
<rect x="12.8642" y="4" width="0.9524" height="0.3" />
<rect x="14.0887" y="4" width="0.9524" height="0.3" />
<rect x="12.8642" y="4.425" width="2.1768" height="0.3" />
<rect x="12.8642" y="4.85" width="2.1768" height="0.3" />
<rect x="12.8642" y="5.275" width="2.1768" height="0.3" />
<rect x="10.3274" y="3.15" width="2.1768" height="0.3" />
<rect x="10.3274" y="3.575" width="2.1768" height="0.3" />
<rect x="10.3274" y="4" width="0.9524" height="0.3" />
<rect x="11.5518" y="4" width="0.9524" height="0.3" />
<rect x="10.3274" y="4.425" width="2.1768" height="0.3" />
<rect x="10.3274" y="4.85" width="2.1768" height="0.3" />
<rect x="10.3274" y="5.275" width="2.1768" height="0.3" />
<rect x="7.7905" y="3.15" width="0.9524" height="0.3" />
<rect x="9.015" y="3.15" width="0.9524" height="0.3" />
<rect x="7.7905" y="3.575" width="0.9524" height="0.3" />
<rect x="9.015" y="3.575" width="0.9524" height="0.3" />
<rect x="7.7905" y="4" width="2.1768" height="0.3" />
<rect x="7.7905" y="4.425" width="2.1768" height="0.3" />
<rect x="7.7905" y="4.85" width="2.1768" height="0.3" />
<rect x="7.7905" y="5.275" width="2.1768" height="0.3" />
<rect x="5.2537" y="3.15" width="2.1768" height="0.3" />
<rect x="5.2537" y="3.575" width="0.9524" height="0.3" />
<rect x="6.4782" y="3.575" width="0.9524" height="0.3" />
<rect x="5.2537" y="4" width="2.1768" height="0.3" />
<rect x="5.2537" y="4.425" width="2.1768" height="0.3" />
<rect x="5.2537" y="4.85" width="2.1768" height="0.3" />
<rect x="5.2537" y="5.275" width="2.1768" height="0.3" />
<rect x="2.7168" y="3.15" width="0.9524" height="0.3" />
<rect x="3.9413" y="3.15" width="0.9524" height="0.3" />
<rect x="2.7168" y="3.575" width="2.1768" height="0.3" />
<rect x="2.7168" y="4" width="2.1768" height="0.3" />
<rect x="2.7168" y="4.425" width="2.1768" height="0.3" />
<rect x="2.7168" y="4.85" width="2.1768" height="0.3" />
<rect x="2.7168" y="5.275" width="2.1768" height="0.3" />
<rect x="0.18" y="3.15" width="2.1768" height="0.3" />
<rect x="0.18" y="3.575" width="2.1768" height="0.3" />
<rect x="0.18" y="4" width="2.1768" height="0.3" />
<rect x="0.18" y="4.425" width="2.1768" height="0.3" />
<rect x="0.18" y="4.85" width="2.1768" height="0.3" />
<rect x="0.18" y="5.275" width="2.1768" height="0.3" />

</svg>