<svg version="1.1" baseProfile="full" width="81.1789" height="4" xmlns="http://www.w3.org/2000/svg">
<!--
  This work is licensed under a Creative Commons Attribution-NonCommercial 4.0 International License
  <http://creativecommons.org/licenses/by-nc/4.0/>
  For commercial licenses, please contact Harlan T Wood: wizardry@harlantwood.net
-->
<rect x="0.1586" y="0.2559" width="0.3171" height="0.3171" />
<rect x="0.7928" y="0.2559" width="0.3171" height="0.3171" />
<rect x="0.1586" y="0.8901" width="0.3171" height="0.3171" />
<rect x="0.7928" y="0.8901" width="0.3171" height="0.3171" />
<rect x="0.1586" y="1.5243" width="0.3171" height="0.3171" />
<rect x="0.7928" y="1.5243" width="0.3171" height="0.3171" />
<rect x="0.1586" y="2.1586" width="0.3171" height="0.3171" />
<rect x="0.7928" y="2.1586" width="0.3171" height="0.3171" />
<rect x="0.1586" y="2.7928" width="0.3171" height="0.3171" />
<rect x="0.7928" y="2.7928" width="0.3171" height="0.3171" />
<rect x="0.1586" y="3.427" width="0.3171" height="0.3171" />
<rect x="0.7928" y="3.427" width="0.3171" height="0.3171" />
<rect x="1.427" y="0.2559" width="0.9513" height="0.3171" />
<rect x="1.427" y="0.8901" width="0.3171" height="0.3171" />
<rect x="2.0612" y="0.8901" width="0.3171" height="0.3171" />
<rect x="1.427" y="1.5243" width="0.3171" height="0.3171" />
<rect x="2.0612" y="1.5243" width="0.3171" height="0.3171" />
<rect x="1.427" y="2.1586" width="0.3171" height="0.3171" />
<rect x="2.0612" y="2.1586" width="0.3171" height="0.3171" />
<rect x="1.427" y="2.7928" width="0.3171" height="0.3171" />
<rect x="2.0612" y="2.7928" width="0.3171" height="0.3171" />
<rect x="1.427" y="3.427" width="0.3171" height="0.3171" />
<rect x="2.0612" y="3.427" width="0.3171" height="0.3171" />
<rect x="2.6954" y="0.2559" width="0.3171" height="0.3171" />
<rect x="3.3296" y="0.2559" width="0.3171" height="0.3171" />
<rect x="2.6954" y="0.8901" width="0.9513" height="0.3171" />
<rect x="2.6954" y="1.5243" width="0.3171" height="0.3171" />
<rect x="3.3296" y="1.5243" width="0.3171" height="0.3171" />
<rect x="2.6954" y="2.1586" width="0.3171" height="0.3171" />
<rect x="3.3296" y="2.1586" width="0.3171" height="0.3171" />
<rect x="2.6954" y="2.7928" width="0.3171" height="0.3171" />
<rect x="3.3296" y="2.7928" width="0.3171" height="0.3171" />
<rect x="2.6954" y="3.427" width="0.3171" height="0.3171" />
<rect x="3.3296" y="3.427" width="0.3171" height="0.3171" />
<rect x="3.9638" y="0.2559" width="0.9513" height="0.3171" />
<rect x="3.9638" y="0.8901" width="0.9513" height="0.3171" />
<rect x="3.9638" y="1.5243" width="0.3171" height="0.3171" />
<rect x="4.598" y="1.5243" width="0.3171" height="0.3171" />
<rect x="3.9638" y="2.1586" width="0.3171" height="0.3171" />
<rect x="4.598" y="2.1586" width="0.3171" height="0.3171" />
<rect x="3.9638" y="2.7928" width="0.3171" height="0.3171" />
<rect x="4.598" y="2.7928" width="0.3171" height="0.3171" />
<rect x="3.9638" y="3.427" width="0.3171" height="0.3171" />
<rect x="4.598" y="3.427" width="0.3171" height="0.3171" />
<rect x="5.2322" y="0.2559" width="0.3171" height="0.3171" />
<rect x="5.8664" y="0.2559" width="0.3171" height="0.3171" />
<rect x="5.2322" y="0.8901" width="0.3171" height="0.3171" />
<rect x="5.8664" y="0.8901" width="0.3171" height="0.3171" />
<rect x="5.2322" y="1.5243" width="0.9513" height="0.3171" />
<rect x="5.2322" y="2.1586" width="0.3171" height="0.3171" />
<rect x="5.8664" y="2.1586" width="0.3171" height="0.3171" />
<rect x="5.2322" y="2.7928" width="0.3171" height="0.3171" />
<rect x="5.8664" y="2.7928" width="0.3171" height="0.3171" />
<rect x="5.2322" y="3.427" width="0.3171" height="0.3171" />
<rect x="5.8664" y="3.427" width="0.3171" height="0.3171" />
<rect x="6.5007" y="0.2559" width="0.9513" height="0.3171" />
<rect x="6.5007" y="0.8901" width="0.3171" height="0.3171" />
<rect x="7.1349" y="0.8901" width="0.3171" height="0.3171" />
<rect x="6.5007" y="1.5243" width="0.9513" height="0.3171" />
<rect x="6.5007" y="2.1586" width="0.3171" height="0.3171" />
<rect x="7.1349" y="2.1586" width="0.3171" height="0.3171" />
<rect x="6.5007" y="2.7928" width="0.3171" height="0.3171" />
<rect x="7.1349" y="2.7928" width="0.3171" height="0.3171" />
<rect x="6.5007" y="3.427" width="0.3171" height="0.3171" />
<rect x="7.1349" y="3.427" width="0.3171" height="0.3171" />
<rect x="7.7691" y="0.2559" width="0.3171" height="0.3171" />
<rect x="8.4033" y="0.2559" width="0.3171" height="0.3171" />
<rect x="7.7691" y="0.8901" width="0.9513" height="0.3171" />
<rect x="7.7691" y="1.5243" width="0.9513" height="0.3171" />
<rect x="7.7691" y="2.1586" width="0.3171" height="0.3171" />
<rect x="8.4033" y="2.1586" width="0.3171" height="0.3171" />
<rect x="7.7691" y="2.7928" width="0.3171" height="0.3171" />
<rect x="8.4033" y="2.7928" width="0.3171" height="0.3171" />
<rect x="7.7691" y="3.427" width="0.3171" height="0.3171" />
<rect x="8.4033" y="3.427" width="0.3171" height="0.3171" />
<rect x="9.0375" y="0.2559" width="0.9513" height="0.3171" />
<rect x="9.0375" y="0.8901" width="0.9513" height="0.3171" />
<rect x="9.0375" y="1.5243" width="0.9513" height="0.3171" />
<rect x="9.0375" y="2.1586" width="0.3171" height="0.3171" />
<rect x="9.6717" y="2.1586" width="0.3171" height="0.3171" />
<rect x="9.0375" y="2.7928" width="0.3171" height="0.3171" />
<rect x="9.6717" y="2.7928" width="0.3171" height="0.3171" />
<rect x="9.0375" y="3.427" width="0.3171" height="0.3171" />
<rect x="9.6717" y="3.427" width="0.3171" height="0.3171" />
<rect x="10.3059" y="0.2559" width="0.3171" height="0.3171" />
<rect x="10.9401" y="0.2559" width="0.3171" height="0.3171" />
<rect x="10.3059" y="0.8901" width="0.3171" height="0.3171" />
<rect x="10.9401" y="0.8901" width="0.3171" height="0.3171" />
<rect x="10.3059" y="1.5243" width="0.3171" height="0.3171" />
<rect x="10.9401" y="1.5243" width="0.3171" height="0.3171" />
<rect x="10.3059" y="2.1586" width="0.9513" height="0.3171" />
<rect x="10.3059" y="2.7928" width="0.3171" height="0.3171" />
<rect x="10.9401" y="2.7928" width="0.3171" height="0.3171" />
<rect x="10.3059" y="3.427" width="0.3171" height="0.3171" />
<rect x="10.9401" y="3.427" width="0.3171" height="0.3171" />
<rect x="11.5743" y="0.2559" width="0.9513" height="0.3171" />
<rect x="11.5743" y="0.8901" width="0.3171" height="0.3171" />
<rect x="12.2085" y="0.8901" width="0.3171" height="0.3171" />
<rect x="11.5743" y="1.5243" width="0.3171" height="0.3171" />
<rect x="12.2085" y="1.5243" width="0.3171" height="0.3171" />
<rect x="11.5743" y="2.1586" width="0.9513" height="0.3171" />
<rect x="11.5743" y="2.7928" width="0.3171" height="0.3171" />
<rect x="12.2085" y="2.7928" width="0.3171" height="0.3171" />
<rect x="11.5743" y="3.427" width="0.3171" height="0.3171" />
<rect x="12.2085" y="3.427" width="0.3171" height="0.3171" />
<rect x="12.8428" y="0.2559" width="0.3171" height="0.3171" />
<rect x="13.477" y="0.2559" width="0.3171" height="0.3171" />
<rect x="12.8428" y="0.8901" width="0.9513" height="0.3171" />
<rect x="12.8428" y="1.5243" width="0.3171" height="0.3171" />
<rect x="13.477" y="1.5243" width="0.3171" height="0.3171" />
<rect x="12.8428" y="2.1586" width="0.9513" height="0.3171" />
<rect x="12.8428" y="2.7928" width="0.3171" height="0.3171" />
<rect x="13.477" y="2.7928" width="0.3171" height="0.3171" />
<rect x="12.8428" y="3.427" width="0.3171" height="0.3171" />
<rect x="13.477" y="3.427" width="0.3171" height="0.3171" />
<rect x="14.1112" y="0.2559" width="0.9513" height="0.3171" />
<rect x="14.1112" y="0.8901" width="0.9513" height="0.3171" />
<rect x="14.1112" y="1.5243" width="0.3171" height="0.3171" />
<rect x="14.7454" y="1.5243" width="0.3171" height="0.3171" />
<rect x="14.1112" y="2.1586" width="0.9513" height="0.3171" />
<rect x="14.1112" y="2.7928" width="0.3171" height="0.3171" />
<rect x="14.7454" y="2.7928" width="0.3171" height="0.3171" />
<rect x="14.1112" y="3.427" width="0.3171" height="0.3171" />
<rect x="14.7454" y="3.427" width="0.3171" height="0.3171" />
<rect x="15.3796" y="0.2559" width="0.3171" height="0.3171" />
<rect x="16.0138" y="0.2559" width="0.3171" height="0.3171" />
<rect x="15.3796" y="0.8901" width="0.3171" height="0.3171" />
<rect x="16.0138" y="0.8901" width="0.3171" height="0.3171" />
<rect x="15.3796" y="1.5243" width="0.9513" height="0.3171" />
<rect x="15.3796" y="2.1586" width="0.9513" height="0.3171" />
<rect x="15.3796" y="2.7928" width="0.3171" height="0.3171" />
<rect x="16.0138" y="2.7928" width="0.3171" height="0.3171" />
<rect x="15.3796" y="3.427" width="0.3171" height="0.3171" />
<rect x="16.0138" y="3.427" width="0.3171" height="0.3171" />
<rect x="16.648" y="0.2559" width="0.9513" height="0.3171" />
<rect x="16.648" y="0.8901" width="0.3171" height="0.3171" />
<rect x="17.2822" y="0.8901" width="0.3171" height="0.3171" />
<rect x="16.648" y="1.5243" width="0.9513" height="0.3171" />
<rect x="16.648" y="2.1586" width="0.9513" height="0.3171" />
<rect x="16.648" y="2.7928" width="0.3171" height="0.3171" />
<rect x="17.2822" y="2.7928" width="0.3171" height="0.3171" />
<rect x="16.648" y="3.427" width="0.3171" height="0.3171" />
<rect x="17.2822" y="3.427" width="0.3171" height="0.3171" />
<rect x="17.9164" y="0.2559" width="0.3171" height="0.3171" />
<rect x="18.5506" y="0.2559" width="0.3171" height="0.3171" />
<rect x="17.9164" y="0.8901" width="0.9513" height="0.3171" />
<rect x="17.9164" y="1.5243" width="0.9513" height="0.3171" />
<rect x="17.9164" y="2.1586" width="0.9513" height="0.3171" />
<rect x="17.9164" y="2.7928" width="0.3171" height="0.3171" />
<rect x="18.5506" y="2.7928" width="0.3171" height="0.3171" />
<rect x="17.9164" y="3.427" width="0.3171" height="0.3171" />
<rect x="18.5506" y="3.427" width="0.3171" height="0.3171" />
<rect x="19.1849" y="0.2559" width="0.9513" height="0.3171" />
<rect x="19.1849" y="0.8901" width="0.9513" height="0.3171" />
<rect x="19.1849" y="1.5243" width="0.9513" height="0.3171" />
<rect x="19.1849" y="2.1586" width="0.9513" height="0.3171" />
<rect x="19.1849" y="2.7928" width="0.3171" height="0.3171" />
<rect x="19.8191" y="2.7928" width="0.3171" height="0.3171" />
<rect x="19.1849" y="3.427" width="0.3171" height="0.3171" />
<rect x="19.8191" y="3.427" width="0.3171" height="0.3171" />
<rect x="20.4533" y="0.2559" width="0.3171" height="0.3171" />
<rect x="21.0875" y="0.2559" width="0.3171" height="0.3171" />
<rect x="20.4533" y="0.8901" width="0.3171" height="0.3171" />
<rect x="21.0875" y="0.8901" width="0.3171" height="0.3171" />
<rect x="20.4533" y="1.5243" width="0.3171" height="0.3171" />
<rect x="21.0875" y="1.5243" width="0.3171" height="0.3171" />
<rect x="20.4533" y="2.1586" width="0.3171" height="0.3171" />
<rect x="21.0875" y="2.1586" width="0.3171" height="0.3171" />
<rect x="20.4533" y="2.7928" width="0.9513" height="0.3171" />
<rect x="20.4533" y="3.427" width="0.3171" height="0.3171" />
<rect x="21.0875" y="3.427" width="0.3171" height="0.3171" />
<rect x="21.7217" y="0.2559" width="0.9513" height="0.3171" />
<rect x="21.7217" y="0.8901" width="0.3171" height="0.3171" />
<rect x="22.3559" y="0.8901" width="0.3171" height="0.3171" />
<rect x="21.7217" y="1.5243" width="0.3171" height="0.3171" />
<rect x="22.3559" y="1.5243" width="0.3171" height="0.3171" />
<rect x="21.7217" y="2.1586" width="0.3171" height="0.3171" />
<rect x="22.3559" y="2.1586" width="0.3171" height="0.3171" />
<rect x="21.7217" y="2.7928" width="0.9513" height="0.3171" />
<rect x="21.7217" y="3.427" width="0.3171" height="0.3171" />
<rect x="22.3559" y="3.427" width="0.3171" height="0.3171" />
<rect x="22.9901" y="0.2559" width="0.3171" height="0.3171" />
<rect x="23.6243" y="0.2559" width="0.3171" height="0.3171" />
<rect x="22.9901" y="0.8901" width="0.9513" height="0.3171" />
<rect x="22.9901" y="1.5243" width="0.3171" height="0.3171" />
<rect x="23.6243" y="1.5243" width="0.3171" height="0.3171" />
<rect x="22.9901" y="2.1586" width="0.3171" height="0.3171" />
<rect x="23.6243" y="2.1586" width="0.3171" height="0.3171" />
<rect x="22.9901" y="2.7928" width="0.9513" height="0.3171" />
<rect x="22.9901" y="3.427" width="0.3171" height="0.3171" />
<rect x="23.6243" y="3.427" width="0.3171" height="0.3171" />
<rect x="24.2585" y="0.2559" width="0.9513" height="0.3171" />
<rect x="24.2585" y="0.8901" width="0.9513" height="0.3171" />
<rect x="24.2585" y="1.5243" width="0.3171" height="0.3171" />
<rect x="24.8927" y="1.5243" width="0.3171" height="0.3171" />
<rect x="24.2585" y="2.1586" width="0.3171" height="0.3171" />
<rect x="24.8927" y="2.1586" width="0.3171" height="0.3171" />
<rect x="24.2585" y="2.7928" width="0.9513" height="0.3171" />
<rect x="24.2585" y="3.427" width="0.3171" height="0.3171" />
<rect x="24.8927" y="3.427" width="0.3171" height="0.3171" />
<rect x="25.527" y="0.2559" width="0.3171" height="0.3171" />
<rect x="26.1612" y="0.2559" width="0.3171" height="0.3171" />
<rect x="25.527" y="0.8901" width="0.3171" height="0.3171" />
<rect x="26.1612" y="0.8901" width="0.3171" height="0.3171" />
<rect x="25.527" y="1.5243" width="0.9513" height="0.3171" />
<rect x="25.527" y="2.1586" width="0.3171" height="0.3171" />
<rect x="26.1612" y="2.1586" width="0.3171" height="0.3171" />
<rect x="25.527" y="2.7928" width="0.9513" height="0.3171" />
<rect x="25.527" y="3.427" width="0.3171" height="0.3171" />
<rect x="26.1612" y="3.427" width="0.3171" height="0.3171" />
<rect x="26.7954" y="0.2559" width="0.9513" height="0.3171" />
<rect x="26.7954" y="0.8901" width="0.3171" height="0.3171" />
<rect x="27.4296" y="0.8901" width="0.3171" height="0.3171" />
<rect x="26.7954" y="1.5243" width="0.9513" height="0.3171" />
<rect x="26.7954" y="2.1586" width="0.3171" height="0.3171" />
<rect x="27.4296" y="2.1586" width="0.3171" height="0.3171" />
<rect x="26.7954" y="2.7928" width="0.9513" height="0.3171" />
<rect x="26.7954" y="3.427" width="0.3171" height="0.3171" />
<rect x="27.4296" y="3.427" width="0.3171" height="0.3171" />
<rect x="28.0638" y="0.2559" width="0.3171" height="0.3171" />
<rect x="28.698" y="0.2559" width="0.3171" height="0.3171" />
<rect x="28.0638" y="0.8901" width="0.9513" height="0.3171" />
<rect x="28.0638" y="1.5243" width="0.9513" height="0.3171" />
<rect x="28.0638" y="2.1586" width="0.3171" height="0.3171" />
<rect x="28.698" y="2.1586" width="0.3171" height="0.3171" />
<rect x="28.0638" y="2.7928" width="0.9513" height="0.3171" />
<rect x="28.0638" y="3.427" width="0.3171" height="0.3171" />
<rect x="28.698" y="3.427" width="0.3171" height="0.3171" />
<rect x="29.3322" y="0.2559" width="0.9513" height="0.3171" />
<rect x="29.3322" y="0.8901" width="0.9513" height="0.3171" />
<rect x="29.3322" y="1.5243" width="0.9513" height="0.3171" />
<rect x="29.3322" y="2.1586" width="0.3171" height="0.3171" />
<rect x="29.9664" y="2.1586" width="0.3171" height="0.3171" />
<rect x="29.3322" y="2.7928" width="0.9513" height="0.3171" />
<rect x="29.3322" y="3.427" width="0.3171" height="0.3171" />
<rect x="29.9664" y="3.427" width="0.3171" height="0.3171" />
<rect x="30.6006" y="0.2559" width="0.3171" height="0.3171" />
<rect x="31.2349" y="0.2559" width="0.3171" height="0.3171" />
<rect x="30.6006" y="0.8901" width="0.3171" height="0.3171" />
<rect x="31.2349" y="0.8901" width="0.3171" height="0.3171" />
<rect x="30.6006" y="1.5243" width="0.3171" height="0.3171" />
<rect x="31.2349" y="1.5243" width="0.3171" height="0.3171" />
<rect x="30.6006" y="2.1586" width="0.9513" height="0.3171" />
<rect x="30.6006" y="2.7928" width="0.9513" height="0.3171" />
<rect x="30.6006" y="3.427" width="0.3171" height="0.3171" />
<rect x="31.2349" y="3.427" width="0.3171" height="0.3171" />
<rect x="31.8691" y="0.2559" width="0.9513" height="0.3171" />
<rect x="31.8691" y="0.8901" width="0.3171" height="0.3171" />
<rect x="32.5033" y="0.8901" width="0.3171" height="0.3171" />
<rect x="31.8691" y="1.5243" width="0.3171" height="0.3171" />
<rect x="32.5033" y="1.5243" width="0.3171" height="0.3171" />
<rect x="31.8691" y="2.1586" width="0.9513" height="0.3171" />
<rect x="31.8691" y="2.7928" width="0.9513" height="0.3171" />
<rect x="31.8691" y="3.427" width="0.3171" height="0.3171" />
<rect x="32.5033" y="3.427" width="0.3171" height="0.3171" />
<rect x="33.1375" y="0.2559" width="0.3171" height="0.3171" />
<rect x="33.7717" y="0.2559" width="0.3171" height="0.3171" />
<rect x="33.1375" y="0.8901" width="0.9513" height="0.3171" />
<rect x="33.1375" y="1.5243" width="0.3171" height="0.3171" />
<rect x="33.7717" y="1.5243" width="0.3171" height="0.3171" />
<rect x="33.1375" y="2.1586" width="0.9513" height="0.3171" />
<rect x="33.1375" y="2.7928" width="0.9513" height="0.3171" />
<rect x="33.1375" y="3.427" width="0.3171" height="0.3171" />
<rect x="33.7717" y="3.427" width="0.3171" height="0.3171" />
<rect x="34.4059" y="0.2559" width="0.9513" height="0.3171" />
<rect x="34.4059" y="0.8901" width="0.9513" height="0.3171" />
<rect x="34.4059" y="1.5243" width="0.3171" height="0.3171" />
<rect x="35.0401" y="1.5243" width="0.3171" height="0.3171" />
<rect x="34.4059" y="2.1586" width="0.9513" height="0.3171" />
<rect x="34.4059" y="2.7928" width="0.9513" height="0.3171" />
<rect x="34.4059" y="3.427" width="0.3171" height="0.3171" />
<rect x="35.0401" y="3.427" width="0.3171" height="0.3171" />
<rect x="35.6743" y="0.2559" width="0.3171" height="0.3171" />
<rect x="36.3085" y="0.2559" width="0.3171" height="0.3171" />
<rect x="35.6743" y="0.8901" width="0.3171" height="0.3171" />
<rect x="36.3085" y="0.8901" width="0.3171" height="0.3171" />
<rect x="35.6743" y="1.5243" width="0.9513" height="0.3171" />
<rect x="35.6743" y="2.1586" width="0.9513" height="0.3171" />
<rect x="35.6743" y="2.7928" width="0.9513" height="0.3171" />
<rect x="35.6743" y="3.427" width="0.3171" height="0.3171" />
<rect x="36.3085" y="3.427" width="0.3171" height="0.3171" />
<rect x="36.9427" y="0.2559" width="0.9513" height="0.3171" />
<rect x="36.9427" y="0.8901" width="0.3171" height="0.3171" />
<rect x="37.577" y="0.8901" width="0.3171" height="0.3171" />
<rect x="36.9427" y="1.5243" width="0.9513" height="0.3171" />
<rect x="36.9427" y="2.1586" width="0.9513" height="0.3171" />
<rect x="36.9427" y="2.7928" width="0.9513" height="0.3171" />
<rect x="36.9427" y="3.427" width="0.3171" height="0.3171" />
<rect x="37.577" y="3.427" width="0.3171" height="0.3171" />
<rect x="38.2112" y="0.2559" width="0.3171" height="0.3171" />
<rect x="38.8454" y="0.2559" width="0.3171" height="0.3171" />
<rect x="38.2112" y="0.8901" width="0.9513" height="0.3171" />
<rect x="38.2112" y="1.5243" width="0.9513" height="0.3171" />
<rect x="38.2112" y="2.1586" width="0.9513" height="0.3171" />
<rect x="38.2112" y="2.7928" width="0.9513" height="0.3171" />
<rect x="38.2112" y="3.427" width="0.3171" height="0.3171" />
<rect x="38.8454" y="3.427" width="0.3171" height="0.3171" />
<rect x="39.4796" y="0.2559" width="0.9513" height="0.3171" />
<rect x="39.4796" y="0.8901" width="0.9513" height="0.3171" />
<rect x="39.4796" y="1.5243" width="0.9513" height="0.3171" />
<rect x="39.4796" y="2.1586" width="0.9513" height="0.3171" />
<rect x="39.4796" y="2.7928" width="0.9513" height="0.3171" />
<rect x="39.4796" y="3.427" width="0.3171" height="0.3171" />
<rect x="40.1138" y="3.427" width="0.3171" height="0.3171" />
<rect x="40.748" y="0.2559" width="0.3171" height="0.3171" />
<rect x="41.3822" y="0.2559" width="0.3171" height="0.3171" />
<rect x="40.748" y="0.8901" width="0.3171" height="0.3171" />
<rect x="41.3822" y="0.8901" width="0.3171" height="0.3171" />
<rect x="40.748" y="1.5243" width="0.3171" height="0.3171" />
<rect x="41.3822" y="1.5243" width="0.3171" height="0.3171" />
<rect x="40.748" y="2.1586" width="0.3171" height="0.3171" />
<rect x="41.3822" y="2.1586" width="0.3171" height="0.3171" />
<rect x="40.748" y="2.7928" width="0.3171" height="0.3171" />
<rect x="41.3822" y="2.7928" width="0.3171" height="0.3171" />
<rect x="40.748" y="3.427" width="0.9513" height="0.3171" />
<rect x="42.0164" y="0.2559" width="0.9513" height="0.3171" />
<rect x="42.0164" y="0.8901" width="0.3171" height="0.3171" />
<rect x="42.6506" y="0.8901" width="0.3171" height="0.3171" />
<rect x="42.0164" y="1.5243" width="0.3171" height="0.3171" />
<rect x="42.6506" y="1.5243" width="0.3171" height="0.3171" />
<rect x="42.0164" y="2.1586" width="0.3171" height="0.3171" />
<rect x="42.6506" y="2.1586" width="0.3171" height="0.3171" />
<rect x="42.0164" y="2.7928" width="0.3171" height="0.3171" />
<rect x="42.6506" y="2.7928" width="0.3171" height="0.3171" />
<rect x="42.0164" y="3.427" width="0.9513" height="0.3171" />
<rect x="43.2848" y="0.2559" width="0.3171" height="0.3171" />
<rect x="43.9191" y="0.2559" width="0.3171" height="0.3171" />
<rect x="43.2848" y="0.8901" width="0.9513" height="0.3171" />
<rect x="43.2848" y="1.5243" width="0.3171" height="0.3171" />
<rect x="43.9191" y="1.5243" width="0.3171" height="0.3171" />
<rect x="43.2848" y="2.1586" width="0.3171" height="0.3171" />
<rect x="43.9191" y="2.1586" width="0.3171" height="0.3171" />
<rect x="43.2848" y="2.7928" width="0.3171" height="0.3171" />
<rect x="43.9191" y="2.7928" width="0.3171" height="0.3171" />
<rect x="43.2848" y="3.427" width="0.9513" height="0.3171" />
<rect x="44.5533" y="0.2559" width="0.9513" height="0.3171" />
<rect x="44.5533" y="0.8901" width="0.9513" height="0.3171" />
<rect x="44.5533" y="1.5243" width="0.3171" height="0.3171" />
<rect x="45.1875" y="1.5243" width="0.3171" height="0.3171" />
<rect x="44.5533" y="2.1586" width="0.3171" height="0.3171" />
<rect x="45.1875" y="2.1586" width="0.3171" height="0.3171" />
<rect x="44.5533" y="2.7928" width="0.3171" height="0.3171" />
<rect x="45.1875" y="2.7928" width="0.3171" height="0.3171" />
<rect x="44.5533" y="3.427" width="0.9513" height="0.3171" />
<rect x="45.8217" y="0.2559" width="0.3171" height="0.3171" />
<rect x="46.4559" y="0.2559" width="0.3171" height="0.3171" />
<rect x="45.8217" y="0.8901" width="0.3171" height="0.3171" />
<rect x="46.4559" y="0.8901" width="0.3171" height="0.3171" />
<rect x="45.8217" y="1.5243" width="0.9513" height="0.3171" />
<rect x="45.8217" y="2.1586" width="0.3171" height="0.3171" />
<rect x="46.4559" y="2.1586" width="0.3171" height="0.3171" />
<rect x="45.8217" y="2.7928" width="0.3171" height="0.3171" />
<rect x="46.4559" y="2.7928" width="0.3171" height="0.3171" />
<rect x="45.8217" y="3.427" width="0.9513" height="0.3171" />
<rect x="47.0901" y="0.2559" width="0.9513" height="0.3171" />
<rect x="47.0901" y="0.8901" width="0.3171" height="0.3171" />
<rect x="47.7243" y="0.8901" width="0.3171" height="0.3171" />
<rect x="47.0901" y="1.5243" width="0.9513" height="0.3171" />
<rect x="47.0901" y="2.1586" width="0.3171" height="0.3171" />
<rect x="47.7243" y="2.1586" width="0.3171" height="0.3171" />
<rect x="47.0901" y="2.7928" width="0.3171" height="0.3171" />
<rect x="47.7243" y="2.7928" width="0.3171" height="0.3171" />
<rect x="47.0901" y="3.427" width="0.9513" height="0.3171" />
<rect x="48.3585" y="0.2559" width="0.3171" height="0.3171" />
<rect x="48.9927" y="0.2559" width="0.3171" height="0.3171" />
<rect x="48.3585" y="0.8901" width="0.9513" height="0.3171" />
<rect x="48.3585" y="1.5243" width="0.9513" height="0.3171" />
<rect x="48.3585" y="2.1586" width="0.3171" height="0.3171" />
<rect x="48.9927" y="2.1586" width="0.3171" height="0.3171" />
<rect x="48.3585" y="2.7928" width="0.3171" height="0.3171" />
<rect x="48.9927" y="2.7928" width="0.3171" height="0.3171" />
<rect x="48.3585" y="3.427" width="0.9513" height="0.3171" />
<rect x="49.6269" y="0.2559" width="0.9513" height="0.3171" />
<rect x="49.6269" y="0.8901" width="0.9513" height="0.3171" />
<rect x="49.6269" y="1.5243" width="0.9513" height="0.3171" />
<rect x="49.6269" y="2.1586" width="0.3171" height="0.3171" />
<rect x="50.2612" y="2.1586" width="0.3171" height="0.3171" />
<rect x="49.6269" y="2.7928" width="0.3171" height="0.3171" />
<rect x="50.2612" y="2.7928" width="0.3171" height="0.3171" />
<rect x="49.6269" y="3.427" width="0.9513" height="0.3171" />
<rect x="50.8954" y="0.2559" width="0.3171" height="0.3171" />
<rect x="51.5296" y="0.2559" width="0.3171" height="0.3171" />
<rect x="50.8954" y="0.8901" width="0.3171" height="0.3171" />
<rect x="51.5296" y="0.8901" width="0.3171" height="0.3171" />
<rect x="50.8954" y="1.5243" width="0.3171" height="0.3171" />
<rect x="51.5296" y="1.5243" width="0.3171" height="0.3171" />
<rect x="50.8954" y="2.1586" width="0.9513" height="0.3171" />
<rect x="50.8954" y="2.7928" width="0.3171" height="0.3171" />
<rect x="51.5296" y="2.7928" width="0.3171" height="0.3171" />
<rect x="50.8954" y="3.427" width="0.9513" height="0.3171" />
<rect x="52.1638" y="0.2559" width="0.9513" height="0.3171" />
<rect x="52.1638" y="0.8901" width="0.3171" height="0.3171" />
<rect x="52.798" y="0.8901" width="0.3171" height="0.3171" />
<rect x="52.1638" y="1.5243" width="0.3171" height="0.3171" />
<rect x="52.798" y="1.5243" width="0.3171" height="0.3171" />
<rect x="52.1638" y="2.1586" width="0.9513" height="0.3171" />
<rect x="52.1638" y="2.7928" width="0.3171" height="0.3171" />
<rect x="52.798" y="2.7928" width="0.3171" height="0.3171" />
<rect x="52.1638" y="3.427" width="0.9513" height="0.3171" />
<rect x="53.4322" y="0.2559" width="0.3171" height="0.3171" />
<rect x="54.0664" y="0.2559" width="0.3171" height="0.3171" />
<rect x="53.4322" y="0.8901" width="0.9513" height="0.3171" />
<rect x="53.4322" y="1.5243" width="0.3171" height="0.3171" />
<rect x="54.0664" y="1.5243" width="0.3171" height="0.3171" />
<rect x="53.4322" y="2.1586" width="0.9513" height="0.3171" />
<rect x="53.4322" y="2.7928" width="0.3171" height="0.3171" />
<rect x="54.0664" y="2.7928" width="0.3171" height="0.3171" />
<rect x="53.4322" y="3.427" width="0.9513" height="0.3171" />
<rect x="54.7006" y="0.2559" width="0.9513" height="0.3171" />
<rect x="54.7006" y="0.8901" width="0.9513" height="0.3171" />
<rect x="54.7006" y="1.5243" width="0.3171" height="0.3171" />
<rect x="55.3348" y="1.5243" width="0.3171" height="0.3171" />
<rect x="54.7006" y="2.1586" width="0.9513" height="0.3171" />
<rect x="54.7006" y="2.7928" width="0.3171" height="0.3171" />
<rect x="55.3348" y="2.7928" width="0.3171" height="0.3171" />
<rect x="54.7006" y="3.427" width="0.9513" height="0.3171" />
<rect x="55.969" y="0.2559" width="0.3171" height="0.3171" />
<rect x="56.6033" y="0.2559" width="0.3171" height="0.3171" />
<rect x="55.969" y="0.8901" width="0.3171" height="0.3171" />
<rect x="56.6033" y="0.8901" width="0.3171" height="0.3171" />
<rect x="55.969" y="1.5243" width="0.9513" height="0.3171" />
<rect x="55.969" y="2.1586" width="0.9513" height="0.3171" />
<rect x="55.969" y="2.7928" width="0.3171" height="0.3171" />
<rect x="56.6033" y="2.7928" width="0.3171" height="0.3171" />
<rect x="55.969" y="3.427" width="0.9513" height="0.3171" />
<rect x="57.2375" y="0.2559" width="0.9513" height="0.3171" />
<rect x="57.2375" y="0.8901" width="0.3171" height="0.3171" />
<rect x="57.8717" y="0.8901" width="0.3171" height="0.3171" />
<rect x="57.2375" y="1.5243" width="0.9513" height="0.3171" />
<rect x="57.2375" y="2.1586" width="0.9513" height="0.3171" />
<rect x="57.2375" y="2.7928" width="0.3171" height="0.3171" />
<rect x="57.8717" y="2.7928" width="0.3171" height="0.3171" />
<rect x="57.2375" y="3.427" width="0.9513" height="0.3171" />
<rect x="58.5059" y="0.2559" width="0.3171" height="0.3171" />
<rect x="59.1401" y="0.2559" width="0.3171" height="0.3171" />
<rect x="58.5059" y="0.8901" width="0.9513" height="0.3171" />
<rect x="58.5059" y="1.5243" width="0.9513" height="0.3171" />
<rect x="58.5059" y="2.1586" width="0.9513" height="0.3171" />
<rect x="58.5059" y="2.7928" width="0.3171" height="0.3171" />
<rect x="59.1401" y="2.7928" width="0.3171" height="0.3171" />
<rect x="58.5059" y="3.427" width="0.9513" height="0.3171" />
<rect x="59.7743" y="0.2559" width="0.9513" height="0.3171" />
<rect x="59.7743" y="0.8901" width="0.9513" height="0.3171" />
<rect x="59.7743" y="1.5243" width="0.9513" height="0.3171" />
<rect x="59.7743" y="2.1586" width="0.9513" height="0.3171" />
<rect x="59.7743" y="2.7928" width="0.3171" height="0.3171" />
<rect x="60.4085" y="2.7928" width="0.3171" height="0.3171" />
<rect x="59.7743" y="3.427" width="0.9513" height="0.3171" />
<rect x="61.0427" y="0.2559" width="0.3171" height="0.3171" />
<rect x="61.6769" y="0.2559" width="0.3171" height="0.3171" />
<rect x="61.0427" y="0.8901" width="0.3171" height="0.3171" />
<rect x="61.6769" y="0.8901" width="0.3171" height="0.3171" />
<rect x="61.0427" y="1.5243" width="0.3171" height="0.3171" />
<rect x="61.6769" y="1.5243" width="0.3171" height="0.3171" />
<rect x="61.0427" y="2.1586" width="0.3171" height="0.3171" />
<rect x="61.6769" y="2.1586" width="0.3171" height="0.3171" />
<rect x="61.0427" y="2.7928" width="0.9513" height="0.3171" />
<rect x="61.0427" y="3.427" width="0.9513" height="0.3171" />
<rect x="62.3111" y="0.2559" width="0.9513" height="0.3171" />
<rect x="62.3111" y="0.8901" width="0.3171" height="0.3171" />
<rect x="62.9454" y="0.8901" width="0.3171" height="0.3171" />
<rect x="62.3111" y="1.5243" width="0.3171" height="0.3171" />
<rect x="62.9454" y="1.5243" width="0.3171" height="0.3171" />
<rect x="62.3111" y="2.1586" width="0.3171" height="0.3171" />
<rect x="62.9454" y="2.1586" width="0.3171" height="0.3171" />
<rect x="62.3111" y="2.7928" width="0.9513" height="0.3171" />
<rect x="62.3111" y="3.427" width="0.9513" height="0.3171" />
<rect x="63.5796" y="0.2559" width="0.3171" height="0.3171" />
<rect x="64.2138" y="0.2559" width="0.3171" height="0.3171" />
<rect x="63.5796" y="0.8901" width="0.9513" height="0.3171" />
<rect x="63.5796" y="1.5243" width="0.3171" height="0.3171" />
<rect x="64.2138" y="1.5243" width="0.3171" height="0.3171" />
<rect x="63.5796" y="2.1586" width="0.3171" height="0.3171" />
<rect x="64.2138" y="2.1586" width="0.3171" height="0.3171" />
<rect x="63.5796" y="2.7928" width="0.9513" height="0.3171" />
<rect x="63.5796" y="3.427" width="0.9513" height="0.3171" />
<rect x="64.848" y="0.2559" width="0.9513" height="0.3171" />
<rect x="64.848" y="0.8901" width="0.9513" height="0.3171" />
<rect x="64.848" y="1.5243" width="0.3171" height="0.3171" />
<rect x="65.4822" y="1.5243" width="0.3171" height="0.3171" />
<rect x="64.848" y="2.1586" width="0.3171" height="0.3171" />
<rect x="65.4822" y="2.1586" width="0.3171" height="0.3171" />
<rect x="64.848" y="2.7928" width="0.9513" height="0.3171" />
<rect x="64.848" y="3.427" width="0.9513" height="0.3171" />
<rect x="66.1164" y="0.2559" width="0.3171" height="0.3171" />
<rect x="66.7506" y="0.2559" width="0.3171" height="0.3171" />
<rect x="66.1164" y="0.8901" width="0.3171" height="0.3171" />
<rect x="66.7506" y="0.8901" width="0.3171" height="0.3171" />
<rect x="66.1164" y="1.5243" width="0.9513" height="0.3171" />
<rect x="66.1164" y="2.1586" width="0.3171" height="0.3171" />
<rect x="66.7506" y="2.1586" width="0.3171" height="0.3171" />
<rect x="66.1164" y="2.7928" width="0.9513" height="0.3171" />
<rect x="66.1164" y="3.427" width="0.9513" height="0.3171" />
<rect x="67.3848" y="0.2559" width="0.9513" height="0.3171" />
<rect x="67.3848" y="0.8901" width="0.3171" height="0.3171" />
<rect x="68.019" y="0.8901" width="0.3171" height="0.3171" />
<rect x="67.3848" y="1.5243" width="0.9513" height="0.3171" />
<rect x="67.3848" y="2.1586" width="0.3171" height="0.3171" />
<rect x="68.019" y="2.1586" width="0.3171" height="0.3171" />
<rect x="67.3848" y="2.7928" width="0.9513" height="0.3171" />
<rect x="67.3848" y="3.427" width="0.9513" height="0.3171" />
<rect x="68.6532" y="0.2559" width="0.3171" height="0.3171" />
<rect x="69.2875" y="0.2559" width="0.3171" height="0.3171" />
<rect x="68.6532" y="0.8901" width="0.9513" height="0.3171" />
<rect x="68.6532" y="1.5243" width="0.9513" height="0.3171" />
<rect x="68.6532" y="2.1586" width="0.3171" height="0.3171" />
<rect x="69.2875" y="2.1586" width="0.3171" height="0.3171" />
<rect x="68.6532" y="2.7928" width="0.9513" height="0.3171" />
<rect x="68.6532" y="3.427" width="0.9513" height="0.3171" />
<rect x="69.9217" y="0.2559" width="0.9513" height="0.3171" />
<rect x="69.9217" y="0.8901" width="0.9513" height="0.3171" />
<rect x="69.9217" y="1.5243" width="0.9513" height="0.3171" />
<rect x="69.9217" y="2.1586" width="0.3171" height="0.3171" />
<rect x="70.5559" y="2.1586" width="0.3171" height="0.3171" />
<rect x="69.9217" y="2.7928" width="0.9513" height="0.3171" />
<rect x="69.9217" y="3.427" width="0.9513" height="0.3171" />
<rect x="71.1901" y="0.2559" width="0.3171" height="0.3171" />
<rect x="71.8243" y="0.2559" width="0.3171" height="0.3171" />
<rect x="71.1901" y="0.8901" width="0.3171" height="0.3171" />
<rect x="71.8243" y="0.8901" width="0.3171" height="0.3171" />
<rect x="71.1901" y="1.5243" width="0.3171" height="0.3171" />
<rect x="71.8243" y="1.5243" width="0.3171" height="0.3171" />
<rect x="71.1901" y="2.1586" width="0.9513" height="0.3171" />
<rect x="71.1901" y="2.7928" width="0.9513" height="0.3171" />
<rect x="71.1901" y="3.427" width="0.9513" height="0.3171" />
<rect x="72.4585" y="0.2559" width="0.9513" height="0.3171" />
<rect x="72.4585" y="0.8901" width="0.3171" height="0.3171" />
<rect x="73.0927" y="0.8901" width="0.3171" height="0.3171" />
<rect x="72.4585" y="1.5243" width="0.3171" height="0.3171" />
<rect x="73.0927" y="1.5243" width="0.3171" height="0.3171" />
<rect x="72.4585" y="2.1586" width="0.9513" height="0.3171" />
<rect x="72.4585" y="2.7928" width="0.9513" height="0.3171" />
<rect x="72.4585" y="3.427" width="0.9513" height="0.3171" />
<rect x="73.7269" y="0.2559" width="0.3171" height="0.3171" />
<rect x="74.3611" y="0.2559" width="0.3171" height="0.3171" />
<rect x="73.7269" y="0.8901" width="0.9513" height="0.3171" />
<rect x="73.7269" y="1.5243" width="0.3171" height="0.3171" />
<rect x="74.3611" y="1.5243" width="0.3171" height="0.3171" />
<rect x="73.7269" y="2.1586" width="0.9513" height="0.3171" />
<rect x="73.7269" y="2.7928" width="0.9513" height="0.3171" />
<rect x="73.7269" y="3.427" width="0.9513" height="0.3171" />
<rect x="74.9954" y="0.2559" width="0.9513" height="0.3171" />
<rect x="74.9954" y="0.8901" width="0.9513" height="0.3171" />
<rect x="74.9954" y="1.5243" width="0.3171" height="0.3171" />
<rect x="75.6296" y="1.5243" width="0.3171" height="0.3171" />
<rect x="74.9954" y="2.1586" width="0.9513" height="0.3171" />
<rect x="74.9954" y="2.7928" width="0.9513" height="0.3171" />
<rect x="74.9954" y="3.427" width="0.9513" height="0.3171" />
<rect x="76.2638" y="0.2559" width="0.3171" height="0.3171" />
<rect x="76.898" y="0.2559" width="0.3171" height="0.3171" />
<rect x="76.2638" y="0.8901" width="0.3171" height="0.3171" />
<rect x="76.898" y="0.8901" width="0.3171" height="0.3171" />
<rect x="76.2638" y="1.5243" width="0.9513" height="0.3171" />
<rect x="76.2638" y="2.1586" width="0.9513" height="0.3171" />
<rect x="76.2638" y="2.7928" width="0.9513" height="0.3171" />
<rect x="76.2638" y="3.427" width="0.9513" height="0.3171" />
<rect x="77.5322" y="0.2559" width="0.9513" height="0.3171" />
<rect x="77.5322" y="0.8901" width="0.3171" height="0.3171" />
<rect x="78.1664" y="0.8901" width="0.3171" height="0.3171" />
<rect x="77.5322" y="1.5243" width="0.9513" height="0.3171" />
<rect x="77.5322" y="2.1586" width="0.9513" height="0.3171" />
<rect x="77.5322" y="2.7928" width="0.9513" height="0.3171" />
<rect x="77.5322" y="3.427" width="0.9513" height="0.3171" />
<rect x="78.8006" y="0.2559" width="0.3171" height="0.3171" />
<rect x="79.4348" y="0.2559" width="0.3171" height="0.3171" />
<rect x="78.8006" y="0.8901" width="0.9513" height="0.3171" />
<rect x="78.8006" y="1.5243" width="0.9513" height="0.3171" />
<rect x="78.8006" y="2.1586" width="0.9513" height="0.3171" />
<rect x="78.8006" y="2.7928" width="0.9513" height="0.3171" />
<rect x="78.8006" y="3.427" width="0.9513" height="0.3171" />
<rect x="80.069" y="0.2559" width="0.9513" height="0.3171" />
<rect x="80.069" y="0.8901" width="0.9513" height="0.3171" />
<rect x="80.069" y="1.5243" width="0.9513" height="0.3171" />
<rect x="80.069" y="2.1586" width="0.9513" height="0.3171" />
<rect x="80.069" y="2.7928" width="0.9513" height="0.3171" />
<rect x="80.069" y="3.427" width="0.9513" height="0.3171" />
</svg>