<svg version="1.1" baseProfile="full" width="6400" height="800" xmlns="http://www.w3.org/2000/svg">
<rect x="0" y="10" width="35" height="8.888888799999998" fill="black" />
<rect x="45" y="10" width="35" height="8.888888799999998" fill="black" />
<rect x="0" y="24.814814666666663" width="35" height="8.888888799999998" fill="black" />
<rect x="45" y="24.814814666666663" width="35" height="8.888888799999998" fill="black" />
<rect x="0" y="39.62962933333333" width="35" height="8.888888799999998" fill="black" />
<rect x="45" y="39.62962933333333" width="35" height="8.888888799999998" fill="black" />
<rect x="0" y="54.444444" width="35" height="8.888888799999998" fill="black" />
<rect x="45" y="54.444444" width="35" height="8.888888799999998" fill="black" />
<rect x="0" y="69.25925866666665" width="35" height="8.888888799999998" fill="black" />
<rect x="45" y="69.25925866666665" width="35" height="8.888888799999998" fill="black" />
<rect x="0" y="84.07407333333333" width="35" height="8.888888799999998" fill="black" />
<rect x="45" y="84.07407333333333" width="35" height="8.888888799999998" fill="black" />
<rect x="97.7777776" y="10" width="80" height="8.888888799999998" fill="black" />
<rect x="97.7777776" y="24.814814666666663" width="35" height="8.888888799999998" fill="black" />
<rect x="142.77777759999998" y="24.814814666666663" width="35" height="8.888888799999998" fill="black" />
<rect x="97.7777776" y="39.62962933333333" width="35" height="8.888888799999998" fill="black" />
<rect x="142.77777759999998" y="39.62962933333333" width="35" height="8.888888799999998" fill="black" />
<rect x="97.7777776" y="54.444444" width="35" height="8.888888799999998" fill="black" />
<rect x="142.77777759999998" y="54.444444" width="35" height="8.888888799999998" fill="black" />
<rect x="97.7777776" y="69.25925866666665" width="35" height="8.888888799999998" fill="black" />
<rect x="142.77777759999998" y="69.25925866666665" width="35" height="8.888888799999998" fill="black" />
<rect x="97.7777776" y="84.07407333333333" width="35" height="8.888888799999998" fill="black" />
<rect x="142.77777759999998" y="84.07407333333333" width="35" height="8.888888799999998" fill="black" />
<rect x="195.5555552" y="10" width="35" height="8.888888799999998" fill="black" />
<rect x="240.5555552" y="10" width="35" height="8.888888799999998" fill="black" />
<rect x="195.5555552" y="24.814814666666663" width="80" height="8.888888799999998" fill="black" />
<rect x="195.5555552" y="39.62962933333333" width="35" height="8.888888799999998" fill="black" />
<rect x="240.5555552" y="39.62962933333333" width="35" height="8.888888799999998" fill="black" />
<rect x="195.5555552" y="54.444444" width="35" height="8.888888799999998" fill="black" />
<rect x="240.5555552" y="54.444444" width="35" height="8.888888799999998" fill="black" />
<rect x="195.5555552" y="69.25925866666665" width="35" height="8.888888799999998" fill="black" />
<rect x="240.5555552" y="69.25925866666665" width="35" height="8.888888799999998" fill="black" />
<rect x="195.5555552" y="84.07407333333333" width="35" height="8.888888799999998" fill="black" />
<rect x="240.5555552" y="84.07407333333333" width="35" height="8.888888799999998" fill="black" />
<rect x="293.3333328" y="10" width="80" height="8.888888799999998" fill="black" />
<rect x="293.3333328" y="24.814814666666663" width="80" height="8.888888799999998" fill="black" />
<rect x="293.3333328" y="39.62962933333333" width="35" height="8.888888799999998" fill="black" />
<rect x="338.3333328" y="39.62962933333333" width="35" height="8.888888799999998" fill="black" />
<rect x="293.3333328" y="54.444444" width="35" height="8.888888799999998" fill="black" />
<rect x="338.3333328" y="54.444444" width="35" height="8.888888799999998" fill="black" />
<rect x="293.3333328" y="69.25925866666665" width="35" height="8.888888799999998" fill="black" />
<rect x="338.3333328" y="69.25925866666665" width="35" height="8.888888799999998" fill="black" />
<rect x="293.3333328" y="84.07407333333333" width="35" height="8.888888799999998" fill="black" />
<rect x="338.3333328" y="84.07407333333333" width="35" height="8.888888799999998" fill="black" />
<rect x="391.1111104" y="10" width="35" height="8.888888799999998" fill="black" />
<rect x="436.1111104" y="10" width="35" height="8.888888799999998" fill="black" />
<rect x="391.1111104" y="24.814814666666663" width="35" height="8.888888799999998" fill="black" />
<rect x="436.1111104" y="24.814814666666663" width="35" height="8.888888799999998" fill="black" />
<rect x="391.1111104" y="39.62962933333333" width="80" height="8.888888799999998" fill="black" />
<rect x="391.1111104" y="54.444444" width="35" height="8.888888799999998" fill="black" />
<rect x="436.1111104" y="54.444444" width="35" height="8.888888799999998" fill="black" />
<rect x="391.1111104" y="69.25925866666665" width="35" height="8.888888799999998" fill="black" />
<rect x="436.1111104" y="69.25925866666665" width="35" height="8.888888799999998" fill="black" />
<rect x="391.1111104" y="84.07407333333333" width="35" height="8.888888799999998" fill="black" />
<rect x="436.1111104" y="84.07407333333333" width="35" height="8.888888799999998" fill="black" />
<rect x="488.88888799999995" y="10" width="80" height="8.888888799999998" fill="black" />
<rect x="488.88888799999995" y="24.814814666666663" width="35" height="8.888888799999998" fill="black" />
<rect x="533.888888" y="24.814814666666663" width="35" height="8.888888799999998" fill="black" />
<rect x="488.88888799999995" y="39.62962933333333" width="80" height="8.888888799999998" fill="black" />
<rect x="488.88888799999995" y="54.444444" width="35" height="8.888888799999998" fill="black" />
<rect x="533.888888" y="54.444444" width="35" height="8.888888799999998" fill="black" />
<rect x="488.88888799999995" y="69.25925866666665" width="35" height="8.888888799999998" fill="black" />
<rect x="533.888888" y="69.25925866666665" width="35" height="8.888888799999998" fill="black" />
<rect x="488.88888799999995" y="84.07407333333333" width="35" height="8.888888799999998" fill="black" />
<rect x="533.888888" y="84.07407333333333" width="35" height="8.888888799999998" fill="black" />
<rect x="586.6666656" y="10" width="35" height="8.888888799999998" fill="black" />
<rect x="631.6666656" y="10" width="35" height="8.888888799999998" fill="black" />
<rect x="586.6666656" y="24.814814666666663" width="80" height="8.888888799999998" fill="black" />
<rect x="586.6666656" y="39.62962933333333" width="80" height="8.888888799999998" fill="black" />
<rect x="586.6666656" y="54.444444" width="35" height="8.888888799999998" fill="black" />
<rect x="631.6666656" y="54.444444" width="35" height="8.888888799999998" fill="black" />
<rect x="586.6666656" y="69.25925866666665" width="35" height="8.888888799999998" fill="black" />
<rect x="631.6666656" y="69.25925866666665" width="35" height="8.888888799999998" fill="black" />
<rect x="586.6666656" y="84.07407333333333" width="35" height="8.888888799999998" fill="black" />
<rect x="631.6666656" y="84.07407333333333" width="35" height="8.888888799999998" fill="black" />
<rect x="684.4444431999999" y="10" width="80" height="8.888888799999998" fill="black" />
<rect x="684.4444431999999" y="24.814814666666663" width="80" height="8.888888799999998" fill="black" />
<rect x="684.4444431999999" y="39.62962933333333" width="80" height="8.888888799999998" fill="black" />
<rect x="684.4444431999999" y="54.444444" width="35" height="8.888888799999998" fill="black" />
<rect x="729.4444431999999" y="54.444444" width="35" height="8.888888799999998" fill="black" />
<rect x="684.4444431999999" y="69.25925866666665" width="35" height="8.888888799999998" fill="black" />
<rect x="729.4444431999999" y="69.25925866666665" width="35" height="8.888888799999998" fill="black" />
<rect x="684.4444431999999" y="84.07407333333333" width="35" height="8.888888799999998" fill="black" />
<rect x="729.4444431999999" y="84.07407333333333" width="35" height="8.888888799999998" fill="black" />
<rect x="782.2222208" y="10" width="35" height="8.888888799999998" fill="black" />
<rect x="827.2222208" y="10" width="35" height="8.888888799999998" fill="black" />
<rect x="782.2222208" y="24.814814666666663" width="35" height="8.888888799999998" fill="black" />
<rect x="827.2222208" y="24.814814666666663" width="35" height="8.888888799999998" fill="black" />
<rect x="782.2222208" y="39.62962933333333" width="35" height="8.888888799999998" fill="black" />
<rect x="827.2222208" y="39.62962933333333" width="35" height="8.888888799999998" fill="black" />
<rect x="782.2222208" y="54.444444" width="80" height="8.888888799999998" fill="black" />
<rect x="782.2222208" y="69.25925866666665" width="35" height="8.888888799999998" fill="black" />
<rect x="827.2222208" y="69.25925866666665" width="35" height="8.888888799999998" fill="black" />
<rect x="782.2222208" y="84.07407333333333" width="35" height="8.888888799999998" fill="black" />
<rect x="827.2222208" y="84.07407333333333" width="35" height="8.888888799999998" fill="black" />
<rect x="879.9999984" y="10" width="80" height="8.888888799999998" fill="black" />
<rect x="879.9999984" y="24.814814666666663" width="35" height="8.888888799999998" fill="black" />
<rect x="924.9999984" y="24.814814666666663" width="35" height="8.888888799999998" fill="black" />
<rect x="879.9999984" y="39.62962933333333" width="35" height="8.888888799999998" fill="black" />
<rect x="924.9999984" y="39.62962933333333" width="35" height="8.888888799999998" fill="black" />
<rect x="879.9999984" y="54.444444" width="80" height="8.888888799999998" fill="black" />
<rect x="879.9999984" y="69.25925866666665" width="35" height="8.888888799999998" fill="black" />
<rect x="924.9999984" y="69.25925866666665" width="35" height="8.888888799999998" fill="black" />
<rect x="879.9999984" y="84.07407333333333" width="35" height="8.888888799999998" fill="black" />
<rect x="924.9999984" y="84.07407333333333" width="35" height="8.888888799999998" fill="black" />
<rect x="977.7777759999999" y="10" width="35" height="8.888888799999998" fill="black" />
<rect x="1022.7777759999999" y="10" width="35" height="8.888888799999998" fill="black" />
<rect x="977.7777759999999" y="24.814814666666663" width="80" height="8.888888799999998" fill="black" />
<rect x="977.7777759999999" y="39.62962933333333" width="35" height="8.888888799999998" fill="black" />
<rect x="1022.7777759999999" y="39.62962933333333" width="35" height="8.888888799999998" fill="black" />
<rect x="977.7777759999999" y="54.444444" width="80" height="8.888888799999998" fill="black" />
<rect x="977.7777759999999" y="69.25925866666665" width="35" height="8.888888799999998" fill="black" />
<rect x="1022.7777759999999" y="69.25925866666665" width="35" height="8.888888799999998" fill="black" />
<rect x="977.7777759999999" y="84.07407333333333" width="35" height="8.888888799999998" fill="black" />
<rect x="1022.7777759999999" y="84.07407333333333" width="35" height="8.888888799999998" fill="black" />
<rect x="1075.5555536" y="10" width="80" height="8.888888799999998" fill="black" />
<rect x="1075.5555536" y="24.814814666666663" width="80" height="8.888888799999998" fill="black" />
<rect x="1075.5555536" y="39.62962933333333" width="35" height="8.888888799999998" fill="black" />
<rect x="1120.5555536" y="39.62962933333333" width="35" height="8.888888799999998" fill="black" />
<rect x="1075.5555536" y="54.444444" width="80" height="8.888888799999998" fill="black" />
<rect x="1075.5555536" y="69.25925866666665" width="35" height="8.888888799999998" fill="black" />
<rect x="1120.5555536" y="69.25925866666665" width="35" height="8.888888799999998" fill="black" />
<rect x="1075.5555536" y="84.07407333333333" width="35" height="8.888888799999998" fill="black" />
<rect x="1120.5555536" y="84.07407333333333" width="35" height="8.888888799999998" fill="black" />
<rect x="1173.3333312" y="10" width="35" height="8.888888799999998" fill="black" />
<rect x="1218.3333312" y="10" width="35" height="8.888888799999998" fill="black" />
<rect x="1173.3333312" y="24.814814666666663" width="35" height="8.888888799999998" fill="black" />
<rect x="1218.3333312" y="24.814814666666663" width="35" height="8.888888799999998" fill="black" />
<rect x="1173.3333312" y="39.62962933333333" width="80" height="8.888888799999998" fill="black" />
<rect x="1173.3333312" y="54.444444" width="80" height="8.888888799999998" fill="black" />
<rect x="1173.3333312" y="69.25925866666665" width="35" height="8.888888799999998" fill="black" />
<rect x="1218.3333312" y="69.25925866666665" width="35" height="8.888888799999998" fill="black" />
<rect x="1173.3333312" y="84.07407333333333" width="35" height="8.888888799999998" fill="black" />
<rect x="1218.3333312" y="84.07407333333333" width="35" height="8.888888799999998" fill="black" />
<rect x="1271.1111088" y="10" width="80" height="8.888888799999998" fill="black" />
<rect x="1271.1111088" y="24.814814666666663" width="35" height="8.888888799999998" fill="black" />
<rect x="1316.1111088" y="24.814814666666663" width="35" height="8.888888799999998" fill="black" />
<rect x="1271.1111088" y="39.62962933333333" width="80" height="8.888888799999998" fill="black" />
<rect x="1271.1111088" y="54.444444" width="80" height="8.888888799999998" fill="black" />
<rect x="1271.1111088" y="69.25925866666665" width="35" height="8.888888799999998" fill="black" />
<rect x="1316.1111088" y="69.25925866666665" width="35" height="8.888888799999998" fill="black" />
<rect x="1271.1111088" y="84.07407333333333" width="35" height="8.888888799999998" fill="black" />
<rect x="1316.1111088" y="84.07407333333333" width="35" height="8.888888799999998" fill="black" />
<rect x="1368.8888863999998" y="10" width="35" height="8.888888799999998" fill="black" />
<rect x="1413.8888863999998" y="10" width="35" height="8.888888799999998" fill="black" />
<rect x="1368.8888863999998" y="24.814814666666663" width="80" height="8.888888799999998" fill="black" />
<rect x="1368.8888863999998" y="39.62962933333333" width="80" height="8.888888799999998" fill="black" />
<rect x="1368.8888863999998" y="54.444444" width="80" height="8.888888799999998" fill="black" />
<rect x="1368.8888863999998" y="69.25925866666665" width="35" height="8.888888799999998" fill="black" />
<rect x="1413.8888863999998" y="69.25925866666665" width="35" height="8.888888799999998" fill="black" />
<rect x="1368.8888863999998" y="84.07407333333333" width="35" height="8.888888799999998" fill="black" />
<rect x="1413.8888863999998" y="84.07407333333333" width="35" height="8.888888799999998" fill="black" />
<rect x="1466.6666639999999" y="10" width="80" height="8.888888799999998" fill="black" />
<rect x="1466.6666639999999" y="24.814814666666663" width="80" height="8.888888799999998" fill="black" />
<rect x="1466.6666639999999" y="39.62962933333333" width="80" height="8.888888799999998" fill="black" />
<rect x="1466.6666639999999" y="54.444444" width="80" height="8.888888799999998" fill="black" />
<rect x="1466.6666639999999" y="69.25925866666665" width="35" height="8.888888799999998" fill="black" />
<rect x="1511.6666639999999" y="69.25925866666665" width="35" height="8.888888799999998" fill="black" />
<rect x="1466.6666639999999" y="84.07407333333333" width="35" height="8.888888799999998" fill="black" />
<rect x="1511.6666639999999" y="84.07407333333333" width="35" height="8.888888799999998" fill="black" />
<rect x="1564.4444416" y="10" width="35" height="8.888888799999998" fill="black" />
<rect x="1609.4444416" y="10" width="35" height="8.888888799999998" fill="black" />
<rect x="1564.4444416" y="24.814814666666663" width="35" height="8.888888799999998" fill="black" />
<rect x="1609.4444416" y="24.814814666666663" width="35" height="8.888888799999998" fill="black" />
<rect x="1564.4444416" y="39.62962933333333" width="35" height="8.888888799999998" fill="black" />
<rect x="1609.4444416" y="39.62962933333333" width="35" height="8.888888799999998" fill="black" />
<rect x="1564.4444416" y="54.444444" width="35" height="8.888888799999998" fill="black" />
<rect x="1609.4444416" y="54.444444" width="35" height="8.888888799999998" fill="black" />
<rect x="1564.4444416" y="69.25925866666665" width="80" height="8.888888799999998" fill="black" />
<rect x="1564.4444416" y="84.07407333333333" width="35" height="8.888888799999998" fill="black" />
<rect x="1609.4444416" y="84.07407333333333" width="35" height="8.888888799999998" fill="black" />
<rect x="1662.2222192" y="10" width="80" height="8.888888799999998" fill="black" />
<rect x="1662.2222192" y="24.814814666666663" width="35" height="8.888888799999998" fill="black" />
<rect x="1707.2222192" y="24.814814666666663" width="35" height="8.888888799999998" fill="black" />
<rect x="1662.2222192" y="39.62962933333333" width="35" height="8.888888799999998" fill="black" />
<rect x="1707.2222192" y="39.62962933333333" width="35" height="8.888888799999998" fill="black" />
<rect x="1662.2222192" y="54.444444" width="35" height="8.888888799999998" fill="black" />
<rect x="1707.2222192" y="54.444444" width="35" height="8.888888799999998" fill="black" />
<rect x="1662.2222192" y="69.25925866666665" width="80" height="8.888888799999998" fill="black" />
<rect x="1662.2222192" y="84.07407333333333" width="35" height="8.888888799999998" fill="black" />
<rect x="1707.2222192" y="84.07407333333333" width="35" height="8.888888799999998" fill="black" />
<rect x="1759.9999968" y="10" width="35" height="8.888888799999998" fill="black" />
<rect x="1804.9999968" y="10" width="35" height="8.888888799999998" fill="black" />
<rect x="1759.9999968" y="24.814814666666663" width="80" height="8.888888799999998" fill="black" />
<rect x="1759.9999968" y="39.62962933333333" width="35" height="8.888888799999998" fill="black" />
<rect x="1804.9999968" y="39.62962933333333" width="35" height="8.888888799999998" fill="black" />
<rect x="1759.9999968" y="54.444444" width="35" height="8.888888799999998" fill="black" />
<rect x="1804.9999968" y="54.444444" width="35" height="8.888888799999998" fill="black" />
<rect x="1759.9999968" y="69.25925866666665" width="80" height="8.888888799999998" fill="black" />
<rect x="1759.9999968" y="84.07407333333333" width="35" height="8.888888799999998" fill="black" />
<rect x="1804.9999968" y="84.07407333333333" width="35" height="8.888888799999998" fill="black" />
<rect x="1857.7777743999998" y="10" width="80" height="8.888888799999998" fill="black" />
<rect x="1857.7777743999998" y="24.814814666666663" width="80" height="8.888888799999998" fill="black" />
<rect x="1857.7777743999998" y="39.62962933333333" width="35" height="8.888888799999998" fill="black" />
<rect x="1902.7777743999998" y="39.62962933333333" width="35" height="8.888888799999998" fill="black" />
<rect x="1857.7777743999998" y="54.444444" width="35" height="8.888888799999998" fill="black" />
<rect x="1902.7777743999998" y="54.444444" width="35" height="8.888888799999998" fill="black" />
<rect x="1857.7777743999998" y="69.25925866666665" width="80" height="8.888888799999998" fill="black" />
<rect x="1857.7777743999998" y="84.07407333333333" width="35" height="8.888888799999998" fill="black" />
<rect x="1902.7777743999998" y="84.07407333333333" width="35" height="8.888888799999998" fill="black" />
<rect x="1955.5555519999998" y="10" width="35" height="8.888888799999998" fill="black" />
<rect x="2000.5555519999998" y="10" width="35" height="8.888888799999998" fill="black" />
<rect x="1955.5555519999998" y="24.814814666666663" width="35" height="8.888888799999998" fill="black" />
<rect x="2000.5555519999998" y="24.814814666666663" width="35" height="8.888888799999998" fill="black" />
<rect x="1955.5555519999998" y="39.62962933333333" width="80" height="8.888888799999998" fill="black" />
<rect x="1955.5555519999998" y="54.444444" width="35" height="8.888888799999998" fill="black" />
<rect x="2000.5555519999998" y="54.444444" width="35" height="8.888888799999998" fill="black" />
<rect x="1955.5555519999998" y="69.25925866666665" width="80" height="8.888888799999998" fill="black" />
<rect x="1955.5555519999998" y="84.07407333333333" width="35" height="8.888888799999998" fill="black" />
<rect x="2000.5555519999998" y="84.07407333333333" width="35" height="8.888888799999998" fill="black" />
<rect x="2053.3333296" y="10" width="80" height="8.888888799999998" fill="black" />
<rect x="2053.3333296" y="24.814814666666663" width="35" height="8.888888799999998" fill="black" />
<rect x="2098.3333296" y="24.814814666666663" width="35" height="8.888888799999998" fill="black" />
<rect x="2053.3333296" y="39.62962933333333" width="80" height="8.888888799999998" fill="black" />
<rect x="2053.3333296" y="54.444444" width="35" height="8.888888799999998" fill="black" />
<rect x="2098.3333296" y="54.444444" width="35" height="8.888888799999998" fill="black" />
<rect x="2053.3333296" y="69.25925866666665" width="80" height="8.888888799999998" fill="black" />
<rect x="2053.3333296" y="84.07407333333333" width="35" height="8.888888799999998" fill="black" />
<rect x="2098.3333296" y="84.07407333333333" width="35" height="8.888888799999998" fill="black" />
<rect x="2151.1111072" y="10" width="35" height="8.888888799999998" fill="black" />
<rect x="2196.1111072" y="10" width="35" height="8.888888799999998" fill="black" />
<rect x="2151.1111072" y="24.814814666666663" width="80" height="8.888888799999998" fill="black" />
<rect x="2151.1111072" y="39.62962933333333" width="80" height="8.888888799999998" fill="black" />
<rect x="2151.1111072" y="54.444444" width="35" height="8.888888799999998" fill="black" />
<rect x="2196.1111072" y="54.444444" width="35" height="8.888888799999998" fill="black" />
<rect x="2151.1111072" y="69.25925866666665" width="80" height="8.888888799999998" fill="black" />
<rect x="2151.1111072" y="84.07407333333333" width="35" height="8.888888799999998" fill="black" />
<rect x="2196.1111072" y="84.07407333333333" width="35" height="8.888888799999998" fill="black" />
<rect x="2248.8888847999997" y="10" width="80" height="8.888888799999998" fill="black" />
<rect x="2248.8888847999997" y="24.814814666666663" width="80" height="8.888888799999998" fill="black" />
<rect x="2248.8888847999997" y="39.62962933333333" width="80" height="8.888888799999998" fill="black" />
<rect x="2248.8888847999997" y="54.444444" width="35" height="8.888888799999998" fill="black" />
<rect x="2293.8888847999997" y="54.444444" width="35" height="8.888888799999998" fill="black" />
<rect x="2248.8888847999997" y="69.25925866666665" width="80" height="8.888888799999998" fill="black" />
<rect x="2248.8888847999997" y="84.07407333333333" width="35" height="8.888888799999998" fill="black" />
<rect x="2293.8888847999997" y="84.07407333333333" width="35" height="8.888888799999998" fill="black" />
<rect x="2346.6666624" y="10" width="35" height="8.888888799999998" fill="black" />
<rect x="2391.6666624" y="10" width="35" height="8.888888799999998" fill="black" />
<rect x="2346.6666624" y="24.814814666666663" width="35" height="8.888888799999998" fill="black" />
<rect x="2391.6666624" y="24.814814666666663" width="35" height="8.888888799999998" fill="black" />
<rect x="2346.6666624" y="39.62962933333333" width="35" height="8.888888799999998" fill="black" />
<rect x="2391.6666624" y="39.62962933333333" width="35" height="8.888888799999998" fill="black" />
<rect x="2346.6666624" y="54.444444" width="80" height="8.888888799999998" fill="black" />
<rect x="2346.6666624" y="69.25925866666665" width="80" height="8.888888799999998" fill="black" />
<rect x="2346.6666624" y="84.07407333333333" width="35" height="8.888888799999998" fill="black" />
<rect x="2391.6666624" y="84.07407333333333" width="35" height="8.888888799999998" fill="black" />
<rect x="2444.4444399999998" y="10" width="80" height="8.888888799999998" fill="black" />
<rect x="2444.4444399999998" y="24.814814666666663" width="35" height="8.888888799999998" fill="black" />
<rect x="2489.4444399999998" y="24.814814666666663" width="35" height="8.888888799999998" fill="black" />
<rect x="2444.4444399999998" y="39.62962933333333" width="35" height="8.888888799999998" fill="black" />
<rect x="2489.4444399999998" y="39.62962933333333" width="35" height="8.888888799999998" fill="black" />
<rect x="2444.4444399999998" y="54.444444" width="80" height="8.888888799999998" fill="black" />
<rect x="2444.4444399999998" y="69.25925866666665" width="80" height="8.888888799999998" fill="black" />
<rect x="2444.4444399999998" y="84.07407333333333" width="35" height="8.888888799999998" fill="black" />
<rect x="2489.4444399999998" y="84.07407333333333" width="35" height="8.888888799999998" fill="black" />
<rect x="2542.2222176" y="10" width="35" height="8.888888799999998" fill="black" />
<rect x="2587.2222176" y="10" width="35" height="8.888888799999998" fill="black" />
<rect x="2542.2222176" y="24.814814666666663" width="80" height="8.888888799999998" fill="black" />
<rect x="2542.2222176" y="39.62962933333333" width="35" height="8.888888799999998" fill="black" />
<rect x="2587.2222176" y="39.62962933333333" width="35" height="8.888888799999998" fill="black" />
<rect x="2542.2222176" y="54.444444" width="80" height="8.888888799999998" fill="black" />
<rect x="2542.2222176" y="69.25925866666665" width="80" height="8.888888799999998" fill="black" />
<rect x="2542.2222176" y="84.07407333333333" width="35" height="8.888888799999998" fill="black" />
<rect x="2587.2222176" y="84.07407333333333" width="35" height="8.888888799999998" fill="black" />
<rect x="2639.9999952" y="10" width="80" height="8.888888799999998" fill="black" />
<rect x="2639.9999952" y="24.814814666666663" width="80" height="8.888888799999998" fill="black" />
<rect x="2639.9999952" y="39.62962933333333" width="35" height="8.888888799999998" fill="black" />
<rect x="2684.9999952" y="39.62962933333333" width="35" height="8.888888799999998" fill="black" />
<rect x="2639.9999952" y="54.444444" width="80" height="8.888888799999998" fill="black" />
<rect x="2639.9999952" y="69.25925866666665" width="80" height="8.888888799999998" fill="black" />
<rect x="2639.9999952" y="84.07407333333333" width="35" height="8.888888799999998" fill="black" />
<rect x="2684.9999952" y="84.07407333333333" width="35" height="8.888888799999998" fill="black" />
<rect x="2737.7777727999996" y="10" width="35" height="8.888888799999998" fill="black" />
<rect x="2782.7777727999996" y="10" width="35" height="8.888888799999998" fill="black" />
<rect x="2737.7777727999996" y="24.814814666666663" width="35" height="8.888888799999998" fill="black" />
<rect x="2782.7777727999996" y="24.814814666666663" width="35" height="8.888888799999998" fill="black" />
<rect x="2737.7777727999996" y="39.62962933333333" width="80" height="8.888888799999998" fill="black" />
<rect x="2737.7777727999996" y="54.444444" width="80" height="8.888888799999998" fill="black" />
<rect x="2737.7777727999996" y="69.25925866666665" width="80" height="8.888888799999998" fill="black" />
<rect x="2737.7777727999996" y="84.07407333333333" width="35" height="8.888888799999998" fill="black" />
<rect x="2782.7777727999996" y="84.07407333333333" width="35" height="8.888888799999998" fill="black" />
<rect x="2835.5555504" y="10" width="80" height="8.888888799999998" fill="black" />
<rect x="2835.5555504" y="24.814814666666663" width="35" height="8.888888799999998" fill="black" />
<rect x="2880.5555504" y="24.814814666666663" width="35" height="8.888888799999998" fill="black" />
<rect x="2835.5555504" y="39.62962933333333" width="80" height="8.888888799999998" fill="black" />
<rect x="2835.5555504" y="54.444444" width="80" height="8.888888799999998" fill="black" />
<rect x="2835.5555504" y="69.25925866666665" width="80" height="8.888888799999998" fill="black" />
<rect x="2835.5555504" y="84.07407333333333" width="35" height="8.888888799999998" fill="black" />
<rect x="2880.5555504" y="84.07407333333333" width="35" height="8.888888799999998" fill="black" />
<rect x="2933.3333279999997" y="10" width="35" height="8.888888799999998" fill="black" />
<rect x="2978.3333279999997" y="10" width="35" height="8.888888799999998" fill="black" />
<rect x="2933.3333279999997" y="24.814814666666663" width="80" height="8.888888799999998" fill="black" />
<rect x="2933.3333279999997" y="39.62962933333333" width="80" height="8.888888799999998" fill="black" />
<rect x="2933.3333279999997" y="54.444444" width="80" height="8.888888799999998" fill="black" />
<rect x="2933.3333279999997" y="69.25925866666665" width="80" height="8.888888799999998" fill="black" />
<rect x="2933.3333279999997" y="84.07407333333333" width="35" height="8.888888799999998" fill="black" />
<rect x="2978.3333279999997" y="84.07407333333333" width="35" height="8.888888799999998" fill="black" />
<rect x="3031.1111056" y="10" width="80" height="8.888888799999998" fill="black" />
<rect x="3031.1111056" y="24.814814666666663" width="80" height="8.888888799999998" fill="black" />
<rect x="3031.1111056" y="39.62962933333333" width="80" height="8.888888799999998" fill="black" />
<rect x="3031.1111056" y="54.444444" width="80" height="8.888888799999998" fill="black" />
<rect x="3031.1111056" y="69.25925866666665" width="80" height="8.888888799999998" fill="black" />
<rect x="3031.1111056" y="84.07407333333333" width="35" height="8.888888799999998" fill="black" />
<rect x="3076.1111056" y="84.07407333333333" width="35" height="8.888888799999998" fill="black" />
<rect x="3031.1111056" y="107.7777768" width="35" height="8.888888799999998" fill="black" />
<rect x="3076.1111056" y="107.7777768" width="35" height="8.888888799999998" fill="black" />
<rect x="3031.1111056" y="122.59259146666666" width="35" height="8.888888799999998" fill="black" />
<rect x="3076.1111056" y="122.59259146666666" width="35" height="8.888888799999998" fill="black" />
<rect x="3031.1111056" y="137.40740613333332" width="35" height="8.888888799999998" fill="black" />
<rect x="3076.1111056" y="137.40740613333332" width="35" height="8.888888799999998" fill="black" />
<rect x="3031.1111056" y="152.2222208" width="35" height="8.888888799999998" fill="black" />
<rect x="3076.1111056" y="152.2222208" width="35" height="8.888888799999998" fill="black" />
<rect x="3031.1111056" y="167.03703546666665" width="35" height="8.888888799999998" fill="black" />
<rect x="3076.1111056" y="167.03703546666665" width="35" height="8.888888799999998" fill="black" />
<rect x="3031.1111056" y="181.85185013333333" width="80" height="8.888888799999998" fill="black" />
<rect x="2933.3333279999997" y="107.7777768" width="80" height="8.888888799999998" fill="black" />
<rect x="2933.3333279999997" y="122.59259146666666" width="35" height="8.888888799999998" fill="black" />
<rect x="2978.3333279999997" y="122.59259146666666" width="35" height="8.888888799999998" fill="black" />
<rect x="2933.3333279999997" y="137.40740613333332" width="35" height="8.888888799999998" fill="black" />
<rect x="2978.3333279999997" y="137.40740613333332" width="35" height="8.888888799999998" fill="black" />
<rect x="2933.3333279999997" y="152.2222208" width="35" height="8.888888799999998" fill="black" />
<rect x="2978.3333279999997" y="152.2222208" width="35" height="8.888888799999998" fill="black" />
<rect x="2933.3333279999997" y="167.03703546666665" width="35" height="8.888888799999998" fill="black" />
<rect x="2978.3333279999997" y="167.03703546666665" width="35" height="8.888888799999998" fill="black" />
<rect x="2933.3333279999997" y="181.85185013333333" width="80" height="8.888888799999998" fill="black" />
<rect x="2835.5555504" y="107.7777768" width="35" height="8.888888799999998" fill="black" />
<rect x="2880.5555504" y="107.7777768" width="35" height="8.888888799999998" fill="black" />
<rect x="2835.5555504" y="122.59259146666666" width="80" height="8.888888799999998" fill="black" />
<rect x="2835.5555504" y="137.40740613333332" width="35" height="8.888888799999998" fill="black" />
<rect x="2880.5555504" y="137.40740613333332" width="35" height="8.888888799999998" fill="black" />
<rect x="2835.5555504" y="152.2222208" width="35" height="8.888888799999998" fill="black" />
<rect x="2880.5555504" y="152.2222208" width="35" height="8.888888799999998" fill="black" />
<rect x="2835.5555504" y="167.03703546666665" width="35" height="8.888888799999998" fill="black" />
<rect x="2880.5555504" y="167.03703546666665" width="35" height="8.888888799999998" fill="black" />
<rect x="2835.5555504" y="181.85185013333333" width="80" height="8.888888799999998" fill="black" />
<rect x="2737.7777727999996" y="107.7777768" width="80" height="8.888888799999998" fill="black" />
<rect x="2737.7777727999996" y="122.59259146666666" width="80" height="8.888888799999998" fill="black" />
<rect x="2737.7777727999996" y="137.40740613333332" width="35" height="8.888888799999998" fill="black" />
<rect x="2782.7777727999996" y="137.40740613333332" width="35" height="8.888888799999998" fill="black" />
<rect x="2737.7777727999996" y="152.2222208" width="35" height="8.888888799999998" fill="black" />
<rect x="2782.7777727999996" y="152.2222208" width="35" height="8.888888799999998" fill="black" />
<rect x="2737.7777727999996" y="167.03703546666665" width="35" height="8.888888799999998" fill="black" />
<rect x="2782.7777727999996" y="167.03703546666665" width="35" height="8.888888799999998" fill="black" />
<rect x="2737.7777727999996" y="181.85185013333333" width="80" height="8.888888799999998" fill="black" />
<rect x="2639.9999952" y="107.7777768" width="35" height="8.888888799999998" fill="black" />
<rect x="2684.9999952" y="107.7777768" width="35" height="8.888888799999998" fill="black" />
<rect x="2639.9999952" y="122.59259146666666" width="35" height="8.888888799999998" fill="black" />
<rect x="2684.9999952" y="122.59259146666666" width="35" height="8.888888799999998" fill="black" />
<rect x="2639.9999952" y="137.40740613333332" width="80" height="8.888888799999998" fill="black" />
<rect x="2639.9999952" y="152.2222208" width="35" height="8.888888799999998" fill="black" />
<rect x="2684.9999952" y="152.2222208" width="35" height="8.888888799999998" fill="black" />
<rect x="2639.9999952" y="167.03703546666665" width="35" height="8.888888799999998" fill="black" />
<rect x="2684.9999952" y="167.03703546666665" width="35" height="8.888888799999998" fill="black" />
<rect x="2639.9999952" y="181.85185013333333" width="80" height="8.888888799999998" fill="black" />
<rect x="2542.2222176" y="107.7777768" width="80" height="8.888888799999998" fill="black" />
<rect x="2542.2222176" y="122.59259146666666" width="35" height="8.888888799999998" fill="black" />
<rect x="2587.2222176" y="122.59259146666666" width="35" height="8.888888799999998" fill="black" />
<rect x="2542.2222176" y="137.40740613333332" width="80" height="8.888888799999998" fill="black" />
<rect x="2542.2222176" y="152.2222208" width="35" height="8.888888799999998" fill="black" />
<rect x="2587.2222176" y="152.2222208" width="35" height="8.888888799999998" fill="black" />
<rect x="2542.2222176" y="167.03703546666665" width="35" height="8.888888799999998" fill="black" />
<rect x="2587.2222176" y="167.03703546666665" width="35" height="8.888888799999998" fill="black" />
<rect x="2542.2222176" y="181.85185013333333" width="80" height="8.888888799999998" fill="black" />
<rect x="2444.4444399999998" y="107.7777768" width="35" height="8.888888799999998" fill="black" />
<rect x="2489.4444399999998" y="107.7777768" width="35" height="8.888888799999998" fill="black" />
<rect x="2444.4444399999998" y="122.59259146666666" width="80" height="8.888888799999998" fill="black" />
<rect x="2444.4444399999998" y="137.40740613333332" width="80" height="8.888888799999998" fill="black" />
<rect x="2444.4444399999998" y="152.2222208" width="35" height="8.888888799999998" fill="black" />
<rect x="2489.4444399999998" y="152.2222208" width="35" height="8.888888799999998" fill="black" />
<rect x="2444.4444399999998" y="167.03703546666665" width="35" height="8.888888799999998" fill="black" />
<rect x="2489.4444399999998" y="167.03703546666665" width="35" height="8.888888799999998" fill="black" />
<rect x="2444.4444399999998" y="181.85185013333333" width="80" height="8.888888799999998" fill="black" />
<rect x="2346.6666624" y="107.7777768" width="80" height="8.888888799999998" fill="black" />
<rect x="2346.6666624" y="122.59259146666666" width="80" height="8.888888799999998" fill="black" />
<rect x="2346.6666624" y="137.40740613333332" width="80" height="8.888888799999998" fill="black" />
<rect x="2346.6666624" y="152.2222208" width="35" height="8.888888799999998" fill="black" />
<rect x="2391.6666624" y="152.2222208" width="35" height="8.888888799999998" fill="black" />
<rect x="2346.6666624" y="167.03703546666665" width="35" height="8.888888799999998" fill="black" />
<rect x="2391.6666624" y="167.03703546666665" width="35" height="8.888888799999998" fill="black" />
<rect x="2346.6666624" y="181.85185013333333" width="80" height="8.888888799999998" fill="black" />
<rect x="2248.8888847999997" y="107.7777768" width="35" height="8.888888799999998" fill="black" />
<rect x="2293.8888847999997" y="107.7777768" width="35" height="8.888888799999998" fill="black" />
<rect x="2248.8888847999997" y="122.59259146666666" width="35" height="8.888888799999998" fill="black" />
<rect x="2293.8888847999997" y="122.59259146666666" width="35" height="8.888888799999998" fill="black" />
<rect x="2248.8888847999997" y="137.40740613333332" width="35" height="8.888888799999998" fill="black" />
<rect x="2293.8888847999997" y="137.40740613333332" width="35" height="8.888888799999998" fill="black" />
<rect x="2248.8888847999997" y="152.2222208" width="80" height="8.888888799999998" fill="black" />
<rect x="2248.8888847999997" y="167.03703546666665" width="35" height="8.888888799999998" fill="black" />
<rect x="2293.8888847999997" y="167.03703546666665" width="35" height="8.888888799999998" fill="black" />
<rect x="2248.8888847999997" y="181.85185013333333" width="80" height="8.888888799999998" fill="black" />
<rect x="2151.1111072" y="107.7777768" width="80" height="8.888888799999998" fill="black" />
<rect x="2151.1111072" y="122.59259146666666" width="35" height="8.888888799999998" fill="black" />
<rect x="2196.1111072" y="122.59259146666666" width="35" height="8.888888799999998" fill="black" />
<rect x="2151.1111072" y="137.40740613333332" width="35" height="8.888888799999998" fill="black" />
<rect x="2196.1111072" y="137.40740613333332" width="35" height="8.888888799999998" fill="black" />
<rect x="2151.1111072" y="152.2222208" width="80" height="8.888888799999998" fill="black" />
<rect x="2151.1111072" y="167.03703546666665" width="35" height="8.888888799999998" fill="black" />
<rect x="2196.1111072" y="167.03703546666665" width="35" height="8.888888799999998" fill="black" />
<rect x="2151.1111072" y="181.85185013333333" width="80" height="8.888888799999998" fill="black" />
<rect x="2053.3333296" y="107.7777768" width="35" height="8.888888799999998" fill="black" />
<rect x="2098.3333296" y="107.7777768" width="35" height="8.888888799999998" fill="black" />
<rect x="2053.3333296" y="122.59259146666666" width="80" height="8.888888799999998" fill="black" />
<rect x="2053.3333296" y="137.40740613333332" width="35" height="8.888888799999998" fill="black" />
<rect x="2098.3333296" y="137.40740613333332" width="35" height="8.888888799999998" fill="black" />
<rect x="2053.3333296" y="152.2222208" width="80" height="8.888888799999998" fill="black" />
<rect x="2053.3333296" y="167.03703546666665" width="35" height="8.888888799999998" fill="black" />
<rect x="2098.3333296" y="167.03703546666665" width="35" height="8.888888799999998" fill="black" />
<rect x="2053.3333296" y="181.85185013333333" width="80" height="8.888888799999998" fill="black" />
<rect x="1955.5555519999998" y="107.7777768" width="80" height="8.888888799999998" fill="black" />
<rect x="1955.5555519999998" y="122.59259146666666" width="80" height="8.888888799999998" fill="black" />
<rect x="1955.5555519999998" y="137.40740613333332" width="35" height="8.888888799999998" fill="black" />
<rect x="2000.5555519999998" y="137.40740613333332" width="35" height="8.888888799999998" fill="black" />
<rect x="1955.5555519999998" y="152.2222208" width="80" height="8.888888799999998" fill="black" />
<rect x="1955.5555519999998" y="167.03703546666665" width="35" height="8.888888799999998" fill="black" />
<rect x="2000.5555519999998" y="167.03703546666665" width="35" height="8.888888799999998" fill="black" />
<rect x="1955.5555519999998" y="181.85185013333333" width="80" height="8.888888799999998" fill="black" />
<rect x="1857.7777743999998" y="107.7777768" width="35" height="8.888888799999998" fill="black" />
<rect x="1902.7777743999998" y="107.7777768" width="35" height="8.888888799999998" fill="black" />
<rect x="1857.7777743999998" y="122.59259146666666" width="35" height="8.888888799999998" fill="black" />
<rect x="1902.7777743999998" y="122.59259146666666" width="35" height="8.888888799999998" fill="black" />
<rect x="1857.7777743999998" y="137.40740613333332" width="80" height="8.888888799999998" fill="black" />
<rect x="1857.7777743999998" y="152.2222208" width="80" height="8.888888799999998" fill="black" />
<rect x="1857.7777743999998" y="167.03703546666665" width="35" height="8.888888799999998" fill="black" />
<rect x="1902.7777743999998" y="167.03703546666665" width="35" height="8.888888799999998" fill="black" />
<rect x="1857.7777743999998" y="181.85185013333333" width="80" height="8.888888799999998" fill="black" />
<rect x="1759.9999968" y="107.7777768" width="80" height="8.888888799999998" fill="black" />
<rect x="1759.9999968" y="122.59259146666666" width="35" height="8.888888799999998" fill="black" />
<rect x="1804.9999968" y="122.59259146666666" width="35" height="8.888888799999998" fill="black" />
<rect x="1759.9999968" y="137.40740613333332" width="80" height="8.888888799999998" fill="black" />
<rect x="1759.9999968" y="152.2222208" width="80" height="8.888888799999998" fill="black" />
<rect x="1759.9999968" y="167.03703546666665" width="35" height="8.888888799999998" fill="black" />
<rect x="1804.9999968" y="167.03703546666665" width="35" height="8.888888799999998" fill="black" />
<rect x="1759.9999968" y="181.85185013333333" width="80" height="8.888888799999998" fill="black" />
<rect x="1662.2222192" y="107.7777768" width="35" height="8.888888799999998" fill="black" />
<rect x="1707.2222192" y="107.7777768" width="35" height="8.888888799999998" fill="black" />
<rect x="1662.2222192" y="122.59259146666666" width="80" height="8.888888799999998" fill="black" />
<rect x="1662.2222192" y="137.40740613333332" width="80" height="8.888888799999998" fill="black" />
<rect x="1662.2222192" y="152.2222208" width="80" height="8.888888799999998" fill="black" />
<rect x="1662.2222192" y="167.03703546666665" width="35" height="8.888888799999998" fill="black" />
<rect x="1707.2222192" y="167.03703546666665" width="35" height="8.888888799999998" fill="black" />
<rect x="1662.2222192" y="181.85185013333333" width="80" height="8.888888799999998" fill="black" />
<rect x="1564.4444416" y="107.7777768" width="80" height="8.888888799999998" fill="black" />
<rect x="1564.4444416" y="122.59259146666666" width="80" height="8.888888799999998" fill="black" />
<rect x="1564.4444416" y="137.40740613333332" width="80" height="8.888888799999998" fill="black" />
<rect x="1564.4444416" y="152.2222208" width="80" height="8.888888799999998" fill="black" />
<rect x="1564.4444416" y="167.03703546666665" width="35" height="8.888888799999998" fill="black" />
<rect x="1609.4444416" y="167.03703546666665" width="35" height="8.888888799999998" fill="black" />
<rect x="1564.4444416" y="181.85185013333333" width="80" height="8.888888799999998" fill="black" />
<rect x="1466.6666639999999" y="107.7777768" width="35" height="8.888888799999998" fill="black" />
<rect x="1511.6666639999999" y="107.7777768" width="35" height="8.888888799999998" fill="black" />
<rect x="1466.6666639999999" y="122.59259146666666" width="35" height="8.888888799999998" fill="black" />
<rect x="1511.6666639999999" y="122.59259146666666" width="35" height="8.888888799999998" fill="black" />
<rect x="1466.6666639999999" y="137.40740613333332" width="35" height="8.888888799999998" fill="black" />
<rect x="1511.6666639999999" y="137.40740613333332" width="35" height="8.888888799999998" fill="black" />
<rect x="1466.6666639999999" y="152.2222208" width="35" height="8.888888799999998" fill="black" />
<rect x="1511.6666639999999" y="152.2222208" width="35" height="8.888888799999998" fill="black" />
<rect x="1466.6666639999999" y="167.03703546666665" width="80" height="8.888888799999998" fill="black" />
<rect x="1466.6666639999999" y="181.85185013333333" width="80" height="8.888888799999998" fill="black" />
<rect x="1368.8888863999998" y="107.7777768" width="80" height="8.888888799999998" fill="black" />
<rect x="1368.8888863999998" y="122.59259146666666" width="35" height="8.888888799999998" fill="black" />
<rect x="1413.8888863999998" y="122.59259146666666" width="35" height="8.888888799999998" fill="black" />
<rect x="1368.8888863999998" y="137.40740613333332" width="35" height="8.888888799999998" fill="black" />
<rect x="1413.8888863999998" y="137.40740613333332" width="35" height="8.888888799999998" fill="black" />
<rect x="1368.8888863999998" y="152.2222208" width="35" height="8.888888799999998" fill="black" />
<rect x="1413.8888863999998" y="152.2222208" width="35" height="8.888888799999998" fill="black" />
<rect x="1368.8888863999998" y="167.03703546666665" width="80" height="8.888888799999998" fill="black" />
<rect x="1368.8888863999998" y="181.85185013333333" width="80" height="8.888888799999998" fill="black" />
<rect x="1271.1111088" y="107.7777768" width="35" height="8.888888799999998" fill="black" />
<rect x="1316.1111088" y="107.7777768" width="35" height="8.888888799999998" fill="black" />
<rect x="1271.1111088" y="122.59259146666666" width="80" height="8.888888799999998" fill="black" />
<rect x="1271.1111088" y="137.40740613333332" width="35" height="8.888888799999998" fill="black" />
<rect x="1316.1111088" y="137.40740613333332" width="35" height="8.888888799999998" fill="black" />
<rect x="1271.1111088" y="152.2222208" width="35" height="8.888888799999998" fill="black" />
<rect x="1316.1111088" y="152.2222208" width="35" height="8.888888799999998" fill="black" />
<rect x="1271.1111088" y="167.03703546666665" width="80" height="8.888888799999998" fill="black" />
<rect x="1271.1111088" y="181.85185013333333" width="80" height="8.888888799999998" fill="black" />
<rect x="1173.3333312" y="107.7777768" width="80" height="8.888888799999998" fill="black" />
<rect x="1173.3333312" y="122.59259146666666" width="80" height="8.888888799999998" fill="black" />
<rect x="1173.3333312" y="137.40740613333332" width="35" height="8.888888799999998" fill="black" />
<rect x="1218.3333312" y="137.40740613333332" width="35" height="8.888888799999998" fill="black" />
<rect x="1173.3333312" y="152.2222208" width="35" height="8.888888799999998" fill="black" />
<rect x="1218.3333312" y="152.2222208" width="35" height="8.888888799999998" fill="black" />
<rect x="1173.3333312" y="167.03703546666665" width="80" height="8.888888799999998" fill="black" />
<rect x="1173.3333312" y="181.85185013333333" width="80" height="8.888888799999998" fill="black" />
<rect x="1075.5555536" y="107.7777768" width="35" height="8.888888799999998" fill="black" />
<rect x="1120.5555536" y="107.7777768" width="35" height="8.888888799999998" fill="black" />
<rect x="1075.5555536" y="122.59259146666666" width="35" height="8.888888799999998" fill="black" />
<rect x="1120.5555536" y="122.59259146666666" width="35" height="8.888888799999998" fill="black" />
<rect x="1075.5555536" y="137.40740613333332" width="80" height="8.888888799999998" fill="black" />
<rect x="1075.5555536" y="152.2222208" width="35" height="8.888888799999998" fill="black" />
<rect x="1120.5555536" y="152.2222208" width="35" height="8.888888799999998" fill="black" />
<rect x="1075.5555536" y="167.03703546666665" width="80" height="8.888888799999998" fill="black" />
<rect x="1075.5555536" y="181.85185013333333" width="80" height="8.888888799999998" fill="black" />
<rect x="977.7777759999999" y="107.7777768" width="80" height="8.888888799999998" fill="black" />
<rect x="977.7777759999999" y="122.59259146666666" width="35" height="8.888888799999998" fill="black" />
<rect x="1022.7777759999999" y="122.59259146666666" width="35" height="8.888888799999998" fill="black" />
<rect x="977.7777759999999" y="137.40740613333332" width="80" height="8.888888799999998" fill="black" />
<rect x="977.7777759999999" y="152.2222208" width="35" height="8.888888799999998" fill="black" />
<rect x="1022.7777759999999" y="152.2222208" width="35" height="8.888888799999998" fill="black" />
<rect x="977.7777759999999" y="167.03703546666665" width="80" height="8.888888799999998" fill="black" />
<rect x="977.7777759999999" y="181.85185013333333" width="80" height="8.888888799999998" fill="black" />
<rect x="879.9999984" y="107.7777768" width="35" height="8.888888799999998" fill="black" />
<rect x="924.9999984" y="107.7777768" width="35" height="8.888888799999998" fill="black" />
<rect x="879.9999984" y="122.59259146666666" width="80" height="8.888888799999998" fill="black" />
<rect x="879.9999984" y="137.40740613333332" width="80" height="8.888888799999998" fill="black" />
<rect x="879.9999984" y="152.2222208" width="35" height="8.888888799999998" fill="black" />
<rect x="924.9999984" y="152.2222208" width="35" height="8.888888799999998" fill="black" />
<rect x="879.9999984" y="167.03703546666665" width="80" height="8.888888799999998" fill="black" />
<rect x="879.9999984" y="181.85185013333333" width="80" height="8.888888799999998" fill="black" />
<rect x="782.2222208" y="107.7777768" width="80" height="8.888888799999998" fill="black" />
<rect x="782.2222208" y="122.59259146666666" width="80" height="8.888888799999998" fill="black" />
<rect x="782.2222208" y="137.40740613333332" width="80" height="8.888888799999998" fill="black" />
<rect x="782.2222208" y="152.2222208" width="35" height="8.888888799999998" fill="black" />
<rect x="827.2222208" y="152.2222208" width="35" height="8.888888799999998" fill="black" />
<rect x="782.2222208" y="167.03703546666665" width="80" height="8.888888799999998" fill="black" />
<rect x="782.2222208" y="181.85185013333333" width="80" height="8.888888799999998" fill="black" />
<rect x="684.4444431999999" y="107.7777768" width="35" height="8.888888799999998" fill="black" />
<rect x="729.4444431999999" y="107.7777768" width="35" height="8.888888799999998" fill="black" />
<rect x="684.4444431999999" y="122.59259146666666" width="35" height="8.888888799999998" fill="black" />
<rect x="729.4444431999999" y="122.59259146666666" width="35" height="8.888888799999998" fill="black" />
<rect x="684.4444431999999" y="137.40740613333332" width="35" height="8.888888799999998" fill="black" />
<rect x="729.4444431999999" y="137.40740613333332" width="35" height="8.888888799999998" fill="black" />
<rect x="684.4444431999999" y="152.2222208" width="80" height="8.888888799999998" fill="black" />
<rect x="684.4444431999999" y="167.03703546666665" width="80" height="8.888888799999998" fill="black" />
<rect x="684.4444431999999" y="181.85185013333333" width="80" height="8.888888799999998" fill="black" />
<rect x="586.6666656" y="107.7777768" width="80" height="8.888888799999998" fill="black" />
<rect x="586.6666656" y="122.59259146666666" width="35" height="8.888888799999998" fill="black" />
<rect x="631.6666656" y="122.59259146666666" width="35" height="8.888888799999998" fill="black" />
<rect x="586.6666656" y="137.40740613333332" width="35" height="8.888888799999998" fill="black" />
<rect x="631.6666656" y="137.40740613333332" width="35" height="8.888888799999998" fill="black" />
<rect x="586.6666656" y="152.2222208" width="80" height="8.888888799999998" fill="black" />
<rect x="586.6666656" y="167.03703546666665" width="80" height="8.888888799999998" fill="black" />
<rect x="586.6666656" y="181.85185013333333" width="80" height="8.888888799999998" fill="black" />
<rect x="488.88888799999995" y="107.7777768" width="35" height="8.888888799999998" fill="black" />
<rect x="533.888888" y="107.7777768" width="35" height="8.888888799999998" fill="black" />
<rect x="488.88888799999995" y="122.59259146666666" width="80" height="8.888888799999998" fill="black" />
<rect x="488.88888799999995" y="137.40740613333332" width="35" height="8.888888799999998" fill="black" />
<rect x="533.888888" y="137.40740613333332" width="35" height="8.888888799999998" fill="black" />
<rect x="488.88888799999995" y="152.2222208" width="80" height="8.888888799999998" fill="black" />
<rect x="488.88888799999995" y="167.03703546666665" width="80" height="8.888888799999998" fill="black" />
<rect x="488.88888799999995" y="181.85185013333333" width="80" height="8.888888799999998" fill="black" />
<rect x="391.1111104" y="107.7777768" width="80" height="8.888888799999998" fill="black" />
<rect x="391.1111104" y="122.59259146666666" width="80" height="8.888888799999998" fill="black" />
<rect x="391.1111104" y="137.40740613333332" width="35" height="8.888888799999998" fill="black" />
<rect x="436.1111104" y="137.40740613333332" width="35" height="8.888888799999998" fill="black" />
<rect x="391.1111104" y="152.2222208" width="80" height="8.888888799999998" fill="black" />
<rect x="391.1111104" y="167.03703546666665" width="80" height="8.888888799999998" fill="black" />
<rect x="391.1111104" y="181.85185013333333" width="80" height="8.888888799999998" fill="black" />
<rect x="293.3333328" y="107.7777768" width="35" height="8.888888799999998" fill="black" />
<rect x="338.3333328" y="107.7777768" width="35" height="8.888888799999998" fill="black" />
<rect x="293.3333328" y="122.59259146666666" width="35" height="8.888888799999998" fill="black" />
<rect x="338.3333328" y="122.59259146666666" width="35" height="8.888888799999998" fill="black" />
<rect x="293.3333328" y="137.40740613333332" width="80" height="8.888888799999998" fill="black" />
<rect x="293.3333328" y="152.2222208" width="80" height="8.888888799999998" fill="black" />
<rect x="293.3333328" y="167.03703546666665" width="80" height="8.888888799999998" fill="black" />
<rect x="293.3333328" y="181.85185013333333" width="80" height="8.888888799999998" fill="black" />
<rect x="195.5555552" y="107.7777768" width="80" height="8.888888799999998" fill="black" />
<rect x="195.5555552" y="122.59259146666666" width="35" height="8.888888799999998" fill="black" />
<rect x="240.5555552" y="122.59259146666666" width="35" height="8.888888799999998" fill="black" />
<rect x="195.5555552" y="137.40740613333332" width="80" height="8.888888799999998" fill="black" />
<rect x="195.5555552" y="152.2222208" width="80" height="8.888888799999998" fill="black" />
<rect x="195.5555552" y="167.03703546666665" width="80" height="8.888888799999998" fill="black" />
<rect x="195.5555552" y="181.85185013333333" width="80" height="8.888888799999998" fill="black" />
<rect x="97.7777776" y="107.7777768" width="35" height="8.888888799999998" fill="black" />
<rect x="142.77777759999998" y="107.7777768" width="35" height="8.888888799999998" fill="black" />
<rect x="97.7777776" y="122.59259146666666" width="80" height="8.888888799999998" fill="black" />
<rect x="97.7777776" y="137.40740613333332" width="80" height="8.888888799999998" fill="black" />
<rect x="97.7777776" y="152.2222208" width="80" height="8.888888799999998" fill="black" />
<rect x="97.7777776" y="167.03703546666665" width="80" height="8.888888799999998" fill="black" />
<rect x="97.7777776" y="181.85185013333333" width="80" height="8.888888799999998" fill="black" />
<rect x="0" y="107.7777768" width="80" height="8.888888799999998" fill="black" />
<rect x="0" y="122.59259146666666" width="80" height="8.888888799999998" fill="black" />
<rect x="0" y="137.40740613333332" width="80" height="8.888888799999998" fill="black" />
<rect x="0" y="152.2222208" width="80" height="8.888888799999998" fill="black" />
<rect x="0" y="167.03703546666665" width="80" height="8.888888799999998" fill="black" />
<rect x="0" y="181.85185013333333" width="80" height="8.888888799999998" fill="black" />
</svg>