<svg version="1.1" baseProfile="full" width="811.789" height="40" xmlns="http://www.w3.org/2000/svg">
<rect x="3" y="2" width="8.4737" height="2" />
<rect x="13.8947" y="2" width="8.4737" height="2" />
<rect x="3" y="4.8333" width="8.4737" height="2" />
<rect x="13.8947" y="4.8333" width="8.4737" height="2" />
<rect x="3" y="7.6667" width="8.4737" height="2" />
<rect x="13.8947" y="7.6667" width="8.4737" height="2" />
<rect x="3" y="10.5" width="8.4737" height="2" />
<rect x="13.8947" y="10.5" width="8.4737" height="2" />
<rect x="3" y="13.3333" width="8.4737" height="2" />
<rect x="13.8947" y="13.3333" width="8.4737" height="2" />
<rect x="3" y="16.1667" width="8.4737" height="2" />
<rect x="13.8947" y="16.1667" width="8.4737" height="2" />
<rect x="28.3684" y="2" width="19.3684" height="2" />
<rect x="28.3684" y="4.8333" width="8.4737" height="2" />
<rect x="39.2631" y="4.8333" width="8.4737" height="2" />
<rect x="28.3684" y="7.6667" width="8.4737" height="2" />
<rect x="39.2631" y="7.6667" width="8.4737" height="2" />
<rect x="28.3684" y="10.5" width="8.4737" height="2" />
<rect x="39.2631" y="10.5" width="8.4737" height="2" />
<rect x="28.3684" y="13.3333" width="8.4737" height="2" />
<rect x="39.2631" y="13.3333" width="8.4737" height="2" />
<rect x="28.3684" y="16.1667" width="8.4737" height="2" />
<rect x="39.2631" y="16.1667" width="8.4737" height="2" />
<rect x="53.7368" y="2" width="8.4737" height="2" />
<rect x="64.6315" y="2" width="8.4737" height="2" />
<rect x="53.7368" y="4.8333" width="19.3684" height="2" />
<rect x="53.7368" y="7.6667" width="8.4737" height="2" />
<rect x="64.6315" y="7.6667" width="8.4737" height="2" />
<rect x="53.7368" y="10.5" width="8.4737" height="2" />
<rect x="64.6315" y="10.5" width="8.4737" height="2" />
<rect x="53.7368" y="13.3333" width="8.4737" height="2" />
<rect x="64.6315" y="13.3333" width="8.4737" height="2" />
<rect x="53.7368" y="16.1667" width="8.4737" height="2" />
<rect x="64.6315" y="16.1667" width="8.4737" height="2" />
<rect x="79.1052" y="2" width="19.3684" height="2" />
<rect x="79.1052" y="4.8333" width="19.3684" height="2" />
<rect x="79.1052" y="7.6667" width="8.4737" height="2" />
<rect x="89.9999" y="7.6667" width="8.4737" height="2" />
<rect x="79.1052" y="10.5" width="8.4737" height="2" />
<rect x="89.9999" y="10.5" width="8.4737" height="2" />
<rect x="79.1052" y="13.3333" width="8.4737" height="2" />
<rect x="89.9999" y="13.3333" width="8.4737" height="2" />
<rect x="79.1052" y="16.1667" width="8.4737" height="2" />
<rect x="89.9999" y="16.1667" width="8.4737" height="2" />
<rect x="104.4736" y="2" width="8.4737" height="2" />
<rect x="115.3684" y="2" width="8.4737" height="2" />
<rect x="104.4736" y="4.8333" width="8.4737" height="2" />
<rect x="115.3684" y="4.8333" width="8.4737" height="2" />
<rect x="104.4736" y="7.6667" width="19.3684" height="2" />
<rect x="104.4736" y="10.5" width="8.4737" height="2" />
<rect x="115.3684" y="10.5" width="8.4737" height="2" />
<rect x="104.4736" y="13.3333" width="8.4737" height="2" />
<rect x="115.3684" y="13.3333" width="8.4737" height="2" />
<rect x="104.4736" y="16.1667" width="8.4737" height="2" />
<rect x="115.3684" y="16.1667" width="8.4737" height="2" />
<rect x="129.842" y="2" width="19.3684" height="2" />
<rect x="129.842" y="4.8333" width="8.4737" height="2" />
<rect x="140.7368" y="4.8333" width="8.4737" height="2" />
<rect x="129.842" y="7.6667" width="19.3684" height="2" />
<rect x="129.842" y="10.5" width="8.4737" height="2" />
<rect x="140.7368" y="10.5" width="8.4737" height="2" />
<rect x="129.842" y="13.3333" width="8.4737" height="2" />
<rect x="140.7368" y="13.3333" width="8.4737" height="2" />
<rect x="129.842" y="16.1667" width="8.4737" height="2" />
<rect x="140.7368" y="16.1667" width="8.4737" height="2" />
<rect x="155.2104" y="2" width="8.4737" height="2" />
<rect x="166.1052" y="2" width="8.4737" height="2" />
<rect x="155.2104" y="4.8333" width="19.3684" height="2" />
<rect x="155.2104" y="7.6667" width="19.3684" height="2" />
<rect x="155.2104" y="10.5" width="8.4737" height="2" />
<rect x="166.1052" y="10.5" width="8.4737" height="2" />
<rect x="155.2104" y="13.3333" width="8.4737" height="2" />
<rect x="166.1052" y="13.3333" width="8.4737" height="2" />
<rect x="155.2104" y="16.1667" width="8.4737" height="2" />
<rect x="166.1052" y="16.1667" width="8.4737" height="2" />
<rect x="180.5788" y="2" width="19.3684" height="2" />
<rect x="180.5788" y="4.8333" width="19.3684" height="2" />
<rect x="180.5788" y="7.6667" width="19.3684" height="2" />
<rect x="180.5788" y="10.5" width="8.4737" height="2" />
<rect x="191.4736" y="10.5" width="8.4737" height="2" />
<rect x="180.5788" y="13.3333" width="8.4737" height="2" />
<rect x="191.4736" y="13.3333" width="8.4737" height="2" />
<rect x="180.5788" y="16.1667" width="8.4737" height="2" />
<rect x="191.4736" y="16.1667" width="8.4737" height="2" />
<rect x="205.9473" y="2" width="8.4737" height="2" />
<rect x="216.842" y="2" width="8.4737" height="2" />
<rect x="205.9473" y="4.8333" width="8.4737" height="2" />
<rect x="216.842" y="4.8333" width="8.4737" height="2" />
<rect x="205.9473" y="7.6667" width="8.4737" height="2" />
<rect x="216.842" y="7.6667" width="8.4737" height="2" />
<rect x="205.9473" y="10.5" width="19.3684" height="2" />
<rect x="205.9473" y="13.3333" width="8.4737" height="2" />
<rect x="216.842" y="13.3333" width="8.4737" height="2" />
<rect x="205.9473" y="16.1667" width="8.4737" height="2" />
<rect x="216.842" y="16.1667" width="8.4737" height="2" />
<rect x="231.3157" y="2" width="19.3684" height="2" />
<rect x="231.3157" y="4.8333" width="8.4737" height="2" />
<rect x="242.2104" y="4.8333" width="8.4737" height="2" />
<rect x="231.3157" y="7.6667" width="8.4737" height="2" />
<rect x="242.2104" y="7.6667" width="8.4737" height="2" />
<rect x="231.3157" y="10.5" width="19.3684" height="2" />
<rect x="231.3157" y="13.3333" width="8.4737" height="2" />
<rect x="242.2104" y="13.3333" width="8.4737" height="2" />
<rect x="231.3157" y="16.1667" width="8.4737" height="2" />
<rect x="242.2104" y="16.1667" width="8.4737" height="2" />
<rect x="256.6841" y="2" width="8.4737" height="2" />
<rect x="267.5788" y="2" width="8.4737" height="2" />
<rect x="256.6841" y="4.8333" width="19.3684" height="2" />
<rect x="256.6841" y="7.6667" width="8.4737" height="2" />
<rect x="267.5788" y="7.6667" width="8.4737" height="2" />
<rect x="256.6841" y="10.5" width="19.3684" height="2" />
<rect x="256.6841" y="13.3333" width="8.4737" height="2" />
<rect x="267.5788" y="13.3333" width="8.4737" height="2" />
<rect x="256.6841" y="16.1667" width="8.4737" height="2" />
<rect x="267.5788" y="16.1667" width="8.4737" height="2" />
<rect x="282.0525" y="2" width="19.3684" height="2" />
<rect x="282.0525" y="4.8333" width="19.3684" height="2" />
<rect x="282.0525" y="7.6667" width="8.4737" height="2" />
<rect x="292.9472" y="7.6667" width="8.4737" height="2" />
<rect x="282.0525" y="10.5" width="19.3684" height="2" />
<rect x="282.0525" y="13.3333" width="8.4737" height="2" />
<rect x="292.9472" y="13.3333" width="8.4737" height="2" />
<rect x="282.0525" y="16.1667" width="8.4737" height="2" />
<rect x="292.9472" y="16.1667" width="8.4737" height="2" />
<rect x="307.4209" y="2" width="8.4737" height="2" />
<rect x="318.3156" y="2" width="8.4737" height="2" />
<rect x="307.4209" y="4.8333" width="8.4737" height="2" />
<rect x="318.3156" y="4.8333" width="8.4737" height="2" />
<rect x="307.4209" y="7.6667" width="19.3684" height="2" />
<rect x="307.4209" y="10.5" width="19.3684" height="2" />
<rect x="307.4209" y="13.3333" width="8.4737" height="2" />
<rect x="318.3156" y="13.3333" width="8.4737" height="2" />
<rect x="307.4209" y="16.1667" width="8.4737" height="2" />
<rect x="318.3156" y="16.1667" width="8.4737" height="2" />
<rect x="332.7893" y="2" width="19.3684" height="2" />
<rect x="332.7893" y="4.8333" width="8.4737" height="2" />
<rect x="343.684" y="4.8333" width="8.4737" height="2" />
<rect x="332.7893" y="7.6667" width="19.3684" height="2" />
<rect x="332.7893" y="10.5" width="19.3684" height="2" />
<rect x="332.7893" y="13.3333" width="8.4737" height="2" />
<rect x="343.684" y="13.3333" width="8.4737" height="2" />
<rect x="332.7893" y="16.1667" width="8.4737" height="2" />
<rect x="343.684" y="16.1667" width="8.4737" height="2" />
<rect x="358.1577" y="2" width="8.4737" height="2" />
<rect x="369.0524" y="2" width="8.4737" height="2" />
<rect x="358.1577" y="4.8333" width="19.3684" height="2" />
<rect x="358.1577" y="7.6667" width="19.3684" height="2" />
<rect x="358.1577" y="10.5" width="19.3684" height="2" />
<rect x="358.1577" y="13.3333" width="8.4737" height="2" />
<rect x="369.0524" y="13.3333" width="8.4737" height="2" />
<rect x="358.1577" y="16.1667" width="8.4737" height="2" />
<rect x="369.0524" y="16.1667" width="8.4737" height="2" />
<rect x="383.5261" y="2" width="19.3684" height="2" />
<rect x="383.5261" y="4.8333" width="19.3684" height="2" />
<rect x="383.5261" y="7.6667" width="19.3684" height="2" />
<rect x="383.5261" y="10.5" width="19.3684" height="2" />
<rect x="383.5261" y="13.3333" width="8.4737" height="2" />
<rect x="394.4208" y="13.3333" width="8.4737" height="2" />
<rect x="383.5261" y="16.1667" width="8.4737" height="2" />
<rect x="394.4208" y="16.1667" width="8.4737" height="2" />
<rect x="408.8945" y="2" width="8.4737" height="2" />
<rect x="419.7892" y="2" width="8.4737" height="2" />
<rect x="408.8945" y="4.8333" width="8.4737" height="2" />
<rect x="419.7892" y="4.8333" width="8.4737" height="2" />
<rect x="408.8945" y="7.6667" width="8.4737" height="2" />
<rect x="419.7892" y="7.6667" width="8.4737" height="2" />
<rect x="408.8945" y="10.5" width="8.4737" height="2" />
<rect x="419.7892" y="10.5" width="8.4737" height="2" />
<rect x="408.8945" y="13.3333" width="19.3684" height="2" />
<rect x="408.8945" y="16.1667" width="8.4737" height="2" />
<rect x="419.7892" y="16.1667" width="8.4737" height="2" />
<rect x="434.2629" y="2" width="19.3684" height="2" />
<rect x="434.2629" y="4.8333" width="8.4737" height="2" />
<rect x="445.1576" y="4.8333" width="8.4737" height="2" />
<rect x="434.2629" y="7.6667" width="8.4737" height="2" />
<rect x="445.1576" y="7.6667" width="8.4737" height="2" />
<rect x="434.2629" y="10.5" width="8.4737" height="2" />
<rect x="445.1576" y="10.5" width="8.4737" height="2" />
<rect x="434.2629" y="13.3333" width="19.3684" height="2" />
<rect x="434.2629" y="16.1667" width="8.4737" height="2" />
<rect x="445.1576" y="16.1667" width="8.4737" height="2" />
<rect x="459.6313" y="2" width="8.4737" height="2" />
<rect x="470.526" y="2" width="8.4737" height="2" />
<rect x="459.6313" y="4.8333" width="19.3684" height="2" />
<rect x="459.6313" y="7.6667" width="8.4737" height="2" />
<rect x="470.526" y="7.6667" width="8.4737" height="2" />
<rect x="459.6313" y="10.5" width="8.4737" height="2" />
<rect x="470.526" y="10.5" width="8.4737" height="2" />
<rect x="459.6313" y="13.3333" width="19.3684" height="2" />
<rect x="459.6313" y="16.1667" width="8.4737" height="2" />
<rect x="470.526" y="16.1667" width="8.4737" height="2" />
<rect x="484.9997" y="2" width="19.3684" height="2" />
<rect x="484.9997" y="4.8333" width="19.3684" height="2" />
<rect x="484.9997" y="7.6667" width="8.4737" height="2" />
<rect x="495.8944" y="7.6667" width="8.4737" height="2" />
<rect x="484.9997" y="10.5" width="8.4737" height="2" />
<rect x="495.8944" y="10.5" width="8.4737" height="2" />
<rect x="484.9997" y="13.3333" width="19.3684" height="2" />
<rect x="484.9997" y="16.1667" width="8.4737" height="2" />
<rect x="495.8944" y="16.1667" width="8.4737" height="2" />
<rect x="510.3681" y="2" width="8.4737" height="2" />
<rect x="521.2629" y="2" width="8.4737" height="2" />
<rect x="510.3681" y="4.8333" width="8.4737" height="2" />
<rect x="521.2629" y="4.8333" width="8.4737" height="2" />
<rect x="510.3681" y="7.6667" width="19.3684" height="2" />
<rect x="510.3681" y="10.5" width="8.4737" height="2" />
<rect x="521.2629" y="10.5" width="8.4737" height="2" />
<rect x="510.3681" y="13.3333" width="19.3684" height="2" />
<rect x="510.3681" y="16.1667" width="8.4737" height="2" />
<rect x="521.2629" y="16.1667" width="8.4737" height="2" />
<rect x="535.7365" y="2" width="19.3684" height="2" />
<rect x="535.7365" y="4.8333" width="8.4737" height="2" />
<rect x="546.6313" y="4.8333" width="8.4737" height="2" />
<rect x="535.7365" y="7.6667" width="19.3684" height="2" />
<rect x="535.7365" y="10.5" width="8.4737" height="2" />
<rect x="546.6313" y="10.5" width="8.4737" height="2" />
<rect x="535.7365" y="13.3333" width="19.3684" height="2" />
<rect x="535.7365" y="16.1667" width="8.4737" height="2" />
<rect x="546.6313" y="16.1667" width="8.4737" height="2" />
<rect x="561.1049" y="2" width="8.4737" height="2" />
<rect x="571.9997" y="2" width="8.4737" height="2" />
<rect x="561.1049" y="4.8333" width="19.3684" height="2" />
<rect x="561.1049" y="7.6667" width="19.3684" height="2" />
<rect x="561.1049" y="10.5" width="8.4737" height="2" />
<rect x="571.9997" y="10.5" width="8.4737" height="2" />
<rect x="561.1049" y="13.3333" width="19.3684" height="2" />
<rect x="561.1049" y="16.1667" width="8.4737" height="2" />
<rect x="571.9997" y="16.1667" width="8.4737" height="2" />
<rect x="586.4733" y="2" width="19.3684" height="2" />
<rect x="586.4733" y="4.8333" width="19.3684" height="2" />
<rect x="586.4733" y="7.6667" width="19.3684" height="2" />
<rect x="586.4733" y="10.5" width="8.4737" height="2" />
<rect x="597.3681" y="10.5" width="8.4737" height="2" />
<rect x="586.4733" y="13.3333" width="19.3684" height="2" />
<rect x="586.4733" y="16.1667" width="8.4737" height="2" />
<rect x="597.3681" y="16.1667" width="8.4737" height="2" />
<rect x="611.8417" y="2" width="8.4737" height="2" />
<rect x="622.7365" y="2" width="8.4737" height="2" />
<rect x="611.8417" y="4.8333" width="8.4737" height="2" />
<rect x="622.7365" y="4.8333" width="8.4737" height="2" />
<rect x="611.8417" y="7.6667" width="8.4737" height="2" />
<rect x="622.7365" y="7.6667" width="8.4737" height="2" />
<rect x="611.8417" y="10.5" width="19.3684" height="2" />
<rect x="611.8417" y="13.3333" width="19.3684" height="2" />
<rect x="611.8417" y="16.1667" width="8.4737" height="2" />
<rect x="622.7365" y="16.1667" width="8.4737" height="2" />
<rect x="637.2102" y="2" width="19.3684" height="2" />
<rect x="637.2102" y="4.8333" width="8.4737" height="2" />
<rect x="648.1049" y="4.8333" width="8.4737" height="2" />
<rect x="637.2102" y="7.6667" width="8.4737" height="2" />
<rect x="648.1049" y="7.6667" width="8.4737" height="2" />
<rect x="637.2102" y="10.5" width="19.3684" height="2" />
<rect x="637.2102" y="13.3333" width="19.3684" height="2" />
<rect x="637.2102" y="16.1667" width="8.4737" height="2" />
<rect x="648.1049" y="16.1667" width="8.4737" height="2" />
<rect x="662.5786" y="2" width="8.4737" height="2" />
<rect x="673.4733" y="2" width="8.4737" height="2" />
<rect x="662.5786" y="4.8333" width="19.3684" height="2" />
<rect x="662.5786" y="7.6667" width="8.4737" height="2" />
<rect x="673.4733" y="7.6667" width="8.4737" height="2" />
<rect x="662.5786" y="10.5" width="19.3684" height="2" />
<rect x="662.5786" y="13.3333" width="19.3684" height="2" />
<rect x="662.5786" y="16.1667" width="8.4737" height="2" />
<rect x="673.4733" y="16.1667" width="8.4737" height="2" />
<rect x="687.947" y="2" width="19.3684" height="2" />
<rect x="687.947" y="4.8333" width="19.3684" height="2" />
<rect x="687.947" y="7.6667" width="8.4737" height="2" />
<rect x="698.8417" y="7.6667" width="8.4737" height="2" />
<rect x="687.947" y="10.5" width="19.3684" height="2" />
<rect x="687.947" y="13.3333" width="19.3684" height="2" />
<rect x="687.947" y="16.1667" width="8.4737" height="2" />
<rect x="698.8417" y="16.1667" width="8.4737" height="2" />
<rect x="713.3154" y="2" width="8.4737" height="2" />
<rect x="724.2101" y="2" width="8.4737" height="2" />
<rect x="713.3154" y="4.8333" width="8.4737" height="2" />
<rect x="724.2101" y="4.8333" width="8.4737" height="2" />
<rect x="713.3154" y="7.6667" width="19.3684" height="2" />
<rect x="713.3154" y="10.5" width="19.3684" height="2" />
<rect x="713.3154" y="13.3333" width="19.3684" height="2" />
<rect x="713.3154" y="16.1667" width="8.4737" height="2" />
<rect x="724.2101" y="16.1667" width="8.4737" height="2" />
<rect x="738.6838" y="2" width="19.3684" height="2" />
<rect x="738.6838" y="4.8333" width="8.4737" height="2" />
<rect x="749.5785" y="4.8333" width="8.4737" height="2" />
<rect x="738.6838" y="7.6667" width="19.3684" height="2" />
<rect x="738.6838" y="10.5" width="19.3684" height="2" />
<rect x="738.6838" y="13.3333" width="19.3684" height="2" />
<rect x="738.6838" y="16.1667" width="8.4737" height="2" />
<rect x="749.5785" y="16.1667" width="8.4737" height="2" />
<rect x="764.0522" y="2" width="8.4737" height="2" />
<rect x="774.9469" y="2" width="8.4737" height="2" />
<rect x="764.0522" y="4.8333" width="19.3684" height="2" />
<rect x="764.0522" y="7.6667" width="19.3684" height="2" />
<rect x="764.0522" y="10.5" width="19.3684" height="2" />
<rect x="764.0522" y="13.3333" width="19.3684" height="2" />
<rect x="764.0522" y="16.1667" width="8.4737" height="2" />
<rect x="774.9469" y="16.1667" width="8.4737" height="2" />
<rect x="789.4206" y="2" width="19.3684" height="2" />
<rect x="789.4206" y="4.8333" width="19.3684" height="2" />
<rect x="789.4206" y="7.6667" width="19.3684" height="2" />
<rect x="789.4206" y="10.5" width="19.3684" height="2" />
<rect x="789.4206" y="13.3333" width="19.3684" height="2" />
<rect x="789.4206" y="16.1667" width="8.4737" height="2" />
<rect x="800.3153" y="16.1667" width="8.4737" height="2" />
<rect x="789.4206" y="21" width="8.4737" height="2" />
<rect x="800.3153" y="21" width="8.4737" height="2" />
<rect x="789.4206" y="23.8333" width="8.4737" height="2" />
<rect x="800.3153" y="23.8333" width="8.4737" height="2" />
<rect x="789.4206" y="26.6667" width="8.4737" height="2" />
<rect x="800.3153" y="26.6667" width="8.4737" height="2" />
<rect x="789.4206" y="29.5" width="8.4737" height="2" />
<rect x="800.3153" y="29.5" width="8.4737" height="2" />
<rect x="789.4206" y="32.3333" width="8.4737" height="2" />
<rect x="800.3153" y="32.3333" width="8.4737" height="2" />
<rect x="789.4206" y="35.1667" width="19.3684" height="2" />
<rect x="764.0522" y="21" width="19.3684" height="2" />
<rect x="764.0522" y="23.8333" width="8.4737" height="2" />
<rect x="774.9469" y="23.8333" width="8.4737" height="2" />
<rect x="764.0522" y="26.6667" width="8.4737" height="2" />
<rect x="774.9469" y="26.6667" width="8.4737" height="2" />
<rect x="764.0522" y="29.5" width="8.4737" height="2" />
<rect x="774.9469" y="29.5" width="8.4737" height="2" />
<rect x="764.0522" y="32.3333" width="8.4737" height="2" />
<rect x="774.9469" y="32.3333" width="8.4737" height="2" />
<rect x="764.0522" y="35.1667" width="19.3684" height="2" />
<rect x="738.6838" y="21" width="8.4737" height="2" />
<rect x="749.5785" y="21" width="8.4737" height="2" />
<rect x="738.6838" y="23.8333" width="19.3684" height="2" />
<rect x="738.6838" y="26.6667" width="8.4737" height="2" />
<rect x="749.5785" y="26.6667" width="8.4737" height="2" />
<rect x="738.6838" y="29.5" width="8.4737" height="2" />
<rect x="749.5785" y="29.5" width="8.4737" height="2" />
<rect x="738.6838" y="32.3333" width="8.4737" height="2" />
<rect x="749.5785" y="32.3333" width="8.4737" height="2" />
<rect x="738.6838" y="35.1667" width="19.3684" height="2" />
<rect x="713.3154" y="21" width="19.3684" height="2" />
<rect x="713.3154" y="23.8333" width="19.3684" height="2" />
<rect x="713.3154" y="26.6667" width="8.4737" height="2" />
<rect x="724.2101" y="26.6667" width="8.4737" height="2" />
<rect x="713.3154" y="29.5" width="8.4737" height="2" />
<rect x="724.2101" y="29.5" width="8.4737" height="2" />
<rect x="713.3154" y="32.3333" width="8.4737" height="2" />
<rect x="724.2101" y="32.3333" width="8.4737" height="2" />
<rect x="713.3154" y="35.1667" width="19.3684" height="2" />
<rect x="687.947" y="21" width="8.4737" height="2" />
<rect x="698.8417" y="21" width="8.4737" height="2" />
<rect x="687.947" y="23.8333" width="8.4737" height="2" />
<rect x="698.8417" y="23.8333" width="8.4737" height="2" />
<rect x="687.947" y="26.6667" width="19.3684" height="2" />
<rect x="687.947" y="29.5" width="8.4737" height="2" />
<rect x="698.8417" y="29.5" width="8.4737" height="2" />
<rect x="687.947" y="32.3333" width="8.4737" height="2" />
<rect x="698.8417" y="32.3333" width="8.4737" height="2" />
<rect x="687.947" y="35.1667" width="19.3684" height="2" />
<rect x="662.5786" y="21" width="19.3684" height="2" />
<rect x="662.5786" y="23.8333" width="8.4737" height="2" />
<rect x="673.4733" y="23.8333" width="8.4737" height="2" />
<rect x="662.5786" y="26.6667" width="19.3684" height="2" />
<rect x="662.5786" y="29.5" width="8.4737" height="2" />
<rect x="673.4733" y="29.5" width="8.4737" height="2" />
<rect x="662.5786" y="32.3333" width="8.4737" height="2" />
<rect x="673.4733" y="32.3333" width="8.4737" height="2" />
<rect x="662.5786" y="35.1667" width="19.3684" height="2" />
<rect x="637.2102" y="21" width="8.4737" height="2" />
<rect x="648.1049" y="21" width="8.4737" height="2" />
<rect x="637.2102" y="23.8333" width="19.3684" height="2" />
<rect x="637.2102" y="26.6667" width="19.3684" height="2" />
<rect x="637.2102" y="29.5" width="8.4737" height="2" />
<rect x="648.1049" y="29.5" width="8.4737" height="2" />
<rect x="637.2102" y="32.3333" width="8.4737" height="2" />
<rect x="648.1049" y="32.3333" width="8.4737" height="2" />
<rect x="637.2102" y="35.1667" width="19.3684" height="2" />
<rect x="611.8417" y="21" width="19.3684" height="2" />
<rect x="611.8417" y="23.8333" width="19.3684" height="2" />
<rect x="611.8417" y="26.6667" width="19.3684" height="2" />
<rect x="611.8417" y="29.5" width="8.4737" height="2" />
<rect x="622.7365" y="29.5" width="8.4737" height="2" />
<rect x="611.8417" y="32.3333" width="8.4737" height="2" />
<rect x="622.7365" y="32.3333" width="8.4737" height="2" />
<rect x="611.8417" y="35.1667" width="19.3684" height="2" />
<rect x="586.4733" y="21" width="8.4737" height="2" />
<rect x="597.3681" y="21" width="8.4737" height="2" />
<rect x="586.4733" y="23.8333" width="8.4737" height="2" />
<rect x="597.3681" y="23.8333" width="8.4737" height="2" />
<rect x="586.4733" y="26.6667" width="8.4737" height="2" />
<rect x="597.3681" y="26.6667" width="8.4737" height="2" />
<rect x="586.4733" y="29.5" width="19.3684" height="2" />
<rect x="586.4733" y="32.3333" width="8.4737" height="2" />
<rect x="597.3681" y="32.3333" width="8.4737" height="2" />
<rect x="586.4733" y="35.1667" width="19.3684" height="2" />
<rect x="561.1049" y="21" width="19.3684" height="2" />
<rect x="561.1049" y="23.8333" width="8.4737" height="2" />
<rect x="571.9997" y="23.8333" width="8.4737" height="2" />
<rect x="561.1049" y="26.6667" width="8.4737" height="2" />
<rect x="571.9997" y="26.6667" width="8.4737" height="2" />
<rect x="561.1049" y="29.5" width="19.3684" height="2" />
<rect x="561.1049" y="32.3333" width="8.4737" height="2" />
<rect x="571.9997" y="32.3333" width="8.4737" height="2" />
<rect x="561.1049" y="35.1667" width="19.3684" height="2" />
<rect x="535.7365" y="21" width="8.4737" height="2" />
<rect x="546.6313" y="21" width="8.4737" height="2" />
<rect x="535.7365" y="23.8333" width="19.3684" height="2" />
<rect x="535.7365" y="26.6667" width="8.4737" height="2" />
<rect x="546.6313" y="26.6667" width="8.4737" height="2" />
<rect x="535.7365" y="29.5" width="19.3684" height="2" />
<rect x="535.7365" y="32.3333" width="8.4737" height="2" />
<rect x="546.6313" y="32.3333" width="8.4737" height="2" />
<rect x="535.7365" y="35.1667" width="19.3684" height="2" />
<rect x="510.3681" y="21" width="19.3684" height="2" />
<rect x="510.3681" y="23.8333" width="19.3684" height="2" />
<rect x="510.3681" y="26.6667" width="8.4737" height="2" />
<rect x="521.2629" y="26.6667" width="8.4737" height="2" />
<rect x="510.3681" y="29.5" width="19.3684" height="2" />
<rect x="510.3681" y="32.3333" width="8.4737" height="2" />
<rect x="521.2629" y="32.3333" width="8.4737" height="2" />
<rect x="510.3681" y="35.1667" width="19.3684" height="2" />
<rect x="484.9997" y="21" width="8.4737" height="2" />
<rect x="495.8944" y="21" width="8.4737" height="2" />
<rect x="484.9997" y="23.8333" width="8.4737" height="2" />
<rect x="495.8944" y="23.8333" width="8.4737" height="2" />
<rect x="484.9997" y="26.6667" width="19.3684" height="2" />
<rect x="484.9997" y="29.5" width="19.3684" height="2" />
<rect x="484.9997" y="32.3333" width="8.4737" height="2" />
<rect x="495.8944" y="32.3333" width="8.4737" height="2" />
<rect x="484.9997" y="35.1667" width="19.3684" height="2" />
<rect x="459.6313" y="21" width="19.3684" height="2" />
<rect x="459.6313" y="23.8333" width="8.4737" height="2" />
<rect x="470.526" y="23.8333" width="8.4737" height="2" />
<rect x="459.6313" y="26.6667" width="19.3684" height="2" />
<rect x="459.6313" y="29.5" width="19.3684" height="2" />
<rect x="459.6313" y="32.3333" width="8.4737" height="2" />
<rect x="470.526" y="32.3333" width="8.4737" height="2" />
<rect x="459.6313" y="35.1667" width="19.3684" height="2" />
<rect x="434.2629" y="21" width="8.4737" height="2" />
<rect x="445.1576" y="21" width="8.4737" height="2" />
<rect x="434.2629" y="23.8333" width="19.3684" height="2" />
<rect x="434.2629" y="26.6667" width="19.3684" height="2" />
<rect x="434.2629" y="29.5" width="19.3684" height="2" />
<rect x="434.2629" y="32.3333" width="8.4737" height="2" />
<rect x="445.1576" y="32.3333" width="8.4737" height="2" />
<rect x="434.2629" y="35.1667" width="19.3684" height="2" />
<rect x="408.8945" y="21" width="19.3684" height="2" />
<rect x="408.8945" y="23.8333" width="19.3684" height="2" />
<rect x="408.8945" y="26.6667" width="19.3684" height="2" />
<rect x="408.8945" y="29.5" width="19.3684" height="2" />
<rect x="408.8945" y="32.3333" width="8.4737" height="2" />
<rect x="419.7892" y="32.3333" width="8.4737" height="2" />
<rect x="408.8945" y="35.1667" width="19.3684" height="2" />
<rect x="383.5261" y="21" width="8.4737" height="2" />
<rect x="394.4208" y="21" width="8.4737" height="2" />
<rect x="383.5261" y="23.8333" width="8.4737" height="2" />
<rect x="394.4208" y="23.8333" width="8.4737" height="2" />
<rect x="383.5261" y="26.6667" width="8.4737" height="2" />
<rect x="394.4208" y="26.6667" width="8.4737" height="2" />
<rect x="383.5261" y="29.5" width="8.4737" height="2" />
<rect x="394.4208" y="29.5" width="8.4737" height="2" />
<rect x="383.5261" y="32.3333" width="19.3684" height="2" />
<rect x="383.5261" y="35.1667" width="19.3684" height="2" />
<rect x="358.1577" y="21" width="19.3684" height="2" />
<rect x="358.1577" y="23.8333" width="8.4737" height="2" />
<rect x="369.0524" y="23.8333" width="8.4737" height="2" />
<rect x="358.1577" y="26.6667" width="8.4737" height="2" />
<rect x="369.0524" y="26.6667" width="8.4737" height="2" />
<rect x="358.1577" y="29.5" width="8.4737" height="2" />
<rect x="369.0524" y="29.5" width="8.4737" height="2" />
<rect x="358.1577" y="32.3333" width="19.3684" height="2" />
<rect x="358.1577" y="35.1667" width="19.3684" height="2" />
<rect x="332.7893" y="21" width="8.4737" height="2" />
<rect x="343.684" y="21" width="8.4737" height="2" />
<rect x="332.7893" y="23.8333" width="19.3684" height="2" />
<rect x="332.7893" y="26.6667" width="8.4737" height="2" />
<rect x="343.684" y="26.6667" width="8.4737" height="2" />
<rect x="332.7893" y="29.5" width="8.4737" height="2" />
<rect x="343.684" y="29.5" width="8.4737" height="2" />
<rect x="332.7893" y="32.3333" width="19.3684" height="2" />
<rect x="332.7893" y="35.1667" width="19.3684" height="2" />
<rect x="307.4209" y="21" width="19.3684" height="2" />
<rect x="307.4209" y="23.8333" width="19.3684" height="2" />
<rect x="307.4209" y="26.6667" width="8.4737" height="2" />
<rect x="318.3156" y="26.6667" width="8.4737" height="2" />
<rect x="307.4209" y="29.5" width="8.4737" height="2" />
<rect x="318.3156" y="29.5" width="8.4737" height="2" />
<rect x="307.4209" y="32.3333" width="19.3684" height="2" />
<rect x="307.4209" y="35.1667" width="19.3684" height="2" />
<rect x="282.0525" y="21" width="8.4737" height="2" />
<rect x="292.9472" y="21" width="8.4737" height="2" />
<rect x="282.0525" y="23.8333" width="8.4737" height="2" />
<rect x="292.9472" y="23.8333" width="8.4737" height="2" />
<rect x="282.0525" y="26.6667" width="19.3684" height="2" />
<rect x="282.0525" y="29.5" width="8.4737" height="2" />
<rect x="292.9472" y="29.5" width="8.4737" height="2" />
<rect x="282.0525" y="32.3333" width="19.3684" height="2" />
<rect x="282.0525" y="35.1667" width="19.3684" height="2" />
<rect x="256.6841" y="21" width="19.3684" height="2" />
<rect x="256.6841" y="23.8333" width="8.4737" height="2" />
<rect x="267.5788" y="23.8333" width="8.4737" height="2" />
<rect x="256.6841" y="26.6667" width="19.3684" height="2" />
<rect x="256.6841" y="29.5" width="8.4737" height="2" />
<rect x="267.5788" y="29.5" width="8.4737" height="2" />
<rect x="256.6841" y="32.3333" width="19.3684" height="2" />
<rect x="256.6841" y="35.1667" width="19.3684" height="2" />
<rect x="231.3157" y="21" width="8.4737" height="2" />
<rect x="242.2104" y="21" width="8.4737" height="2" />
<rect x="231.3157" y="23.8333" width="19.3684" height="2" />
<rect x="231.3157" y="26.6667" width="19.3684" height="2" />
<rect x="231.3157" y="29.5" width="8.4737" height="2" />
<rect x="242.2104" y="29.5" width="8.4737" height="2" />
<rect x="231.3157" y="32.3333" width="19.3684" height="2" />
<rect x="231.3157" y="35.1667" width="19.3684" height="2" />
<rect x="205.9473" y="21" width="19.3684" height="2" />
<rect x="205.9473" y="23.8333" width="19.3684" height="2" />
<rect x="205.9473" y="26.6667" width="19.3684" height="2" />
<rect x="205.9473" y="29.5" width="8.4737" height="2" />
<rect x="216.842" y="29.5" width="8.4737" height="2" />
<rect x="205.9473" y="32.3333" width="19.3684" height="2" />
<rect x="205.9473" y="35.1667" width="19.3684" height="2" />
<rect x="180.5788" y="21" width="8.4737" height="2" />
<rect x="191.4736" y="21" width="8.4737" height="2" />
<rect x="180.5788" y="23.8333" width="8.4737" height="2" />
<rect x="191.4736" y="23.8333" width="8.4737" height="2" />
<rect x="180.5788" y="26.6667" width="8.4737" height="2" />
<rect x="191.4736" y="26.6667" width="8.4737" height="2" />
<rect x="180.5788" y="29.5" width="19.3684" height="2" />
<rect x="180.5788" y="32.3333" width="19.3684" height="2" />
<rect x="180.5788" y="35.1667" width="19.3684" height="2" />
<rect x="155.2104" y="21" width="19.3684" height="2" />
<rect x="155.2104" y="23.8333" width="8.4737" height="2" />
<rect x="166.1052" y="23.8333" width="8.4737" height="2" />
<rect x="155.2104" y="26.6667" width="8.4737" height="2" />
<rect x="166.1052" y="26.6667" width="8.4737" height="2" />
<rect x="155.2104" y="29.5" width="19.3684" height="2" />
<rect x="155.2104" y="32.3333" width="19.3684" height="2" />
<rect x="155.2104" y="35.1667" width="19.3684" height="2" />
<rect x="129.842" y="21" width="8.4737" height="2" />
<rect x="140.7368" y="21" width="8.4737" height="2" />
<rect x="129.842" y="23.8333" width="19.3684" height="2" />
<rect x="129.842" y="26.6667" width="8.4737" height="2" />
<rect x="140.7368" y="26.6667" width="8.4737" height="2" />
<rect x="129.842" y="29.5" width="19.3684" height="2" />
<rect x="129.842" y="32.3333" width="19.3684" height="2" />
<rect x="129.842" y="35.1667" width="19.3684" height="2" />
<rect x="104.4736" y="21" width="19.3684" height="2" />
<rect x="104.4736" y="23.8333" width="19.3684" height="2" />
<rect x="104.4736" y="26.6667" width="8.4737" height="2" />
<rect x="115.3684" y="26.6667" width="8.4737" height="2" />
<rect x="104.4736" y="29.5" width="19.3684" height="2" />
<rect x="104.4736" y="32.3333" width="19.3684" height="2" />
<rect x="104.4736" y="35.1667" width="19.3684" height="2" />
<rect x="79.1052" y="21" width="8.4737" height="2" />
<rect x="89.9999" y="21" width="8.4737" height="2" />
<rect x="79.1052" y="23.8333" width="8.4737" height="2" />
<rect x="89.9999" y="23.8333" width="8.4737" height="2" />
<rect x="79.1052" y="26.6667" width="19.3684" height="2" />
<rect x="79.1052" y="29.5" width="19.3684" height="2" />
<rect x="79.1052" y="32.3333" width="19.3684" height="2" />
<rect x="79.1052" y="35.1667" width="19.3684" height="2" />
<rect x="53.7368" y="21" width="19.3684" height="2" />
<rect x="53.7368" y="23.8333" width="8.4737" height="2" />
<rect x="64.6315" y="23.8333" width="8.4737" height="2" />
<rect x="53.7368" y="26.6667" width="19.3684" height="2" />
<rect x="53.7368" y="29.5" width="19.3684" height="2" />
<rect x="53.7368" y="32.3333" width="19.3684" height="2" />
<rect x="53.7368" y="35.1667" width="19.3684" height="2" />
<rect x="28.3684" y="21" width="8.4737" height="2" />
<rect x="39.2631" y="21" width="8.4737" height="2" />
<rect x="28.3684" y="23.8333" width="19.3684" height="2" />
<rect x="28.3684" y="26.6667" width="19.3684" height="2" />
<rect x="28.3684" y="29.5" width="19.3684" height="2" />
<rect x="28.3684" y="32.3333" width="19.3684" height="2" />
<rect x="28.3684" y="35.1667" width="19.3684" height="2" />
<rect x="3" y="21" width="19.3684" height="2" />
<rect x="3" y="23.8333" width="19.3684" height="2" />
<rect x="3" y="26.6667" width="19.3684" height="2" />
<rect x="3" y="29.5" width="19.3684" height="2" />
<rect x="3" y="32.3333" width="19.3684" height="2" />
<rect x="3" y="35.1667" width="19.3684" height="2" />
<rect x="0" y="0" width="811.789" height="40" stroke="lightblue" fill-opacity="0" />
</svg>