<svg version="1.1"
  baseProfile="full"
  width="3200" height="800"
  xmlns="http://www.w3.org/2000/svg">
  <rect x="10" y="10" width="35" height="8.888888799999998" fill="black" />
<rect x="55" y="10" width="35" height="8.888888799999998" fill="black" />
<rect x="110" y="10" width="80" height="8.888888799999998" fill="black" />
<rect x="210" y="10" width="35" height="8.888888799999998" fill="black" />
<rect x="255" y="10" width="35" height="8.888888799999998" fill="black" />
<rect x="310" y="10" width="80" height="8.888888799999998" fill="black" />
<rect x="410" y="10" width="35" height="8.888888799999998" fill="black" />
<rect x="455" y="10" width="35" height="8.888888799999998" fill="black" />
<rect x="510" y="10" width="80" height="8.888888799999998" fill="black" />
<rect x="610" y="10" width="35" height="8.888888799999998" fill="black" />
<rect x="655" y="10" width="35" height="8.888888799999998" fill="black" />
<rect x="710" y="10" width="80" height="8.888888799999998" fill="black" />
<rect x="810" y="10" width="35" height="8.888888799999998" fill="black" />
<rect x="855" y="10" width="35" height="8.888888799999998" fill="black" />
<rect x="910" y="10" width="80" height="8.888888799999998" fill="black" />
<rect x="1010" y="10" width="35" height="8.888888799999998" fill="black" />
<rect x="1055" y="10" width="35" height="8.888888799999998" fill="black" />
<rect x="1110" y="10" width="80" height="8.888888799999998" fill="black" />
<rect x="1210" y="10" width="35" height="8.888888799999998" fill="black" />
<rect x="1255" y="10" width="35" height="8.888888799999998" fill="black" />
<rect x="1310" y="10" width="80" height="8.888888799999998" fill="black" />
<rect x="1410" y="10" width="35" height="8.888888799999998" fill="black" />
<rect x="1455" y="10" width="35" height="8.888888799999998" fill="black" />
<rect x="1510" y="10" width="80" height="8.888888799999998" fill="black" />
<rect x="1610" y="10" width="35" height="8.888888799999998" fill="black" />
<rect x="1655" y="10" width="35" height="8.888888799999998" fill="black" />
<rect x="1710" y="10" width="80" height="8.888888799999998" fill="black" />
<rect x="1810" y="10" width="35" height="8.888888799999998" fill="black" />
<rect x="1855" y="10" width="35" height="8.888888799999998" fill="black" />
<rect x="1910" y="10" width="80" height="8.888888799999998" fill="black" />
<rect x="2010" y="10" width="35" height="8.888888799999998" fill="black" />
<rect x="2055" y="10" width="35" height="8.888888799999998" fill="black" />
<rect x="2110" y="10" width="80" height="8.888888799999998" fill="black" />
<rect x="2210" y="10" width="35" height="8.888888799999998" fill="black" />
<rect x="2255" y="10" width="35" height="8.888888799999998" fill="black" />
<rect x="2310" y="10" width="80" height="8.888888799999998" fill="black" />
<rect x="2410" y="10" width="35" height="8.888888799999998" fill="black" />
<rect x="2455" y="10" width="35" height="8.888888799999998" fill="black" />
<rect x="2510" y="10" width="80" height="8.888888799999998" fill="black" />
<rect x="2610" y="10" width="35" height="8.888888799999998" fill="black" />
<rect x="2655" y="10" width="35" height="8.888888799999998" fill="black" />
<rect x="2710" y="10" width="80" height="8.888888799999998" fill="black" />
<rect x="2810" y="10" width="35" height="8.888888799999998" fill="black" />
<rect x="2855" y="10" width="35" height="8.888888799999998" fill="black" />
<rect x="2910" y="10" width="80" height="8.888888799999998" fill="black" />
<rect x="3010" y="10" width="35" height="8.888888799999998" fill="black" />
<rect x="3055" y="10" width="35" height="8.888888799999998" fill="black" />
<rect x="3110" y="10" width="80" height="8.888888799999998" fill="black" />
<rect x="10" y="24.814814666666663" width="35" height="8.888888799999998" fill="black" />
<rect x="55" y="24.814814666666663" width="35" height="8.888888799999998" fill="black" />
<rect x="110" y="24.814814666666663" width="35" height="8.888888799999998" fill="black" />
<rect x="155" y="24.814814666666663" width="35" height="8.888888799999998" fill="black" />
<rect x="210" y="24.814814666666663" width="80" height="8.888888799999998" fill="black" />
<rect x="310" y="24.814814666666663" width="80" height="8.888888799999998" fill="black" />
<rect x="410" y="24.814814666666663" width="35" height="8.888888799999998" fill="black" />
<rect x="455" y="24.814814666666663" width="35" height="8.888888799999998" fill="black" />
<rect x="510" y="24.814814666666663" width="35" height="8.888888799999998" fill="black" />
<rect x="555" y="24.814814666666663" width="35" height="8.888888799999998" fill="black" />
<rect x="610" y="24.814814666666663" width="80" height="8.888888799999998" fill="black" />
<rect x="710" y="24.814814666666663" width="80" height="8.888888799999998" fill="black" />
<rect x="810" y="24.814814666666663" width="35" height="8.888888799999998" fill="black" />
<rect x="855" y="24.814814666666663" width="35" height="8.888888799999998" fill="black" />
<rect x="910" y="24.814814666666663" width="35" height="8.888888799999998" fill="black" />
<rect x="955" y="24.814814666666663" width="35" height="8.888888799999998" fill="black" />
<rect x="1010" y="24.814814666666663" width="80" height="8.888888799999998" fill="black" />
<rect x="1110" y="24.814814666666663" width="80" height="8.888888799999998" fill="black" />
<rect x="1210" y="24.814814666666663" width="35" height="8.888888799999998" fill="black" />
<rect x="1255" y="24.814814666666663" width="35" height="8.888888799999998" fill="black" />
<rect x="1310" y="24.814814666666663" width="35" height="8.888888799999998" fill="black" />
<rect x="1355" y="24.814814666666663" width="35" height="8.888888799999998" fill="black" />
<rect x="1410" y="24.814814666666663" width="80" height="8.888888799999998" fill="black" />
<rect x="1510" y="24.814814666666663" width="80" height="8.888888799999998" fill="black" />
<rect x="1610" y="24.814814666666663" width="35" height="8.888888799999998" fill="black" />
<rect x="1655" y="24.814814666666663" width="35" height="8.888888799999998" fill="black" />
<rect x="1710" y="24.814814666666663" width="35" height="8.888888799999998" fill="black" />
<rect x="1755" y="24.814814666666663" width="35" height="8.888888799999998" fill="black" />
<rect x="1810" y="24.814814666666663" width="80" height="8.888888799999998" fill="black" />
<rect x="1910" y="24.814814666666663" width="80" height="8.888888799999998" fill="black" />
<rect x="2010" y="24.814814666666663" width="35" height="8.888888799999998" fill="black" />
<rect x="2055" y="24.814814666666663" width="35" height="8.888888799999998" fill="black" />
<rect x="2110" y="24.814814666666663" width="35" height="8.888888799999998" fill="black" />
<rect x="2155" y="24.814814666666663" width="35" height="8.888888799999998" fill="black" />
<rect x="2210" y="24.814814666666663" width="80" height="8.888888799999998" fill="black" />
<rect x="2310" y="24.814814666666663" width="80" height="8.888888799999998" fill="black" />
<rect x="2410" y="24.814814666666663" width="35" height="8.888888799999998" fill="black" />
<rect x="2455" y="24.814814666666663" width="35" height="8.888888799999998" fill="black" />
<rect x="2510" y="24.814814666666663" width="35" height="8.888888799999998" fill="black" />
<rect x="2555" y="24.814814666666663" width="35" height="8.888888799999998" fill="black" />
<rect x="2610" y="24.814814666666663" width="80" height="8.888888799999998" fill="black" />
<rect x="2710" y="24.814814666666663" width="80" height="8.888888799999998" fill="black" />
<rect x="2810" y="24.814814666666663" width="35" height="8.888888799999998" fill="black" />
<rect x="2855" y="24.814814666666663" width="35" height="8.888888799999998" fill="black" />
<rect x="2910" y="24.814814666666663" width="35" height="8.888888799999998" fill="black" />
<rect x="2955" y="24.814814666666663" width="35" height="8.888888799999998" fill="black" />
<rect x="3010" y="24.814814666666663" width="80" height="8.888888799999998" fill="black" />
<rect x="3110" y="24.814814666666663" width="80" height="8.888888799999998" fill="black" />
<rect x="10" y="39.62962933333333" width="35" height="8.888888799999998" fill="black" />
<rect x="55" y="39.62962933333333" width="35" height="8.888888799999998" fill="black" />
<rect x="110" y="39.62962933333333" width="35" height="8.888888799999998" fill="black" />
<rect x="155" y="39.62962933333333" width="35" height="8.888888799999998" fill="black" />
<rect x="210" y="39.62962933333333" width="35" height="8.888888799999998" fill="black" />
<rect x="255" y="39.62962933333333" width="35" height="8.888888799999998" fill="black" />
<rect x="310" y="39.62962933333333" width="35" height="8.888888799999998" fill="black" />
<rect x="355" y="39.62962933333333" width="35" height="8.888888799999998" fill="black" />
<rect x="410" y="39.62962933333333" width="80" height="8.888888799999998" fill="black" />
<rect x="510" y="39.62962933333333" width="80" height="8.888888799999998" fill="black" />
<rect x="610" y="39.62962933333333" width="80" height="8.888888799999998" fill="black" />
<rect x="710" y="39.62962933333333" width="80" height="8.888888799999998" fill="black" />
<rect x="810" y="39.62962933333333" width="35" height="8.888888799999998" fill="black" />
<rect x="855" y="39.62962933333333" width="35" height="8.888888799999998" fill="black" />
<rect x="910" y="39.62962933333333" width="35" height="8.888888799999998" fill="black" />
<rect x="955" y="39.62962933333333" width="35" height="8.888888799999998" fill="black" />
<rect x="1010" y="39.62962933333333" width="35" height="8.888888799999998" fill="black" />
<rect x="1055" y="39.62962933333333" width="35" height="8.888888799999998" fill="black" />
<rect x="1110" y="39.62962933333333" width="35" height="8.888888799999998" fill="black" />
<rect x="1155" y="39.62962933333333" width="35" height="8.888888799999998" fill="black" />
<rect x="1210" y="39.62962933333333" width="80" height="8.888888799999998" fill="black" />
<rect x="1310" y="39.62962933333333" width="80" height="8.888888799999998" fill="black" />
<rect x="1410" y="39.62962933333333" width="80" height="8.888888799999998" fill="black" />
<rect x="1510" y="39.62962933333333" width="80" height="8.888888799999998" fill="black" />
<rect x="1610" y="39.62962933333333" width="35" height="8.888888799999998" fill="black" />
<rect x="1655" y="39.62962933333333" width="35" height="8.888888799999998" fill="black" />
<rect x="1710" y="39.62962933333333" width="35" height="8.888888799999998" fill="black" />
<rect x="1755" y="39.62962933333333" width="35" height="8.888888799999998" fill="black" />
<rect x="1810" y="39.62962933333333" width="35" height="8.888888799999998" fill="black" />
<rect x="1855" y="39.62962933333333" width="35" height="8.888888799999998" fill="black" />
<rect x="1910" y="39.62962933333333" width="35" height="8.888888799999998" fill="black" />
<rect x="1955" y="39.62962933333333" width="35" height="8.888888799999998" fill="black" />
<rect x="2010" y="39.62962933333333" width="80" height="8.888888799999998" fill="black" />
<rect x="2110" y="39.62962933333333" width="80" height="8.888888799999998" fill="black" />
<rect x="2210" y="39.62962933333333" width="80" height="8.888888799999998" fill="black" />
<rect x="2310" y="39.62962933333333" width="80" height="8.888888799999998" fill="black" />
<rect x="2410" y="39.62962933333333" width="35" height="8.888888799999998" fill="black" />
<rect x="2455" y="39.62962933333333" width="35" height="8.888888799999998" fill="black" />
<rect x="2510" y="39.62962933333333" width="35" height="8.888888799999998" fill="black" />
<rect x="2555" y="39.62962933333333" width="35" height="8.888888799999998" fill="black" />
<rect x="2610" y="39.62962933333333" width="35" height="8.888888799999998" fill="black" />
<rect x="2655" y="39.62962933333333" width="35" height="8.888888799999998" fill="black" />
<rect x="2710" y="39.62962933333333" width="35" height="8.888888799999998" fill="black" />
<rect x="2755" y="39.62962933333333" width="35" height="8.888888799999998" fill="black" />
<rect x="2810" y="39.62962933333333" width="80" height="8.888888799999998" fill="black" />
<rect x="2910" y="39.62962933333333" width="80" height="8.888888799999998" fill="black" />
<rect x="3010" y="39.62962933333333" width="80" height="8.888888799999998" fill="black" />
<rect x="3110" y="39.62962933333333" width="80" height="8.888888799999998" fill="black" />
<rect x="10" y="54.444444" width="35" height="8.888888799999998" fill="black" />
<rect x="55" y="54.444444" width="35" height="8.888888799999998" fill="black" />
<rect x="110" y="54.444444" width="35" height="8.888888799999998" fill="black" />
<rect x="155" y="54.444444" width="35" height="8.888888799999998" fill="black" />
<rect x="210" y="54.444444" width="35" height="8.888888799999998" fill="black" />
<rect x="255" y="54.444444" width="35" height="8.888888799999998" fill="black" />
<rect x="310" y="54.444444" width="35" height="8.888888799999998" fill="black" />
<rect x="355" y="54.444444" width="35" height="8.888888799999998" fill="black" />
<rect x="410" y="54.444444" width="35" height="8.888888799999998" fill="black" />
<rect x="455" y="54.444444" width="35" height="8.888888799999998" fill="black" />
<rect x="510" y="54.444444" width="35" height="8.888888799999998" fill="black" />
<rect x="555" y="54.444444" width="35" height="8.888888799999998" fill="black" />
<rect x="610" y="54.444444" width="35" height="8.888888799999998" fill="black" />
<rect x="655" y="54.444444" width="35" height="8.888888799999998" fill="black" />
<rect x="710" y="54.444444" width="35" height="8.888888799999998" fill="black" />
<rect x="755" y="54.444444" width="35" height="8.888888799999998" fill="black" />
<rect x="810" y="54.444444" width="80" height="8.888888799999998" fill="black" />
<rect x="910" y="54.444444" width="80" height="8.888888799999998" fill="black" />
<rect x="1010" y="54.444444" width="80" height="8.888888799999998" fill="black" />
<rect x="1110" y="54.444444" width="80" height="8.888888799999998" fill="black" />
<rect x="1210" y="54.444444" width="80" height="8.888888799999998" fill="black" />
<rect x="1310" y="54.444444" width="80" height="8.888888799999998" fill="black" />
<rect x="1410" y="54.444444" width="80" height="8.888888799999998" fill="black" />
<rect x="1510" y="54.444444" width="80" height="8.888888799999998" fill="black" />
<rect x="1610" y="54.444444" width="35" height="8.888888799999998" fill="black" />
<rect x="1655" y="54.444444" width="35" height="8.888888799999998" fill="black" />
<rect x="1710" y="54.444444" width="35" height="8.888888799999998" fill="black" />
<rect x="1755" y="54.444444" width="35" height="8.888888799999998" fill="black" />
<rect x="1810" y="54.444444" width="35" height="8.888888799999998" fill="black" />
<rect x="1855" y="54.444444" width="35" height="8.888888799999998" fill="black" />
<rect x="1910" y="54.444444" width="35" height="8.888888799999998" fill="black" />
<rect x="1955" y="54.444444" width="35" height="8.888888799999998" fill="black" />
<rect x="2010" y="54.444444" width="35" height="8.888888799999998" fill="black" />
<rect x="2055" y="54.444444" width="35" height="8.888888799999998" fill="black" />
<rect x="2110" y="54.444444" width="35" height="8.888888799999998" fill="black" />
<rect x="2155" y="54.444444" width="35" height="8.888888799999998" fill="black" />
<rect x="2210" y="54.444444" width="35" height="8.888888799999998" fill="black" />
<rect x="2255" y="54.444444" width="35" height="8.888888799999998" fill="black" />
<rect x="2310" y="54.444444" width="35" height="8.888888799999998" fill="black" />
<rect x="2355" y="54.444444" width="35" height="8.888888799999998" fill="black" />
<rect x="2410" y="54.444444" width="80" height="8.888888799999998" fill="black" />
<rect x="2510" y="54.444444" width="80" height="8.888888799999998" fill="black" />
<rect x="2610" y="54.444444" width="80" height="8.888888799999998" fill="black" />
<rect x="2710" y="54.444444" width="80" height="8.888888799999998" fill="black" />
<rect x="2810" y="54.444444" width="80" height="8.888888799999998" fill="black" />
<rect x="2910" y="54.444444" width="80" height="8.888888799999998" fill="black" />
<rect x="3010" y="54.444444" width="80" height="8.888888799999998" fill="black" />
<rect x="3110" y="54.444444" width="80" height="8.888888799999998" fill="black" />
<rect x="10" y="69.25925866666665" width="35" height="8.888888799999998" fill="black" />
<rect x="55" y="69.25925866666665" width="35" height="8.888888799999998" fill="black" />
<rect x="110" y="69.25925866666665" width="35" height="8.888888799999998" fill="black" />
<rect x="155" y="69.25925866666665" width="35" height="8.888888799999998" fill="black" />
<rect x="210" y="69.25925866666665" width="35" height="8.888888799999998" fill="black" />
<rect x="255" y="69.25925866666665" width="35" height="8.888888799999998" fill="black" />
<rect x="310" y="69.25925866666665" width="35" height="8.888888799999998" fill="black" />
<rect x="355" y="69.25925866666665" width="35" height="8.888888799999998" fill="black" />
<rect x="410" y="69.25925866666665" width="35" height="8.888888799999998" fill="black" />
<rect x="455" y="69.25925866666665" width="35" height="8.888888799999998" fill="black" />
<rect x="510" y="69.25925866666665" width="35" height="8.888888799999998" fill="black" />
<rect x="555" y="69.25925866666665" width="35" height="8.888888799999998" fill="black" />
<rect x="610" y="69.25925866666665" width="35" height="8.888888799999998" fill="black" />
<rect x="655" y="69.25925866666665" width="35" height="8.888888799999998" fill="black" />
<rect x="710" y="69.25925866666665" width="35" height="8.888888799999998" fill="black" />
<rect x="755" y="69.25925866666665" width="35" height="8.888888799999998" fill="black" />
<rect x="810" y="69.25925866666665" width="35" height="8.888888799999998" fill="black" />
<rect x="855" y="69.25925866666665" width="35" height="8.888888799999998" fill="black" />
<rect x="910" y="69.25925866666665" width="35" height="8.888888799999998" fill="black" />
<rect x="955" y="69.25925866666665" width="35" height="8.888888799999998" fill="black" />
<rect x="1010" y="69.25925866666665" width="35" height="8.888888799999998" fill="black" />
<rect x="1055" y="69.25925866666665" width="35" height="8.888888799999998" fill="black" />
<rect x="1110" y="69.25925866666665" width="35" height="8.888888799999998" fill="black" />
<rect x="1155" y="69.25925866666665" width="35" height="8.888888799999998" fill="black" />
<rect x="1210" y="69.25925866666665" width="35" height="8.888888799999998" fill="black" />
<rect x="1255" y="69.25925866666665" width="35" height="8.888888799999998" fill="black" />
<rect x="1310" y="69.25925866666665" width="35" height="8.888888799999998" fill="black" />
<rect x="1355" y="69.25925866666665" width="35" height="8.888888799999998" fill="black" />
<rect x="1410" y="69.25925866666665" width="35" height="8.888888799999998" fill="black" />
<rect x="1455" y="69.25925866666665" width="35" height="8.888888799999998" fill="black" />
<rect x="1510" y="69.25925866666665" width="35" height="8.888888799999998" fill="black" />
<rect x="1555" y="69.25925866666665" width="35" height="8.888888799999998" fill="black" />
<rect x="1610" y="69.25925866666665" width="80" height="8.888888799999998" fill="black" />
<rect x="1710" y="69.25925866666665" width="80" height="8.888888799999998" fill="black" />
<rect x="1810" y="69.25925866666665" width="80" height="8.888888799999998" fill="black" />
<rect x="1910" y="69.25925866666665" width="80" height="8.888888799999998" fill="black" />
<rect x="2010" y="69.25925866666665" width="80" height="8.888888799999998" fill="black" />
<rect x="2110" y="69.25925866666665" width="80" height="8.888888799999998" fill="black" />
<rect x="2210" y="69.25925866666665" width="80" height="8.888888799999998" fill="black" />
<rect x="2310" y="69.25925866666665" width="80" height="8.888888799999998" fill="black" />
<rect x="2410" y="69.25925866666665" width="80" height="8.888888799999998" fill="black" />
<rect x="2510" y="69.25925866666665" width="80" height="8.888888799999998" fill="black" />
<rect x="2610" y="69.25925866666665" width="80" height="8.888888799999998" fill="black" />
<rect x="2710" y="69.25925866666665" width="80" height="8.888888799999998" fill="black" />
<rect x="2810" y="69.25925866666665" width="80" height="8.888888799999998" fill="black" />
<rect x="2910" y="69.25925866666665" width="80" height="8.888888799999998" fill="black" />
<rect x="3010" y="69.25925866666665" width="80" height="8.888888799999998" fill="black" />
<rect x="3110" y="69.25925866666665" width="80" height="8.888888799999998" fill="black" />
<rect x="10" y="84.07407333333333" width="35" height="8.888888799999998" fill="black" />
<rect x="55" y="84.07407333333333" width="35" height="8.888888799999998" fill="black" />
<rect x="110" y="84.07407333333333" width="35" height="8.888888799999998" fill="black" />
<rect x="155" y="84.07407333333333" width="35" height="8.888888799999998" fill="black" />
<rect x="210" y="84.07407333333333" width="35" height="8.888888799999998" fill="black" />
<rect x="255" y="84.07407333333333" width="35" height="8.888888799999998" fill="black" />
<rect x="310" y="84.07407333333333" width="35" height="8.888888799999998" fill="black" />
<rect x="355" y="84.07407333333333" width="35" height="8.888888799999998" fill="black" />
<rect x="410" y="84.07407333333333" width="35" height="8.888888799999998" fill="black" />
<rect x="455" y="84.07407333333333" width="35" height="8.888888799999998" fill="black" />
<rect x="510" y="84.07407333333333" width="35" height="8.888888799999998" fill="black" />
<rect x="555" y="84.07407333333333" width="35" height="8.888888799999998" fill="black" />
<rect x="610" y="84.07407333333333" width="35" height="8.888888799999998" fill="black" />
<rect x="655" y="84.07407333333333" width="35" height="8.888888799999998" fill="black" />
<rect x="710" y="84.07407333333333" width="35" height="8.888888799999998" fill="black" />
<rect x="755" y="84.07407333333333" width="35" height="8.888888799999998" fill="black" />
<rect x="810" y="84.07407333333333" width="35" height="8.888888799999998" fill="black" />
<rect x="855" y="84.07407333333333" width="35" height="8.888888799999998" fill="black" />
<rect x="910" y="84.07407333333333" width="35" height="8.888888799999998" fill="black" />
<rect x="955" y="84.07407333333333" width="35" height="8.888888799999998" fill="black" />
<rect x="1010" y="84.07407333333333" width="35" height="8.888888799999998" fill="black" />
<rect x="1055" y="84.07407333333333" width="35" height="8.888888799999998" fill="black" />
<rect x="1110" y="84.07407333333333" width="35" height="8.888888799999998" fill="black" />
<rect x="1155" y="84.07407333333333" width="35" height="8.888888799999998" fill="black" />
<rect x="1210" y="84.07407333333333" width="35" height="8.888888799999998" fill="black" />
<rect x="1255" y="84.07407333333333" width="35" height="8.888888799999998" fill="black" />
<rect x="1310" y="84.07407333333333" width="35" height="8.888888799999998" fill="black" />
<rect x="1355" y="84.07407333333333" width="35" height="8.888888799999998" fill="black" />
<rect x="1410" y="84.07407333333333" width="35" height="8.888888799999998" fill="black" />
<rect x="1455" y="84.07407333333333" width="35" height="8.888888799999998" fill="black" />
<rect x="1510" y="84.07407333333333" width="35" height="8.888888799999998" fill="black" />
<rect x="1555" y="84.07407333333333" width="35" height="8.888888799999998" fill="black" />
<rect x="1610" y="84.07407333333333" width="35" height="8.888888799999998" fill="black" />
<rect x="1655" y="84.07407333333333" width="35" height="8.888888799999998" fill="black" />
<rect x="1710" y="84.07407333333333" width="35" height="8.888888799999998" fill="black" />
<rect x="1755" y="84.07407333333333" width="35" height="8.888888799999998" fill="black" />
<rect x="1810" y="84.07407333333333" width="35" height="8.888888799999998" fill="black" />
<rect x="1855" y="84.07407333333333" width="35" height="8.888888799999998" fill="black" />
<rect x="1910" y="84.07407333333333" width="35" height="8.888888799999998" fill="black" />
<rect x="1955" y="84.07407333333333" width="35" height="8.888888799999998" fill="black" />
<rect x="2010" y="84.07407333333333" width="35" height="8.888888799999998" fill="black" />
<rect x="2055" y="84.07407333333333" width="35" height="8.888888799999998" fill="black" />
<rect x="2110" y="84.07407333333333" width="35" height="8.888888799999998" fill="black" />
<rect x="2155" y="84.07407333333333" width="35" height="8.888888799999998" fill="black" />
<rect x="2210" y="84.07407333333333" width="35" height="8.888888799999998" fill="black" />
<rect x="2255" y="84.07407333333333" width="35" height="8.888888799999998" fill="black" />
<rect x="2310" y="84.07407333333333" width="35" height="8.888888799999998" fill="black" />
<rect x="2355" y="84.07407333333333" width="35" height="8.888888799999998" fill="black" />
<rect x="2410" y="84.07407333333333" width="35" height="8.888888799999998" fill="black" />
<rect x="2455" y="84.07407333333333" width="35" height="8.888888799999998" fill="black" />
<rect x="2510" y="84.07407333333333" width="35" height="8.888888799999998" fill="black" />
<rect x="2555" y="84.07407333333333" width="35" height="8.888888799999998" fill="black" />
<rect x="2610" y="84.07407333333333" width="35" height="8.888888799999998" fill="black" />
<rect x="2655" y="84.07407333333333" width="35" height="8.888888799999998" fill="black" />
<rect x="2710" y="84.07407333333333" width="35" height="8.888888799999998" fill="black" />
<rect x="2755" y="84.07407333333333" width="35" height="8.888888799999998" fill="black" />
<rect x="2810" y="84.07407333333333" width="35" height="8.888888799999998" fill="black" />
<rect x="2855" y="84.07407333333333" width="35" height="8.888888799999998" fill="black" />
<rect x="2910" y="84.07407333333333" width="35" height="8.888888799999998" fill="black" />
<rect x="2955" y="84.07407333333333" width="35" height="8.888888799999998" fill="black" />
<rect x="3010" y="84.07407333333333" width="35" height="8.888888799999998" fill="black" />
<rect x="3055" y="84.07407333333333" width="35" height="8.888888799999998" fill="black" />
<rect x="3110" y="84.07407333333333" width="35" height="8.888888799999998" fill="black" />
<rect x="3155" y="84.07407333333333" width="35" height="8.888888799999998" fill="black" />
<rect x="10" y="113.70370266666666" width="35" height="8.888888799999998" fill="black" />
<rect x="55" y="113.70370266666666" width="35" height="8.888888799999998" fill="black" />
<rect x="110" y="113.70370266666666" width="80" height="8.888888799999998" fill="black" />
<rect x="210" y="113.70370266666666" width="35" height="8.888888799999998" fill="black" />
<rect x="255" y="113.70370266666666" width="35" height="8.888888799999998" fill="black" />
<rect x="310" y="113.70370266666666" width="80" height="8.888888799999998" fill="black" />
<rect x="410" y="113.70370266666666" width="35" height="8.888888799999998" fill="black" />
<rect x="455" y="113.70370266666666" width="35" height="8.888888799999998" fill="black" />
<rect x="510" y="113.70370266666666" width="80" height="8.888888799999998" fill="black" />
<rect x="610" y="113.70370266666666" width="35" height="8.888888799999998" fill="black" />
<rect x="655" y="113.70370266666666" width="35" height="8.888888799999998" fill="black" />
<rect x="710" y="113.70370266666666" width="80" height="8.888888799999998" fill="black" />
<rect x="810" y="113.70370266666666" width="35" height="8.888888799999998" fill="black" />
<rect x="855" y="113.70370266666666" width="35" height="8.888888799999998" fill="black" />
<rect x="910" y="113.70370266666666" width="80" height="8.888888799999998" fill="black" />
<rect x="1010" y="113.70370266666666" width="35" height="8.888888799999998" fill="black" />
<rect x="1055" y="113.70370266666666" width="35" height="8.888888799999998" fill="black" />
<rect x="1110" y="113.70370266666666" width="80" height="8.888888799999998" fill="black" />
<rect x="1210" y="113.70370266666666" width="35" height="8.888888799999998" fill="black" />
<rect x="1255" y="113.70370266666666" width="35" height="8.888888799999998" fill="black" />
<rect x="1310" y="113.70370266666666" width="80" height="8.888888799999998" fill="black" />
<rect x="1410" y="113.70370266666666" width="35" height="8.888888799999998" fill="black" />
<rect x="1455" y="113.70370266666666" width="35" height="8.888888799999998" fill="black" />
<rect x="1510" y="113.70370266666666" width="80" height="8.888888799999998" fill="black" />
<rect x="1610" y="113.70370266666666" width="35" height="8.888888799999998" fill="black" />
<rect x="1655" y="113.70370266666666" width="35" height="8.888888799999998" fill="black" />
<rect x="1710" y="113.70370266666666" width="80" height="8.888888799999998" fill="black" />
<rect x="1810" y="113.70370266666666" width="35" height="8.888888799999998" fill="black" />
<rect x="1855" y="113.70370266666666" width="35" height="8.888888799999998" fill="black" />
<rect x="1910" y="113.70370266666666" width="80" height="8.888888799999998" fill="black" />
<rect x="2010" y="113.70370266666666" width="35" height="8.888888799999998" fill="black" />
<rect x="2055" y="113.70370266666666" width="35" height="8.888888799999998" fill="black" />
<rect x="2110" y="113.70370266666666" width="80" height="8.888888799999998" fill="black" />
<rect x="2210" y="113.70370266666666" width="35" height="8.888888799999998" fill="black" />
<rect x="2255" y="113.70370266666666" width="35" height="8.888888799999998" fill="black" />
<rect x="2310" y="113.70370266666666" width="80" height="8.888888799999998" fill="black" />
<rect x="2410" y="113.70370266666666" width="35" height="8.888888799999998" fill="black" />
<rect x="2455" y="113.70370266666666" width="35" height="8.888888799999998" fill="black" />
<rect x="2510" y="113.70370266666666" width="80" height="8.888888799999998" fill="black" />
<rect x="2610" y="113.70370266666666" width="35" height="8.888888799999998" fill="black" />
<rect x="2655" y="113.70370266666666" width="35" height="8.888888799999998" fill="black" />
<rect x="2710" y="113.70370266666666" width="80" height="8.888888799999998" fill="black" />
<rect x="2810" y="113.70370266666666" width="35" height="8.888888799999998" fill="black" />
<rect x="2855" y="113.70370266666666" width="35" height="8.888888799999998" fill="black" />
<rect x="2910" y="113.70370266666666" width="80" height="8.888888799999998" fill="black" />
<rect x="3010" y="113.70370266666666" width="35" height="8.888888799999998" fill="black" />
<rect x="3055" y="113.70370266666666" width="35" height="8.888888799999998" fill="black" />
<rect x="3110" y="113.70370266666666" width="80" height="8.888888799999998" fill="black" />
<rect x="10" y="128.5185173333333" width="35" height="8.888888799999998" fill="black" />
<rect x="55" y="128.5185173333333" width="35" height="8.888888799999998" fill="black" />
<rect x="110" y="128.5185173333333" width="35" height="8.888888799999998" fill="black" />
<rect x="155" y="128.5185173333333" width="35" height="8.888888799999998" fill="black" />
<rect x="210" y="128.5185173333333" width="80" height="8.888888799999998" fill="black" />
<rect x="310" y="128.5185173333333" width="80" height="8.888888799999998" fill="black" />
<rect x="410" y="128.5185173333333" width="35" height="8.888888799999998" fill="black" />
<rect x="455" y="128.5185173333333" width="35" height="8.888888799999998" fill="black" />
<rect x="510" y="128.5185173333333" width="35" height="8.888888799999998" fill="black" />
<rect x="555" y="128.5185173333333" width="35" height="8.888888799999998" fill="black" />
<rect x="610" y="128.5185173333333" width="80" height="8.888888799999998" fill="black" />
<rect x="710" y="128.5185173333333" width="80" height="8.888888799999998" fill="black" />
<rect x="810" y="128.5185173333333" width="35" height="8.888888799999998" fill="black" />
<rect x="855" y="128.5185173333333" width="35" height="8.888888799999998" fill="black" />
<rect x="910" y="128.5185173333333" width="35" height="8.888888799999998" fill="black" />
<rect x="955" y="128.5185173333333" width="35" height="8.888888799999998" fill="black" />
<rect x="1010" y="128.5185173333333" width="80" height="8.888888799999998" fill="black" />
<rect x="1110" y="128.5185173333333" width="80" height="8.888888799999998" fill="black" />
<rect x="1210" y="128.5185173333333" width="35" height="8.888888799999998" fill="black" />
<rect x="1255" y="128.5185173333333" width="35" height="8.888888799999998" fill="black" />
<rect x="1310" y="128.5185173333333" width="35" height="8.888888799999998" fill="black" />
<rect x="1355" y="128.5185173333333" width="35" height="8.888888799999998" fill="black" />
<rect x="1410" y="128.5185173333333" width="80" height="8.888888799999998" fill="black" />
<rect x="1510" y="128.5185173333333" width="80" height="8.888888799999998" fill="black" />
<rect x="1610" y="128.5185173333333" width="35" height="8.888888799999998" fill="black" />
<rect x="1655" y="128.5185173333333" width="35" height="8.888888799999998" fill="black" />
<rect x="1710" y="128.5185173333333" width="35" height="8.888888799999998" fill="black" />
<rect x="1755" y="128.5185173333333" width="35" height="8.888888799999998" fill="black" />
<rect x="1810" y="128.5185173333333" width="80" height="8.888888799999998" fill="black" />
<rect x="1910" y="128.5185173333333" width="80" height="8.888888799999998" fill="black" />
<rect x="2010" y="128.5185173333333" width="35" height="8.888888799999998" fill="black" />
<rect x="2055" y="128.5185173333333" width="35" height="8.888888799999998" fill="black" />
<rect x="2110" y="128.5185173333333" width="35" height="8.888888799999998" fill="black" />
<rect x="2155" y="128.5185173333333" width="35" height="8.888888799999998" fill="black" />
<rect x="2210" y="128.5185173333333" width="80" height="8.888888799999998" fill="black" />
<rect x="2310" y="128.5185173333333" width="80" height="8.888888799999998" fill="black" />
<rect x="2410" y="128.5185173333333" width="35" height="8.888888799999998" fill="black" />
<rect x="2455" y="128.5185173333333" width="35" height="8.888888799999998" fill="black" />
<rect x="2510" y="128.5185173333333" width="35" height="8.888888799999998" fill="black" />
<rect x="2555" y="128.5185173333333" width="35" height="8.888888799999998" fill="black" />
<rect x="2610" y="128.5185173333333" width="80" height="8.888888799999998" fill="black" />
<rect x="2710" y="128.5185173333333" width="80" height="8.888888799999998" fill="black" />
<rect x="2810" y="128.5185173333333" width="35" height="8.888888799999998" fill="black" />
<rect x="2855" y="128.5185173333333" width="35" height="8.888888799999998" fill="black" />
<rect x="2910" y="128.5185173333333" width="35" height="8.888888799999998" fill="black" />
<rect x="2955" y="128.5185173333333" width="35" height="8.888888799999998" fill="black" />
<rect x="3010" y="128.5185173333333" width="80" height="8.888888799999998" fill="black" />
<rect x="3110" y="128.5185173333333" width="80" height="8.888888799999998" fill="black" />
<rect x="10" y="143.33333199999998" width="35" height="8.888888799999998" fill="black" />
<rect x="55" y="143.33333199999998" width="35" height="8.888888799999998" fill="black" />
<rect x="110" y="143.33333199999998" width="35" height="8.888888799999998" fill="black" />
<rect x="155" y="143.33333199999998" width="35" height="8.888888799999998" fill="black" />
<rect x="210" y="143.33333199999998" width="35" height="8.888888799999998" fill="black" />
<rect x="255" y="143.33333199999998" width="35" height="8.888888799999998" fill="black" />
<rect x="310" y="143.33333199999998" width="35" height="8.888888799999998" fill="black" />
<rect x="355" y="143.33333199999998" width="35" height="8.888888799999998" fill="black" />
<rect x="410" y="143.33333199999998" width="80" height="8.888888799999998" fill="black" />
<rect x="510" y="143.33333199999998" width="80" height="8.888888799999998" fill="black" />
<rect x="610" y="143.33333199999998" width="80" height="8.888888799999998" fill="black" />
<rect x="710" y="143.33333199999998" width="80" height="8.888888799999998" fill="black" />
<rect x="810" y="143.33333199999998" width="35" height="8.888888799999998" fill="black" />
<rect x="855" y="143.33333199999998" width="35" height="8.888888799999998" fill="black" />
<rect x="910" y="143.33333199999998" width="35" height="8.888888799999998" fill="black" />
<rect x="955" y="143.33333199999998" width="35" height="8.888888799999998" fill="black" />
<rect x="1010" y="143.33333199999998" width="35" height="8.888888799999998" fill="black" />
<rect x="1055" y="143.33333199999998" width="35" height="8.888888799999998" fill="black" />
<rect x="1110" y="143.33333199999998" width="35" height="8.888888799999998" fill="black" />
<rect x="1155" y="143.33333199999998" width="35" height="8.888888799999998" fill="black" />
<rect x="1210" y="143.33333199999998" width="80" height="8.888888799999998" fill="black" />
<rect x="1310" y="143.33333199999998" width="80" height="8.888888799999998" fill="black" />
<rect x="1410" y="143.33333199999998" width="80" height="8.888888799999998" fill="black" />
<rect x="1510" y="143.33333199999998" width="80" height="8.888888799999998" fill="black" />
<rect x="1610" y="143.33333199999998" width="35" height="8.888888799999998" fill="black" />
<rect x="1655" y="143.33333199999998" width="35" height="8.888888799999998" fill="black" />
<rect x="1710" y="143.33333199999998" width="35" height="8.888888799999998" fill="black" />
<rect x="1755" y="143.33333199999998" width="35" height="8.888888799999998" fill="black" />
<rect x="1810" y="143.33333199999998" width="35" height="8.888888799999998" fill="black" />
<rect x="1855" y="143.33333199999998" width="35" height="8.888888799999998" fill="black" />
<rect x="1910" y="143.33333199999998" width="35" height="8.888888799999998" fill="black" />
<rect x="1955" y="143.33333199999998" width="35" height="8.888888799999998" fill="black" />
<rect x="2010" y="143.33333199999998" width="80" height="8.888888799999998" fill="black" />
<rect x="2110" y="143.33333199999998" width="80" height="8.888888799999998" fill="black" />
<rect x="2210" y="143.33333199999998" width="80" height="8.888888799999998" fill="black" />
<rect x="2310" y="143.33333199999998" width="80" height="8.888888799999998" fill="black" />
<rect x="2410" y="143.33333199999998" width="35" height="8.888888799999998" fill="black" />
<rect x="2455" y="143.33333199999998" width="35" height="8.888888799999998" fill="black" />
<rect x="2510" y="143.33333199999998" width="35" height="8.888888799999998" fill="black" />
<rect x="2555" y="143.33333199999998" width="35" height="8.888888799999998" fill="black" />
<rect x="2610" y="143.33333199999998" width="35" height="8.888888799999998" fill="black" />
<rect x="2655" y="143.33333199999998" width="35" height="8.888888799999998" fill="black" />
<rect x="2710" y="143.33333199999998" width="35" height="8.888888799999998" fill="black" />
<rect x="2755" y="143.33333199999998" width="35" height="8.888888799999998" fill="black" />
<rect x="2810" y="143.33333199999998" width="80" height="8.888888799999998" fill="black" />
<rect x="2910" y="143.33333199999998" width="80" height="8.888888799999998" fill="black" />
<rect x="3010" y="143.33333199999998" width="80" height="8.888888799999998" fill="black" />
<rect x="3110" y="143.33333199999998" width="80" height="8.888888799999998" fill="black" />
<rect x="10" y="158.14814666666666" width="35" height="8.888888799999998" fill="black" />
<rect x="55" y="158.14814666666666" width="35" height="8.888888799999998" fill="black" />
<rect x="110" y="158.14814666666666" width="35" height="8.888888799999998" fill="black" />
<rect x="155" y="158.14814666666666" width="35" height="8.888888799999998" fill="black" />
<rect x="210" y="158.14814666666666" width="35" height="8.888888799999998" fill="black" />
<rect x="255" y="158.14814666666666" width="35" height="8.888888799999998" fill="black" />
<rect x="310" y="158.14814666666666" width="35" height="8.888888799999998" fill="black" />
<rect x="355" y="158.14814666666666" width="35" height="8.888888799999998" fill="black" />
<rect x="410" y="158.14814666666666" width="35" height="8.888888799999998" fill="black" />
<rect x="455" y="158.14814666666666" width="35" height="8.888888799999998" fill="black" />
<rect x="510" y="158.14814666666666" width="35" height="8.888888799999998" fill="black" />
<rect x="555" y="158.14814666666666" width="35" height="8.888888799999998" fill="black" />
<rect x="610" y="158.14814666666666" width="35" height="8.888888799999998" fill="black" />
<rect x="655" y="158.14814666666666" width="35" height="8.888888799999998" fill="black" />
<rect x="710" y="158.14814666666666" width="35" height="8.888888799999998" fill="black" />
<rect x="755" y="158.14814666666666" width="35" height="8.888888799999998" fill="black" />
<rect x="810" y="158.14814666666666" width="80" height="8.888888799999998" fill="black" />
<rect x="910" y="158.14814666666666" width="80" height="8.888888799999998" fill="black" />
<rect x="1010" y="158.14814666666666" width="80" height="8.888888799999998" fill="black" />
<rect x="1110" y="158.14814666666666" width="80" height="8.888888799999998" fill="black" />
<rect x="1210" y="158.14814666666666" width="80" height="8.888888799999998" fill="black" />
<rect x="1310" y="158.14814666666666" width="80" height="8.888888799999998" fill="black" />
<rect x="1410" y="158.14814666666666" width="80" height="8.888888799999998" fill="black" />
<rect x="1510" y="158.14814666666666" width="80" height="8.888888799999998" fill="black" />
<rect x="1610" y="158.14814666666666" width="35" height="8.888888799999998" fill="black" />
<rect x="1655" y="158.14814666666666" width="35" height="8.888888799999998" fill="black" />
<rect x="1710" y="158.14814666666666" width="35" height="8.888888799999998" fill="black" />
<rect x="1755" y="158.14814666666666" width="35" height="8.888888799999998" fill="black" />
<rect x="1810" y="158.14814666666666" width="35" height="8.888888799999998" fill="black" />
<rect x="1855" y="158.14814666666666" width="35" height="8.888888799999998" fill="black" />
<rect x="1910" y="158.14814666666666" width="35" height="8.888888799999998" fill="black" />
<rect x="1955" y="158.14814666666666" width="35" height="8.888888799999998" fill="black" />
<rect x="2010" y="158.14814666666666" width="35" height="8.888888799999998" fill="black" />
<rect x="2055" y="158.14814666666666" width="35" height="8.888888799999998" fill="black" />
<rect x="2110" y="158.14814666666666" width="35" height="8.888888799999998" fill="black" />
<rect x="2155" y="158.14814666666666" width="35" height="8.888888799999998" fill="black" />
<rect x="2210" y="158.14814666666666" width="35" height="8.888888799999998" fill="black" />
<rect x="2255" y="158.14814666666666" width="35" height="8.888888799999998" fill="black" />
<rect x="2310" y="158.14814666666666" width="35" height="8.888888799999998" fill="black" />
<rect x="2355" y="158.14814666666666" width="35" height="8.888888799999998" fill="black" />
<rect x="2410" y="158.14814666666666" width="80" height="8.888888799999998" fill="black" />
<rect x="2510" y="158.14814666666666" width="80" height="8.888888799999998" fill="black" />
<rect x="2610" y="158.14814666666666" width="80" height="8.888888799999998" fill="black" />
<rect x="2710" y="158.14814666666666" width="80" height="8.888888799999998" fill="black" />
<rect x="2810" y="158.14814666666666" width="80" height="8.888888799999998" fill="black" />
<rect x="2910" y="158.14814666666666" width="80" height="8.888888799999998" fill="black" />
<rect x="3010" y="158.14814666666666" width="80" height="8.888888799999998" fill="black" />
<rect x="3110" y="158.14814666666666" width="80" height="8.888888799999998" fill="black" />
<rect x="10" y="172.9629613333333" width="35" height="8.888888799999998" fill="black" />
<rect x="55" y="172.9629613333333" width="35" height="8.888888799999998" fill="black" />
<rect x="110" y="172.9629613333333" width="35" height="8.888888799999998" fill="black" />
<rect x="155" y="172.9629613333333" width="35" height="8.888888799999998" fill="black" />
<rect x="210" y="172.9629613333333" width="35" height="8.888888799999998" fill="black" />
<rect x="255" y="172.9629613333333" width="35" height="8.888888799999998" fill="black" />
<rect x="310" y="172.9629613333333" width="35" height="8.888888799999998" fill="black" />
<rect x="355" y="172.9629613333333" width="35" height="8.888888799999998" fill="black" />
<rect x="410" y="172.9629613333333" width="35" height="8.888888799999998" fill="black" />
<rect x="455" y="172.9629613333333" width="35" height="8.888888799999998" fill="black" />
<rect x="510" y="172.9629613333333" width="35" height="8.888888799999998" fill="black" />
<rect x="555" y="172.9629613333333" width="35" height="8.888888799999998" fill="black" />
<rect x="610" y="172.9629613333333" width="35" height="8.888888799999998" fill="black" />
<rect x="655" y="172.9629613333333" width="35" height="8.888888799999998" fill="black" />
<rect x="710" y="172.9629613333333" width="35" height="8.888888799999998" fill="black" />
<rect x="755" y="172.9629613333333" width="35" height="8.888888799999998" fill="black" />
<rect x="810" y="172.9629613333333" width="35" height="8.888888799999998" fill="black" />
<rect x="855" y="172.9629613333333" width="35" height="8.888888799999998" fill="black" />
<rect x="910" y="172.9629613333333" width="35" height="8.888888799999998" fill="black" />
<rect x="955" y="172.9629613333333" width="35" height="8.888888799999998" fill="black" />
<rect x="1010" y="172.9629613333333" width="35" height="8.888888799999998" fill="black" />
<rect x="1055" y="172.9629613333333" width="35" height="8.888888799999998" fill="black" />
<rect x="1110" y="172.9629613333333" width="35" height="8.888888799999998" fill="black" />
<rect x="1155" y="172.9629613333333" width="35" height="8.888888799999998" fill="black" />
<rect x="1210" y="172.9629613333333" width="35" height="8.888888799999998" fill="black" />
<rect x="1255" y="172.9629613333333" width="35" height="8.888888799999998" fill="black" />
<rect x="1310" y="172.9629613333333" width="35" height="8.888888799999998" fill="black" />
<rect x="1355" y="172.9629613333333" width="35" height="8.888888799999998" fill="black" />
<rect x="1410" y="172.9629613333333" width="35" height="8.888888799999998" fill="black" />
<rect x="1455" y="172.9629613333333" width="35" height="8.888888799999998" fill="black" />
<rect x="1510" y="172.9629613333333" width="35" height="8.888888799999998" fill="black" />
<rect x="1555" y="172.9629613333333" width="35" height="8.888888799999998" fill="black" />
<rect x="1610" y="172.9629613333333" width="80" height="8.888888799999998" fill="black" />
<rect x="1710" y="172.9629613333333" width="80" height="8.888888799999998" fill="black" />
<rect x="1810" y="172.9629613333333" width="80" height="8.888888799999998" fill="black" />
<rect x="1910" y="172.9629613333333" width="80" height="8.888888799999998" fill="black" />
<rect x="2010" y="172.9629613333333" width="80" height="8.888888799999998" fill="black" />
<rect x="2110" y="172.9629613333333" width="80" height="8.888888799999998" fill="black" />
<rect x="2210" y="172.9629613333333" width="80" height="8.888888799999998" fill="black" />
<rect x="2310" y="172.9629613333333" width="80" height="8.888888799999998" fill="black" />
<rect x="2410" y="172.9629613333333" width="80" height="8.888888799999998" fill="black" />
<rect x="2510" y="172.9629613333333" width="80" height="8.888888799999998" fill="black" />
<rect x="2610" y="172.9629613333333" width="80" height="8.888888799999998" fill="black" />
<rect x="2710" y="172.9629613333333" width="80" height="8.888888799999998" fill="black" />
<rect x="2810" y="172.9629613333333" width="80" height="8.888888799999998" fill="black" />
<rect x="2910" y="172.9629613333333" width="80" height="8.888888799999998" fill="black" />
<rect x="3010" y="172.9629613333333" width="80" height="8.888888799999998" fill="black" />
<rect x="3110" y="172.9629613333333" width="80" height="8.888888799999998" fill="black" />
<rect x="10" y="187.777776" width="35" height="8.888888799999998" fill="black" />
<rect x="55" y="187.777776" width="35" height="8.888888799999998" fill="black" />
<rect x="110" y="187.777776" width="35" height="8.888888799999998" fill="black" />
<rect x="155" y="187.777776" width="35" height="8.888888799999998" fill="black" />
<rect x="210" y="187.777776" width="35" height="8.888888799999998" fill="black" />
<rect x="255" y="187.777776" width="35" height="8.888888799999998" fill="black" />
<rect x="310" y="187.777776" width="35" height="8.888888799999998" fill="black" />
<rect x="355" y="187.777776" width="35" height="8.888888799999998" fill="black" />
<rect x="410" y="187.777776" width="35" height="8.888888799999998" fill="black" />
<rect x="455" y="187.777776" width="35" height="8.888888799999998" fill="black" />
<rect x="510" y="187.777776" width="35" height="8.888888799999998" fill="black" />
<rect x="555" y="187.777776" width="35" height="8.888888799999998" fill="black" />
<rect x="610" y="187.777776" width="35" height="8.888888799999998" fill="black" />
<rect x="655" y="187.777776" width="35" height="8.888888799999998" fill="black" />
<rect x="710" y="187.777776" width="35" height="8.888888799999998" fill="black" />
<rect x="755" y="187.777776" width="35" height="8.888888799999998" fill="black" />
<rect x="810" y="187.777776" width="35" height="8.888888799999998" fill="black" />
<rect x="855" y="187.777776" width="35" height="8.888888799999998" fill="black" />
<rect x="910" y="187.777776" width="35" height="8.888888799999998" fill="black" />
<rect x="955" y="187.777776" width="35" height="8.888888799999998" fill="black" />
<rect x="1010" y="187.777776" width="35" height="8.888888799999998" fill="black" />
<rect x="1055" y="187.777776" width="35" height="8.888888799999998" fill="black" />
<rect x="1110" y="187.777776" width="35" height="8.888888799999998" fill="black" />
<rect x="1155" y="187.777776" width="35" height="8.888888799999998" fill="black" />
<rect x="1210" y="187.777776" width="35" height="8.888888799999998" fill="black" />
<rect x="1255" y="187.777776" width="35" height="8.888888799999998" fill="black" />
<rect x="1310" y="187.777776" width="35" height="8.888888799999998" fill="black" />
<rect x="1355" y="187.777776" width="35" height="8.888888799999998" fill="black" />
<rect x="1410" y="187.777776" width="35" height="8.888888799999998" fill="black" />
<rect x="1455" y="187.777776" width="35" height="8.888888799999998" fill="black" />
<rect x="1510" y="187.777776" width="35" height="8.888888799999998" fill="black" />
<rect x="1555" y="187.777776" width="35" height="8.888888799999998" fill="black" />
<rect x="1610" y="187.777776" width="35" height="8.888888799999998" fill="black" />
<rect x="1655" y="187.777776" width="35" height="8.888888799999998" fill="black" />
<rect x="1710" y="187.777776" width="35" height="8.888888799999998" fill="black" />
<rect x="1755" y="187.777776" width="35" height="8.888888799999998" fill="black" />
<rect x="1810" y="187.777776" width="35" height="8.888888799999998" fill="black" />
<rect x="1855" y="187.777776" width="35" height="8.888888799999998" fill="black" />
<rect x="1910" y="187.777776" width="35" height="8.888888799999998" fill="black" />
<rect x="1955" y="187.777776" width="35" height="8.888888799999998" fill="black" />
<rect x="2010" y="187.777776" width="35" height="8.888888799999998" fill="black" />
<rect x="2055" y="187.777776" width="35" height="8.888888799999998" fill="black" />
<rect x="2110" y="187.777776" width="35" height="8.888888799999998" fill="black" />
<rect x="2155" y="187.777776" width="35" height="8.888888799999998" fill="black" />
<rect x="2210" y="187.777776" width="35" height="8.888888799999998" fill="black" />
<rect x="2255" y="187.777776" width="35" height="8.888888799999998" fill="black" />
<rect x="2310" y="187.777776" width="35" height="8.888888799999998" fill="black" />
<rect x="2355" y="187.777776" width="35" height="8.888888799999998" fill="black" />
<rect x="2410" y="187.777776" width="35" height="8.888888799999998" fill="black" />
<rect x="2455" y="187.777776" width="35" height="8.888888799999998" fill="black" />
<rect x="2510" y="187.777776" width="35" height="8.888888799999998" fill="black" />
<rect x="2555" y="187.777776" width="35" height="8.888888799999998" fill="black" />
<rect x="2610" y="187.777776" width="35" height="8.888888799999998" fill="black" />
<rect x="2655" y="187.777776" width="35" height="8.888888799999998" fill="black" />
<rect x="2710" y="187.777776" width="35" height="8.888888799999998" fill="black" />
<rect x="2755" y="187.777776" width="35" height="8.888888799999998" fill="black" />
<rect x="2810" y="187.777776" width="35" height="8.888888799999998" fill="black" />
<rect x="2855" y="187.777776" width="35" height="8.888888799999998" fill="black" />
<rect x="2910" y="187.777776" width="35" height="8.888888799999998" fill="black" />
<rect x="2955" y="187.777776" width="35" height="8.888888799999998" fill="black" />
<rect x="3010" y="187.777776" width="35" height="8.888888799999998" fill="black" />
<rect x="3055" y="187.777776" width="35" height="8.888888799999998" fill="black" />
<rect x="3110" y="187.777776" width="35" height="8.888888799999998" fill="black" />
<rect x="3155" y="187.777776" width="35" height="8.888888799999998" fill="black" />
</svg>